<svg width="160" height="183" viewBox="0 0 160 183" fill="none" xmlns="http://www.w3.org/2000/svg">
<path d="M20.836 140.4L15.2 140.52C13.304 140.552 11.392 140.584 9.48005 140.584H9.30005V140.4V135.924V135.724H9.50005L15.172 135.748C17.064 135.748 18.956 135.796 20.844 135.816H20.956V135.92L20.836 140.4ZM20.836 140.4L20.732 135.924L20.836 136.032C18.948 136.052 17.0561 136.096 15.1641 136.1L9.49205 136.124L9.69205 135.924V140.4L9.51205 140.224C11.38 140.224 13.252 140.256 15.136 140.288L20.836 140.4Z" fill="#EBEBEB"/>
<path d="M14.5081 146.048L8.88011 146.164C6.98811 146.196 5.07611 146.228 3.16011 146.228H2.98411V146.048L2.96411 141.572V141.372H3.16411L8.84011 141.396C10.7321 141.396 12.6201 141.444 14.5121 141.464H14.6201V141.568L14.5081 146.048ZM14.5081 146.048L14.4001 141.572L14.5041 141.68C12.6121 141.7 10.7241 141.744 8.83211 141.748L3.15611 141.772L3.35611 141.572V146.048L3.17611 145.872C5.04811 145.872 6.91611 145.904 8.80411 145.936L14.5081 146.048Z" fill="#EBEBEB"/>
<path d="M114.292 110.08L108.668 110.192C106.772 110.224 104.86 110.256 102.948 110.26H102.768V110.08L102.748 105.6V105.4H102.952L108.624 105.424C110.516 105.424 112.404 105.472 114.296 105.492H114.4V105.6L114.292 110.08ZM114.292 110.08L114.188 105.6L114.292 105.704C112.4 105.728 110.512 105.768 108.62 105.772L102.948 105.8L103.144 105.6L103.124 110.076L102.948 109.896C104.816 109.896 106.684 109.932 108.572 109.964L114.292 110.08Z" fill="#EBEBEB"/>
<path d="M101.504 110.08L95.876 110.192C93.984 110.224 92.0721 110.256 90.1561 110.26H90V110.08L89.9561 105.6V105.4H90.1561L95.832 105.424C97.724 105.424 99.612 105.472 101.504 105.492H101.6V105.6L101.504 110.08ZM101.504 110.08L101.4 105.6L101.504 105.704C99.612 105.728 97.724 105.768 95.832 105.772L90.1561 105.8L90.3561 105.6L90.336 110.076L90.1561 109.896C92.0281 109.896 93.896 109.932 95.784 109.964L101.504 110.08Z" fill="#EBEBEB"/>
<path d="M107.912 115.724L102.284 115.836C100.388 115.868 98.4801 115.9 96.5641 115.904H96.4001V115.724V111.248V111.048H96.6001L102.276 111.072C104.164 111.072 106.056 111.12 107.948 111.14H108.056V111.244L107.912 115.724ZM107.912 115.724L107.804 111.248L107.912 111.352C106.02 111.376 104.128 111.416 102.24 111.42L96.5641 111.448L96.7641 111.248L96.7441 115.724L96.5641 115.544C98.4361 115.544 100.304 115.58 102.192 115.612L107.912 115.724Z" fill="#EBEBEB"/>
<path d="M152.84 146.048L147.212 146.164C145.316 146.196 143.404 146.228 141.492 146.228H141.312V146.048V141.572V141.372H141.512L147.184 141.396C149.076 141.396 150.968 141.444 152.86 141.464H152.968V141.568L152.84 146.048ZM152.84 146.048L152.732 141.572L152.84 141.68C150.948 141.7 149.056 141.744 147.164 141.748L141.492 141.772L141.692 141.572L141.672 146.048L141.492 145.872C143.36 145.872 145.232 145.904 147.12 145.936L152.84 146.048Z" fill="#EBEBEB"/>
<path d="M146.508 32.5159L140.884 32.6279C138.988 32.6599 137.076 32.6919 135.164 32.6919H134.984V32.5119V28.0399V27.8359H135.188L140.86 27.8599C142.752 27.8599 144.64 27.9079 146.532 27.9279H146.64V28.0359L146.508 32.5159ZM146.508 32.5159L146.4 28.0399L146.504 28.1439C144.612 28.1439 142.724 28.2079 140.832 28.2119L135.16 28.2359L135.356 28.0399V32.5119L135.18 32.3359C137.048 32.3359 138.916 32.3679 140.804 32.3999L146.508 32.5159Z" fill="#EBEBEB"/>
<path d="M152.84 38.1559L147.2 38.2719C145.304 38.3039 143.392 38.3359 141.48 38.3359H141.3V38.1559V33.6839V33.4799H141.5L147.172 33.5039C149.064 33.5039 150.956 33.5519 152.848 33.5719H152.956V33.6799L152.84 38.1559ZM152.84 38.1559L152.732 33.6839L152.84 33.7879C150.948 33.7879 149.056 33.8519 147.164 33.8559L141.492 33.8799L141.692 33.6839L141.672 38.1559L141.492 37.9799C143.36 37.9799 145.232 38.0119 147.12 38.0439L152.84 38.1559Z" fill="#EBEBEB"/>
<path d="M14.5081 32.5159L8.88011 32.6279C6.98811 32.6599 5.07611 32.6919 3.16011 32.6919H2.98411V32.5119L2.96411 28.0399V27.8359H3.16411L8.84011 27.8599C10.7321 27.8599 12.6201 27.9079 14.5121 27.9279H14.6201V28.0359L14.5081 32.5159ZM14.5081 32.5159L14.4001 28.0399L14.5041 28.1439C12.6121 28.1439 10.7241 28.2079 8.83211 28.2119L3.15611 28.2359L3.35611 28.0399V32.5119L3.17611 32.3359C5.04811 32.3359 6.91611 32.3679 8.80411 32.3999L14.5081 32.5159Z" fill="#EBEBEB"/>
<path d="M72.1641 70.5639L66.5401 70.6759C64.6441 70.7079 62.7321 70.7399 60.8201 70.7439H60.6401V70.5639V66.0879V65.8879H60.8401L66.5121 65.9119C68.4041 65.9119 70.2961 65.9599 72.1841 65.9799H72.2921V66.0839L72.1641 70.5639ZM72.1641 70.5639L72.0601 66.0879L72.1641 66.1919C70.2761 66.2159 68.3841 66.2559 66.4921 66.2599L60.8201 66.2879L61.0201 66.0879L61.0001 70.5639L60.8201 70.3839C62.6881 70.3839 64.5601 70.4159 66.4441 70.4479L72.1641 70.5639Z" fill="#EBEBEB"/>
<path d="M20.3201 -0.00012207H19.92V55.4439H20.3201V-0.00012207Z" fill="#C7C7C7"/>
<path d="M39.5566 74.1799L37.9926 77.6159H2.2446L0.688599 74.1799L15.9046 63.6439H24.3366L39.5566 74.1799Z" fill="#63737A"/>
<path d="M25.392 53.4959L24.336 63.6439H15.904L14.848 53.4959H25.392Z" fill="#63737A"/>
<path d="M39.5521 74.1799L37.9881 77.6159H2.24408L0.684082 74.1799H39.5521Z" fill="#DBDBDB"/>
<path d="M62.0602 -0.00012207H61.6602V33.2679H62.0602V-0.00012207Z" fill="#C7C7C7"/>
<path d="M81.2922 52.0039L79.7322 55.4399H43.9842L42.4282 52.0039L57.6442 41.4679H66.0762L81.2922 52.0039Z" fill="#9BA49E"/>
<path d="M67.1321 31.3199L66.0761 41.4679H57.6441L56.5881 31.3199H67.1321Z" fill="#63737A"/>
<path d="M81.2921 52.0039L79.7281 55.4399H43.9841L42.4241 52.0039H81.2921Z" fill="#DBDBDB"/>
<path d="M155.316 182.052L135.984 182.148L116.656 182.184L78.0001 182.248L39.3441 182.184L20.0121 182.148L0.684082 182.052L20.0121 181.952L39.3441 181.916L78.0001 181.852L116.656 181.916L135.984 181.952L155.316 182.052Z" fill="#263238"/>
<path d="M72.0801 182.048H33.5761C33.2601 180.808 32.9521 179.588 32.6441 178.388C32.2921 177.008 31.9441 175.66 31.6121 174.348C31.5401 174.056 31.4641 173.76 31.3881 173.472C31.1375 172.469 30.8895 171.491 30.6441 170.536L30.2081 168.82C30.0561 168.244 29.9161 167.676 29.7761 167.124C29.7361 166.98 29.7001 166.832 29.6641 166.692L29.5441 166.216L29.4001 165.648C29.3441 165.448 29.2961 165.248 29.2481 165.056C29.1481 164.684 29.0561 164.32 28.9681 163.964C28.8321 163.436 28.7001 162.92 28.5681 162.416C28.5121 162.196 28.4521 161.976 28.4001 161.764C28.3095 161.412 28.2215 161.068 28.1361 160.732C28.0801 160.508 28.0241 160.288 27.9721 160.072C27.7401 159.192 27.5321 158.36 27.3361 157.584L27.1801 156.984C27.0961 156.648 27.0161 156.328 26.9361 156.016C26.8841 155.82 26.8321 155.616 26.7881 155.444C26.6201 154.78 26.4641 154.176 26.3321 153.644C26.2921 153.5 26.2561 153.364 26.2241 153.244C26.1361 152.892 26.0521 152.58 25.9841 152.304C25.9561 152.192 25.9321 152.084 25.9001 151.984C25.8681 151.884 25.8481 151.772 25.8241 151.68C25.8001 151.588 25.7881 151.54 25.7761 151.484C25.7641 151.428 25.7281 151.296 25.7081 151.22C25.6881 151.144 25.6881 151.136 25.6761 151.104C25.6201 150.872 25.5881 150.756 25.5881 150.756H63.0681C63.0681 150.756 64.3041 155.012 66.2681 161.872C66.6681 163.268 67.1001 164.776 67.5641 166.376C68.8961 170.932 70.4281 176.268 72.0801 182.048Z" fill="#37474F"/>
<path d="M39.8801 182.048H38.9201C37.4934 176.149 36.1121 170.24 34.7761 164.32C34.4507 162.88 34.1321 161.438 33.8201 159.996C33.7921 159.86 33.7601 159.728 33.7321 159.596C33.7284 159.581 33.7307 159.565 33.7386 159.552C33.7464 159.539 33.7592 159.53 33.7741 159.526C33.7889 159.522 33.8046 159.524 33.8178 159.532C33.8309 159.54 33.8404 159.553 33.8441 159.568C33.8441 159.612 33.8681 159.656 33.8841 159.7C34.3161 161.244 34.7521 162.796 35.1761 164.348C36.7921 170.228 38.3601 176.128 39.8801 182.048Z" fill="#263238"/>
<path d="M61.8601 150.74L60.2081 159.02L58.8521 165.82L56.5441 177.396L56.3041 178.596L55.9041 180.572L55.6081 182.072H33.5681C33.2561 180.828 32.9401 179.608 32.6401 178.412C32.2881 177.032 31.9401 175.684 31.6081 174.372C31.5361 174.08 31.4601 173.784 31.3841 173.496C31.1334 172.493 30.8854 171.515 30.6401 170.56L30.2041 168.844C30.0521 168.268 29.9121 167.7 29.7721 167.148C29.7321 167.004 29.6961 166.856 29.6601 166.716L29.5401 166.24L29.3961 165.672C29.3401 165.472 29.2921 165.272 29.2441 165.08C29.1441 164.708 29.0521 164.344 28.9641 163.988C28.8281 163.46 28.6961 162.944 28.5641 162.44C28.5041 162.216 28.4481 162 28.3961 161.788C28.3054 161.436 28.2174 161.092 28.1321 160.756C28.0761 160.532 28.0201 160.312 27.9681 160.096C27.7361 159.216 27.5281 158.384 27.3321 157.608L27.1761 157.008C27.0921 156.672 27.0121 156.352 26.9321 156.04C26.8801 155.844 26.8281 155.64 26.7841 155.468C26.6161 154.804 26.4601 154.2 26.3281 153.668C26.2881 153.524 26.2521 153.388 26.2201 153.268C26.1321 152.916 26.0481 152.604 25.9801 152.328C25.9521 152.216 25.9281 152.108 25.8961 152.008C25.8641 151.908 25.8441 151.796 25.8201 151.704C25.7961 151.612 25.7841 151.564 25.7721 151.508C25.7601 151.452 25.7241 151.32 25.7041 151.244C25.6841 151.168 25.6841 151.16 25.6721 151.128C25.6161 150.896 25.5841 150.78 25.5841 150.78L61.8601 150.74Z" fill="#263238"/>
<path d="M61.8681 150.724C61.8681 150.928 61.7121 153.164 61.3481 156.576C61.2481 157.572 61.1241 158.664 60.9841 159.836C60.7641 161.684 60.4921 163.724 60.1521 165.88C59.5761 169.64 58.8281 173.744 57.8521 177.756C57.5041 179.2 57.1241 180.632 56.7201 182.032H8.32007C8.88807 174.66 9.41207 167.992 9.82807 162.736C10.4281 155.372 10.8001 150.74 10.8001 150.74H54.6841L61.8681 150.724Z" fill="#37474F"/>
<path d="M61.7641 155.172C61.7121 156.904 61.6361 158.632 61.5241 160.352C61.4081 162.22 61.2361 164.084 60.9921 165.952C60.988 166.022 60.98 166.091 60.9681 166.16C60.7414 167.904 60.4747 169.645 60.1681 171.384C59.8881 173.004 59.6841 174.752 58.9681 176.248C58.6971 176.828 58.3121 177.348 57.8361 177.776C57.4003 178.175 56.866 178.451 56.2881 178.576C56.1936 178.6 56.0972 178.616 56.0001 178.624C55.9761 178.624 55.9481 178.624 55.9161 178.624C55.9342 178.633 55.9491 178.648 55.9591 178.665C55.969 178.683 55.9736 178.704 55.9721 178.724C55.9521 179.304 55.9721 179.896 55.9041 180.472C55.9022 180.496 55.9022 180.52 55.9041 180.544C55.8481 181.048 55.7521 181.544 55.6601 182.044H54.8321C54.8321 182.044 54.8321 182.024 54.8321 182.012C54.9801 181.468 55.1001 180.916 55.2321 180.364C55.3641 179.812 55.5641 179.252 55.6961 178.68C55.7037 178.659 55.7177 178.641 55.7361 178.628C55.2098 178.652 54.6887 178.515 54.2426 178.235C53.7964 177.954 53.4467 177.544 53.2401 177.06C52.9601 176.32 53.0881 175.548 53.2001 174.788C53.3521 173.796 53.4961 172.788 53.6481 171.816C53.9321 169.996 54.2961 168.196 54.6201 166.384L54.7641 165.56C55.4161 161.876 56.0921 158.192 56.9081 154.544C56.9361 154.392 56.9721 154.24 57.0041 154.088C57.0361 153.936 57.1921 154.016 57.1801 154.112C57.1561 154.356 57.1321 154.604 57.1041 154.848C56.9601 156.252 56.7961 157.648 56.6001 159.036C56.3641 160.672 56.2001 162.316 55.9761 163.948C55.8961 164.508 55.8201 165.064 55.7361 165.62C55.3601 168.308 54.9721 170.996 54.5121 173.676C54.2961 174.92 53.5201 177.148 55.3121 177.536C55.7178 177.622 56.1406 177.568 56.5121 177.384C57.3031 176.907 57.8943 176.159 58.1761 175.28C58.6841 173.856 58.8641 172.284 59.1281 170.8C59.4201 169.16 59.6761 167.52 59.9081 165.876C60.2014 163.825 60.5067 161.775 60.8241 159.724C60.9841 158.68 61.1521 157.636 61.3161 156.592C61.3961 156.108 61.4721 155.624 61.5521 155.14C61.6001 155.04 61.7641 155.068 61.7641 155.172Z" fill="#263238"/>
<path d="M18.9521 168.032C20.967 168.014 22.9717 167.745 24.9201 167.232C25.8201 167.004 26.7081 166.716 27.5881 166.432C28.4596 166.195 29.2754 165.787 29.9881 165.232C31.3481 164.064 31.9881 162.22 32.5681 160.584C33.2128 158.739 33.7353 156.853 34.1321 154.94C34.1521 154.844 34.2921 154.876 34.2921 154.964C34.344 157.125 34.0744 159.282 33.4921 161.364C33.0081 163.136 32.3521 165.108 30.9241 166.348C29.4201 167.652 27.3761 168.112 25.4521 168.348C23.2907 168.599 21.106 168.569 18.9521 168.26C18.9219 168.26 18.8929 168.248 18.8715 168.226C18.8501 168.205 18.8381 168.176 18.8381 168.146C18.8381 168.116 18.8501 168.087 18.8715 168.065C18.8929 168.044 18.9219 168.032 18.9521 168.032Z" fill="#263238"/>
<path d="M15.6 154.976C15.4907 157.682 15.376 160.392 15.256 163.104C14.9894 169.421 14.6854 175.736 14.344 182.048H13.436C13.852 175.72 14.2907 169.396 14.752 163.076C14.952 160.372 15.152 157.676 15.364 154.972C15.3696 154.944 15.3846 154.92 15.4064 154.902C15.4283 154.884 15.4556 154.875 15.4837 154.876C15.5117 154.876 15.5387 154.886 15.56 154.905C15.5813 154.923 15.5954 154.948 15.6 154.976V154.976Z" fill="#263238"/>
<path d="M50.8 102.992C58.444 114.524 77.156 135.736 86.592 138.804C92.032 140.576 114.992 136.636 120.308 135.12C123.132 134.32 112.376 111.26 109.336 112.036C106.22 112.836 91.844 115.808 89.504 115.916C87.164 116.024 68.852 102.424 59.312 96.2438C47.28 88.4518 44.544 93.5478 50.8 102.992Z" fill="#D3766A"/>
<path d="M116.64 135.788C119.596 135.42 133.168 132.588 136.712 130.952C140.256 129.316 150.12 123.868 149.14 121.024C148.16 118.18 145.14 119.548 145.14 119.548C145.14 119.548 148.94 116.588 147.696 113.816C146.452 111.044 141.832 113.32 141.832 113.32C141.832 113.32 145.512 109.996 144.072 107.32C142.632 104.644 138.368 107.72 138.368 107.72C138.368 107.72 141.876 104.836 139.764 103.132C137.22 101.08 131.364 107.132 127.308 108.636C126.388 108.98 108.176 114.276 108.176 114.276L116.64 135.788Z" fill="#D3766A"/>
<path d="M138.748 107.46C134.424 111.892 131.768 113.088 125.84 114.508C125.724 114.536 125.736 114.712 125.84 114.696C131.776 113.832 135.324 112.816 138.956 107.656C139.152 107.404 138.956 107.248 138.748 107.46Z" fill="#263238"/>
<path d="M142.176 112.964C137.284 117.2 134.4 118.496 128.312 120.444C128.224 120.468 128.264 120.62 128.352 120.6C134.496 119.192 138.016 118.096 142.352 113.244C142.544 113.024 142.4 112.772 142.176 112.964Z" fill="#263238"/>
<path d="M144.836 119.636C139.804 123.376 136.716 124.956 130.552 126.084C130.525 126.091 130.502 126.108 130.486 126.131C130.47 126.154 130.464 126.182 130.467 126.21C130.471 126.238 130.484 126.263 130.505 126.282C130.525 126.301 130.552 126.311 130.58 126.312C136.98 125.776 140.844 123.828 144.932 119.8C145.2 119.528 145.152 119.4 144.836 119.636Z" fill="#263238"/>
<path d="M104.4 115.112C104.4 115.112 108.696 108.648 111.2 106.224C113.704 103.8 126.4 98.2238 127.764 100.892C129.524 104.34 122.832 109.008 119.256 110.864C119.256 110.864 123.328 118.84 119.256 123.228C115.184 127.616 104.4 115.112 104.4 115.112Z" fill="#D3766A"/>
<path d="M127.924 102C127.26 106.304 122.408 108.44 119.072 110.5C119.022 110.528 118.979 110.568 118.947 110.616C118.915 110.664 118.896 110.72 118.891 110.777C118.885 110.835 118.894 110.893 118.915 110.946C118.937 110.999 118.972 111.047 119.016 111.084C120.5 114.544 121.584 119.852 119.484 123.224C119.472 123.243 119.468 123.267 119.473 123.289C119.478 123.312 119.49 123.332 119.509 123.345C119.527 123.359 119.55 123.365 119.573 123.362C119.596 123.36 119.617 123.349 119.632 123.332C122.372 120.024 121.732 114.72 119.864 111.036C123.316 108.976 128.088 106.636 127.968 102.004C127.968 101.976 127.928 101.968 127.924 102Z" fill="#263238"/>
<path d="M74.9801 104.664L65.9761 126.64C65.9761 126.64 51.2761 107.268 46.6681 98.0998C41.8681 88.5478 43.8921 85.1038 56.0601 92.3438C68.3041 99.6278 74.9801 104.664 74.9801 104.664Z" fill="#22272E"/>
<path d="M74.9799 104.664L70.7039 115.1L65.976 126.64C65.976 126.64 51.28 107.268 46.668 98.0998C44.228 93.2559 43.552 89.9839 45.068 88.8799C46.584 87.7759 50.076 88.7759 56.072 92.3439C68.3039 99.6318 74.9799 104.664 74.9799 104.664Z" fill="#FBFF32"/>
<path d="M48.144 88.6758C48.284 88.7078 48.428 88.7438 48.576 88.7878L48.2 89.0518C46.9 89.9838 45.624 90.9518 44.356 91.9398C44.356 91.8278 44.32 91.7198 44.312 91.6158C45.564 90.6158 46.82 89.5998 48.144 88.6758ZM61.068 95.3878C60.5887 96.5727 59.9639 97.6933 59.208 98.7238C57.7157 100.765 55.8443 102.499 53.696 103.832C52.802 104.393 51.8658 104.884 50.896 105.3C50.968 105.416 51.048 105.532 51.12 105.652C52.1207 105.208 53.0874 104.69 54.012 104.104C56.0808 102.792 57.8931 101.114 59.36 99.1518C60.1882 98.0571 60.8674 96.8573 61.38 95.5838L61.068 95.3878ZM62.94 122.588L63.34 123.148C63.408 123.176 63.48 123.216 63.548 123.248C64.614 123.773 65.6383 124.379 66.612 125.06L66.76 124.704C66.412 124.464 66.06 124.232 65.696 124.008C64.8148 123.46 63.8935 122.98 62.94 122.572V122.588ZM71.412 111.084C68.148 110.348 65.16 108.72 61.86 108.104C59.172 107.6 56.3 107.9 54.172 109.756C54.104 109.82 54.032 109.88 53.968 109.952C54.036 110.052 54.112 110.16 54.18 110.268C55.1845 109.312 56.44 108.662 57.8 108.392C61.136 107.732 64.472 109.132 67.544 110.268C69.0308 110.851 70.5679 111.297 72.136 111.6L72.288 111.228C72 111.2 71.7 111.132 71.412 111.068V111.084Z" fill="white"/>
<path d="M70.5921 104.596C70.3161 105.092 70.1122 105.632 69.8842 106.152C69.6562 106.672 69.4161 107.22 69.1801 107.752C68.7041 108.832 68.2482 109.924 67.7962 111.016C66.8922 113.2 65.9802 115.38 65.1162 117.58C64.8762 118.184 64.6402 118.78 64.4202 119.4C64.2002 120.02 63.9962 120.704 63.7642 121.34C63.7642 121.38 63.8082 121.4 63.8242 121.36C64.0642 120.828 64.3482 120.312 64.5922 119.76C64.8362 119.208 65.0802 118.664 65.3162 118.108C65.7762 117.02 66.2322 115.928 66.6762 114.836C67.5482 112.676 68.4282 110.524 69.2561 108.348C69.4881 107.74 69.7121 107.148 69.9441 106.524C70.1761 105.9 70.4681 105.252 70.6481 104.6C70.6601 104.588 70.6081 104.564 70.5921 104.596Z" fill="#263238"/>
<path opacity="0.1" d="M70.7039 115.1L65.9759 126.64C65.9759 126.64 51.28 107.268 46.668 98.0998C44.228 93.2558 43.552 89.9838 45.068 88.8798C47.504 88.9478 49.192 88.9878 49.192 88.9878L70.7039 115.1Z" fill="black"/>
<path d="M68.8481 165.764L6.80005 165.944C6.80005 165.944 12.212 119.252 35.0001 91.6678C40.2721 85.2678 48.7641 88.7558 52.3441 92.1438C61.4241 100.748 69.0241 165.54 68.8481 165.764Z" fill="#FBFF32"/>
<path d="M47.876 89.2838C45.224 91.1998 42.676 93.2838 40.096 95.2838C38.764 96.3118 37.468 97.4038 36.076 98.3438C34.96 99.0958 33.676 99.7198 32.308 99.6438C31.4017 99.5769 30.5389 99.2287 29.84 98.6478C29.884 98.5758 29.936 98.4998 29.984 98.4278C30.2711 98.6599 30.5854 98.856 30.92 99.0118C32.292 99.6398 33.784 99.3278 35.06 98.6118C36.472 97.8358 37.716 96.7358 38.988 95.7518L43.152 92.5198C44.588 91.4078 46.012 90.2078 47.504 89.1198L47.876 89.2838ZM38.676 121.26C40.048 119.296 40.716 116.66 39.876 114.356C39.104 112.296 37.26 110.94 35.168 110.436C32.9881 109.92 30.696 110.191 28.696 111.2C26.084 112.524 24.184 114.876 21.836 116.576C21.1738 117.052 20.4616 117.454 19.712 117.776C19.644 117.94 19.58 118.1 19.512 118.26C22.04 117.304 23.912 115.288 25.94 113.568C26.9965 112.608 28.1962 111.818 29.496 111.228C30.5941 110.782 31.767 110.55 32.952 110.544C35.224 110.52 37.648 111.368 38.952 113.344C40.424 115.564 39.992 118.444 38.652 120.616C35.256 126.12 27.74 125.768 22.124 125.872C20.1959 125.882 18.2724 126.063 16.376 126.412C16.316 126.56 16.264 126.704 16.216 126.852C18.3746 126.455 20.5654 126.261 22.76 126.272C28.228 126.208 35.172 126.296 38.692 121.26H38.676ZM40.048 107.348C44.9334 107.904 49.8611 106.758 54 104.104C55.1039 103.403 56.1392 102.599 57.092 101.704C57.048 101.564 57.004 101.428 56.952 101.304C55.9536 102.265 54.8569 103.119 53.68 103.852C49.3945 106.551 44.2733 107.599 39.272 106.8C35.148 106.096 31.448 103.56 27.444 102.44C27.364 102.564 27.292 102.688 27.212 102.812C28.9477 103.351 30.6404 104.019 32.276 104.812C34.8 105.956 37.308 107.004 40.064 107.348H40.048ZM35.444 145.004C37.1073 143.343 38.1036 141.13 38.244 138.784C38.364 136.636 37.68 134.384 35.972 132.964C34.012 131.364 31.348 131.292 29.028 132.044C26.352 132.912 24.276 134.764 22.46 136.844C20.484 139.12 18.752 141.712 16.348 143.572C14.712 144.836 12.652 145.872 10.544 146.008C10.512 146.132 10.484 146.256 10.452 146.38C11.5352 146.322 12.6002 146.077 13.6 145.656C16.24 144.544 18.24 142.556 20.048 140.392C21.952 138.124 23.728 135.592 26.212 133.88C28.38 132.396 31.272 131.428 33.872 132.252C36.296 133.016 37.696 135.26 37.872 137.72C37.9441 138.938 37.7686 140.157 37.3561 141.306C36.9436 142.454 36.3027 143.506 35.472 144.4C33.54 146.504 30.928 147.812 28.272 148.8C25.1981 149.899 22.0604 150.81 18.876 151.528C15.488 152.328 11.412 153.008 8.57203 155.172C8.53203 155.384 8.48803 155.572 8.45203 155.788C11.296 153.408 15.652 152.7 19.172 151.872C22.3459 151.159 25.472 150.247 28.532 149.144C31.052 148.188 33.544 146.944 35.46 145.004H35.444ZM31.444 155.272C28.712 155.088 26.384 156.796 24.84 158.9C23.24 161.084 22.288 163.652 20.808 165.904H21.256C21.86 164.956 22.38 163.948 22.884 162.976C24.196 160.436 25.636 157.588 28.332 156.272C29.6034 155.617 31.0709 155.452 32.456 155.808C33.0753 156.01 33.6432 156.344 34.1204 156.788C34.5977 157.231 34.9729 157.773 35.22 158.376C36.26 160.732 35.868 163.36 36.02 165.852H36.42C36.3 163.816 36.512 161.756 36.068 159.74C35.56 157.412 34 155.44 31.476 155.272H31.444ZM59.6 164.208C58.672 161.684 58.66 158.94 58.8 156.292C59.112 149.644 60.42 142.936 59.376 136.292C58.576 131.204 56.392 126.044 52.084 122.968C49.892 121.408 46.884 120.404 44.396 121.884C42.284 123.132 41.176 125.66 41.148 128.044C41.112 131.132 42.552 134.024 44.064 136.632C45.576 139.24 47.264 141.656 48.784 144.232C50.304 146.808 51.584 149.46 52.14 152.368C52.6524 155.069 52.5636 157.849 51.88 160.512C51.4105 162.383 50.6635 164.174 49.664 165.824H50.116C50.32 165.48 50.516 165.128 50.696 164.776C51.9112 162.405 52.6263 159.81 52.797 157.151C52.9676 154.492 52.5902 151.827 51.688 149.32C49.648 143.72 45.544 139.196 43.012 133.828C41.716 131.084 40.88 127.828 42.236 124.932C42.7652 123.733 43.6691 122.737 44.812 122.096C45.4903 121.769 46.2274 121.583 46.9793 121.548C47.7311 121.513 48.4824 121.63 49.188 121.892C51.86 122.768 54.088 124.924 55.624 127.22C57.085 129.486 58.113 132.003 58.656 134.644C60.08 141.096 58.956 147.728 58.496 154.22C58.296 157.02 58.124 159.888 58.724 162.656C58.9473 163.758 59.3429 164.817 59.896 165.796H60.4C60.0756 165.298 59.8073 164.765 59.6 164.208V164.208ZM52.88 116.356C54.176 118.988 56.804 120.42 59.412 121.488C60.38 121.888 61.356 122.252 62.312 122.66C62.288 122.524 62.26 122.392 62.236 122.26C60.72 121.616 59.176 121.06 57.696 120.3C55.18 119.036 52.576 116.756 52.612 113.692C52.644 110.892 55.236 108.892 57.812 108.372C58.2215 108.294 58.6358 108.243 59.052 108.22C59.02 108.112 58.988 107.996 58.96 107.884C57.2063 107.952 55.5255 108.604 54.184 109.736C53.2461 110.526 52.6057 111.613 52.3686 112.817C52.1316 114.02 52.3119 115.269 52.88 116.356V116.356Z" fill="white"/>
<path d="M32.592 108.164C32.592 123.392 37.428 155.412 46.192 162.388C57.696 171.544 81.6841 173.24 89.2801 173.424C92.5921 173.504 94.4281 151.528 91.8481 149.1C89.2681 146.672 61.6521 141.676 59.2641 140.532C56.8761 139.388 49.14 117.048 42.956 105.804C35.156 91.6199 32.592 95.3679 32.592 108.164Z" fill="#D3766A"/>
<path d="M102.196 153.472C100.748 152.604 101.192 151.84 104.172 151.472C107.152 151.104 119.26 152.12 119.26 147.872C119.26 143.624 102.156 142.412 97.26 143.424C92.364 144.436 84.76 147.788 84.76 147.788C88.024 148.676 95.78 151.62 102.196 153.472Z" fill="#D3766A"/>
<path d="M80.8 172.524C90.14 174.728 101.628 178.036 111.968 174.832C113.125 174.507 114.139 173.802 114.848 172.832C119.508 171.476 120.268 168.872 120.268 168.872C124.224 166.28 124.636 163.508 124.636 163.508C124.636 163.508 130.088 161.86 129.64 158.396C129.148 154.512 121.584 157.596 116.392 156.736C104.492 154.784 88.128 148.68 84.752 147.776L80.8 172.524Z" fill="#D3766A"/>
<path d="M102.476 163.452C105.988 163.956 109.428 164.544 112.992 164.568C116.9 164.596 120.664 163.968 124.516 163.428C124.538 163.427 124.56 163.435 124.577 163.449C124.595 163.462 124.607 163.482 124.611 163.503C124.616 163.525 124.613 163.548 124.603 163.568C124.593 163.587 124.576 163.603 124.556 163.612C117.756 165.696 109.288 165.572 102.452 163.612C102.284 163.564 102.3 163.424 102.476 163.452Z" fill="#263238"/>
<path d="M100.256 170.46C103.7 170.76 109.76 171.26 120.236 168.752C120.268 168.752 120.296 168.8 120.26 168.816C113.672 171.344 107.132 171.816 100.26 170.624C100.028 170.588 100.024 170.44 100.256 170.46Z" fill="#263238"/>
<path d="M99.132 174.248C105.008 174.54 108.752 173.976 114.812 172.808C114.848 172.808 114.868 172.856 114.832 172.868C108.084 174.924 105.4 174.904 99.092 174.468C98.876 174.436 98.9 174.24 99.132 174.248Z" fill="#263238"/>
<path d="M51.8281 123.064L32.5201 136.892C32.5201 136.892 30.3681 112.672 31.3201 102.456C32.3281 91.8119 35.8761 89.9718 42.3321 102.572C48.8481 115.252 51.8281 123.064 51.8281 123.064Z" fill="#FBFF32"/>
<path d="M36.828 133.812L36.488 134.052C35.8165 133.203 34.9049 132.576 33.872 132.252C33.3055 132.074 32.7174 131.975 32.124 131.956L32.1 131.588C33.5159 131.599 34.8874 132.083 35.996 132.964C36.3029 133.216 36.5818 133.5 36.828 133.812V133.812ZM36.076 98.3398C36.948 97.7478 37.788 97.0998 38.616 96.4398C38.56 96.3558 38.492 96.2798 38.432 96.1998C37.3782 97.1001 36.2502 97.9096 35.06 98.6198C34.071 99.2188 32.9025 99.4497 31.76 99.2718C31.76 99.3638 31.724 99.4598 31.708 99.5558C31.9058 99.5978 32.1063 99.6259 32.308 99.6398C33.68 99.7158 34.96 99.0918 36.076 98.3398V98.3398ZM35.164 110.436C33.8258 110.12 32.4349 110.1 31.088 110.376C31.088 110.508 31.088 110.636 31.088 110.776C31.6995 110.645 32.3228 110.578 32.948 110.576C35.22 110.552 37.644 111.4 38.948 113.376C40.42 115.596 39.988 118.476 38.648 120.648C37.048 123.26 34.492 124.552 31.668 125.204L31.692 125.604C34.464 124.972 36.984 123.736 38.696 121.288C40.068 119.324 40.736 116.688 39.896 114.384C39.1 112.296 37.256 110.94 35.164 110.436ZM44.564 106.972C42.8006 107.156 41.0202 107.1 39.272 106.804C36.472 106.324 33.864 105 31.224 103.852L31.2 104.336L32.276 104.82C34.784 105.956 37.308 107.004 40.064 107.348C41.6233 107.536 43.1992 107.543 44.76 107.368L44.564 106.972ZM51.692 122.708C49.548 121.304 46.744 120.496 44.4 121.908C42.288 123.156 41.18 125.684 41.152 128.068C41.1462 128.897 41.2361 129.724 41.42 130.532L41.78 130.28C41.3401 128.498 41.5018 126.62 42.24 124.94C42.7692 123.741 43.6731 122.745 44.816 122.104C45.4943 121.777 46.2314 121.591 46.9832 121.556C47.7351 121.521 48.4863 121.638 49.192 121.9C50.087 122.198 50.9343 122.624 51.708 123.164L51.828 123.08C51.828 123.08 51.784 122.944 51.692 122.708Z" fill="white"/>
<path d="M48.148 120.672C47.652 120.948 47.188 121.296 46.72 121.616L45.272 122.6C44.292 123.264 43.328 123.944 42.364 124.632C40.436 126 38.508 127.364 36.604 128.764C36.08 129.164 35.56 129.536 35.048 129.936C34.536 130.336 34 130.816 33.448 131.232C33.412 131.256 33.448 131.304 33.488 131.28C33.976 130.956 34.492 130.672 34.98 130.348C35.468 130.024 35.98 129.68 36.472 129.336C37.44 128.659 38.404 127.975 39.364 127.284C41.248 125.92 43.14 124.564 44.996 123.164L46.548 121.964C47.092 121.564 47.668 121.164 48.148 120.708C48.208 120.704 48.18 120.656 48.148 120.672Z" fill="#263238"/>
<path d="M46.1641 108C46.1641 107.952 46.0761 107.976 46.0841 108.024C46.2237 108.936 46.4336 109.836 46.7121 110.716C46.5281 110.336 46.3521 109.952 46.1641 109.572C45.5601 108.348 44.9361 107.132 44.3361 105.908C44.3309 105.9 44.323 105.894 44.314 105.892C44.305 105.889 44.2953 105.89 44.2867 105.894C44.2781 105.897 44.2711 105.904 44.267 105.913C44.2629 105.921 44.2619 105.931 44.2641 105.94C45.1641 108.144 45.9761 110.392 46.9441 112.572C47.9121 114.752 48.8761 116.928 49.8761 119.092C50.4281 120.292 51.2001 121.716 51.7561 122.908C51.2561 123.388 50.5201 123.872 49.9721 124.38C49.9241 124.424 50.0001 124.496 50.0561 124.46C50.6921 124.008 51.5401 123.584 52.1641 123.044C52.2441 122.976 48.8361 115.184 47.1001 111.532C46.8201 110.328 46.5161 109.144 46.1641 108Z" fill="#263238"/>
<path d="M35.5201 134.928C34.9706 135.17 34.4363 135.445 33.9201 135.752C33.4921 136.004 33.0921 136.292 32.6841 136.552C32.6841 135.864 32.6001 135.172 32.5561 134.488C32.5001 133.672 32.4454 132.856 32.3921 132.04C32.2841 130.408 32.1721 128.776 32.0721 127.144C31.9721 125.512 31.8561 123.88 31.7601 122.244C31.6641 120.608 31.5921 118.976 31.4601 117.344C31.3121 115.508 31.1761 113.668 31.0361 111.832C31.0361 111.815 31.0293 111.799 31.0173 111.787C31.0053 111.775 30.989 111.768 30.9721 111.768C30.9551 111.768 30.9388 111.775 30.9268 111.787C30.9148 111.799 30.9081 111.815 30.9081 111.832C30.8867 113.528 30.8867 115.224 30.9081 116.92C30.6601 115.948 30.3321 114.992 30.1321 114.008C30.1294 113.992 30.1205 113.978 30.1074 113.968C30.0943 113.959 30.078 113.955 30.0621 113.958C30.0461 113.96 30.0319 113.969 30.0226 113.982C30.0132 113.996 30.0094 114.012 30.0121 114.028C30.0961 115.296 30.2841 116.652 30.9281 117.768C30.9601 119.092 31.0001 120.42 31.0681 121.748C31.2321 125.016 31.4321 128.28 31.7121 131.544C31.7921 132.46 31.8721 133.376 31.9601 134.296C32.0481 135.216 32.0961 136.112 32.2681 136.996C32.2787 137.03 32.2981 137.062 32.3244 137.086C32.3507 137.111 32.383 137.129 32.4181 137.137C32.4532 137.145 32.49 137.145 32.5247 137.135C32.5594 137.125 32.5909 137.106 32.6161 137.08C33.0704 136.678 33.5515 136.308 34.0561 135.972C34.5361 135.628 35.0281 135.3 35.5241 134.98C35.6001 134.976 35.5601 134.912 35.5201 134.928Z" fill="#263238"/>
<path d="M54.2641 94.0758C54.3 95.064 54.284 96.0533 54.2161 97.0398C54.1823 97.9303 54.0645 98.8155 53.8641 99.6838C53.4641 101.256 52.5081 102.78 50.8161 103.404C50.0297 103.66 49.2 103.757 48.3757 103.688C47.5515 103.619 46.7492 103.387 46.0161 103.004C44.4521 102.236 43.1561 101.028 41.9601 99.8478C41.2201 99.1158 40.5081 98.3558 39.8361 97.5678C39.4961 97.1678 39.1561 96.7678 38.8361 96.3678C38.5161 95.9678 38.2161 95.5238 37.8721 95.1278C37.8441 95.0958 37.7761 95.1278 37.8001 95.1678C38.4881 96.1158 40.6001 99.1278 41.2521 99.8558C42.4521 101.18 43.7721 102.524 45.4041 103.412C46.9759 104.324 48.8422 104.585 50.6041 104.14C51.4429 103.899 52.2063 103.448 52.8216 102.829C53.437 102.21 53.884 101.444 54.1201 100.604C54.3931 99.5994 54.5171 98.5603 54.4881 97.5198C54.4881 96.3758 54.4201 95.2318 54.3241 94.0998C54.2881 94.0598 54.2641 94.0638 54.2641 94.0758Z" fill="#263238"/>
<path d="M49.0561 100.76C45.2441 101.136 39.6681 94.6478 37.7801 89.7478C37.6521 89.4118 40.6361 77.0638 40.9801 74.5478C41.0441 74.0358 56.2161 80.4878 56.2161 80.4878C56.2161 80.4878 53.9601 85.5358 53.4161 89.9118C53.3521 90.2878 52.7361 100.4 49.0561 100.76Z" fill="#D3766A"/>
<path d="M56.2121 80.4959C56.2121 80.4959 53.9561 85.5439 53.3921 89.9199C53.3921 90.0079 53.3401 90.6399 53.2361 91.5559C45.8441 89.8599 41.7001 84.6279 39.6361 80.9879C40.2601 78.1879 40.8361 75.5759 40.9641 74.5599C41.0441 74.0439 56.2121 80.4959 56.2121 80.4959Z" fill="#263238"/>
<path d="M55.6321 50.0238C56.5481 49.9118 61.5921 55.9918 62.0881 59.1718C62.5841 62.3518 62.3761 68.8598 61.4561 69.1078C60.5361 69.3558 54.9241 50.1118 55.6321 50.0238Z" fill="#263238"/>
<path d="M35.484 59.0679C33.912 64.7359 37.316 80.9079 41.416 84.4279C47.364 89.5239 56.884 89.7759 61.172 82.6839C65.324 75.8119 60.52 54.8119 55.972 51.6399C49.24 46.9639 37.804 50.6879 35.484 59.0679Z" fill="#D3766A"/>
<path d="M49.3161 65.1758C48.883 65.4051 48.4384 65.6121 47.9841 65.7958C47.4681 66.0318 47.0841 66.2718 46.5041 66.1758C46.3425 66.1315 46.2002 66.0348 46.0996 65.9009C45.999 65.7669 45.9457 65.6033 45.9481 65.4358C46.0001 64.7198 46.5561 64.2758 47.1481 63.9678C47.75 63.6383 48.4533 63.5456 49.1201 63.7078C49.2738 63.748 49.4121 63.8329 49.5173 63.9519C49.6225 64.0709 49.69 64.2186 49.711 64.376C49.732 64.5335 49.7057 64.6936 49.6353 64.8361C49.565 64.9785 49.4539 65.0968 49.3161 65.1758V65.1758Z" fill="#263238"/>
<path d="M49.936 68.7718C49.936 68.7358 49.864 68.8438 49.88 68.8878C50.184 69.9638 50.356 71.2399 49.48 71.8479C49.452 71.8479 49.48 71.9199 49.504 71.9039C50.64 71.4359 50.4 69.7398 49.936 68.7718Z" fill="#263238"/>
<path d="M48.688 67.8878C46.916 68.1918 47.656 71.7118 49.3 71.4318C50.944 71.1518 50.172 67.6318 48.688 67.8878Z" fill="#263238"/>
<path d="M56.1841 67.2998C56.1841 67.2558 56.2801 67.3318 56.2881 67.3758C56.4841 68.4758 56.8921 69.6998 57.9561 69.8558C57.9881 69.8558 57.9961 69.9158 57.9561 69.9158C56.7201 69.9998 56.1921 68.3718 56.1841 67.2998Z" fill="#263238"/>
<path d="M56.92 65.9559C58.644 65.4518 59.524 68.9439 57.924 69.4079C56.324 69.8719 55.472 66.3759 56.92 65.9559Z" fill="#263238"/>
<path d="M57.8 63.5998C57.3072 63.6032 56.8145 63.5805 56.324 63.5318C55.756 63.4958 55.304 63.5318 54.832 63.1718C54.7097 63.0569 54.6288 62.9048 54.602 62.739C54.5752 62.5733 54.6041 62.4034 54.684 62.2558C55.064 61.6438 55.764 61.5118 56.448 61.5198C57.1372 61.5117 57.8052 61.7581 58.324 62.2118C58.4413 62.3199 58.5235 62.4605 58.5603 62.6157C58.597 62.7708 58.5866 62.9334 58.5302 63.0826C58.4739 63.2318 58.3743 63.3607 58.2442 63.4529C58.1141 63.545 57.9594 63.5962 57.8 63.5998Z" fill="#263238"/>
<path d="M51.148 78.7998C51.46 78.9998 51.796 79.2958 52.2 79.2438C52.603 79.1503 52.9819 78.9732 53.312 78.7238C53.3191 78.7188 53.3276 78.7163 53.3363 78.7165C53.345 78.7168 53.3533 78.7199 53.3601 78.7253C53.3668 78.7307 53.3717 78.7382 53.3738 78.7466C53.376 78.755 53.3753 78.7638 53.372 78.7718C53.2604 79.0185 53.0846 79.2307 52.8629 79.3862C52.6413 79.5417 52.382 79.6348 52.112 79.6558C51.8762 79.6416 51.6498 79.5581 51.4613 79.4158C51.2727 79.2735 51.1303 79.0787 51.052 78.8558C51.02 78.8278 51.1 78.7998 51.148 78.7998Z" fill="#263238"/>
<path d="M51.6 75.3078C51.9681 75.681 52.4093 75.9741 52.8959 76.1689C53.3825 76.3637 53.9041 76.4559 54.428 76.4398C54.8855 76.4305 55.3393 76.3564 55.776 76.2198C55.8628 76.2009 55.9473 76.1727 56.028 76.1358L56.256 76.0478C56.312 76.0253 56.3589 75.9847 56.3893 75.9326C56.4197 75.8804 56.432 75.8197 56.424 75.7598V75.7598C56.4157 75.7214 56.4036 75.6839 56.388 75.6478V75.6478L56.364 75.5518C56.212 74.7078 55.86 73.4478 55.86 73.4478C56.2 73.5398 57.912 73.9118 57.796 73.4798C56.816 69.8798 55.724 65.9038 53.992 62.5438C53.9816 62.5197 53.9625 62.5004 53.9385 62.4897C53.9144 62.4791 53.8872 62.478 53.8624 62.4866C53.8376 62.4953 53.8169 62.513 53.8046 62.5362C53.7923 62.5594 53.7892 62.5864 53.796 62.6118C54.596 66.0958 56.016 69.4118 56.884 72.9038C56.344 72.8158 55.456 72.6398 55.02 72.7398C54.908 72.7998 55.74 75.1638 55.776 75.5398C55.7775 75.5531 55.7775 75.5665 55.776 75.5798C54.4 76.0598 53.248 75.8558 51.68 75.1798C51.6 75.1438 51.52 75.2358 51.6 75.3078Z" fill="#263238"/>
<path d="M55.2001 75.8958C54.8663 76.5934 54.3579 77.1928 53.7241 77.6358C53.368 77.8674 52.9485 77.9821 52.5241 77.9638C51.6041 77.9198 51.4161 77.1238 51.4321 76.4078C51.442 76.0251 51.4984 75.645 51.6001 75.2758C52.7026 75.863 53.9646 76.0803 55.2001 75.8958Z" fill="#263238"/>
<path d="M53.7199 77.6358C53.3638 77.8674 52.9443 77.9821 52.5199 77.9638C51.5999 77.9198 51.4119 77.1238 51.4279 76.4078C52.3999 76.3038 53.4479 76.7438 53.7199 77.6358Z" fill="#FF97B8"/>
<path d="M37.724 73.1518C40.66 72.9398 41.56 69.4958 41.824 64.8318C41.98 62.1078 40.436 56.9838 40.436 56.9838C40.436 56.9838 48.388 59.2518 52.52 58.1838C56.652 57.1158 59.648 52.9478 58.92 49.6918C58.3 46.8918 52.952 43.9958 46.648 44.7438C42.248 45.2638 35.448 49.9438 32.952 55.1798C32.952 55.1798 27.884 58.6918 29.372 62.7118C30.86 66.7318 34.4 73.3918 37.724 73.1518Z" fill="#263238"/>
<path d="M37.8761 72.7998C41.8161 72.9918 42.9041 66.9278 42.5161 63.9238C42.1161 60.8038 40.4081 57.8558 39.3801 54.9118C39.3801 54.9118 39.3801 54.8878 39.4041 54.9118C41.2881 58.3798 43.4321 62.8078 42.8041 66.8558C42.4041 69.4038 41.2761 73.6958 37.8641 73.0278C37.7481 72.9798 37.7521 72.7998 37.8761 72.7998Z" fill="#263238"/>
<path d="M28.34 61.5998C28.464 58.9598 30.968 55.9678 33.316 54.9718C33.336 54.9718 33.352 54.9998 33.316 55.0118C30.568 56.5518 27.716 60.4718 29.164 63.5998C30.316 66.0998 32.132 69.3478 34.256 71.1358C34.312 71.1838 34.256 71.2598 34.184 71.2198C32.552 70.0438 31.64 68.3118 30.612 66.6198C29.732 65.1598 28.256 63.4398 28.34 61.5998Z" fill="#263238"/>
<path d="M32.4641 55.6718C35.1041 50.1718 41.6361 43.3518 48.2361 43.8398V43.8718C41.3281 43.9358 36.1721 50.6718 32.7241 55.8438C32.6201 55.9998 32.4001 55.8278 32.4641 55.6718Z" fill="#263238"/>
<path d="M39.6 73.0279C39.6 73.0279 35.724 67.9119 33.384 69.3119C31.044 70.7119 34.1 78.2239 36.94 79.1599C37.2959 79.3051 37.6775 79.3769 38.0618 79.3709C38.4461 79.3649 38.8252 79.2814 39.1764 79.1252C39.5276 78.969 39.8436 78.7435 40.1054 78.4621C40.3673 78.1808 40.5695 77.8494 40.7 77.4879L39.6 73.0279Z" fill="#D3766A"/>
<path d="M34.3081 71.4438C34.2641 71.4438 34.2601 71.5038 34.3081 71.5198C36.3081 72.2398 37.4081 74.0198 38.2001 75.8799C37.5921 75.1758 36.7801 74.8079 35.8321 75.5399C35.7801 75.5799 35.8321 75.6559 35.8881 75.6439C36.2288 75.5196 36.5998 75.5045 36.9496 75.6005C37.2993 75.6966 37.6105 75.899 37.8401 76.1799C38.2216 76.6512 38.5515 77.1621 38.8241 77.7039C38.9201 77.8759 39.2241 77.7719 39.1601 77.5719C39.1601 77.5719 39.1601 77.5399 39.1601 77.5279C39.0881 75.0239 37.0081 71.5998 34.3081 71.4438Z" fill="#263238"/>
<path d="M158.4 143.348C153.112 150.512 147.6 158.824 146.252 167.808C146.252 167.944 146.456 167.988 146.488 167.856C147.095 165.403 147.875 162.997 148.824 160.656C152.304 159.7 155.716 158.916 157.544 155.456C159.404 151.908 159.168 147.28 158.816 143.416C158.772 143.22 158.488 143.2 158.4 143.348Z" fill="#6DAFA7"/>
<path d="M148.86 160.596C151.236 155.26 154.284 149.908 158.164 145.524C158.188 145.492 158.228 145.524 158.204 145.564C155.668 148.688 153.736 152.088 151.852 155.564C153.604 153.788 155.524 152.196 157.184 150.308C157.216 150.272 157.268 150.308 157.236 150.364C155.588 152.34 153.788 154.488 151.636 155.964C151.06 157.031 150.479 158.097 149.892 159.164C150.036 159.084 150.184 159.012 150.332 158.936C150.36 158.936 150.38 158.964 150.356 158.976C150.192 159.06 150.028 159.148 149.86 159.216C149.584 159.72 149.308 160.228 149.02 160.728C148.964 160.8 148.8 160.708 148.86 160.596Z" fill="#263238"/>
<path d="M150.628 158.732C152.05 157.936 153.407 157.031 154.688 156.024C154.72 155.996 154.772 156.044 154.736 156.072C153.496 157.145 152.136 158.071 150.684 158.832C150.671 158.839 150.655 158.841 150.64 158.837C150.626 158.833 150.613 158.823 150.606 158.81C150.599 158.797 150.597 158.781 150.601 158.766C150.605 158.752 150.615 158.739 150.628 158.732Z" fill="#263238"/>
<path d="M145.62 166.476C145.624 166.499 145.637 166.519 145.655 166.533C145.672 166.548 145.695 166.556 145.718 166.556C145.741 166.556 145.763 166.548 145.781 166.533C145.799 166.519 145.811 166.499 145.816 166.476C145.844 163.52 145.816 160.548 145.86 157.576C146.62 156.044 148.26 155.2 149.376 153.976C150.191 153.082 150.9 152.097 151.488 151.04C152.85 148.513 153.683 145.735 153.936 142.876C154.248 139.712 153.048 129.276 151.712 129.632C151.02 129.82 148.784 134.992 148.188 136.704C147.226 139.524 146.522 142.425 146.084 145.372C145.004 152.32 145.092 159.468 145.62 166.476Z" fill="#6DAFA7"/>
<path d="M145.6 153.712C145.764 149.968 146.608 146.188 147.396 142.556C148.248 138.644 149.24 134.956 151.252 131.472C151.262 131.462 151.274 131.456 151.287 131.455C151.301 131.453 151.314 131.456 151.326 131.463C151.337 131.47 151.346 131.48 151.351 131.493C151.356 131.505 151.356 131.519 151.352 131.532C150.01 134.245 148.972 137.099 148.256 140.04C148.388 139.828 148.552 139.64 148.692 139.428C148.748 139.352 148.88 139.428 148.824 139.504C148.645 139.82 148.435 140.118 148.196 140.392C148.187 140.395 148.177 140.395 148.168 140.392C147.476 143.192 146.968 146.048 146.568 148.9L146.664 148.792C146.669 148.788 146.675 148.786 146.681 148.785C146.687 148.785 146.694 148.787 146.699 148.791C146.704 148.794 146.707 148.8 146.709 148.806C146.711 148.812 146.71 148.818 146.708 148.824C146.656 148.92 146.596 149.012 146.536 149.108C146.324 150.556 146.136 152 145.924 153.432C148.504 151.228 150.704 148.632 151.948 145.432C151.948 145.432 151.976 145.432 151.972 145.432C150.752 148.752 148.836 151.7 145.884 153.716C145.828 154.116 145.776 154.488 145.72 154.872C145.72 154.952 145.584 154.928 145.584 154.852C145.584 154.512 145.584 154.168 145.612 153.828C145.603 153.821 145.596 153.813 145.591 153.803C145.585 153.794 145.582 153.783 145.581 153.773C145.58 153.762 145.581 153.751 145.584 153.74C145.588 153.73 145.593 153.72 145.6 153.712V153.712Z" fill="#263238"/>
<path d="M146.8 148.288C148.768 145.348 150.608 142.492 152.052 139.24C152.052 139.204 152.128 139.24 152.116 139.268C150.916 142.496 149.2 145.768 146.896 148.364C146.868 148.4 146.776 148.348 146.8 148.288Z" fill="#263238"/>
<path d="M149.432 138.516C150.232 137.072 151.108 135.664 151.876 134.192C151.9 134.152 151.956 134.192 151.94 134.228C151.302 135.764 150.497 137.227 149.54 138.588C149.504 138.664 149.384 138.6 149.432 138.516Z" fill="#263238"/>
<path d="M143.62 157.916C143.578 159.878 143.347 161.831 142.928 163.748C142.96 163.956 142.988 164.168 143.02 164.384C143.622 162.267 143.972 160.087 144.06 157.888C144.078 157.858 144.087 157.823 144.087 157.788C144.087 157.753 144.078 157.718 144.06 157.688V157.688C144.145 154.74 143.925 151.791 143.404 148.888C142.488 143.452 140.488 138.232 136.696 134.16C136.665 134.136 136.63 134.119 136.592 134.11C136.554 134.102 136.514 134.101 136.476 134.109C136.438 134.117 136.402 134.133 136.371 134.157C136.34 134.18 136.314 134.21 136.296 134.244C134.768 138.136 135.3 142.78 136.604 146.644C137.307 148.747 138.316 150.735 139.6 152.544C140.904 154.372 142.564 155.92 143.62 157.916Z" fill="#6DAFA7"/>
<path d="M137.156 135.968C140.756 141.8 143.252 148.716 143.556 155.604C143.556 155.728 143.356 155.76 143.34 155.636C143.252 155.016 143.16 154.4 143.06 153.792C141.572 152.368 140.044 150.868 138.98 149.088C138.96 149.056 139.008 149.02 139.032 149.048C140.265 150.561 141.588 152 142.992 153.356C142.736 151.836 142.432 150.336 142.068 148.86L141.784 148.524C141.724 148.452 141.828 148.344 141.892 148.416L141.976 148.512C141.471 146.488 140.845 144.496 140.1 142.548C139.184 141.456 138.16 140.512 137.496 139.2C137.496 139.168 137.52 139.144 137.544 139.172C138.08 139.924 138.596 140.68 139.204 141.376C139.448 141.656 139.712 141.916 139.964 142.176C139.135 140.062 138.151 138.013 137.02 136.044C137.015 136.027 137.016 136.008 137.023 135.991C137.03 135.975 137.042 135.961 137.058 135.952C137.074 135.943 137.092 135.94 137.11 135.943C137.127 135.946 137.144 135.955 137.156 135.968V135.968Z" fill="#263238"/>
<path d="M137.884 143.164C139.044 144.724 140.368 146.216 141.448 147.832C141.48 147.88 141.412 147.928 141.372 147.892C140 146.588 138.8 144.8 137.804 143.2C137.772 143.156 137.848 143.116 137.884 143.164Z" fill="#263238"/>
<path d="M141.6 148.196L141.648 148.244C141.684 148.28 141.648 148.332 141.596 148.296L141.544 148.248C141.54 148.24 141.539 148.232 141.541 148.223C141.542 148.215 141.547 148.207 141.553 148.201C141.559 148.195 141.567 148.192 141.576 148.191C141.584 148.19 141.593 148.192 141.6 148.196V148.196Z" fill="#263238"/>
<path d="M131.524 147.2C131.816 150.2 133.392 153.784 135.316 156.096C136.163 157.102 137.21 157.919 138.392 158.496C139.724 159.156 141.12 159.916 142.496 160.456C143.151 162.123 143.639 163.852 143.952 165.616C143.996 165.468 144.04 165.312 144.084 165.16C143.2 157.56 138.284 151.068 131.996 146.9C131.947 146.868 131.889 146.851 131.83 146.851C131.771 146.851 131.714 146.867 131.664 146.899C131.614 146.931 131.575 146.976 131.55 147.029C131.525 147.082 131.516 147.142 131.524 147.2V147.2Z" fill="#6DAFA7"/>
<path d="M133.7 149.424C133.656 149.384 133.7 149.304 133.764 149.34C137.213 151.912 139.964 155.308 141.764 159.216C141.808 159.32 141.668 159.412 141.608 159.308C141.316 158.796 141.016 158.296 140.712 157.808C139.276 157.54 137.912 156.528 136.852 155.568C136.824 155.544 136.852 155.5 136.896 155.528C137.449 156.026 138.062 156.453 138.72 156.8C139.304 157.096 139.92 157.284 140.544 157.52C140.012 156.676 139.456 155.868 138.88 155.08C137.328 154.492 135.874 153.675 134.564 152.656C134.524 152.628 134.564 152.56 134.604 152.588C135.899 153.372 137.234 154.087 138.604 154.732C137.728 153.575 136.783 152.473 135.772 151.432C135.284 151.172 134.788 150.912 134.316 150.632C134.28 150.608 134.316 150.544 134.348 150.556C134.74 150.695 135.114 150.879 135.464 151.104C134.908 150.544 134.324 149.976 133.7 149.424Z" fill="#263238"/>
<path d="M133.832 152.048C133.917 152.098 133.997 152.156 134.072 152.22C134.096 152.24 134.072 152.272 134.044 152.26C133.956 152.22 133.871 152.172 133.792 152.116C133.748 152.088 133.788 152.02 133.832 152.048Z" fill="#263238"/>
<path d="M153.896 182.052H136.668L138.056 166.356L138.364 162.896H152.2L152.508 166.356L153.896 182.052Z" fill="#455A64"/>
<path d="M152.508 166.356H138.056L138.364 162.896H152.2L152.508 166.356Z" fill="#263238"/>
<path d="M153.028 160.476H137.54V163.9H153.028V160.476Z" fill="#455A64"/>
<path d="M84.0562 46.5879L87.3961 45.9679L88.1441 42.4479L88.8922 45.9679L92.2321 46.5879L88.9042 47.4039L88.1441 50.7279L87.3841 47.4039L84.0562 46.5879Z" fill="#22272E"/>
<path d="M137.896 105.148L141.236 104.532L141.984 101.008L142.728 104.532L146.072 105.152L142.744 105.964L141.984 109.292L141.224 105.964L137.896 105.148Z" fill="#22272E"/>
<path d="M93.6362 97.7599L95.5042 97.4159L95.9202 95.4479L96.3402 97.4159L98.2082 97.7599L96.3482 98.2159L95.9202 100.076L95.4962 98.2159L93.6362 97.7599Z" fill="#22272E"/>
<path d="M103.8 37.4919L105.664 37.1439L106.084 35.1759L106.5 37.1439L108.368 37.4919L106.508 37.9439L106.084 39.8039L105.656 37.9439L103.8 37.4919Z" fill="#22272E"/>
<path d="M95.9202 106.964C96.0559 106.952 96.1823 106.89 96.2744 106.79C96.3665 106.689 96.4176 106.558 96.4176 106.422C96.4176 106.286 96.3665 106.154 96.2744 106.054C96.1823 105.954 96.0559 105.892 95.9202 105.88C95.7845 105.892 95.6581 105.954 95.566 106.054C95.4739 106.154 95.4229 106.286 95.4229 106.422C95.4229 106.558 95.4739 106.689 95.566 106.79C95.6581 106.89 95.7845 106.952 95.9202 106.964V106.964Z" fill="#22272E"/>
<path d="M148.612 100.076C148.695 100.052 148.768 100.001 148.82 99.9319C148.872 99.8627 148.9 99.7784 148.9 99.6919C148.9 99.6053 148.872 99.5211 148.82 99.4519C148.768 99.3827 148.695 99.3321 148.612 99.3079C148.529 99.3321 148.456 99.3827 148.404 99.4519C148.352 99.5211 148.324 99.6053 148.324 99.6919C148.324 99.7784 148.352 99.8627 148.404 99.9319C148.456 100.001 148.529 100.052 148.612 100.076V100.076Z" fill="#22272E"/>
<path d="M93.8922 50.0719C93.9737 50.0466 94.045 49.9958 94.0956 49.9271C94.1462 49.8584 94.1735 49.7753 94.1735 49.6899C94.1735 49.6045 94.1462 49.5214 94.0956 49.4527C94.045 49.3839 93.9737 49.3332 93.8922 49.3079C93.8107 49.3332 93.7394 49.3839 93.6888 49.4527C93.6381 49.5214 93.6108 49.6045 93.6108 49.6899C93.6108 49.7753 93.6381 49.8584 93.6888 49.9271C93.7394 49.9958 93.8107 50.0466 93.8922 50.0719V50.0719Z" fill="#22272E"/>
<path d="M156.372 55.8959C156.455 55.8717 156.528 55.8211 156.58 55.7519C156.632 55.6827 156.66 55.5984 156.66 55.5119C156.66 55.4253 156.632 55.3411 156.58 55.2719C156.528 55.2027 156.455 55.1521 156.372 55.1279C156.289 55.1521 156.216 55.2027 156.164 55.2719C156.112 55.3411 156.084 55.4253 156.084 55.5119C156.084 55.5984 156.112 55.6827 156.164 55.7519C156.216 55.8211 156.289 55.8717 156.372 55.8959V55.8959Z" fill="#22272E"/>
<path d="M151.468 59.4159C152.804 59.4159 152.804 57.3399 151.468 57.3399C150.132 57.3399 150.128 59.4159 151.468 59.4159Z" fill="#22272E"/>
<g opacity="0.5">
<path opacity="0.5" d="M148.536 71.5999C147.064 89.9999 131.736 95.5479 131.736 95.5479C130.608 98.3479 129.14 105.464 129.14 105.464H108.668C108.668 105.464 107.2 98.3479 106.072 95.5479C106.072 95.5479 90.7401 89.9999 89.2721 71.5999C88.2521 58.7999 97.3561 39.9079 118.792 39.9039H119.012C140.448 39.9239 149.556 58.8279 148.536 71.5999Z" fill="#E7EFFF"/>
</g>
<g opacity="0.7">
<path opacity="0.7" d="M146 71.7079C144.66 88.5399 130.636 93.5999 130.636 93.5999C129.604 96.1599 128.264 105.468 128.264 105.468H109.544C109.544 105.468 108.2 96.1599 107.168 93.5999C107.168 93.5999 93.1441 88.5279 91.8001 71.6959C90.868 59.9999 99.2001 42.7239 118.8 42.7199H119.004C138.608 42.7239 146.94 59.9999 146 71.7079Z" fill="#FBFF32"/>
</g>
<path d="M108.505 74.8743L107.325 75.0947L113.344 107.317L114.523 107.097L108.505 74.8743Z" fill="#263238"/>
<path d="M129.294 74.8758L123.298 107.103L124.478 107.322L130.474 75.0953L129.294 74.8758Z" fill="#263238"/>
<path d="M118.904 85.6479C117.072 85.6479 115.392 83.9359 114.212 81.7479C114.01 82.0269 113.751 82.2591 113.451 82.4289C113.152 82.5987 112.819 82.702 112.476 82.7319C109.488 82.7319 108.28 76.5239 108.228 76.2599L108.628 76.1879C108.628 76.2479 109.828 82.3319 112.48 82.3319C113.008 82.3319 113.54 81.9639 114.024 81.3719C113.105 79.5912 112.589 77.6303 112.512 75.6279C112.512 73.9119 113.148 72.9279 114.264 72.9279C115.564 72.9279 116.308 73.9759 116.308 75.7999C116.244 77.8 115.616 79.7413 114.496 81.3999C115.612 83.5439 117.204 85.2519 118.896 85.2519C120.176 85.2519 121.456 84.2519 122.496 82.4519C122.588 82.2879 122.68 82.1199 122.768 81.9479C121.568 80.6599 120.9 78.5479 120.9 76.5359C120.9 74.3239 121.724 72.9359 123.048 72.9359C123.303 72.9355 123.552 73.006 123.769 73.1396C123.986 73.2731 124.162 73.4643 124.276 73.6919C125.172 75.2399 124.676 78.9599 123.248 81.8719C123.805 82.4334 124.561 82.7512 125.352 82.7559V82.7559C127.632 82.7559 129.352 76.6359 129.376 76.5759L129.776 76.6839C129.7 76.9479 127.948 83.1559 125.376 83.1559C124.524 83.148 123.708 82.8162 123.092 82.2279L122.864 82.6279C122.064 83.9999 120.736 85.6479 118.904 85.6479ZM123.068 73.3279C121.776 73.3279 121.32 75.0439 121.32 76.5279C121.32 78.1279 121.856 80.2639 122.972 81.5639C124.272 78.8079 124.76 75.2959 123.952 73.8959C123.875 73.7265 123.75 73.5829 123.593 73.4822C123.437 73.3815 123.254 73.3279 123.068 73.3279V73.3279ZM114.268 73.3279C113.092 73.3279 112.916 74.7679 112.916 75.6279C112.994 77.4978 113.467 79.33 114.304 81.0039C115.301 79.4489 115.855 77.6507 115.904 75.8039C115.904 74.8759 115.688 73.3279 114.26 73.3279H114.268Z" fill="#263238"/>
<path d="M131.724 105.504H106.084V119.616H131.724V105.504Z" fill="#63737A"/>
<path d="M128.8 119.6C127.292 122.276 124.4 124.668 118.888 124.668C113.376 124.668 110.488 122.268 108.972 119.6H128.8Z" fill="#63737A"/>
<path d="M128.8 119.6C128.352 120.4 127.792 121.131 127.136 121.772L109.488 120.416C109.303 120.158 109.13 119.891 108.972 119.616L128.8 119.6Z" fill="#37474F"/>
<path d="M132.472 108.196L105.332 110.704V109.472L132.472 106.964V108.196Z" fill="#37474F"/>
<path d="M132.472 111.92L105.332 114.428V113.2L132.472 110.688V111.92Z" fill="#37474F"/>
<path d="M132.472 115.644L105.332 118.152V116.924L132.472 114.412V115.644Z" fill="#37474F"/>
<g opacity="0.5">
<path opacity="0.5" d="M95.7281 67.3159C96.6681 67.4719 97.8881 62.6199 103.104 57.0039C105.42 54.5119 114.212 51.4039 113.58 48.5119C112.948 45.6199 105.104 48.5919 101.156 53.1639C94.8001 60.5199 94.8641 67.1679 95.7281 67.3159Z" fill="white"/>
<path opacity="0.5" d="M142 68.324C143.728 68.324 143.732 65.636 142 65.636C140.268 65.636 140.252 68.324 142 68.324Z" fill="white"/>
<path opacity="0.5" d="M133.524 88.532C134.468 89.256 139.056 85.0199 141.124 79.9679C142.844 75.7759 143.124 70.4759 141.984 70.1679C140.844 69.8599 140.08 77.1319 138.692 79.8119C136.94 83.1999 132.512 87.764 133.524 88.532Z" fill="white"/>
</g>
</svg>
