<svg width="200" height="200" viewBox="0 0 200 200" fill="none" xmlns="http://www.w3.org/2000/svg">
<path d="M42.8359 140.4L37.1999 140.52C35.3039 140.552 33.3919 140.584 31.4799 140.584H31.2999V140.4V135.924V135.724H31.4999L37.1719 135.748C39.0639 135.748 40.9559 135.796 42.8439 135.816H42.9559V135.92L42.8359 140.4ZM42.8359 140.4L42.7319 135.924L42.8359 136.032C40.9479 136.052 39.0559 136.096 37.1639 136.1L31.4919 136.124L31.6919 135.924V140.4L31.5119 140.224C33.3799 140.224 35.2519 140.256 37.1359 140.288L42.8359 140.4Z" fill="#EBEBEB"/>
<path d="M36.508 146.048L30.88 146.164C28.988 146.196 27.076 146.228 25.16 146.228H24.984V146.048L24.964 141.572V141.372H25.164L30.84 141.396C32.732 141.396 34.62 141.444 36.512 141.464H36.62V141.568L36.508 146.048ZM36.508 146.048L36.4 141.572L36.504 141.68C34.612 141.7 32.724 141.744 30.832 141.748L25.156 141.772L25.356 141.572V146.048L25.176 145.872C27.048 145.872 28.916 145.904 30.804 145.936L36.508 146.048Z" fill="#EBEBEB"/>
<path d="M136.292 110.08L130.668 110.192C128.772 110.224 126.86 110.256 124.948 110.26H124.768V110.08L124.748 105.6V105.4H124.952L130.624 105.424C132.516 105.424 134.404 105.472 136.296 105.492H136.4V105.6L136.292 110.08ZM136.292 110.08L136.188 105.6L136.292 105.704C134.4 105.728 132.512 105.768 130.62 105.772L124.948 105.8L125.144 105.6L125.124 110.076L124.948 109.896C126.816 109.896 128.684 109.932 130.572 109.964L136.292 110.08Z" fill="#EBEBEB"/>
<path d="M123.504 110.08L117.876 110.192C115.984 110.224 114.072 110.256 112.156 110.26H112V110.08L111.956 105.6V105.4H112.156L117.832 105.424C119.724 105.424 121.612 105.472 123.504 105.492H123.6V105.6L123.504 110.08ZM123.504 110.08L123.4 105.6L123.504 105.704C121.612 105.728 119.724 105.768 117.832 105.772L112.156 105.8L112.356 105.6L112.336 110.076L112.156 109.896C114.028 109.896 115.896 109.932 117.784 109.964L123.504 110.08Z" fill="#EBEBEB"/>
<path d="M129.912 115.724L124.284 115.836C122.388 115.868 120.48 115.9 118.564 115.904H118.4V115.724V111.248V111.048H118.6L124.276 111.072C126.164 111.072 128.056 111.12 129.948 111.14H130.056V111.244L129.912 115.724ZM129.912 115.724L129.804 111.248L129.912 111.352C128.02 111.376 126.128 111.416 124.24 111.42L118.564 111.448L118.764 111.248L118.744 115.724L118.564 115.544C120.436 115.544 122.304 115.58 124.192 115.612L129.912 115.724Z" fill="#EBEBEB"/>
<path d="M174.84 146.048L169.212 146.164C167.316 146.196 165.404 146.228 163.492 146.228H163.312V146.048V141.572V141.372H163.512L169.184 141.396C171.076 141.396 172.968 141.444 174.86 141.464H174.968V141.568L174.84 146.048ZM174.84 146.048L174.732 141.572L174.84 141.68C172.948 141.7 171.056 141.744 169.164 141.748L163.492 141.772L163.692 141.572L163.672 146.048L163.492 145.872C165.36 145.872 167.232 145.904 169.12 145.936L174.84 146.048Z" fill="#EBEBEB"/>
<path d="M168.508 32.516L162.884 32.628C160.988 32.66 159.076 32.692 157.164 32.692H156.984V32.512V28.04V27.836H157.188L162.86 27.86C164.752 27.86 166.64 27.908 168.532 27.928H168.64V28.036L168.508 32.516ZM168.508 32.516L168.4 28.04L168.504 28.144C166.612 28.144 164.724 28.208 162.832 28.212L157.16 28.236L157.356 28.04V32.512L157.18 32.336C159.048 32.336 160.916 32.368 162.804 32.4L168.508 32.516Z" fill="#EBEBEB"/>
<path d="M174.84 38.156L169.2 38.272C167.304 38.304 165.392 38.336 163.48 38.336H163.3V38.156V33.684V33.48H163.5L169.172 33.504C171.064 33.504 172.956 33.552 174.848 33.572H174.956V33.68L174.84 38.156ZM174.84 38.156L174.732 33.684L174.84 33.788C172.948 33.788 171.056 33.852 169.164 33.856L163.492 33.88L163.692 33.684L163.672 38.156L163.492 37.98C165.36 37.98 167.232 38.012 169.12 38.044L174.84 38.156Z" fill="#EBEBEB"/>
<path d="M36.508 32.516L30.88 32.628C28.988 32.66 27.076 32.692 25.16 32.692H24.984V32.512L24.964 28.04V27.836H25.164L30.84 27.86C32.732 27.86 34.62 27.908 36.512 27.928H36.62V28.036L36.508 32.516ZM36.508 32.516L36.4 28.04L36.504 28.144C34.612 28.144 32.724 28.208 30.832 28.212L25.156 28.236L25.356 28.04V32.512L25.176 32.336C27.048 32.336 28.916 32.368 30.804 32.4L36.508 32.516Z" fill="#EBEBEB"/>
<path d="M94.164 70.564L88.54 70.676C86.644 70.708 84.732 70.74 82.82 70.744H82.64V70.564V66.088V65.888H82.84L88.512 65.912C90.404 65.912 92.296 65.96 94.184 65.98H94.292V66.084L94.164 70.564ZM94.164 70.564L94.06 66.088L94.164 66.192C92.276 66.216 90.384 66.256 88.492 66.26L82.82 66.288L83.02 66.088L83 70.564L82.82 70.384C84.688 70.384 86.56 70.416 88.444 70.448L94.164 70.564Z" fill="#EBEBEB"/>
<path d="M42.3199 0H41.9199V55.444H42.3199V0Z" fill="#C7C7C7"/>
<path d="M61.5565 74.18L59.9925 77.616H24.2445L22.6885 74.18L37.9045 63.644H46.3365L61.5565 74.18Z" fill="#EBEBEB"/>
<path d="M47.3919 53.496L46.3359 63.644H37.9039L36.8479 53.496H47.3919Z" fill="#DBDBDB"/>
<path d="M61.552 74.18L59.988 77.616H24.244L22.684 74.18H61.552Z" fill="#DBDBDB"/>
<path d="M84.06 0H83.66V33.268H84.06V0Z" fill="#C7C7C7"/>
<path d="M103.292 52.004L101.732 55.44H65.984L64.428 52.004L79.644 41.468H88.076L103.292 52.004Z" fill="#EBEBEB"/>
<path d="M89.132 31.32L88.076 41.468H79.644L78.588 31.32H89.132Z" fill="#DBDBDB"/>
<path d="M103.292 52.004L101.728 55.44H65.984L64.424 52.004H103.292Z" fill="#DBDBDB"/>
<path d="M177.316 182.052L157.984 182.148L138.656 182.184L100 182.248L61.344 182.184L42.012 182.148L22.684 182.052L42.012 181.952L61.344 181.916L100 181.852L138.656 181.916L157.984 181.952L177.316 182.052Z" fill="#263238"/>
<path d="M94.0801 182.048H55.5761C55.2601 180.808 54.9521 179.588 54.6441 178.388C54.2921 177.008 53.9441 175.66 53.6121 174.348C53.5401 174.056 53.4641 173.76 53.3881 173.472C53.1375 172.469 52.8895 171.491 52.6441 170.536L52.2081 168.82C52.0561 168.244 51.9161 167.676 51.7761 167.124C51.7361 166.98 51.7001 166.832 51.6641 166.692L51.5441 166.216L51.4001 165.648C51.3441 165.448 51.2961 165.248 51.2481 165.056C51.1481 164.684 51.0561 164.32 50.9681 163.964C50.8321 163.436 50.7001 162.92 50.5681 162.416C50.5121 162.196 50.4521 161.976 50.4001 161.764C50.3095 161.412 50.2215 161.068 50.1361 160.732C50.0801 160.508 50.0241 160.288 49.9721 160.072C49.7401 159.192 49.5321 158.36 49.3361 157.584L49.1801 156.984C49.0961 156.648 49.0161 156.328 48.9361 156.016C48.8841 155.82 48.8321 155.616 48.7881 155.444C48.6201 154.78 48.4641 154.176 48.3321 153.644C48.2921 153.5 48.2561 153.364 48.2241 153.244C48.1361 152.892 48.0521 152.58 47.9841 152.304C47.9561 152.192 47.9321 152.084 47.9001 151.984C47.8681 151.884 47.8481 151.772 47.8241 151.68C47.8001 151.588 47.7881 151.54 47.7761 151.484C47.7641 151.428 47.7281 151.296 47.7081 151.22C47.6881 151.144 47.6881 151.136 47.6761 151.104C47.6201 150.872 47.5881 150.756 47.5881 150.756H85.0681C85.0681 150.756 86.3041 155.012 88.2681 161.872C88.6681 163.268 89.1001 164.776 89.5641 166.376C90.8961 170.932 92.4281 176.268 94.0801 182.048Z" fill="#37474F"/>
<path d="M61.8801 182.048H60.9201C59.4934 176.149 58.1121 170.24 56.7761 164.32C56.4507 162.88 56.1321 161.439 55.8201 159.996C55.7921 159.86 55.7601 159.728 55.7321 159.596C55.7284 159.581 55.7307 159.565 55.7386 159.552C55.7464 159.539 55.7592 159.53 55.7741 159.526C55.7889 159.522 55.8046 159.525 55.8178 159.533C55.8309 159.54 55.8404 159.553 55.8441 159.568C55.8441 159.612 55.8681 159.656 55.8841 159.7C56.3161 161.244 56.7521 162.796 57.1761 164.348C58.7921 170.228 60.3601 176.128 61.8801 182.048Z" fill="#263238"/>
<path d="M83.8601 150.74L82.2081 159.02L80.8521 165.82L78.5441 177.396L78.3041 178.596L77.9041 180.572L77.6081 182.072H55.5681C55.2561 180.828 54.9401 179.608 54.6401 178.412C54.2881 177.032 53.9401 175.684 53.6081 174.372C53.5361 174.08 53.4601 173.784 53.3841 173.496C53.1334 172.493 52.8854 171.515 52.6401 170.56L52.2041 168.844C52.0521 168.268 51.9121 167.7 51.7721 167.148C51.7321 167.004 51.6961 166.856 51.6601 166.716L51.5401 166.24L51.3961 165.672C51.3401 165.472 51.2921 165.272 51.2441 165.08C51.1441 164.708 51.0521 164.344 50.9641 163.988C50.8281 163.46 50.6961 162.944 50.5641 162.44C50.5041 162.216 50.4481 162 50.3961 161.788C50.3054 161.436 50.2174 161.092 50.1321 160.756C50.0761 160.532 50.0201 160.312 49.9681 160.096C49.7361 159.216 49.5281 158.384 49.3321 157.608L49.1761 157.008C49.0921 156.672 49.0121 156.352 48.9321 156.04C48.8801 155.844 48.8281 155.64 48.7841 155.468C48.6161 154.804 48.4601 154.2 48.3281 153.668C48.2881 153.524 48.2521 153.388 48.2201 153.268C48.1321 152.916 48.0481 152.604 47.9801 152.328C47.9521 152.216 47.9281 152.108 47.8961 152.008C47.8641 151.908 47.8441 151.796 47.8201 151.704C47.7961 151.612 47.7841 151.564 47.7721 151.508C47.7601 151.452 47.7241 151.32 47.7041 151.244C47.6841 151.168 47.6841 151.16 47.6721 151.128C47.6161 150.896 47.5841 150.78 47.5841 150.78L83.8601 150.74Z" fill="#263238"/>
<path d="M83.8681 150.724C83.8681 150.928 83.7121 153.164 83.3481 156.576C83.2481 157.572 83.1241 158.664 82.9841 159.836C82.7641 161.684 82.4921 163.724 82.1521 165.88C81.5761 169.64 80.8281 173.744 79.8521 177.756C79.5041 179.2 79.1241 180.632 78.7201 182.032H30.3201C30.8881 174.66 31.4121 167.992 31.8281 162.736C32.4281 155.372 32.8001 150.74 32.8001 150.74H76.6841L83.8681 150.724Z" fill="#37474F"/>
<path d="M83.7641 155.172C83.7121 156.904 83.6361 158.632 83.5241 160.352C83.4081 162.22 83.2361 164.084 82.9921 165.952C82.988 166.022 82.98 166.091 82.9681 166.16C82.7414 167.904 82.4747 169.645 82.1681 171.384C81.8881 173.004 81.6841 174.752 80.9681 176.248C80.6971 176.828 80.3121 177.348 79.8361 177.776C79.4003 178.175 78.866 178.452 78.2881 178.576C78.1936 178.6 78.0972 178.616 78.0001 178.624C77.9761 178.624 77.9481 178.624 77.9161 178.624C77.9342 178.633 77.9491 178.648 77.9591 178.666C77.969 178.683 77.9736 178.704 77.9721 178.724C77.9521 179.304 77.9721 179.896 77.9041 180.472C77.9022 180.496 77.9022 180.52 77.9041 180.544C77.8481 181.048 77.7521 181.544 77.6601 182.044H76.8321C76.8321 182.044 76.8321 182.024 76.8321 182.012C76.9801 181.468 77.1001 180.916 77.2321 180.364C77.3641 179.812 77.5641 179.252 77.6961 178.68C77.7037 178.659 77.7177 178.641 77.7361 178.628C77.2098 178.652 76.6887 178.515 76.2426 178.235C75.7964 177.955 75.4467 177.545 75.2401 177.06C74.9601 176.32 75.0881 175.548 75.2001 174.788C75.3521 173.796 75.4961 172.788 75.6481 171.816C75.9321 169.996 76.2961 168.196 76.6201 166.384L76.7641 165.56C77.4161 161.876 78.0921 158.192 78.9081 154.544C78.9361 154.392 78.9721 154.24 79.0041 154.088C79.0361 153.936 79.1921 154.016 79.1801 154.112C79.1561 154.356 79.1321 154.604 79.1041 154.848C78.9601 156.252 78.7961 157.648 78.6001 159.036C78.3641 160.672 78.2001 162.316 77.9761 163.948C77.8961 164.508 77.8201 165.064 77.7361 165.62C77.3601 168.308 76.9721 170.996 76.5121 173.676C76.2961 174.92 75.5201 177.148 77.3121 177.536C77.7178 177.622 78.1406 177.568 78.5121 177.384C79.3031 176.907 79.8943 176.16 80.1761 175.28C80.6841 173.856 80.8641 172.284 81.1281 170.8C81.4201 169.16 81.6761 167.52 81.9081 165.876C82.2014 163.825 82.5067 161.775 82.8241 159.724C82.9841 158.68 83.1521 157.636 83.3161 156.592C83.3961 156.108 83.4721 155.624 83.5521 155.14C83.6001 155.04 83.7641 155.068 83.7641 155.172Z" fill="#263238"/>
<path d="M40.9521 168.032C42.967 168.014 44.9717 167.745 46.9201 167.232C47.8201 167.004 48.7081 166.716 49.5881 166.432C50.4596 166.195 51.2754 165.787 51.9881 165.232C53.3481 164.064 53.9881 162.22 54.5681 160.584C55.2128 158.739 55.7353 156.854 56.1321 154.94C56.1521 154.844 56.2921 154.876 56.2921 154.964C56.344 157.125 56.0744 159.282 55.4921 161.364C55.0081 163.136 54.3521 165.108 52.9241 166.348C51.4201 167.652 49.3761 168.112 47.4521 168.348C45.2907 168.599 43.106 168.569 40.9521 168.26C40.9219 168.26 40.8929 168.248 40.8715 168.227C40.8501 168.205 40.8381 168.176 40.8381 168.146C40.8381 168.116 40.8501 168.087 40.8715 168.065C40.8929 168.044 40.9219 168.032 40.9521 168.032Z" fill="#263238"/>
<path d="M37.6 154.976C37.4907 157.683 37.376 160.392 37.256 163.104C36.9894 169.421 36.6854 175.736 36.344 182.048H35.436C35.852 175.72 36.2907 169.396 36.752 163.076C36.952 160.372 37.152 157.676 37.364 154.972C37.3696 154.944 37.3846 154.92 37.4064 154.902C37.4283 154.885 37.4556 154.875 37.4837 154.876C37.5117 154.876 37.5387 154.887 37.56 154.905C37.5813 154.923 37.5954 154.948 37.6 154.976Z" fill="#263238"/>
<path d="M72.8 102.992C80.444 114.524 99.156 135.736 108.592 138.804C114.032 140.576 136.992 136.636 142.308 135.12C145.132 134.32 134.376 111.26 131.336 112.036C128.22 112.836 113.844 115.808 111.504 115.916C109.164 116.024 90.852 102.424 81.312 96.244C69.28 88.452 66.544 93.548 72.8 102.992Z" fill="#D3766A"/>
<path d="M138.64 135.788C141.596 135.42 155.168 132.588 158.712 130.952C162.256 129.316 172.12 123.868 171.14 121.024C170.16 118.18 167.14 119.548 167.14 119.548C167.14 119.548 170.94 116.588 169.696 113.816C168.452 111.044 163.832 113.32 163.832 113.32C163.832 113.32 167.512 109.996 166.072 107.32C164.632 104.644 160.368 107.72 160.368 107.72C160.368 107.72 163.876 104.836 161.764 103.132C159.22 101.08 153.364 107.132 149.308 108.636C148.388 108.98 130.176 114.276 130.176 114.276L138.64 135.788Z" fill="#D3766A"/>
<path d="M160.748 107.46C156.424 111.892 153.768 113.088 147.84 114.508C147.724 114.536 147.736 114.712 147.84 114.696C153.776 113.832 157.324 112.816 160.956 107.656C161.152 107.404 160.956 107.248 160.748 107.46Z" fill="#263238"/>
<path d="M164.176 112.964C159.284 117.2 156.4 118.496 150.312 120.444C150.224 120.468 150.264 120.62 150.352 120.6C156.496 119.192 160.016 118.096 164.352 113.244C164.544 113.024 164.4 112.772 164.176 112.964Z" fill="#263238"/>
<path d="M166.836 119.636C161.804 123.376 158.716 124.956 152.552 126.084C152.525 126.091 152.502 126.108 152.486 126.131C152.47 126.154 152.464 126.182 152.467 126.21C152.471 126.238 152.484 126.263 152.505 126.282C152.525 126.301 152.552 126.311 152.58 126.312C158.98 125.776 162.844 123.828 166.932 119.8C167.2 119.528 167.152 119.4 166.836 119.636Z" fill="#263238"/>
<path d="M126.4 115.112C126.4 115.112 130.696 108.648 133.2 106.224C135.704 103.8 148.4 98.224 149.764 100.892C151.524 104.34 144.832 109.008 141.256 110.864C141.256 110.864 145.328 118.84 141.256 123.228C137.184 127.616 126.4 115.112 126.4 115.112Z" fill="#D3766A"/>
<path d="M149.924 102C149.26 106.304 144.408 108.44 141.072 110.5C141.022 110.528 140.979 110.568 140.947 110.616C140.915 110.664 140.896 110.72 140.891 110.777C140.885 110.835 140.894 110.893 140.915 110.946C140.937 111 140.972 111.047 141.016 111.084C142.5 114.544 143.584 119.852 141.484 123.224C141.472 123.244 141.468 123.267 141.473 123.289C141.478 123.312 141.49 123.332 141.509 123.345C141.527 123.359 141.55 123.365 141.573 123.363C141.596 123.36 141.617 123.349 141.632 123.332C144.372 120.024 143.732 114.72 141.864 111.036C145.316 108.976 150.088 106.636 149.968 102.004C149.968 101.976 149.928 101.968 149.924 102Z" fill="#263238"/>
<path d="M96.9801 104.664L87.9761 126.64C87.9761 126.64 73.2761 107.268 68.6681 98.1C63.8681 88.548 65.8921 85.104 78.0601 92.344C90.3041 99.628 96.9801 104.664 96.9801 104.664Z" fill="#22272E"/>
<path d="M96.9801 104.664L92.7041 115.1L87.9761 126.64C87.9761 126.64 73.2801 107.268 68.6681 98.1C66.2281 93.256 65.5521 89.984 67.0681 88.88C68.5841 87.776 72.0761 88.776 78.0721 92.344C90.3041 99.632 96.9801 104.664 96.9801 104.664Z" fill="#22272E"/>
<path d="M70.144 88.676C70.284 88.708 70.428 88.744 70.576 88.788L70.2 89.052C68.9 89.984 67.624 90.952 66.356 91.94C66.356 91.828 66.32 91.72 66.312 91.616C67.564 90.616 68.82 89.6 70.144 88.676ZM83.068 95.388C82.5887 96.5728 81.9639 97.6934 81.208 98.724C79.7157 100.765 77.8443 102.499 75.696 103.832C74.802 104.393 73.8658 104.884 72.896 105.3C72.968 105.416 73.048 105.532 73.12 105.652C74.1207 105.208 75.0874 104.69 76.012 104.104C78.0808 102.792 79.8931 101.114 81.36 99.152C82.1882 98.0572 82.8674 96.8574 83.38 95.584L83.068 95.388ZM84.94 122.588L85.34 123.148C85.408 123.176 85.48 123.216 85.548 123.248C86.614 123.773 87.6383 124.379 88.612 125.06L88.76 124.704C88.412 124.464 88.06 124.232 87.696 124.008C86.8148 123.461 85.8935 122.981 84.94 122.572V122.588ZM93.412 111.084C90.148 110.348 87.16 108.72 83.86 108.104C81.172 107.6 78.3 107.9 76.172 109.756C76.104 109.82 76.032 109.88 75.968 109.952C76.036 110.052 76.112 110.16 76.18 110.268C77.1845 109.312 78.44 108.662 79.8 108.392C83.136 107.732 86.472 109.132 89.544 110.268C91.0308 110.851 92.5679 111.297 94.136 111.6L94.288 111.228C94 111.2 93.7 111.132 93.412 111.068V111.084Z" fill="white"/>
<path d="M92.592 104.596C92.316 105.092 92.112 105.632 91.884 106.152C91.656 106.672 91.416 107.22 91.18 107.752C90.704 108.832 90.248 109.924 89.796 111.016C88.892 113.2 87.98 115.38 87.116 117.58C86.876 118.184 86.64 118.78 86.42 119.4C86.2 120.02 85.996 120.704 85.764 121.34C85.764 121.38 85.808 121.4 85.824 121.36C86.064 120.828 86.348 120.312 86.592 119.76C86.836 119.208 87.08 118.664 87.316 118.108C87.776 117.02 88.232 115.928 88.676 114.836C89.548 112.676 90.428 110.524 91.256 108.348C91.488 107.74 91.712 107.148 91.944 106.524C92.176 105.9 92.468 105.252 92.648 104.6C92.66 104.588 92.608 104.564 92.592 104.596Z" fill="#263238"/>
<path opacity="0.1" d="M92.7041 115.1L87.9761 126.64C87.9761 126.64 73.2801 107.268 68.6681 98.1C66.2281 93.256 65.5521 89.984 67.0681 88.88C69.5041 88.948 71.1921 88.988 71.1921 88.988L92.7041 115.1Z" fill="black"/>
<path d="M90.8481 165.764L28.8 165.944C28.8 165.944 34.212 119.252 57.0001 91.668C62.2721 85.268 70.7641 88.756 74.3441 92.144C83.4241 100.748 91.0241 165.54 90.8481 165.764Z" fill="#22272E"/>
<path d="M69.876 89.284C67.224 91.2 64.676 93.284 62.096 95.284C60.764 96.312 59.468 97.404 58.076 98.344C56.96 99.096 55.676 99.72 54.308 99.644C53.4017 99.577 52.5389 99.2288 51.84 98.648C51.884 98.576 51.936 98.5 51.984 98.428C52.2711 98.66 52.5854 98.8561 52.92 99.012C54.292 99.64 55.784 99.328 57.06 98.612C58.472 97.836 59.716 96.736 60.988 95.752L65.152 92.52C66.588 91.408 68.012 90.208 69.504 89.12L69.876 89.284ZM60.676 121.26C62.048 119.296 62.716 116.66 61.876 114.356C61.104 112.296 59.26 110.94 57.168 110.436C54.9881 109.92 52.696 110.191 50.696 111.2C48.084 112.524 46.184 114.876 43.836 116.576C43.1738 117.052 42.4616 117.455 41.712 117.776C41.644 117.94 41.58 118.1 41.512 118.26C44.04 117.304 45.912 115.288 47.94 113.568C48.9965 112.608 50.1962 111.818 51.496 111.228C52.5941 110.782 53.767 110.55 54.952 110.544C57.224 110.52 59.648 111.368 60.952 113.344C62.424 115.564 61.992 118.444 60.652 120.616C57.256 126.12 49.74 125.768 44.124 125.872C42.1959 125.882 40.2724 126.063 38.376 126.412C38.316 126.56 38.264 126.704 38.216 126.852C40.3746 126.455 42.5654 126.261 44.76 126.272C50.228 126.208 57.172 126.296 60.692 121.26H60.676ZM62.048 107.348C66.9334 107.904 71.8611 106.758 76 104.104C77.1039 103.403 78.1392 102.6 79.092 101.704C79.048 101.564 79.004 101.428 78.952 101.304C77.9536 102.266 76.8569 103.12 75.68 103.852C71.3945 106.551 66.2733 107.599 61.272 106.8C57.148 106.096 53.448 103.56 49.444 102.44C49.364 102.564 49.292 102.688 49.212 102.812C50.9477 103.351 52.6404 104.02 54.276 104.812C56.8 105.956 59.308 107.004 62.064 107.348H62.048ZM57.444 145.004C59.1073 143.343 60.1036 141.13 60.244 138.784C60.364 136.636 59.68 134.384 57.972 132.964C56.012 131.364 53.348 131.292 51.028 132.044C48.352 132.912 46.276 134.764 44.46 136.844C42.484 139.12 40.752 141.712 38.348 143.572C36.712 144.836 34.652 145.872 32.544 146.008C32.512 146.132 32.484 146.256 32.452 146.38C33.5352 146.322 34.6002 146.077 35.6 145.656C38.24 144.544 40.24 142.556 42.048 140.392C43.952 138.124 45.728 135.592 48.212 133.88C50.38 132.396 53.272 131.428 55.872 132.252C58.296 133.016 59.696 135.26 59.872 137.72C59.9441 138.938 59.7686 140.158 59.3561 141.306C58.9436 142.454 58.3027 143.506 57.472 144.4C55.54 146.504 52.928 147.812 50.272 148.8C47.1981 149.899 44.0604 150.81 40.876 151.528C37.488 152.328 33.412 153.008 30.572 155.172C30.532 155.384 30.488 155.572 30.452 155.788C33.296 153.408 37.652 152.7 41.172 151.872C44.3459 151.159 47.472 150.248 50.532 149.144C53.052 148.188 55.544 146.944 57.46 145.004H57.444ZM53.444 155.272C50.712 155.088 48.384 156.796 46.84 158.9C45.24 161.084 44.288 163.652 42.808 165.904H43.256C43.86 164.956 44.38 163.948 44.884 162.976C46.196 160.436 47.636 157.588 50.332 156.272C51.6034 155.617 53.0709 155.452 54.456 155.808C55.0753 156.01 55.6432 156.345 56.1204 156.788C56.5977 157.231 56.9729 157.773 57.22 158.376C58.26 160.732 57.868 163.36 58.02 165.852H58.42C58.3 163.816 58.512 161.756 58.068 159.74C57.56 157.412 56 155.44 53.476 155.272H53.444ZM81.6 164.208C80.672 161.684 80.66 158.94 80.8 156.292C81.112 149.644 82.42 142.936 81.376 136.292C80.576 131.204 78.392 126.044 74.084 122.968C71.892 121.408 68.884 120.404 66.396 121.884C64.284 123.132 63.176 125.66 63.148 128.044C63.112 131.132 64.552 134.024 66.064 136.632C67.576 139.24 69.264 141.656 70.784 144.232C72.304 146.808 73.584 149.46 74.14 152.368C74.6524 155.069 74.5636 157.849 73.88 160.512C73.4105 162.383 72.6635 164.174 71.664 165.824H72.116C72.32 165.48 72.516 165.128 72.696 164.776C73.9112 162.405 74.6263 159.81 74.797 157.151C74.9676 154.492 74.5902 151.827 73.688 149.32C71.648 143.72 67.544 139.196 65.012 133.828C63.716 131.084 62.88 127.828 64.236 124.932C64.7652 123.733 65.6691 122.738 66.812 122.096C67.4903 121.77 68.2274 121.583 68.9793 121.548C69.7311 121.513 70.4823 121.63 71.188 121.892C73.86 122.768 76.088 124.924 77.624 127.22C79.085 129.486 80.113 132.003 80.656 134.644C82.08 141.096 80.956 147.728 80.496 154.22C80.296 157.02 80.124 159.888 80.724 162.656C80.9473 163.758 81.3429 164.817 81.896 165.796H82.4C82.0756 165.298 81.8073 164.765 81.6 164.208ZM74.88 116.356C76.176 118.988 78.804 120.42 81.412 121.488C82.38 121.888 83.356 122.252 84.312 122.66C84.288 122.524 84.26 122.392 84.236 122.26C82.72 121.616 81.176 121.06 79.696 120.3C77.18 119.036 74.576 116.756 74.612 113.692C74.644 110.892 77.236 108.892 79.812 108.372C80.2215 108.294 80.6358 108.243 81.052 108.22C81.02 108.112 80.988 107.996 80.96 107.884C79.2063 107.952 77.5255 108.604 76.184 109.736C75.2461 110.527 74.6057 111.613 74.3686 112.817C74.1316 114.02 74.3119 115.269 74.88 116.356Z" fill="white"/>
<path d="M54.592 108.164C54.592 123.392 59.428 155.412 68.192 162.388C79.696 171.544 103.684 173.24 111.28 173.424C114.592 173.504 116.428 151.528 113.848 149.1C111.268 146.672 83.6521 141.676 81.2641 140.532C78.8761 139.388 71.14 117.048 64.956 105.804C57.156 91.62 54.592 95.368 54.592 108.164Z" fill="#D3766A"/>
<path d="M124.196 153.472C122.748 152.604 123.192 151.84 126.172 151.472C129.152 151.104 141.26 152.12 141.26 147.872C141.26 143.624 124.156 142.412 119.26 143.424C114.364 144.436 106.76 147.788 106.76 147.788C110.024 148.676 117.78 151.62 124.196 153.472Z" fill="#D3766A"/>
<path d="M102.8 172.524C112.14 174.728 123.628 178.036 133.968 174.832C135.125 174.507 136.139 173.802 136.848 172.832C141.508 171.476 142.268 168.872 142.268 168.872C146.224 166.28 146.636 163.508 146.636 163.508C146.636 163.508 152.088 161.86 151.64 158.396C151.148 154.512 143.584 157.596 138.392 156.736C126.492 154.784 110.128 148.68 106.752 147.776L102.8 172.524Z" fill="#D3766A"/>
<path d="M124.476 163.452C127.988 163.956 131.428 164.544 134.992 164.568C138.9 164.596 142.664 163.968 146.516 163.428C146.538 163.428 146.56 163.435 146.577 163.449C146.595 163.462 146.607 163.482 146.612 163.504C146.616 163.525 146.613 163.548 146.603 163.568C146.593 163.587 146.576 163.603 146.556 163.612C139.756 165.696 131.288 165.572 124.452 163.612C124.284 163.564 124.3 163.424 124.476 163.452Z" fill="#263238"/>
<path d="M122.256 170.46C125.7 170.76 131.76 171.26 142.236 168.752C142.268 168.752 142.296 168.8 142.26 168.816C135.672 171.344 129.132 171.816 122.26 170.624C122.028 170.588 122.024 170.44 122.256 170.46Z" fill="#263238"/>
<path d="M121.132 174.248C127.008 174.54 130.752 173.976 136.812 172.808C136.848 172.808 136.868 172.856 136.832 172.868C130.084 174.924 127.4 174.904 121.092 174.468C120.876 174.436 120.9 174.24 121.132 174.248Z" fill="#263238"/>
<path d="M73.8281 123.064L54.5201 136.892C54.5201 136.892 52.3681 112.672 53.3201 102.456C54.3281 91.812 57.8761 89.972 64.3321 102.572C70.8481 115.252 73.8281 123.064 73.8281 123.064Z" fill="#22272E"/>
<path d="M58.828 133.812L58.488 134.052C57.8165 133.203 56.9049 132.576 55.872 132.252C55.3055 132.074 54.7174 131.975 54.124 131.956L54.1 131.588C55.5159 131.599 56.8874 132.083 57.996 132.964C58.3029 133.216 58.5818 133.5 58.828 133.812ZM58.076 98.34C58.948 97.748 59.788 97.1 60.616 96.44C60.56 96.356 60.492 96.28 60.432 96.2C59.3782 97.1002 58.2502 97.9098 57.06 98.62C56.071 99.2189 54.9025 99.4498 53.76 99.272C53.76 99.364 53.724 99.46 53.708 99.556C53.9058 99.5979 54.1063 99.626 54.308 99.64C55.68 99.716 56.96 99.092 58.076 98.34ZM57.164 110.436C55.8258 110.12 54.4349 110.1 53.088 110.376C53.088 110.508 53.088 110.636 53.088 110.776C53.6995 110.646 54.3228 110.579 54.948 110.576C57.22 110.552 59.644 111.4 60.948 113.376C62.42 115.596 61.988 118.476 60.648 120.648C59.048 123.26 56.492 124.552 53.668 125.204L53.692 125.604C56.464 124.972 58.984 123.736 60.696 121.288C62.068 119.324 62.736 116.688 61.896 114.384C61.1 112.296 59.256 110.94 57.164 110.436ZM66.564 106.972C64.8006 107.156 63.0202 107.1 61.272 106.804C58.472 106.324 55.864 105 53.224 103.852L53.2 104.336L54.276 104.82C56.784 105.956 59.308 107.004 62.064 107.348C63.6233 107.537 65.1992 107.543 66.76 107.368L66.564 106.972ZM73.692 122.708C71.548 121.304 68.744 120.496 66.4 121.908C64.288 123.156 63.18 125.684 63.152 128.068C63.1462 128.897 63.2361 129.724 63.42 130.532L63.78 130.28C63.3401 128.498 63.5018 126.621 64.24 124.94C64.7692 123.741 65.6731 122.746 66.816 122.104C67.4943 121.778 68.2314 121.591 68.9832 121.556C69.7351 121.521 70.4863 121.638 71.192 121.9C72.087 122.198 72.9343 122.624 73.708 123.164L73.828 123.08C73.828 123.08 73.784 122.944 73.692 122.708Z" fill="white"/>
<path d="M70.148 120.672C69.652 120.948 69.188 121.296 68.72 121.616L67.272 122.6C66.292 123.264 65.328 123.944 64.364 124.632C62.436 126 60.508 127.364 58.604 128.764C58.08 129.164 57.56 129.536 57.048 129.936C56.536 130.336 56 130.816 55.448 131.232C55.412 131.256 55.448 131.304 55.488 131.28C55.976 130.956 56.492 130.672 56.98 130.348C57.468 130.024 57.98 129.68 58.472 129.336C59.44 128.659 60.404 127.975 61.364 127.284C63.248 125.92 65.14 124.564 66.996 123.164L68.548 121.964C69.092 121.564 69.668 121.164 70.148 120.708C70.208 120.704 70.18 120.656 70.148 120.672Z" fill="#263238"/>
<path d="M68.1641 108C68.1641 107.952 68.0761 107.976 68.0841 108.024C68.2237 108.936 68.4336 109.836 68.7121 110.716C68.5281 110.336 68.3521 109.952 68.1641 109.572C67.5601 108.348 66.9361 107.132 66.3361 105.908C66.3309 105.9 66.323 105.894 66.314 105.892C66.305 105.889 66.2953 105.89 66.2867 105.894C66.2781 105.898 66.2711 105.904 66.267 105.913C66.2629 105.921 66.2619 105.931 66.2641 105.94C67.1641 108.144 67.9761 110.392 68.9441 112.572C69.9121 114.752 70.8761 116.928 71.8761 119.092C72.4281 120.292 73.2001 121.716 73.7561 122.908C73.2561 123.388 72.5201 123.872 71.9721 124.38C71.9241 124.424 72.0001 124.496 72.0561 124.46C72.6921 124.008 73.5401 123.584 74.1641 123.044C74.2441 122.976 70.8361 115.184 69.1001 111.532C68.8201 110.328 68.5161 109.144 68.1641 108Z" fill="#263238"/>
<path d="M57.5201 134.928C56.9706 135.17 56.4363 135.445 55.9201 135.752C55.4921 136.004 55.0921 136.292 54.6841 136.552C54.6841 135.864 54.6001 135.172 54.5561 134.488C54.5001 133.672 54.4454 132.856 54.3921 132.04C54.2841 130.408 54.1721 128.776 54.0721 127.144C53.9721 125.512 53.8561 123.88 53.7601 122.244C53.6641 120.608 53.5921 118.976 53.4601 117.344C53.3121 115.508 53.1761 113.668 53.0361 111.832C53.0361 111.815 53.0293 111.799 53.0173 111.787C53.0053 111.775 52.989 111.768 52.9721 111.768C52.9551 111.768 52.9388 111.775 52.9268 111.787C52.9148 111.799 52.9081 111.815 52.9081 111.832C52.8867 113.528 52.8867 115.224 52.9081 116.92C52.6601 115.948 52.3321 114.992 52.1321 114.008C52.1294 113.992 52.1205 113.978 52.1074 113.969C52.0943 113.959 52.078 113.955 52.0621 113.958C52.0461 113.961 52.0319 113.97 52.0226 113.983C52.0132 113.996 52.0094 114.012 52.0121 114.028C52.0961 115.296 52.2841 116.652 52.9281 117.768C52.9601 119.092 53.0001 120.42 53.0681 121.748C53.2321 125.016 53.4321 128.28 53.7121 131.544C53.7921 132.46 53.8721 133.376 53.9601 134.296C54.0481 135.216 54.0961 136.112 54.2681 136.996C54.2787 137.031 54.2981 137.062 54.3244 137.086C54.3507 137.111 54.383 137.129 54.4181 137.137C54.4532 137.146 54.49 137.145 54.5247 137.135C54.5594 137.125 54.5909 137.106 54.6161 137.08C55.0704 136.678 55.5515 136.308 56.0561 135.972C56.5361 135.628 57.0281 135.3 57.5241 134.98C57.6001 134.976 57.5601 134.912 57.5201 134.928Z" fill="#263238"/>
<path d="M76.2641 94.076C76.3 95.0641 76.284 96.0535 76.2161 97.04C76.1823 97.9304 76.0645 98.8157 75.8641 99.684C75.4641 101.256 74.5081 102.78 72.8161 103.404C72.0297 103.66 71.2 103.757 70.3757 103.688C69.5515 103.619 68.7492 103.387 68.0161 103.004C66.4521 102.236 65.1561 101.028 63.9601 99.848C63.2201 99.116 62.5081 98.356 61.8361 97.568C61.4961 97.168 61.1561 96.768 60.8361 96.368C60.5161 95.968 60.2161 95.524 59.8721 95.128C59.8441 95.096 59.7761 95.128 59.8001 95.168C60.4881 96.116 62.6001 99.128 63.2521 99.856C64.4521 101.18 65.7721 102.524 67.4041 103.412C68.9759 104.324 70.8422 104.586 72.6041 104.14C73.4429 103.899 74.2063 103.448 74.8216 102.829C75.437 102.21 75.884 101.444 76.1201 100.604C76.3931 99.5995 76.5171 98.5604 76.4881 97.52C76.4881 96.376 76.4201 95.232 76.3241 94.1C76.2881 94.06 76.2641 94.064 76.2641 94.076Z" fill="#263238"/>
<path d="M71.0561 100.76C67.2441 101.136 61.6681 94.648 59.7801 89.748C59.6521 89.412 62.6361 77.064 62.9801 74.548C63.0441 74.036 78.2161 80.488 78.2161 80.488C78.2161 80.488 75.9601 85.536 75.4161 89.912C75.3521 90.288 74.7361 100.4 71.0561 100.76Z" fill="#D3766A"/>
<path d="M78.2121 80.496C78.2121 80.496 75.9561 85.544 75.3921 89.92C75.3921 90.008 75.3401 90.64 75.2361 91.556C67.8441 89.86 63.7001 84.628 61.6361 80.988C62.2601 78.188 62.8361 75.576 62.9641 74.56C63.0441 74.044 78.2121 80.496 78.2121 80.496Z" fill="#263238"/>
<path d="M77.632 50.024C78.548 49.912 83.592 55.992 84.088 59.172C84.584 62.352 84.376 68.86 83.456 69.108C82.536 69.356 76.924 50.112 77.632 50.024Z" fill="#263238"/>
<path d="M57.484 59.068C55.912 64.736 59.316 80.908 63.416 84.428C69.364 89.524 78.884 89.776 83.172 82.684C87.324 75.812 82.52 54.812 77.972 51.64C71.24 46.964 59.804 50.688 57.484 59.068Z" fill="#D3766A"/>
<path d="M71.3161 65.176C70.883 65.4053 70.4384 65.6122 69.9841 65.796C69.4681 66.032 69.0841 66.272 68.5041 66.176C68.3425 66.1317 68.2002 66.035 68.0996 65.901C67.999 65.7671 67.9457 65.6035 67.9481 65.436C68.0001 64.72 68.5561 64.276 69.1481 63.968C69.75 63.6385 70.4533 63.5458 71.1201 63.708C71.2738 63.7481 71.4121 63.8331 71.5173 63.9521C71.6225 64.0711 71.69 64.2187 71.711 64.3762C71.732 64.5336 71.7057 64.6938 71.6353 64.8362C71.565 64.9787 71.4539 65.0969 71.3161 65.176Z" fill="#263238"/>
<path d="M71.9361 68.772C71.9361 68.736 71.8641 68.844 71.8801 68.888C72.1841 69.964 72.3561 71.24 71.4801 71.848C71.4521 71.848 71.4801 71.92 71.5041 71.904C72.6401 71.436 72.4001 69.74 71.9361 68.772Z" fill="#263238"/>
<path d="M70.688 67.888C68.916 68.192 69.656 71.712 71.3 71.432C72.944 71.152 72.172 67.632 70.688 67.888Z" fill="#263238"/>
<path d="M78.1841 67.3C78.1841 67.256 78.2801 67.332 78.2881 67.376C78.4841 68.476 78.8921 69.7 79.9561 69.856C79.9881 69.856 79.9961 69.9159 79.9561 69.9159C78.7201 69.9999 78.1921 68.372 78.1841 67.3Z" fill="#263238"/>
<path d="M78.92 65.956C80.644 65.452 81.524 68.944 79.924 69.408C78.324 69.872 77.472 66.376 78.92 65.956Z" fill="#263238"/>
<path d="M79.8 63.6C79.3072 63.6034 78.8145 63.5807 78.324 63.532C77.756 63.496 77.304 63.532 76.832 63.172C76.7097 63.0571 76.6288 62.9049 76.602 62.7392C76.5752 62.5735 76.6041 62.4036 76.684 62.256C77.064 61.644 77.764 61.512 78.448 61.52C79.1372 61.5119 79.8052 61.7583 80.324 62.212C80.4413 62.3201 80.5235 62.4607 80.5603 62.6158C80.597 62.771 80.5866 62.9336 80.5302 63.0827C80.4739 63.2319 80.3743 63.3609 80.2442 63.453C80.1141 63.5452 79.9594 63.5964 79.8 63.6Z" fill="#263238"/>
<path d="M73.1481 78.8C73.4601 79 73.7961 79.296 74.2002 79.244C74.6032 79.1505 74.982 78.9733 75.3122 78.724C75.3192 78.719 75.3278 78.7164 75.3364 78.7167C75.3451 78.717 75.3534 78.72 75.3602 78.7254C75.367 78.7309 75.3718 78.7383 75.3739 78.7467C75.3761 78.7551 75.3755 78.764 75.3722 78.772C75.2605 79.0186 75.0847 79.2308 74.8631 79.3863C74.6414 79.5418 74.3821 79.6349 74.1121 79.656C73.8763 79.6418 73.65 79.5583 73.4614 79.416C73.2728 79.2737 73.1305 79.0789 73.0521 78.856C73.0201 78.828 73.1001 78.8 73.1481 78.8Z" fill="#263238"/>
<path d="M73.6 75.308C73.9681 75.6811 74.4093 75.9743 74.8959 76.1691C75.3825 76.3638 75.9041 76.4561 76.428 76.44C76.8855 76.4306 77.3393 76.3566 77.776 76.22C77.8628 76.201 77.9473 76.1729 78.028 76.136L78.256 76.048C78.312 76.0254 78.3589 75.9849 78.3893 75.9327C78.4197 75.8806 78.432 75.8198 78.424 75.76C78.4157 75.7216 78.4036 75.6841 78.388 75.648L78.364 75.552C78.212 74.708 77.86 73.448 77.86 73.448C78.2 73.54 79.912 73.912 79.796 73.48C78.816 69.88 77.724 65.904 75.992 62.544C75.9816 62.5198 75.9625 62.5005 75.9385 62.4899C75.9144 62.4793 75.8872 62.4782 75.8624 62.4868C75.8376 62.4954 75.8169 62.5131 75.8046 62.5363C75.7923 62.5596 75.7892 62.5866 75.796 62.612C76.596 66.096 78.016 69.412 78.884 72.904C78.344 72.816 77.456 72.64 77.02 72.74C76.908 72.8 77.74 75.164 77.776 75.54C77.7775 75.5533 77.7775 75.5667 77.776 75.58C76.4 76.06 75.248 75.856 73.68 75.18C73.6 75.144 73.52 75.236 73.6 75.308Z" fill="#263238"/>
<path d="M77.2001 75.896C76.8663 76.5936 76.3579 77.193 75.7241 77.636C75.368 77.8676 74.9485 77.9823 74.5241 77.964C73.6041 77.92 73.4161 77.124 73.4321 76.408C73.442 76.0253 73.4984 75.6451 73.6001 75.276C74.7026 75.8631 75.9646 76.0805 77.2001 75.896Z" fill="#263238"/>
<path d="M75.72 77.636C75.3639 77.8676 74.9444 77.9823 74.52 77.964C73.6 77.92 73.412 77.124 73.428 76.408C74.4 76.304 75.448 76.744 75.72 77.636Z" fill="#FF97B8"/>
<path d="M59.724 73.152C62.66 72.94 63.56 69.496 63.824 64.832C63.98 62.108 62.436 56.984 62.436 56.984C62.436 56.984 70.388 59.252 74.52 58.184C78.652 57.116 81.648 52.948 80.92 49.692C80.3 46.892 74.952 43.996 68.648 44.744C64.248 45.264 57.448 49.944 54.952 55.18C54.952 55.18 49.884 58.692 51.372 62.712C52.86 66.732 56.4 73.392 59.724 73.152Z" fill="#263238"/>
<path d="M59.8761 72.8C63.8161 72.992 64.9041 66.928 64.5161 63.924C64.1161 60.804 62.4081 57.856 61.3801 54.912C61.3801 54.912 61.3801 54.888 61.4041 54.912C63.2881 58.38 65.4321 62.808 64.8041 66.856C64.4041 69.404 63.2761 73.696 59.8641 73.028C59.7481 72.98 59.7521 72.8 59.8761 72.8Z" fill="#263238"/>
<path d="M50.34 61.6C50.464 58.96 52.968 55.968 55.316 54.972C55.336 54.972 55.352 55 55.316 55.012C52.568 56.552 49.716 60.472 51.164 63.6C52.316 66.1 54.132 69.348 56.256 71.136C56.312 71.184 56.256 71.26 56.184 71.22C54.552 70.044 53.64 68.312 52.612 66.62C51.732 65.16 50.256 63.44 50.34 61.6Z" fill="#263238"/>
<path d="M54.4641 55.672C57.1041 50.172 63.6361 43.352 70.2361 43.84V43.872C63.3281 43.936 58.1721 50.672 54.7241 55.844C54.6201 56 54.4001 55.828 54.4641 55.672Z" fill="#263238"/>
<path d="M61.6 73.028C61.6 73.028 57.724 67.912 55.384 69.312C53.044 70.712 56.1 78.224 58.94 79.16C59.2959 79.3052 59.6775 79.377 60.0618 79.3711C60.4461 79.3651 60.8252 79.2815 61.1764 79.1254C61.5276 78.9692 61.8436 78.7436 62.1054 78.4623C62.3672 78.1809 62.5695 77.8495 62.7 77.488L61.6 73.028Z" fill="#D3766A"/>
<path d="M56.3081 71.444C56.2641 71.444 56.2601 71.504 56.3081 71.52C58.3081 72.24 59.4081 74.02 60.2001 75.88C59.5921 75.176 58.7801 74.808 57.8321 75.54C57.7801 75.58 57.8321 75.656 57.8881 75.644C58.2288 75.5198 58.5998 75.5047 58.9496 75.6007C59.2993 75.6967 59.6105 75.8992 59.8401 76.18C60.2216 76.6513 60.5515 77.1623 60.8241 77.704C60.9201 77.876 61.2241 77.772 61.1601 77.572C61.1601 77.572 61.1601 77.54 61.1601 77.528C61.0881 75.024 59.0081 71.6 56.3081 71.444Z" fill="#263238"/>
<path d="M180.4 143.348C175.112 150.512 169.6 158.824 168.252 167.808C168.252 167.944 168.456 167.988 168.488 167.856C169.095 165.404 169.875 162.998 170.824 160.656C174.304 159.7 177.716 158.916 179.544 155.456C181.404 151.908 181.168 147.28 180.816 143.416C180.772 143.22 180.488 143.2 180.4 143.348Z" fill="#22272E"/>
<path d="M170.86 160.596C173.236 155.26 176.284 149.908 180.164 145.524C180.188 145.492 180.228 145.524 180.204 145.564C177.668 148.688 175.736 152.088 173.852 155.564C175.604 153.788 177.524 152.196 179.184 150.308C179.216 150.272 179.268 150.308 179.236 150.364C177.588 152.34 175.788 154.488 173.636 155.964C173.06 157.031 172.479 158.097 171.892 159.164C172.036 159.084 172.184 159.012 172.332 158.936C172.36 158.936 172.38 158.964 172.356 158.976C172.192 159.06 172.028 159.148 171.86 159.216C171.584 159.72 171.308 160.228 171.02 160.728C170.964 160.8 170.8 160.708 170.86 160.596Z" fill="#263238"/>
<path d="M172.628 158.732C174.05 157.936 175.407 157.031 176.688 156.024C176.72 155.996 176.772 156.044 176.736 156.072C175.496 157.145 174.136 158.071 172.684 158.832C172.671 158.839 172.655 158.841 172.64 158.837C172.626 158.833 172.613 158.823 172.606 158.81C172.599 158.797 172.597 158.781 172.601 158.766C172.605 158.752 172.615 158.739 172.628 158.732Z" fill="#263238"/>
<path d="M167.62 166.476C167.624 166.499 167.637 166.519 167.655 166.534C167.672 166.548 167.695 166.556 167.718 166.556C167.741 166.556 167.763 166.548 167.781 166.534C167.799 166.519 167.811 166.499 167.816 166.476C167.844 163.52 167.816 160.548 167.86 157.576C168.62 156.044 170.26 155.2 171.376 153.976C172.191 153.082 172.9 152.097 173.488 151.04C174.85 148.513 175.683 145.736 175.936 142.876C176.248 139.712 175.048 129.276 173.712 129.632C173.02 129.82 170.784 134.992 170.188 136.704C169.226 139.524 168.522 142.425 168.084 145.372C167.004 152.32 167.092 159.468 167.62 166.476Z" fill="#22272E"/>
<path d="M167.6 153.712C167.764 149.968 168.608 146.188 169.396 142.556C170.248 138.644 171.24 134.956 173.252 131.472C173.262 131.462 173.274 131.456 173.287 131.455C173.301 131.453 173.314 131.456 173.326 131.463C173.337 131.47 173.346 131.48 173.351 131.493C173.356 131.505 173.356 131.519 173.352 131.532C172.01 134.246 170.972 137.099 170.256 140.04C170.388 139.828 170.552 139.64 170.692 139.428C170.748 139.352 170.88 139.428 170.824 139.504C170.645 139.82 170.435 140.118 170.196 140.392C170.187 140.395 170.177 140.395 170.168 140.392C169.476 143.192 168.968 146.048 168.568 148.9L168.664 148.792C168.669 148.788 168.675 148.786 168.681 148.785C168.687 148.785 168.694 148.787 168.699 148.791C168.704 148.794 168.707 148.8 168.709 148.806C168.711 148.812 168.71 148.818 168.708 148.824C168.656 148.92 168.596 149.012 168.536 149.108C168.324 150.556 168.136 152 167.924 153.432C170.504 151.228 172.704 148.632 173.948 145.432C173.948 145.432 173.976 145.432 173.972 145.432C172.752 148.752 170.836 151.7 167.884 153.716C167.828 154.116 167.776 154.488 167.72 154.872C167.72 154.952 167.584 154.928 167.584 154.852C167.584 154.512 167.584 154.168 167.612 153.828C167.603 153.821 167.596 153.813 167.591 153.804C167.585 153.794 167.582 153.784 167.581 153.773C167.58 153.762 167.581 153.751 167.584 153.74C167.588 153.73 167.593 153.72 167.6 153.712Z" fill="#263238"/>
<path d="M168.8 148.288C170.768 145.348 172.608 142.492 174.052 139.24C174.052 139.204 174.128 139.24 174.116 139.268C172.916 142.496 171.2 145.768 168.896 148.364C168.868 148.4 168.776 148.348 168.8 148.288Z" fill="#263238"/>
<path d="M171.432 138.516C172.232 137.072 173.108 135.664 173.876 134.192C173.9 134.152 173.956 134.192 173.94 134.228C173.302 135.765 172.497 137.227 171.54 138.588C171.504 138.664 171.384 138.6 171.432 138.516Z" fill="#263238"/>
<path d="M165.62 157.916C165.578 159.878 165.347 161.831 164.928 163.748C164.96 163.956 164.988 164.168 165.02 164.384C165.622 162.267 165.972 160.087 166.06 157.888C166.078 157.858 166.087 157.823 166.087 157.788C166.087 157.753 166.078 157.718 166.06 157.688C166.145 154.74 165.925 151.791 165.404 148.888C164.488 143.452 162.488 138.232 158.696 134.16C158.665 134.136 158.63 134.119 158.592 134.111C158.554 134.102 158.514 134.101 158.476 134.109C158.438 134.117 158.402 134.134 158.371 134.157C158.34 134.18 158.314 134.21 158.296 134.244C156.768 138.136 157.3 142.78 158.604 146.644C159.307 148.747 160.316 150.735 161.6 152.544C162.904 154.372 164.564 155.92 165.62 157.916Z" fill="#22272E"/>
<path d="M159.156 135.968C162.756 141.8 165.252 148.716 165.556 155.604C165.556 155.728 165.356 155.76 165.34 155.636C165.252 155.016 165.16 154.4 165.06 153.792C163.572 152.368 162.044 150.868 160.98 149.088C160.96 149.056 161.008 149.02 161.032 149.048C162.265 150.561 163.588 152 164.992 153.356C164.736 151.836 164.432 150.336 164.068 148.86L163.784 148.524C163.724 148.452 163.828 148.344 163.892 148.416L163.976 148.512C163.471 146.488 162.845 144.496 162.1 142.548C161.184 141.456 160.16 140.512 159.496 139.2C159.496 139.168 159.52 139.144 159.544 139.172C160.08 139.924 160.596 140.68 161.204 141.376C161.448 141.656 161.712 141.916 161.964 142.176C161.135 140.062 160.151 138.013 159.02 136.044C159.015 136.027 159.016 136.008 159.023 135.991C159.03 135.975 159.042 135.961 159.058 135.952C159.074 135.943 159.092 135.94 159.11 135.943C159.127 135.946 159.144 135.955 159.156 135.968Z" fill="#263238"/>
<path d="M159.884 143.164C161.044 144.724 162.368 146.216 163.448 147.832C163.48 147.88 163.412 147.928 163.372 147.892C162 146.588 160.8 144.8 159.804 143.2C159.772 143.156 159.848 143.116 159.884 143.164Z" fill="#263238"/>
<path d="M163.6 148.196L163.648 148.244C163.684 148.28 163.648 148.332 163.596 148.296L163.544 148.248C163.54 148.24 163.539 148.232 163.541 148.223C163.542 148.215 163.547 148.207 163.553 148.201C163.559 148.196 163.567 148.192 163.576 148.191C163.584 148.19 163.593 148.192 163.6 148.196Z" fill="#263238"/>
<path d="M153.524 147.2C153.816 150.2 155.392 153.784 157.316 156.096C158.163 157.102 159.21 157.92 160.392 158.496C161.724 159.156 163.12 159.916 164.496 160.456C165.151 162.123 165.639 163.852 165.952 165.616C165.996 165.468 166.04 165.312 166.084 165.16C165.2 157.56 160.284 151.068 153.996 146.9C153.947 146.868 153.889 146.851 153.83 146.851C153.771 146.851 153.714 146.868 153.664 146.899C153.614 146.931 153.575 146.976 153.55 147.029C153.525 147.082 153.516 147.142 153.524 147.2Z" fill="#22272E"/>
<path d="M155.7 149.424C155.656 149.384 155.7 149.304 155.764 149.34C159.213 151.913 161.964 155.308 163.764 159.216C163.808 159.32 163.668 159.412 163.608 159.308C163.316 158.796 163.016 158.296 162.712 157.808C161.276 157.54 159.912 156.528 158.852 155.568C158.824 155.544 158.852 155.5 158.896 155.528C159.449 156.026 160.062 156.453 160.72 156.8C161.304 157.096 161.92 157.284 162.544 157.52C162.012 156.676 161.456 155.868 160.88 155.08C159.328 154.492 157.874 153.675 156.564 152.656C156.524 152.628 156.564 152.56 156.604 152.588C157.899 153.372 159.234 154.088 160.604 154.732C159.728 153.575 158.783 152.473 157.772 151.432C157.284 151.172 156.788 150.912 156.316 150.632C156.28 150.608 156.316 150.544 156.348 150.556C156.74 150.695 157.114 150.879 157.464 151.104C156.908 150.544 156.324 149.976 155.7 149.424Z" fill="#263238"/>
<path d="M155.832 152.048C155.917 152.098 155.997 152.156 156.072 152.22C156.096 152.24 156.072 152.272 156.044 152.26C155.956 152.22 155.871 152.172 155.792 152.116C155.748 152.088 155.788 152.02 155.832 152.048Z" fill="#263238"/>
<path d="M175.896 182.052H158.668L160.056 166.356L160.364 162.896H174.2L174.508 166.356L175.896 182.052Z" fill="#455A64"/>
<path d="M174.508 166.356H160.056L160.364 162.896H174.2L174.508 166.356Z" fill="#263238"/>
<path d="M175.028 160.476H159.54V163.9H175.028V160.476Z" fill="#455A64"/>
<path d="M140.544 34.92C140.38 33.6557 140.289 32.3829 140.272 31.108C140.24 29.8345 140.284 28.5603 140.404 27.292C140.569 28.5562 140.659 29.8292 140.672 31.104C140.703 32.3774 140.66 33.6516 140.544 34.92Z" fill="#A6A6A6"/>
<path d="M123.132 39.776C122.357 38.7645 121.642 37.708 120.992 36.612C120.33 35.5252 119.731 34.4006 119.2 33.244C119.975 34.2521 120.688 35.306 121.336 36.4C122.002 37.4885 122.601 38.6158 123.132 39.776Z" fill="#A6A6A6"/>
<path d="M110.484 52.688C109.307 52.2001 108.16 51.6431 107.048 51.02C105.928 50.411 104.846 49.7351 103.808 48.996C104.985 49.4862 106.132 50.0444 107.244 50.668C108.363 51.2771 109.445 51.9516 110.484 52.688Z" fill="#A6A6A6"/>
<path d="M106 70.196C104.737 70.3604 103.466 70.4512 102.192 70.468C100.919 70.5 99.6443 70.4559 98.3761 70.336C100.906 70.0255 103.461 69.9786 106 70.196Z" fill="#A6A6A6"/>
<path d="M110.844 87.6C109.832 88.373 108.775 89.0862 107.68 89.736C106.593 90.4021 105.467 91.0019 104.308 91.532C105.319 90.7577 106.376 90.0444 107.472 89.396C108.559 88.7299 109.685 88.1301 110.844 87.6Z" fill="#A6A6A6"/>
<path d="M171.32 86.984C173.672 87.9739 175.911 89.2115 178 90.676C175.653 89.6794 173.416 88.4421 171.324 86.984H171.32Z" fill="#A6A6A6"/>
<path d="M175.82 69.476C177.083 69.3111 178.355 69.2216 179.628 69.208C180.902 69.1727 182.176 69.2155 183.444 69.336C182.181 69.501 180.91 69.5905 179.636 69.604C178.363 69.6393 177.088 69.5965 175.82 69.476Z" fill="#A6A6A6"/>
<path d="M170.964 52.064C171.974 51.2902 173.029 50.5769 174.124 49.928C175.211 49.2619 176.337 48.6621 177.496 48.132C176.486 48.9073 175.429 49.6206 174.332 50.268C173.246 50.9333 172.122 51.5331 170.964 52.064Z" fill="#A6A6A6"/>
<path d="M158.048 39.416C158.54 38.2463 159.098 37.1058 159.72 36C160.328 34.8807 161.003 33.7988 161.74 32.76C161.252 33.9359 160.695 35.0819 160.072 36.192C159.461 37.3054 158.785 38.3819 158.048 39.416Z" fill="#A6A6A6"/>
<path d="M106.056 46.588L109.396 45.968L110.144 42.448L110.892 45.968L114.232 46.588L110.904 47.404L110.144 50.728L109.384 47.404L106.056 46.588Z" fill="#22272E"/>
<path d="M159.896 105.148L163.236 104.532L163.984 101.008L164.728 104.532L168.072 105.152L164.744 105.964L163.984 109.292L163.224 105.964L159.896 105.148Z" fill="#22272E"/>
<path d="M115.636 97.76L117.504 97.416L117.92 95.448L118.34 97.416L120.208 97.76L118.348 98.216L117.92 100.076L117.496 98.216L115.636 97.76Z" fill="#22272E"/>
<path d="M125.8 37.492L127.664 37.144L128.084 35.176L128.5 37.144L130.368 37.492L128.508 37.944L128.084 39.804L127.656 37.944L125.8 37.492Z" fill="#22272E"/>
<path d="M117.92 106.964C118.056 106.952 118.182 106.89 118.274 106.79C118.366 106.689 118.417 106.558 118.417 106.422C118.417 106.286 118.366 106.155 118.274 106.054C118.182 105.954 118.056 105.892 117.92 105.88C117.784 105.892 117.658 105.954 117.566 106.054C117.474 106.155 117.423 106.286 117.423 106.422C117.423 106.558 117.474 106.689 117.566 106.79C117.658 106.89 117.784 106.952 117.92 106.964Z" fill="#22272E"/>
<path d="M170.612 100.076C170.695 100.052 170.768 100.001 170.82 99.932C170.872 99.8627 170.9 99.7785 170.9 99.692C170.9 99.6054 170.872 99.5212 170.82 99.452C170.768 99.3827 170.695 99.3322 170.612 99.308C170.529 99.3322 170.456 99.3827 170.404 99.452C170.352 99.5212 170.324 99.6054 170.324 99.692C170.324 99.7785 170.352 99.8627 170.404 99.932C170.456 100.001 170.529 100.052 170.612 100.076Z" fill="#22272E"/>
<path d="M115.892 50.072C115.974 50.0467 116.045 49.9959 116.095 49.9272C116.146 49.8585 116.173 49.7753 116.173 49.69C116.173 49.6046 116.146 49.5215 116.095 49.4528C116.045 49.384 115.974 49.3333 115.892 49.308C115.811 49.3333 115.739 49.384 115.689 49.4528C115.638 49.5215 115.611 49.6046 115.611 49.69C115.611 49.7753 115.638 49.8585 115.689 49.9272C115.739 49.9959 115.811 50.0467 115.892 50.072Z" fill="#22272E"/>
<path d="M178.372 55.896C178.455 55.8718 178.528 55.8212 178.58 55.752C178.632 55.6828 178.66 55.5985 178.66 55.512C178.66 55.4254 178.632 55.3412 178.58 55.272C178.528 55.2027 178.455 55.1522 178.372 55.128C178.289 55.1522 178.216 55.2027 178.164 55.272C178.112 55.3412 178.084 55.4254 178.084 55.512C178.084 55.5985 178.112 55.6828 178.164 55.752C178.216 55.8212 178.289 55.8718 178.372 55.896Z" fill="#22272E"/>
<path d="M173.468 59.416C174.804 59.416 174.804 57.34 173.468 57.34C172.132 57.34 172.128 59.416 173.468 59.416Z" fill="#22272E"/>
<g opacity="0.5">
<path opacity="0.5" d="M170.536 71.6C169.064 90 153.736 95.548 153.736 95.548C152.608 98.348 151.14 105.464 151.14 105.464H130.668C130.668 105.464 129.2 98.348 128.072 95.548C128.072 95.548 112.74 90 111.272 71.6C110.252 58.8 119.356 39.908 140.792 39.904H141.012C162.448 39.924 171.556 58.828 170.536 71.6Z" fill="#22272E"/>
</g>
<g opacity="0.7">
<path opacity="0.7" d="M168 71.708C166.66 88.54 152.636 93.6 152.636 93.6C151.604 96.16 150.264 105.468 150.264 105.468H131.544C131.544 105.468 130.2 96.16 129.168 93.6C129.168 93.6 115.144 88.528 113.8 71.696C112.868 60 121.2 42.724 140.8 42.72H141.004C160.608 42.724 168.94 60 168 71.708Z" fill="#22272E"/>
</g>
<path d="M130.505 74.8744L129.325 75.0947L135.344 107.317L136.523 107.097L130.505 74.8744Z" fill="white"/>
<path d="M151.294 74.8759L145.298 107.103L146.478 107.322L152.474 75.0954L151.294 74.8759Z" fill="white"/>
<path d="M140.904 85.648C139.072 85.648 137.392 83.936 136.212 81.748C136.01 82.0269 135.751 82.2592 135.451 82.429C135.151 82.5987 134.819 82.7021 134.476 82.732C131.488 82.732 130.28 76.524 130.228 76.26L130.628 76.188C130.628 76.248 131.828 82.332 134.48 82.332C135.008 82.332 135.54 81.964 136.024 81.372C135.105 79.5912 134.589 77.6303 134.512 75.628C134.512 73.912 135.148 72.928 136.264 72.928C137.564 72.928 138.308 73.976 138.308 75.8C138.244 77.8001 137.615 79.7413 136.496 81.4C137.612 83.544 139.204 85.252 140.896 85.252C142.176 85.252 143.456 84.252 144.496 82.452C144.588 82.288 144.68 82.12 144.768 81.948C143.568 80.66 142.9 78.548 142.9 76.536C142.9 74.324 143.724 72.936 145.048 72.936C145.303 72.9356 145.552 73.0061 145.769 73.1396C145.986 73.2732 146.162 73.4644 146.276 73.692C147.172 75.24 146.676 78.96 145.248 81.872C145.805 82.4334 146.561 82.7513 147.352 82.756C149.632 82.756 151.352 76.636 151.376 76.576L151.776 76.684C151.7 76.948 149.948 83.156 147.376 83.156C146.524 83.148 145.708 82.8162 145.092 82.228L144.864 82.628C144.064 84 142.736 85.648 140.904 85.648ZM145.068 73.328C143.776 73.328 143.32 75.044 143.32 76.528C143.32 78.128 143.856 80.264 144.972 81.564C146.272 78.808 146.76 75.296 145.952 73.896C145.874 73.7265 145.75 73.5829 145.593 73.4822C145.437 73.3815 145.254 73.328 145.068 73.328ZM136.268 73.328C135.092 73.328 134.916 74.768 134.916 75.628C134.994 77.4979 135.467 79.3301 136.304 81.004C137.301 79.4489 137.855 77.6508 137.904 75.804C137.904 74.876 137.688 73.328 136.26 73.328H136.268Z" fill="white"/>
<path d="M153.724 105.504H128.084V119.616H153.724V105.504Z" fill="#455A64"/>
<path d="M150.8 119.6C149.292 122.276 146.4 124.668 140.888 124.668C135.376 124.668 132.488 122.268 130.972 119.6H150.8Z" fill="#455A64"/>
<path d="M150.8 119.6C150.352 120.4 149.791 121.131 149.136 121.772L131.488 120.416C131.302 120.158 131.13 119.891 130.972 119.616L150.8 119.6Z" fill="#37474F"/>
<path d="M154.472 108.196L127.332 110.704V109.472L154.472 106.964V108.196Z" fill="#37474F"/>
<path d="M154.472 111.92L127.332 114.428V113.2L154.472 110.688V111.92Z" fill="#37474F"/>
<path d="M154.472 115.644L127.332 118.152V116.924L154.472 114.412V115.644Z" fill="#37474F"/>
<g opacity="0.5">
<path opacity="0.5" d="M117.728 67.316C118.668 67.472 119.888 62.62 125.104 57.004C127.42 54.512 136.212 51.404 135.58 48.512C134.948 45.62 127.104 48.592 123.156 53.164C116.8 60.52 116.864 67.168 117.728 67.316Z" fill="white"/>
<path opacity="0.5" d="M164 68.324C165.728 68.324 165.732 65.636 164 65.636C162.268 65.636 162.252 68.324 164 68.324Z" fill="white"/>
<path opacity="0.5" d="M155.524 88.532C156.468 89.256 161.056 85.02 163.124 79.968C164.844 75.776 165.124 70.476 163.984 70.168C162.844 69.86 162.08 77.132 160.692 79.812C158.94 83.2 154.512 87.764 155.524 88.532Z" fill="white"/>
</g>
</svg>
