<svg width="200" height="200" viewBox="0 0 200 200" fill="none" xmlns="http://www.w3.org/2000/svg">
<path d="M92.684 67.9L61.236 67.48L51.704 67.4H48.44H48.208C48.2851 67.4094 48.363 67.4094 48.44 67.4L49.112 67.42L51.704 67.464L61.236 67.548L92.684 67.688C104.96 67.732 116.076 67.788 124.12 67.88C128.144 67.924 131.4 67.972 133.652 68.024C134.776 68.052 135.652 68.076 136.24 68.1C136.543 68.0984 136.845 68.1225 137.144 68.172C136.845 68.2225 136.542 68.2412 136.24 68.228C135.648 68.228 134.772 68.256 133.648 68.26C131.396 68.26 128.14 68.26 124.116 68.236C116.072 68.212 104.956 68.072 92.684 67.9Z" fill="#EBEBEB"/>
<path d="M92.428 70.672L61.428 65.3681L52.024 63.8041L49.468 63.4041L48.8 63.3081L48.572 63.2841C48.6453 63.3067 48.7202 63.3241 48.796 63.3361L49.456 63.4601L52.012 63.9041L61.412 65.4721L92.46 70.492C104.576 72.44 115.548 74.2241 123.484 75.564C127.452 76.232 130.66 76.788 132.876 77.188C133.98 77.388 134.84 77.552 135.42 77.668C135.72 77.7131 136.016 77.784 136.304 77.88C136.001 77.8818 135.698 77.8537 135.4 77.7961C134.812 77.72 133.948 77.596 132.836 77.424C130.612 77.088 127.396 76.576 123.424 75.924C115.484 74.616 104.524 72.752 92.428 70.672Z" fill="#EBEBEB"/>
<path d="M91.7401 73.368L61.9641 63.244L52.9241 60.224L50.4601 59.424L49.8201 59.224C49.7469 59.1988 49.672 59.1788 49.5961 59.164L49.8081 59.252L50.4441 59.476L52.8961 60.32L61.9321 63.348L91.8001 73.2C103.46 77.036 114.016 80.524 121.64 83.096C125.452 84.38 128.536 85.436 130.66 86.18C131.72 86.552 132.544 86.848 133.1 87.056C133.388 87.1476 133.668 87.2641 133.936 87.404C133.636 87.3575 133.342 87.2825 133.056 87.18C132.488 87.012 131.652 86.752 130.58 86.408C128.436 85.728 125.344 84.712 121.524 83.444C113.888 80.896 103.36 77.328 91.7401 73.368Z" fill="#EBEBEB"/>
<path d="M90.64 75.92L62.824 61.24L54.376 56.84L52.068 55.64L51.464 55.34C51.3971 55.303 51.3276 55.2709 51.256 55.244C51.3154 55.293 51.3813 55.3334 51.452 55.364L52.044 55.688L54.332 56.888L62.78 61.288L90.724 75.716C101.636 81.336 111.524 86.444 118.636 90.184C122.2 92.052 125.076 93.576 127.056 94.648C128.048 95.18 128.812 95.604 129.328 95.896C129.6 96.0287 129.858 96.1867 130.1 96.368C129.812 96.2755 129.533 96.155 129.268 96.008C128.736 95.752 127.952 95.364 126.948 94.856C124.948 93.844 122.04 92.356 118.468 90.504C111.328 86.836 101.492 81.656 90.64 75.92Z" fill="#EBEBEB"/>
<path d="M89.1521 78.268L63.9761 59.42L56.3161 53.748L54.2241 52.22L53.6721 51.82C53.6126 51.772 53.5483 51.7305 53.4801 51.696C53.5358 51.7487 53.5946 51.7982 53.6561 51.844L54.1921 52.244L56.2601 53.804L63.9161 59.48L89.2641 78.096C99.1641 85.356 108.116 91.944 114.568 96.748C117.796 99.148 120.4 101.108 122.188 102.476C123.084 103.16 123.788 103.696 124.236 104.076C124.483 104.251 124.713 104.448 124.924 104.664C124.654 104.529 124.398 104.367 124.16 104.18C123.672 103.844 122.96 103.336 122.044 102.68C120.22 101.364 117.592 99.444 114.352 97.052C107.88 92.284 98.9721 85.628 89.1521 78.268Z" fill="#EBEBEB"/>
<path d="M87.316 80.352L65.376 57.82C62.576 54.956 60.276 52.62 58.696 51.02L56.864 49.2L56.4 48.72L56.228 48.564C56.273 48.6274 56.3239 48.6863 56.38 48.74L56.84 49.228L58.644 51.092L65.32 57.892L87.464 80.224C96.116 88.932 103.936 96.832 109.564 102.584C112.364 105.46 114.644 107.784 116.196 109.428C116.976 110.228 117.576 110.876 117.976 111.312C118.194 111.523 118.391 111.755 118.564 112.004C118.318 111.827 118.09 111.626 117.884 111.404C117.452 111.004 116.828 110.384 116.028 109.592C114.428 107.992 112.128 105.704 109.304 102.84C103.636 97.112 95.872 89.156 87.316 80.352Z" fill="#EBEBEB"/>
<path d="M85.2 82.128L67.032 56.46L61.488 48.708L59.964 46.608L59.564 46.068C59.5215 46.0051 59.4733 45.9462 59.42 45.892C59.4576 45.9584 59.499 46.0225 59.544 46.084L59.924 46.64L61.416 48.76C62.728 50.6 64.616 53.248 66.952 56.516C71.668 63.048 78.152 72.064 85.352 82.02C92.552 91.976 99.036 100.992 103.7 107.548C106.032 110.828 107.908 113.488 109.192 115.34C109.832 116.264 110.324 116.984 110.652 117.48C110.833 117.723 110.992 117.981 111.128 118.252C110.912 118.039 110.717 117.804 110.548 117.552C110.188 117.084 109.664 116.384 108.996 115.476C107.664 113.664 105.752 111.028 103.396 107.76C98.692 101.224 92.264 92.156 85.2 82.128Z" fill="#EBEBEB"/>
<path d="M82.8 83.552L68.868 55.356C67.072 51.756 65.616 48.852 64.604 46.832L63.428 44.52C63.292 44.264 63.188 44.068 63.116 43.924C63.0815 43.855 63.0428 43.7882 63 43.724C63.0248 43.7971 63.0555 43.868 63.092 43.936L63.38 44.548L64.52 46.872C65.528 48.896 66.984 51.804 68.776 55.4C72.412 62.6 77.424 72.508 82.964 83.468C88.504 94.428 93.52 104.344 97.1 111.548C98.892 115.148 100.328 118.076 101.304 120.1C101.792 121.116 102.168 121.904 102.416 122.444C102.556 122.712 102.671 122.991 102.76 123.28C102.58 123.038 102.426 122.778 102.3 122.504C102.016 121.98 101.608 121.208 101.1 120.208C100.064 118.208 98.588 115.308 96.78 111.712C93.152 104.52 88.22 94.56 82.8 83.552Z" fill="#EBEBEB"/>
<path d="M80.2121 84.58L70.8881 54.544L68.0201 45.452C67.6761 44.388 67.4081 43.56 67.2201 42.988C67.1281 42.712 67.0561 42.504 67.0041 42.352C66.9828 42.2781 66.9561 42.2059 66.9241 42.136C66.9358 42.2123 66.9545 42.2872 66.9801 42.36L67.1681 43.004L67.9281 45.484C68.6081 47.636 69.5841 50.74 70.7921 54.572C73.2481 62.244 76.6401 72.828 80.3921 84.524C84.1441 96.22 87.5241 106.8 89.9281 114.48C91.1281 118.32 92.0881 121.432 92.7281 123.588C93.0481 124.664 93.2961 125.504 93.4521 126.076C93.5505 126.362 93.6215 126.657 93.6641 126.956C93.5239 126.687 93.4114 126.404 93.3281 126.112C93.1321 125.556 92.8521 124.728 92.4961 123.66C91.7881 121.524 90.7881 118.424 89.5721 114.588C87.1401 106.92 83.8401 96.308 80.2121 84.58Z" fill="#EBEBEB"/>
<path d="M77.5 85.2C75.748 73.044 74.168 62.044 73.02 54.072C72.428 50.096 71.948 46.872 71.616 44.644C71.44 43.54 71.308 42.68 71.216 42.084C71.168 41.8 71.128 41.58 71.104 41.42C71.0929 41.3444 71.0769 41.2696 71.056 41.196C71.0529 41.2726 71.0597 41.3492 71.076 41.424L71.16 42.092C71.244 42.688 71.364 43.552 71.52 44.66C71.852 46.892 72.32 50.112 72.916 54.088C74.14 62.048 75.82 73.036 77.68 85.176C79.54 97.316 81.224 108.296 82.388 116.256C82.972 120.256 83.428 123.456 83.728 125.692C83.876 126.808 83.988 127.692 84.056 128.264C84.1047 128.563 84.1275 128.865 84.124 129.168C84.0273 128.881 83.9616 128.585 83.928 128.284C83.82 127.7 83.672 126.84 83.492 125.728C83.128 123.508 82.628 120.288 82.028 116.312C80.828 108.34 79.236 97.34 77.5 85.2Z" fill="#EBEBEB"/>
<path d="M74.724 85.368C74.88 73.088 75.02 61.976 75.124 53.92C75.156 49.9 75.18 46.648 75.2 44.388V41.8C75.2 41.508 75.2 41.284 75.2 41.124C75.2053 41.0481 75.2053 40.9719 75.2 40.896C75.193 40.9718 75.193 41.0482 75.2 41.124C75.2 41.284 75.2 41.524 75.2 41.796C75.2 42.4 75.176 43.268 75.16 44.388C75.14 46.648 75.112 49.9 75.08 53.92C75.048 61.976 75.008 73.088 74.96 85.368C74.912 97.648 74.872 108.76 74.788 116.808C74.748 120.828 74.7 124.084 74.648 126.336C74.624 127.46 74.596 128.336 74.572 128.928C74.5789 129.23 74.5548 129.531 74.5 129.828C74.4545 129.529 74.4357 129.226 74.444 128.924C74.444 128.332 74.42 127.46 74.412 126.332C74.412 124.084 74.412 120.828 74.412 116.804C74.424 108.756 74.556 97.64 74.724 85.368Z" fill="#EBEBEB"/>
<path d="M71.9521 85.116C74.0161 73.008 75.8841 62.052 77.2361 54.112L78.8001 44.708C78.9761 43.604 79.1121 42.744 79.2001 42.148C79.2441 41.86 79.2761 41.64 79.2961 41.48C79.3095 41.4047 79.3175 41.3285 79.3201 41.252C79.2988 41.3257 79.2814 41.4005 79.2681 41.476C79.2401 41.636 79.2001 41.876 79.1481 42.14C79.0441 42.732 78.8961 43.592 78.7041 44.692C78.3321 46.92 77.8001 50.132 77.1401 54.096L72.1401 85.144C70.1961 97.264 68.4201 108.236 67.0881 116.172C66.4201 120.14 65.8681 123.352 65.4681 125.564C65.2681 126.672 65.1081 127.532 64.9881 128.112C64.9458 128.411 64.8762 128.706 64.7801 128.992C64.7758 128.69 64.804 128.388 64.8641 128.092C64.9401 127.504 65.0641 126.64 65.2321 125.528C65.5681 123.3 66.0801 120.084 66.7281 116.112C68.0241 108.172 69.8801 97.2 71.9521 85.116Z" fill="#EBEBEB"/>
<path d="M69.256 84.432C73.2 72.8 76.772 62.276 79.36 54.648L82.376 45.6C82.72 44.536 82.992 43.708 83.176 43.136C83.264 42.86 83.328 42.648 83.376 42.496C83.4012 42.4229 83.4212 42.348 83.436 42.272C83.4038 42.341 83.3757 42.4118 83.352 42.484C83.296 42.636 83.22 42.848 83.124 43.12C82.928 43.688 82.648 44.512 82.284 45.572C81.568 47.712 80.536 50.8 79.26 54.608C76.744 62.26 73.26 72.82 69.432 84.484C65.604 96.148 62.124 106.704 59.56 114.332C58.276 118.144 57.224 121.228 56.48 123.352C56.108 124.412 55.812 125.236 55.604 125.792C55.519 126.083 55.4023 126.363 55.256 126.628C55.303 126.328 55.378 126.034 55.48 125.748C55.652 125.18 55.908 124.348 56.252 123.276C56.932 121.128 57.944 118.032 59.208 114.216C61.744 106.58 65.304 96.052 69.256 84.432Z" fill="#EBEBEB"/>
<path d="M66.7041 83.332C72.4281 72.464 77.6081 62.632 81.3641 55.508L85.7641 47.052L86.9641 44.744C87.0921 44.4774 87.1921 44.2774 87.2641 44.144C87.2997 44.0756 87.3304 44.0048 87.3561 43.932C87.3107 43.9939 87.2705 44.0595 87.2361 44.128C87.1601 44.268 87.0521 44.464 86.9161 44.72L85.7161 47.008C84.6721 49.008 83.1641 51.896 81.3161 55.46L66.9161 83.416C61.3161 94.332 56.2001 104.216 52.4641 111.336C50.6001 114.9 49.0761 117.776 48.0081 119.76C47.4721 120.748 47.0521 121.516 46.7601 122.032C46.626 122.304 46.4666 122.562 46.2841 122.804C46.3794 122.516 46.5013 122.237 46.6481 121.972C46.9041 121.436 47.2881 120.652 47.7961 119.648C48.8081 117.648 50.2921 114.74 52.1441 111.168C55.8001 104.024 60.9721 94.184 66.7041 83.332Z" fill="#EBEBEB"/>
<path d="M64.3561 81.844L83.1841 56.644L88.8561 48.98L90.3801 46.888L90.7801 46.336C90.8262 46.2752 90.8677 46.2111 90.9041 46.144C90.85 46.1985 90.8005 46.2574 90.7561 46.32C90.6601 46.448 90.5201 46.624 90.3561 46.852C89.9961 47.336 89.4721 48.052 88.8001 48.924L83.1241 56.584L64.5241 81.944C57.2721 91.848 50.6921 100.804 45.8881 107.26C43.4881 110.488 41.5321 113.092 40.1681 114.884C39.4841 115.776 38.9481 116.484 38.5681 116.932C38.3933 117.179 38.1965 117.409 37.9801 117.62C38.1154 117.35 38.2776 117.094 38.4641 116.856C38.8001 116.368 39.3081 115.656 39.9641 114.74C41.2761 112.912 43.1961 110.284 45.5641 107.044C50.3521 100.58 57.0001 91.672 64.3561 81.844Z" fill="#EBEBEB"/>
<path d="M62.268 80L84.8 58.056L91.6 51.368L93.436 49.536L93.904 49.056C93.9611 49.0035 94.0133 48.9459 94.06 48.884C93.9976 48.9286 93.9399 48.9796 93.888 49.036C93.768 49.144 93.608 49.3 93.396 49.5L91.536 51.3L84.736 57.984L62.4 80.144C53.696 88.796 45.804 96.624 40.052 102.252C37.18 105.052 34.852 107.336 33.216 108.892C32.416 109.672 31.768 110.272 31.332 110.672C31.1199 110.889 30.8883 111.086 30.64 111.26C30.8173 111.014 31.0182 110.786 31.24 110.58C31.64 110.148 32.26 109.524 33.048 108.724C34.648 107.124 36.936 104.824 39.8 101.996C45.52 96.34 53.472 88.572 62.268 80Z" fill="#EBEBEB"/>
<path d="M60.488 77.872L86.148 59.688L93.9 54.14L95.992 52.616L96.536 52.216C96.599 52.1735 96.6579 52.1253 96.712 52.072C96.6428 52.1069 96.5772 52.1485 96.516 52.196L95.964 52.596L93.844 54.088L86.092 59.6L60.596 78C50.652 85.2 41.636 91.7 35.084 96.368C31.804 98.7 29.144 100.58 27.296 101.864C26.372 102.504 25.652 102.996 25.156 103.324C24.9193 103.513 24.6663 103.68 24.4 103.824C24.6122 103.608 24.8453 103.414 25.096 103.244C25.568 102.884 26.268 102.36 27.172 101.692C28.984 100.356 31.62 98.444 34.888 96.092C41.404 91.4 50.468 84.964 60.488 77.872Z" fill="#EBEBEB"/>
<path d="M59.068 75.488L87.256 61.54L95.776 57.268L98.084 56.092L98.68 55.776C98.7507 55.7448 98.8178 55.7059 98.88 55.66C98.8069 55.6848 98.736 55.7156 98.668 55.752L98.06 56.04L95.732 57.2L87.2 61.448L59.14 75.652C48.204 81.2 38.28 86.22 31.076 89.804C27.476 91.6 24.556 93.036 22.528 94.016C21.516 94.504 20.724 94.88 20.184 95.124C19.9176 95.2676 19.6376 95.3841 19.348 95.472C19.5994 95.2924 19.8673 95.137 20.148 95.008C20.668 94.728 21.44 94.32 22.44 93.808C24.44 92.772 27.34 91.296 30.936 89.488C38.104 85.86 48.06 80.924 59.068 75.488Z" fill="#EBEBEB"/>
<path d="M58.0361 72.904L88.0681 63.568L97.1561 60.692L99.6201 59.892L100.256 59.676C100.33 59.6526 100.402 59.6246 100.472 59.592C100.396 59.6037 100.321 59.6224 100.248 59.648L99.6041 59.836L97.1241 60.6L88.0361 63.468L58.0921 73.068C46.4081 76.828 35.8201 80.22 28.1441 82.628C24.3041 83.828 21.1921 84.792 19.0361 85.428C17.9601 85.752 17.1201 85.996 16.5481 86.156C16.2625 86.2547 15.9677 86.3244 15.6681 86.364C15.9381 86.2266 16.2208 86.1154 16.5121 86.032C17.0681 85.832 17.8961 85.552 18.9641 85.196C21.1001 84.488 24.2001 83.484 28.0321 82.264C35.7001 79.852 46.3121 76.54 58.0361 72.904Z" fill="#EBEBEB"/>
<path d="M57.4241 70.192L88.5521 65.696L97.9761 64.284L100.536 63.884L101.2 63.772C101.277 63.7611 101.353 63.7451 101.428 63.724C101.35 63.7209 101.272 63.7276 101.196 63.744L100.528 63.828L97.9641 64.192L88.5361 65.6L57.4521 70.38C45.3201 72.256 34.3321 73.94 26.3721 75.108C22.3721 75.696 19.1721 76.152 16.9361 76.452C15.8201 76.604 14.9361 76.716 14.3641 76.78C14.0669 76.8308 13.7657 76.8549 13.4641 76.852C13.751 76.7549 14.0473 76.6879 14.3481 76.652C14.9281 76.544 15.7921 76.4 16.9001 76.216C19.1241 75.852 22.3401 75.352 26.3201 74.748C34.2761 73.54 45.2761 71.94 57.4241 70.192Z" fill="#EBEBEB"/>
<path d="M57.2441 67.42L88.6921 67.8L98.2241 67.872H100.8H101.472H101.704C101.627 67.8652 101.549 67.8652 101.472 67.872L100.8 67.852L98.2081 67.816L88.6761 67.74L57.2441 67.6C44.9681 67.572 33.8521 67.528 25.8081 67.448C21.7841 67.408 18.5281 67.364 16.2761 67.316C15.1521 67.288 14.2761 67.264 13.6841 67.24C13.3824 67.2469 13.0808 67.2228 12.7841 67.168C13.0832 67.1228 13.3857 67.104 13.6881 67.112C14.2801 67.112 15.1521 67.084 16.2801 67.08C18.5281 67.08 21.7841 67.08 25.8081 67.08C33.8561 67.136 44.9721 67.26 57.2441 67.42Z" fill="#EBEBEB"/>
<path d="M57.4961 64.648L88.5041 69.912L97.9081 71.464L100.468 71.864L101.132 71.96C101.209 71.9737 101.286 71.9817 101.364 71.984C101.29 71.9627 101.216 71.9454 101.14 71.932L100.476 71.812L97.924 71.368L88.5201 69.812L57.4681 64.832C45.3441 62.896 34.3721 61.128 26.4361 59.8C22.4641 59.136 19.2361 58.6 17.0401 58.2C15.9321 58.004 15.0761 57.84 14.4921 57.724C14.1931 57.681 13.8986 57.6114 13.6121 57.516C13.9154 57.5112 14.2183 57.538 14.5161 57.596C15.1041 57.672 15.9681 57.796 17.0801 57.964C19.3041 58.3 22.5241 58.808 26.4921 59.456C34.4361 60.732 45.3961 62.584 57.4961 64.648Z" fill="#EBEBEB"/>
<path d="M58.1801 61.952L87.9681 72.036L97.0121 75.044L99.4762 75.844L100.12 76.048C100.193 76.0722 100.268 76.0909 100.344 76.104L100.128 76.02L99.4961 75.792L97.0442 74.956L88.0001 71.936L58.1201 62.128C46.4561 58.312 35.8961 54.836 28.2681 52.272C24.4521 50.992 21.3721 49.944 19.2441 49.2C18.1841 48.828 17.3601 48.536 16.8041 48.328C16.5151 48.2386 16.2352 48.1221 15.9681 47.98C16.2678 48.0271 16.5624 48.1021 16.8481 48.204C17.4161 48.372 18.2481 48.632 19.3241 48.972C21.4681 49.652 24.5641 50.66 28.3841 51.924C36.0241 54.452 46.5561 58 58.1801 61.952Z" fill="#EBEBEB"/>
<path d="M59.276 59.4L87.112 74.044L95.568 78.444L97.876 79.62L98.48 79.92C98.5463 79.9572 98.6159 79.988 98.688 80.012C98.6265 79.9672 98.5609 79.9284 98.492 79.896L97.9 79.572L95.612 78.372L87.156 73.972L59.192 59.572C48.272 53.972 38.392 48.868 31.264 45.14C27.696 43.276 24.82 41.752 22.836 40.684C21.848 40.152 21.08 39.732 20.564 39.44C20.2916 39.3072 20.033 39.1478 19.792 38.964C20.0792 39.0597 20.3576 39.1801 20.624 39.324C21.156 39.58 21.94 39.968 22.948 40.472C24.948 41.484 27.856 42.968 31.428 44.816C38.576 48.508 48.4 53.676 59.276 59.4Z" fill="#EBEBEB"/>
<path d="M60.7601 57.048L85.96 75.848L93.624 81.512L95.7201 83.036C95.9561 83.204 96.1401 83.332 96.2681 83.436C96.3305 83.4818 96.396 83.5232 96.4641 83.56C96.4085 83.5071 96.3497 83.4577 96.288 83.412L95.7521 83.012L93.68 81.456L86.0201 75.788L60.6521 57.2C50.7441 49.952 41.7801 43.376 35.3201 38.576C32.0921 36.176 29.4881 34.224 27.6961 32.86C26.8001 32.18 26.0961 31.66 25.6441 31.26C25.3974 31.0852 25.1671 30.8884 24.9561 30.672C25.2269 30.8062 25.483 30.9684 25.7201 31.156C26.2081 31.492 26.9201 31.996 27.8361 32.652C29.6681 33.964 32.2961 35.884 35.5361 38.252C42.0201 43.056 50.9321 49.7 60.7601 57.048Z" fill="#EBEBEB"/>
<path d="M62.5961 54.96L84.5641 77.464L91.2561 84.264L93.0881 86.096L93.5681 86.568C93.6212 86.6233 93.6787 86.6741 93.7401 86.72C93.6942 86.6586 93.6434 86.6011 93.5881 86.548L93.1241 86.06C92.7241 85.628 92.1001 85 91.3201 84.2L84.6361 77.4L62.4641 55.092C53.8001 46.4 45.9721 38.5 40.3361 32.756C37.5361 29.884 35.2481 27.556 33.6921 25.924C32.9161 25.124 32.3161 24.476 31.9121 24.04C31.6941 23.829 31.4971 23.5973 31.3241 23.348C31.5699 23.5253 31.7976 23.7262 32.0041 23.948C32.4361 24.348 33.0601 24.964 33.8641 25.756C35.4641 27.356 37.7681 29.64 40.5961 32.5C46.2561 38.22 54.0281 46.168 62.5961 54.96Z" fill="#EBEBEB"/>
<path d="M64.728 53.2L82.932 78.848L88.484 86.596L90.008 88.688L90.408 89.228C90.4503 89.2934 90.5 89.3538 90.556 89.408C90.5192 89.3399 90.4778 89.2744 90.432 89.212L90.032 88.656L88.54 86.54L82.992 78.792L64.56 53.308C57.36 43.368 50.848 34.356 46.16 27.804C43.86 24.512 42 21.852 40.696 20C40.052 19.076 39.56 18.352 39.232 17.86C39.0508 17.6172 38.8915 17.3589 38.756 17.088C38.972 17.3001 39.1663 17.5333 39.336 17.784C39.696 18.256 40.22 18.956 40.892 19.86C42.228 21.672 44.14 24.304 46.492 27.572C51.2 34.104 57.632 43.164 64.728 53.2Z" fill="#EBEBEB"/>
<path d="M67.116 51.756C72.568 62.76 77.516 72.716 81.084 79.936L85.356 88.452L86.556 90.76L86.872 91.356C86.904 91.4255 86.9414 91.4924 86.984 91.556C86.9628 91.4822 86.9333 91.4111 86.896 91.344L86.604 90.736L85.444 88.4C84.432 86.38 82.972 83.472 81.172 79.876C77.532 72.676 72.504 62.78 66.948 51.828C61.392 40.876 56.372 30.98 52.8 23.776C51.004 20.176 49.564 17.256 48.584 15.228C48.096 14.216 47.72 13.428 47.472 12.888C47.3301 12.6208 47.2136 12.3409 47.124 12.052C47.3045 12.2943 47.46 12.5543 47.588 12.828C47.872 13.352 48.28 14.124 48.788 15.12C49.824 17.12 51.304 20.02 53.116 23.612C56.728 30.8 61.672 40.756 67.116 51.756Z" fill="#EBEBEB"/>
<path d="M69.6961 50.724C73.3521 62.448 76.6561 73.06 79.0561 80.748C80.2561 84.58 81.2521 87.68 81.9361 89.836C82.2841 90.9 82.5521 91.728 82.7361 92.3L82.9521 92.936C82.9734 93.0099 83.0001 93.0821 83.0321 93.152C83.023 93.0753 83.0042 93 82.9761 92.928L82.7881 92.284C82.6121 91.708 82.3521 90.876 82.0241 89.804C81.3441 87.652 80.3601 84.552 79.1481 80.72C76.6801 73.052 73.2761 62.472 69.5161 50.78C65.7561 39.088 62.3481 28.516 59.9161 20.836C58.7161 17 57.7481 13.888 57.1161 11.732C56.7921 10.656 56.5441 9.81601 56.3841 9.24801C56.2859 8.96064 56.2149 8.66467 56.1721 8.36401C56.3134 8.63277 56.4261 8.91566 56.5081 9.20801C56.7081 9.76401 56.9881 10.592 57.3441 11.66C58.0561 13.796 59.0601 16.896 60.2801 20.728C62.7361 28.4 66.0521 39.004 69.6961 50.724Z" fill="#EBEBEB"/>
<path d="M72.4001 50.112C74.1641 62.264 75.7601 73.264 76.9201 81.236C77.5161 85.208 78.0001 88.436 78.3321 90.66C78.5081 91.764 78.6441 92.624 78.7321 93.22C78.7841 93.508 78.8201 93.728 78.8481 93.884C78.856 93.9602 78.8721 94.0353 78.8961 94.108C78.8939 94.0317 78.8872 93.9555 78.8761 93.88C78.8561 93.72 78.8241 93.5 78.7881 93.212C78.7041 92.616 78.5801 91.756 78.4241 90.648C78.0921 88.412 77.6241 85.196 77.0161 81.22C75.7841 73.26 74.0881 62.276 72.2161 50.14C70.3441 38.004 68.6441 27.024 67.4681 19.06C66.8801 15.08 66.4201 11.86 66.1201 9.62801C65.9681 8.51201 65.8561 7.62801 65.7881 7.05601C65.7341 6.75784 65.7114 6.45488 65.7201 6.15201C65.8112 6.44035 65.8768 6.73616 65.9161 7.03601C66.0241 7.62001 66.1721 8.48001 66.3561 9.59201C66.7201 11.812 67.2241 15.028 67.8281 19.008C69.0481 26.964 70.6521 37.964 72.4001 50.112Z" fill="#EBEBEB"/>
<path d="M75.2001 49.928C75.0601 62.208 74.9321 73.324 74.8401 81.376C74.8121 85.396 74.7921 88.648 74.7761 90.908C74.7761 92.028 74.7761 92.908 74.7761 93.5C74.7761 93.788 74.7761 94.012 74.7761 94.172C74.7657 94.249 74.7657 94.327 74.7761 94.404C74.7812 94.3268 74.7812 94.2493 74.7761 94.172C74.7761 94.012 74.7761 93.772 74.7961 93.5C74.7961 92.9 74.8161 92.028 74.8321 90.908C74.8321 88.648 74.8721 85.396 74.9001 81.38C74.9201 73.324 74.9481 62.208 74.9801 49.928C75.0121 37.648 75.0401 26.536 75.1121 18.492C75.1481 14.468 75.1921 11.212 75.2401 8.96002C75.2641 7.83602 75.2881 6.96002 75.3121 6.37202C75.3053 6.06902 75.3294 5.76612 75.3841 5.46802C75.4294 5.76711 75.4481 6.06962 75.4401 6.37202C75.4401 6.96402 75.4681 7.83602 75.4761 8.96402C75.4761 11.212 75.4761 14.472 75.4761 18.492C75.4521 26.54 75.3321 37.656 75.2001 49.928Z" fill="#EBEBEB"/>
<path d="M77.952 50.18C75.904 62.288 74.052 73.248 72.708 81.188C72.056 85.156 71.532 88.364 71.164 90.596C70.992 91.7 70.856 92.56 70.764 93.156C70.724 93.44 70.692 93.664 70.668 93.82C70.6544 93.8967 70.6464 93.9742 70.644 94.052C70.6678 93.979 70.6852 93.9041 70.696 93.828C70.724 93.668 70.764 93.448 70.82 93.164C70.92 92.572 71.068 91.712 71.26 90.608C71.624 88.38 72.156 85.172 72.808 81.204C74.08 73.252 75.832 62.276 77.768 50.148C79.704 38.02 81.46 27.052 82.8 19.112C83.464 15.144 84 11.936 84.4001 9.72002C84.6 8.61202 84.7601 7.75202 84.8761 7.17202C84.9163 6.87218 84.9873 6.57729 85.0881 6.29202C85.0872 6.59394 85.059 6.89516 85.004 7.19202C84.928 7.78002 84.8041 8.64402 84.6401 9.76002C84.3041 11.984 83.8001 15.2 83.1521 19.172C81.8521 27.116 80 38.076 77.952 50.18Z" fill="#EBEBEB"/>
<path d="M80.648 50.86C76.72 62.496 73.164 73.024 70.584 80.656C69.32 84.472 68.292 87.556 67.58 89.7L66.78 92.168C66.692 92.444 66.628 92.656 66.58 92.812C66.5546 92.8838 66.5346 92.9573 66.52 93.032C66.5548 92.9637 66.5842 92.8928 66.608 92.82C66.66 92.668 66.736 92.456 66.832 92.184C67.024 91.616 67.308 90.792 67.668 89.732C68.384 87.588 69.412 84.504 70.68 80.688C73.188 73.032 76.648 62.472 80.468 50.8C84.288 39.128 87.748 28.572 90.304 20.944C91.584 17.128 92.632 14.044 93.372 11.92C93.744 10.856 94.036 10.032 94.244 9.47601C94.3291 9.18544 94.4457 8.90509 94.592 8.64001C94.5455 8.9398 94.4705 9.23446 94.368 9.52001C94.2 10.088 93.94 10.924 93.604 11.996C92.924 14.14 91.916 17.236 90.652 21.06C88.136 28.7 84.588 39.232 80.648 50.86Z" fill="#EBEBEB"/>
<path d="M83.2001 51.956L68.5801 79.8C66.7281 83.364 65.2281 86.252 64.1801 88.26L63.0041 90.568C62.8721 90.828 62.7761 91.028 62.7041 91.172C62.6669 91.2383 62.6361 91.3079 62.6121 91.38C62.6569 91.3185 62.6957 91.2529 62.7281 91.184L63.0521 90.592L64.2521 88.3C65.2921 86.3 66.7961 83.412 68.6521 79.844L83.0241 51.872C88.6241 40.948 93.7121 31.072 97.4241 23.932C99.2881 20.368 100.808 17.488 101.876 15.504C102.408 14.512 102.828 13.748 103.116 13.228C103.25 12.9563 103.41 12.6978 103.592 12.456C103.5 12.7448 103.38 13.0236 103.232 13.288C102.976 13.824 102.592 14.608 102.084 15.616C101.076 17.616 99.5961 20.524 97.7481 24.1C94.0801 31.248 88.9201 41.092 83.2001 51.956Z" fill="#EBEBEB"/>
<path d="M85.5561 53.44L66.7561 78.64C64.3561 81.876 62.4401 84.492 61.0961 86.312L59.5721 88.408L59.1721 88.956C59.1252 89.0162 59.0837 89.0805 59.0481 89.148C59.1022 89.0935 59.1517 89.0346 59.1961 88.972L59.5961 88.44C59.9601 87.96 60.4801 87.26 61.1521 86.368L66.8161 78.7L85.3841 53.316C92.6441 43.416 99.2001 34.452 104 28C106.4 24.768 108.352 22.16 109.712 20.372C110.396 19.476 110.912 18.772 111.312 18.32C111.482 18.0623 111.677 17.8213 111.892 17.6C111.761 17.8837 111.598 18.152 111.408 18.4C111.072 18.888 110.568 19.6 109.912 20.516C108.604 22.344 106.684 24.98 104.312 28.22C99.5361 34.688 92.9001 43.6 85.5561 53.44Z" fill="#EBEBEB"/>
<path d="M87.644 55.272L65.156 77.272L58.356 83.964L56.524 85.8L56.052 86.284C55.9964 86.3353 55.9455 86.3915 55.9 86.452C55.9609 86.4069 56.0184 86.3575 56.072 86.304L56.564 85.84L58.42 84.032L65.22 77.344L87.512 55.156C96.204 46.488 104.088 38.652 109.832 33.016C112.7 30.216 115.032 27.924 116.66 26.368C117.46 25.588 118.108 24.988 118.544 24.588C118.754 24.3691 118.986 24.1721 119.236 24C119.056 24.2437 118.855 24.4712 118.636 24.68C118.236 25.108 117.62 25.736 116.832 26.536C115.252 28.136 112.948 30.444 110.088 33.272C104.372 38.92 96.428 46.696 87.644 55.272Z" fill="#EBEBEB"/>
<path d="M89.4241 57.404L63.7881 75.624L56.0481 81.2L53.9521 82.728L53.4121 83.128C53.3491 83.1706 53.2902 83.2187 53.2361 83.272C53.3031 83.2371 53.3673 83.197 53.4281 83.152L53.9841 82.752L56.1001 81.26L63.8481 75.704L89.3161 57.256C99.2521 50.056 108.26 43.532 114.808 38.856C118.084 36.516 120.74 34.636 122.588 33.352C123.512 32.708 124.232 32.212 124.724 31.884C124.966 31.702 125.224 31.544 125.496 31.412C125.285 31.6312 125.051 31.8282 124.8 32C124.332 32.364 123.632 32.888 122.728 33.556C120.916 34.896 118.284 36.812 115.02 39.156C108.492 43.856 99.4361 50.304 89.4241 57.404Z" fill="#EBEBEB"/>
<path d="M90.8521 59.792L62.6801 73.792L54.1641 78.072L51.8601 79.272L51.2641 79.588C51.1927 79.618 51.1255 79.657 51.0641 79.704C51.1368 79.6784 51.2077 79.6476 51.2761 79.612L51.8841 79.32L54.2081 78.176L62.7281 73.904L90.7681 59.66C101.708 54.092 111.624 49.068 118.82 45.472C122.42 43.676 125.34 42.232 127.368 41.252C128.38 40.76 129.168 40.384 129.708 40.14C129.974 39.9965 130.255 39.8799 130.544 39.792C130.298 39.9681 130.037 40.122 129.764 40.252C129.244 40.536 128.472 40.948 127.476 41.452C125.476 42.488 122.576 43.968 118.984 45.784C111.804 49.392 101.848 54.34 90.8521 59.792Z" fill="#EBEBEB"/>
<path d="M91.884 62.372L61.864 71.748L52.8 74.636L50.336 75.436L49.696 75.652C49.623 75.6737 49.5521 75.7018 49.484 75.736C49.5584 75.7219 49.6319 75.7032 49.704 75.68L50.352 75.488L52.828 74.724L61.912 71.844L91.844 62.188C103.524 58.412 114.104 55.008 121.78 52.588C125.62 51.388 128.728 50.412 130.884 49.764C131.96 49.44 132.8 49.192 133.372 49.032C133.658 48.9336 133.953 48.8626 134.252 48.82C133.982 48.958 133.699 49.0704 133.408 49.156C132.852 49.356 132.024 49.636 130.956 49.992C128.82 50.704 125.724 51.712 121.892 52.936C114.212 55.396 103.6 58.72 91.884 62.372Z" fill="#EBEBEB"/>
<path d="M92.5 65.08L61.38 69.62L51.956 71.04L49.396 71.44L48.732 71.552C48.655 71.5629 48.5789 71.5789 48.504 71.6C48.5818 71.6006 48.6595 71.5939 48.736 71.58L49.404 71.492L51.968 71.128L61.392 69.712L92.472 64.888C104.6 62.996 115.584 61.288 123.548 60.124C127.524 59.532 130.748 59.068 132.98 58.764C134.096 58.616 134.96 58.504 135.552 58.436C135.849 58.3826 136.15 58.3585 136.452 58.364C136.165 58.4611 135.869 58.5282 135.568 58.564C134.988 58.672 134.124 58.82 133.016 59.004C130.796 59.368 127.576 59.876 123.6 60.484C115.644 61.708 104.648 63.32 92.5 65.08Z" fill="#EBEBEB"/>
<path d="M41.7361 148.14C44.0361 146.94 46.7401 146.8 49.2881 147.22C50.6601 147.448 52.0881 147.856 53.0201 148.888C53.9521 149.92 54.1281 151.728 53.0601 152.612C52.4241 153.136 51.5321 153.216 50.7081 153.208C48.7081 153.184 46.4961 152.832 44.9001 154.032C43.9921 154.72 43.3841 155.86 42.2961 156.196C41.2081 156.532 40.0321 155.896 39.4681 154.936C38.95 153.936 38.8355 152.774 39.1481 151.692C39.2764 150.941 39.5768 150.229 40.0257 149.613C40.4747 148.996 41.06 148.492 41.7361 148.14Z" fill="#EBEBEB"/>
<path d="M36.476 138C37.88 140 40.608 139.34 41.876 138.116C43.144 136.892 43.676 135.116 44.164 133.424C45.276 129.556 46.396 125.5 45.572 121.564C45.3723 120.369 44.8478 119.253 44.056 118.336C43.6544 117.885 43.1416 117.548 42.5688 117.358C41.9961 117.168 41.3834 117.131 40.792 117.252C39.416 117.616 38.56 118.964 37.944 120.248C36.1202 124.034 35.1637 128.178 35.144 132.38C35.144 134.336 35.368 136.38 36.472 138" fill="#EBEBEB"/>
<path d="M32.6161 140.856C34.1441 139.048 34.4321 136.408 33.7521 134.14C33.0721 131.872 31.5401 129.944 29.7761 128.368C27.6965 126.516 25.2751 125.088 22.6481 124.164C21.6334 123.753 20.5415 123.567 19.4481 123.62C18.9013 123.652 18.3705 123.817 17.902 124.1C17.4335 124.384 17.0415 124.778 16.7601 125.248C16.0121 126.676 16.7281 128.412 17.5081 129.828C18.8783 132.322 20.4432 134.704 22.1881 136.952C23.5881 138.76 25.1961 140.552 27.3321 141.352C29.4681 142.152 31.6921 142.076 32.8241 140.592" fill="#EBEBEB"/>
<path d="M36.4001 168.24C36.473 167.942 36.5159 167.638 36.5281 167.332C36.5921 166.668 36.6721 165.832 36.7681 164.844C36.8914 163.618 37.0784 162.399 37.3281 161.192C37.6552 159.724 38.0993 158.285 38.6561 156.888C39.202 155.491 39.9426 154.178 40.8561 152.988C41.6045 152.017 42.5614 151.227 43.6561 150.676C44.3927 150.311 45.1825 150.065 45.9961 149.948C46.3027 149.937 46.6071 149.893 46.9041 149.816C46.5969 149.785 46.2873 149.785 45.9801 149.816C45.1352 149.88 44.3086 150.095 43.5401 150.452C42.395 150.991 41.3902 151.788 40.6041 152.78C39.654 153.987 38.8858 155.326 38.3241 156.756C37.7594 158.175 37.3191 159.641 37.0081 161.136C36.773 162.357 36.6114 163.591 36.5241 164.832C36.4441 165.888 36.4161 166.744 36.4001 167.332C36.3666 167.634 36.3666 167.938 36.4001 168.24Z" fill="#E0E0E0"/>
<path d="M36.5521 166.328C36.5754 166.188 36.5835 166.046 36.5761 165.904C36.5761 165.588 36.5761 165.188 36.5761 164.704C36.5761 163.652 36.5761 162.132 36.6321 160.26C36.7241 156.508 37.0321 152.468 37.6681 146.776C38.2601 141.424 39.0521 135.176 39.8921 131.144C40.0721 130.22 40.2521 129.392 40.4201 128.668C40.5881 127.944 40.7201 127.312 40.8561 126.804C40.9921 126.296 41.0641 125.936 41.1401 125.628C41.1794 125.498 41.2036 125.364 41.2121 125.228C41.1464 125.355 41.0967 125.489 41.0641 125.628C40.9721 125.932 40.8561 126.316 40.7161 126.788C40.5761 127.26 40.4001 127.912 40.2161 128.636C40.0321 129.36 39.8161 130.188 39.6321 131.108C38.5931 135.893 37.812 140.731 37.2921 145.6C36.6681 151.304 36.3841 156.5 36.3601 160.26C36.3361 162.14 36.3601 163.664 36.4241 164.716C36.4561 165.204 36.4801 165.604 36.5001 165.916C36.4986 166.055 36.5161 166.194 36.5521 166.328Z" fill="#E0E0E0"/>
<path d="M36.5761 156.308C36.6093 155.887 36.6093 155.465 36.5761 155.044C36.5281 154.244 36.4161 153.044 36.1761 151.624C35.8996 149.942 35.5283 148.276 35.0641 146.636C34.521 144.617 33.8229 142.643 32.9761 140.732C31.5313 137.21 29.4575 133.98 26.8561 131.2C26.4055 130.723 25.9245 130.275 25.4161 129.86C25.1921 129.672 25.0161 129.488 24.8001 129.34L24.2401 128.94C23.9039 128.686 23.5481 128.458 23.1761 128.26C23.1161 128.344 24.6841 129.264 26.6641 131.372C29.1818 134.177 31.2016 137.391 32.6361 140.876C33.4641 142.775 34.1643 144.728 34.7321 146.72C35.2801 148.556 35.6441 150.24 35.9321 151.66C36.2201 153.08 36.3321 154.244 36.4321 155.048C36.4481 155.471 36.4962 155.892 36.5761 156.308Z" fill="#E0E0E0"/>
<path d="M26.8921 173.98L27.8961 187.736H45.5641L46.5681 173.98H26.8921Z" fill="#E0E0E0"/>
<path d="M48.6761 168.56H25.1881V173.98H48.6761V168.56Z" fill="#E0E0E0"/>
<path d="M25.1881 187.208V188.712H26.2921H48.2881V187.208H25.1881Z" fill="#EBEBEB"/>
<path d="M27.372 191.356L26.292 188.712H47.448L46.184 191.356H27.372Z" fill="#E0E0E0"/>
<path d="M46.24 178.476C46.2186 178.523 46.1903 178.566 46.156 178.604L45.896 178.952L44.864 180.268L44.82 180.328L44.776 180.268L42.248 176.768H42.4C41.648 177.836 40.8 179.02 39.912 180.296L39.832 180.404L39.744 180.3L36.8 176.8H36.972L36.808 177.004L34.168 180.312L34.08 180.424L34 180.308L31.508 176.784H31.652L28.584 180.276L28.532 180.34L28.488 180.268C28.088 179.592 27.764 179.048 27.528 178.668L27.284 178.24C27.2518 178.192 27.2262 178.139 27.208 178.084C27.2468 178.126 27.2817 178.172 27.312 178.22L27.584 178.62L28.592 180.22H28.496L31.512 176.68L31.588 176.592L31.66 176.688L34.172 180.196H34L36.632 176.88L36.796 176.676L36.88 176.572L36.964 176.676L39.908 180.196H39.744L42.26 176.692L42.332 176.588L42.404 176.692L44.88 180.224H44.788L45.86 178.94L46.148 178.608C46.2 178.508 46.236 178.472 46.24 178.476Z" fill="#F5F5F5"/>
<path d="M46.8001 173.892C46.8001 173.952 42.372 174 36.912 174C31.452 174 27.024 173.952 27.024 173.892C27.024 173.832 31.452 173.78 36.912 173.78C42.372 173.78 46.8001 173.832 46.8001 173.892Z" fill="#F5F5F5"/>
<path d="M47.7081 188.86C47.7081 188.92 42.9081 188.968 36.9641 188.968C31.0201 188.968 26.2161 188.92 26.2161 188.86C26.2161 188.8 31.0161 188.748 36.9641 188.748C42.9121 188.748 47.7081 188.8 47.7081 188.86Z" fill="#F5F5F5"/>
<path d="M184.612 24.024H141.612V86.348H184.612V24.024Z" fill="#E0E0E0"/>
<path d="M182.46 24.024H139.46V86.348H182.46V24.024Z" fill="#F5F5F5"/>
<path d="M177.116 30.776H144.8V79.6H177.116V30.776Z" fill="white"/>
<path d="M177.116 79.6C177.116 79.6 177.116 79.516 177.116 79.36C177.116 79.204 177.116 78.96 177.116 78.668C177.116 78.056 177.116 77.156 177.116 75.988C177.116 73.648 177.116 70.24 177.088 65.932C177.088 57.324 177.056 45.132 177.036 30.776L177.144 30.88H144.832L144.948 30.764C144.948 49.164 144.948 66.164 144.928 79.588L144.832 79.492L168.352 79.544L174.852 79.568H176.556H177.148H176.576H174.888L168.412 79.592L144.832 79.64H144.74V79.6C144.74 66.176 144.74 49.2 144.716 30.776V30.656H144.836H177.148H177.256V30.764C177.232 45.164 177.216 57.364 177.2 65.992C177.2 70.288 177.18 73.688 177.172 76.024C177.172 77.18 177.172 78.072 177.172 78.68C177.172 78.976 177.172 79.204 177.172 79.36C177.172 79.516 177.116 79.6 177.116 79.6Z" fill="#E0E0E0"/>
<path d="M182.58 24.024C182.357 24.4167 182.1 24.7888 181.812 25.136C181.312 25.804 180.612 26.736 179.812 27.696C179.012 28.656 178.244 29.548 177.684 30.168C177.401 30.5187 177.085 30.8416 176.74 31.132C176.983 30.7524 177.257 30.3938 177.56 30.06L179.6 27.548L181.672 25.036C181.945 24.6735 182.249 24.335 182.58 24.024Z" fill="#E0E0E0"/>
<path d="M177.28 79.44C178.887 81.9955 180.778 84.3612 182.916 86.492L177.28 79.44Z" fill="white"/>
<path d="M182.916 86.492C182.559 86.2268 182.229 85.9267 181.932 85.596C181.184 84.8325 180.475 84.0314 179.808 83.196C179.139 82.3614 178.514 81.4922 177.936 80.592C177.679 80.2296 177.46 79.8423 177.28 79.436C177.572 79.7711 177.839 80.1267 178.08 80.5C178.556 81.164 179.22 82.076 180 83.048C180.78 84.02 181.516 84.872 182.06 85.48C182.371 85.7947 182.657 86.133 182.916 86.492Z" fill="#E0E0E0"/>
<path d="M139.452 86.3L145.084 79.352L139.452 86.3Z" fill="white"/>
<path d="M145.084 79.352C144.239 80.5818 143.33 81.7662 142.36 82.9C141.451 84.0839 140.481 85.2188 139.452 86.3C140.3 85.0725 141.209 83.8883 142.176 82.752C143.086 81.5693 144.057 80.4344 145.084 79.352Z" fill="#E0E0E0"/>
<path d="M139.46 24.024C140.428 25.0642 141.34 26.1551 142.192 27.292C143.103 28.3826 143.955 29.5216 144.744 30.704C143.769 29.667 142.853 28.576 142 27.436C141.092 26.3458 140.244 25.2068 139.46 24.024Z" fill="#E0E0E0"/>
<path d="M167.048 40.688H156.228V71.408H167.048V40.688Z" fill="#E0E0E0"/>
<path d="M126.848 107.84C124.112 105.2 117.84 106.036 116.468 107.98C115.318 107.524 114.035 107.53 112.889 107.996C111.743 108.463 110.821 109.354 110.316 110.484L103.712 112.4C102.584 112.724 101.408 113.08 100.58 113.908C99.752 114.736 99.436 116.204 100.22 117.076C97.9 117.844 97.204 121.42 99.068 123C98.8592 123.276 98.7091 123.593 98.6268 123.929C98.5446 124.266 98.5319 124.615 98.5896 124.957C98.6472 125.298 98.7741 125.625 98.9623 125.915C99.1504 126.206 99.396 126.455 99.684 126.648C97.9763 128.995 96.683 131.617 95.86 134.4C95.516 135.56 95.26 136.848 95.756 137.952C96.252 139.056 97.792 139.74 98.724 138.968C98.4272 139.456 98.2762 140.018 98.289 140.589C98.3018 141.159 98.4777 141.714 98.796 142.188C97.664 142.288 97.444 144.064 98.276 144.836C99.108 145.608 100.38 145.612 101.512 145.512C102.644 145.412 103.868 145.272 104.84 145.86C104.839 145.999 104.811 146.136 104.756 146.263C104.701 146.39 104.621 146.505 104.52 146.6C102.676 148.312 102.304 151.076 103.896 153L104.296 153.496C105.016 154.384 106.696 155.132 107.744 155.592C110.392 156.76 111.904 156.392 114.792 156.632C114.132 158.532 119.048 162.312 124.104 157.944C134.904 160.1 142.624 160.68 153.612 159.988C155.18 159.888 157.052 159.552 157.656 158.1C158.948 158.356 160.28 157.676 161.16 156.692C162.04 155.708 162.548 154.464 163.044 153.24C164.373 152.759 165.521 151.879 166.329 150.719C167.137 149.559 167.566 148.177 167.556 146.764C168.428 145.979 169.127 145.022 169.609 143.952C170.091 142.883 170.345 141.725 170.356 140.552C172.94 139.572 174.172 136.052 172.756 133.676C171.973 130.472 170.666 127.418 168.888 124.64C170.66 124.132 171.176 121.664 170.328 120.028C169.48 118.392 167.772 117.42 166.156 116.532C167.52 116.804 168.58 115.036 168.156 113.704C167.732 112.372 166.468 111.52 165.232 110.904C163.413 109.968 161.487 109.256 159.496 108.784C158.696 106.46 155.496 103.964 153.22 103.064C144.02 99.42 137.672 98.764 126.82 107.864" fill="#263238"/>
<path d="M153.044 140.728C153.361 140.317 153.773 139.987 154.244 139.768H154.144C154.233 139.737 154.324 139.715 154.416 139.7C154.579 139.636 154.753 139.605 154.927 139.611C155.102 139.616 155.274 139.658 155.432 139.732C156.01 139.884 156.511 140.246 156.836 140.748C157.093 141.196 157.222 141.706 157.209 142.222C157.197 142.738 157.043 143.241 156.764 143.676C156.566 144.062 156.256 144.379 155.875 144.586C155.494 144.794 155.059 144.881 154.628 144.838C154.196 144.795 153.788 144.623 153.455 144.344C153.123 144.066 152.882 143.693 152.764 143.276C152.593 142.862 152.529 142.411 152.578 141.966C152.627 141.521 152.787 141.095 153.044 140.728Z" fill="#455A64"/>
<path d="M152.848 123.236C151.732 117.128 146.76 110.064 140.708 111.44L122.144 118.544C121.256 118.744 120.475 119.27 119.957 120.018C119.438 120.767 119.22 121.682 119.344 122.584L124.848 163.512C125.196 166.099 126.427 168.485 128.332 170.269C130.237 172.053 132.7 173.123 135.304 173.3C136.923 173.409 138.547 173.17 140.066 172.597C141.584 172.024 142.962 171.132 144.105 169.98C145.249 168.828 146.132 167.445 146.694 165.922C147.256 164.4 147.485 162.774 147.364 161.156C147.152 158.332 147 156.208 147 156.224C147 156.24 154.704 153.988 155.12 143.54C155.332 138.348 154.088 130 152.848 123.236Z" fill="#876760"/>
<path d="M149.78 131.872C149.824 132.214 149.732 132.56 149.524 132.836C149.316 133.112 149.009 133.296 148.668 133.348C148.502 133.381 148.332 133.381 148.166 133.348C148 133.314 147.843 133.248 147.704 133.152C147.564 133.057 147.445 132.934 147.354 132.792C147.263 132.65 147.201 132.491 147.172 132.324C147.128 131.982 147.22 131.637 147.426 131.361C147.633 131.086 147.94 130.901 148.28 130.848C148.446 130.814 148.617 130.815 148.783 130.848C148.949 130.882 149.106 130.948 149.246 131.044C149.386 131.139 149.505 131.262 149.597 131.404C149.688 131.546 149.751 131.705 149.78 131.872Z" fill="#263238"/>
<path d="M151.548 127.8C151.404 127.988 150.32 127.368 148.908 127.54C147.496 127.712 146.54 128.544 146.364 128.388C146.28 128.32 146.412 127.988 146.824 127.588C147.383 127.093 148.082 126.783 148.824 126.7C149.558 126.605 150.303 126.745 150.952 127.1C151.436 127.42 151.62 127.712 151.548 127.8Z" fill="#263238"/>
<path d="M137.036 133.144C137.08 133.486 136.988 133.832 136.78 134.108C136.572 134.384 136.265 134.568 135.924 134.62C135.758 134.653 135.588 134.653 135.422 134.62C135.256 134.586 135.099 134.52 134.96 134.424C134.82 134.329 134.701 134.206 134.61 134.064C134.519 133.922 134.457 133.763 134.428 133.596C134.384 133.254 134.475 132.909 134.682 132.633C134.889 132.358 135.195 132.173 135.536 132.12C135.702 132.086 135.873 132.087 136.039 132.12C136.205 132.154 136.362 132.22 136.502 132.316C136.642 132.411 136.761 132.534 136.853 132.676C136.944 132.818 137.007 132.977 137.036 133.144Z" fill="#263238"/>
<path d="M137.672 129.708C137.528 129.9 136.444 129.28 135.032 129.452C133.62 129.624 132.664 130.456 132.488 130.3C132.404 130.232 132.532 129.9 132.948 129.52C133.508 129.025 134.206 128.714 134.948 128.628C135.684 128.541 136.428 128.688 137.076 129.048C137.556 129.332 137.744 129.624 137.672 129.708Z" fill="#263238"/>
<path d="M144.048 139.6C144.048 139.52 144.896 139.264 146.3 138.912C146.656 138.832 146.988 138.72 147.02 138.464C147.006 138.088 146.878 137.725 146.652 137.424L145.256 134.8C143.312 131.056 141.856 127.964 142.004 127.888C142.152 127.812 143.86 130.78 145.808 134.52C146.276 135.444 146.728 136.324 147.156 137.168C147.437 137.576 147.563 138.071 147.512 138.564C147.475 138.697 147.408 138.821 147.315 138.924C147.223 139.027 147.108 139.108 146.98 139.16C146.788 139.239 146.586 139.293 146.38 139.32C144.952 139.564 144.064 139.676 144.048 139.6Z" fill="#263238"/>
<path d="M147.008 156.224C142.189 156.868 137.286 156.164 132.844 154.188C132.844 154.188 137.012 160.836 147.16 158.66L147.008 156.224Z" fill="#664D49"/>
<path d="M144.24 142.984C143.866 142.554 143.393 142.222 142.862 142.016C142.331 141.811 141.758 141.738 141.192 141.804C140.823 141.852 140.471 141.989 140.167 142.204C139.863 142.418 139.616 142.704 139.448 143.036C139.285 143.408 139.227 143.818 139.281 144.221C139.335 144.624 139.5 145.004 139.756 145.32C140.054 145.643 140.442 145.869 140.871 145.967C141.299 146.066 141.747 146.033 142.156 145.872C142.914 145.522 143.577 144.996 144.088 144.336C144.263 144.175 144.399 143.977 144.488 143.756C144.529 143.635 144.537 143.506 144.512 143.381C144.488 143.257 144.431 143.14 144.348 143.044" fill="#664D49"/>
<path d="M140 141.068C140.228 141.028 140.4 142.56 141.86 143.496C143.32 144.432 144.916 144.068 144.952 144.296C144.988 144.392 144.624 144.64 143.936 144.74C143.037 144.86 142.125 144.659 141.36 144.172C140.629 143.702 140.107 142.969 139.904 142.124C139.768 141.472 139.896 141.072 140 141.068Z" fill="#263238"/>
<path d="M137.6 123.812C137.504 124.212 136.072 124.212 134.436 124.612C132.8 125.012 131.508 125.62 131.236 125.304C131.116 125.148 131.308 124.76 131.804 124.324C132.473 123.782 133.256 123.399 134.094 123.204C134.933 123.009 135.805 123.008 136.644 123.2C137.304 123.356 137.644 123.62 137.6 123.812Z" fill="#263238"/>
<path d="M150.472 122.988C150.264 123.34 149.248 123.12 148.072 123.244C146.896 123.368 145.932 123.716 145.672 123.408C145.552 123.256 145.672 122.916 146.072 122.56C146.612 122.127 147.267 121.864 147.956 121.804C148.646 121.743 149.337 121.888 149.944 122.22C150.4 122.504 150.564 122.8 150.472 122.988Z" fill="#263238"/>
<path d="M157.832 127.84C157.672 126.213 156.954 124.69 155.8 123.532C155.148 122.932 154.348 122.496 153.76 121.832C152.488 120.396 152.5 118.272 151.872 116.46C151.455 115.293 150.766 114.242 149.861 113.394C148.957 112.546 147.864 111.925 146.672 111.584C144.672 111.04 142.508 111.292 140.628 110.464C139.236 109.852 138.128 108.692 136.704 108.164C133.928 107.132 130.916 108.74 128.492 110.436C128.136 112.488 129.536 114.136 130.892 115.72C131.575 116.509 132.422 117.141 133.373 117.572C134.323 118.003 135.356 118.222 136.4 118.216C138 118.192 139.864 117.692 141.08 118.756C142.296 119.82 142.052 122.036 143.128 123.344C144.672 125.22 147.792 124.236 149.972 125.304C151.656 126.128 152.476 128.008 153.412 129.632C154.348 131.256 155.88 132.908 157.74 132.684C157.956 131.078 157.987 129.453 157.832 127.84Z" fill="#263238"/>
<path d="M132.776 113.808C128.06 114.084 123.441 115.272 119.176 117.304C117.912 117.912 116.608 118.656 115.952 119.896C115.376 120.988 115.392 122.296 115.496 123.52C115.824 127.368 117.724 131.972 119.456 135.428L124.48 137.956C128.12 136.804 125.948 130.532 125.536 127.336C126.781 126.652 127.81 125.632 128.505 124.392C129.2 123.153 129.534 121.743 129.468 120.324C130.475 119.557 131.295 118.573 131.868 117.445C132.441 116.316 132.751 115.073 132.776 113.808Z" fill="#263238"/>
<path d="M124.312 136.576C124.004 134.384 121.264 134.152 119.456 135.428C118.46 136.128 117.768 137.428 118.076 139.748C118.876 145.964 124.96 143.86 124.948 143.68C124.94 143.572 124.672 139.144 124.312 136.576Z" fill="#876760"/>
<path d="M122.74 141.576C122.712 141.576 122.644 141.668 122.472 141.776C122.23 141.917 121.944 141.959 121.672 141.896C120.984 141.744 120.292 140.772 120.116 139.656C120.031 139.122 120.065 138.575 120.216 138.056C120.248 137.854 120.329 137.663 120.452 137.499C120.574 137.335 120.735 137.204 120.92 137.116C121.041 137.067 121.175 137.062 121.299 137.102C121.423 137.141 121.529 137.223 121.6 137.332C121.704 137.492 121.68 137.624 121.716 137.628C121.752 137.632 121.836 137.508 121.752 137.256C121.697 137.107 121.593 136.981 121.456 136.9C121.268 136.793 121.045 136.765 120.836 136.82C120.588 136.905 120.366 137.052 120.19 137.246C120.014 137.441 119.891 137.677 119.832 137.932C119.64 138.505 119.589 139.115 119.684 139.712C119.888 140.96 120.684 142.048 121.616 142.188C121.789 142.216 121.966 142.204 122.134 142.153C122.301 142.103 122.455 142.015 122.584 141.896C122.748 141.728 122.764 141.6 122.74 141.576Z" fill="#664D49"/>
<path d="M119.352 143.228C119.669 142.817 120.081 142.487 120.552 142.268H120.456C120.544 142.238 120.633 142.214 120.724 142.196C120.887 142.132 121.061 142.103 121.236 142.109C121.41 142.115 121.582 142.157 121.74 142.232C122.316 142.384 122.815 142.745 123.14 143.244C123.397 143.692 123.526 144.202 123.513 144.718C123.501 145.234 123.347 145.737 123.068 146.172C122.871 146.56 122.562 146.879 122.18 147.087C121.799 147.296 121.364 147.384 120.931 147.341C120.499 147.298 120.089 147.125 119.757 146.845C119.424 146.565 119.184 146.191 119.068 145.772C118.9 145.358 118.838 144.908 118.887 144.464C118.937 144.02 119.097 143.595 119.352 143.228Z" fill="#455A64"/>
<path d="M122.24 144.252C122.24 144.252 122.24 144.28 122.24 144.336C122.231 144.42 122.208 144.503 122.172 144.58C122.036 144.884 121.799 145.132 121.5 145.28C121.029 145.529 120.511 145.677 119.98 145.716C119.645 145.75 119.307 145.75 118.972 145.716C118.59 145.691 118.213 145.607 117.856 145.468L117.928 145.424C117.88 145.959 117.695 146.473 117.39 146.915C117.085 147.357 116.671 147.713 116.188 147.948C115.705 148.183 115.169 148.289 114.633 148.256C114.097 148.223 113.579 148.052 113.128 147.76L113.236 147.732C113.066 148.029 112.786 148.247 112.456 148.34C112.125 148.438 111.772 148.438 111.44 148.34C111.094 148.239 110.791 148.029 110.576 147.74C110.361 147.444 110.224 147.099 110.176 146.736C110.095 145.985 110.282 145.23 110.704 144.604C111.14 143.968 111.653 143.389 112.232 142.88L112.252 143.024C111.981 142.88 111.743 142.68 111.554 142.438C111.364 142.196 111.227 141.918 111.152 141.62C110.985 141.01 111 140.365 111.196 139.764C111.413 139.161 111.745 138.605 112.172 138.128C112.606 137.646 113.069 137.192 113.56 136.768V136.912C113.317 136.687 113.125 136.413 112.996 136.108C112.867 135.803 112.805 135.475 112.812 135.144C112.805 134.467 113.003 133.803 113.38 133.24C114.108 132.156 115.232 131.504 116.268 130.892L116.224 131.004C116.015 130.366 115.963 129.686 116.074 129.024C116.184 128.361 116.454 127.735 116.859 127.2C117.265 126.664 117.794 126.235 118.401 125.949C119.009 125.662 119.677 125.528 120.348 125.556L120.26 125.668C120.121 125.139 120.105 124.585 120.213 124.048C120.32 123.512 120.548 123.007 120.88 122.572C121.172 122.156 121.549 121.807 121.988 121.55C122.426 121.292 122.914 121.132 123.42 121.08L123.348 121.164C123.323 120.633 123.418 120.104 123.626 119.615C123.834 119.126 124.149 118.69 124.548 118.34C124.89 118.023 125.293 117.778 125.732 117.621C126.172 117.464 126.638 117.399 127.104 117.428L127.04 117.496C127.033 116.924 127.17 116.36 127.44 115.856C127.658 115.411 127.949 115.005 128.3 114.656C128.851 114.078 129.578 113.699 130.368 113.58L130.6 113.548H130.824C130.957 113.537 131.091 113.537 131.224 113.548C131.43 113.573 131.633 113.614 131.832 113.672L132.192 113.796C132.234 113.807 132.274 113.824 132.312 113.844L132.188 113.812L131.824 113.704C131.619 113.653 131.41 113.619 131.2 113.6C131.067 113.591 130.933 113.591 130.8 113.6H130.58L130.352 113.636C129.585 113.768 128.883 114.147 128.352 114.716C128.009 115.066 127.728 115.472 127.52 115.916C127.268 116.404 127.141 116.947 127.152 117.496V117.568H127.084C126.636 117.544 126.188 117.61 125.767 117.763C125.346 117.917 124.959 118.154 124.632 118.46C124.248 118.795 123.944 119.213 123.744 119.681C123.544 120.15 123.452 120.659 123.476 121.168V121.248H123.396C122.917 121.302 122.455 121.458 122.041 121.705C121.627 121.952 121.271 122.284 120.996 122.68C120.68 123.095 120.463 123.577 120.361 124.088C120.259 124.6 120.275 125.128 120.408 125.632L120.444 125.748H120.32C119.68 125.723 119.044 125.853 118.465 126.127C117.886 126.401 117.382 126.811 116.996 127.321C116.609 127.832 116.352 128.428 116.245 129.06C116.139 129.691 116.186 130.339 116.384 130.948L116.408 131.02L116.34 131.06C115.308 131.672 114.208 132.316 113.516 133.348C113.161 133.881 112.975 134.508 112.98 135.148C112.973 135.452 113.03 135.753 113.148 136.033C113.266 136.313 113.442 136.565 113.664 136.772L113.744 136.844L113.664 136.912C112.704 137.768 111.74 138.664 111.352 139.828C111.166 140.392 111.151 140.999 111.308 141.572C111.374 141.847 111.498 142.104 111.671 142.328C111.844 142.551 112.063 142.735 112.312 142.868L112.424 142.928L112.332 143.012C111.765 143.512 111.26 144.079 110.828 144.7C110.43 145.287 110.25 145.994 110.32 146.7C110.343 147.031 110.463 147.347 110.665 147.61C110.867 147.872 111.142 148.069 111.456 148.176C111.745 148.284 112.062 148.292 112.355 148.198C112.649 148.105 112.903 147.915 113.076 147.66L113.116 147.588L113.18 147.632C113.651 147.934 114.195 148.1 114.755 148.112C115.314 148.124 115.865 147.981 116.348 147.7C116.748 147.454 117.086 147.12 117.337 146.724C117.588 146.327 117.745 145.879 117.796 145.412V145.34L117.86 145.368C118.206 145.507 118.572 145.592 118.944 145.62C119.274 145.65 119.606 145.65 119.936 145.62C120.458 145.592 120.969 145.456 121.436 145.22C121.729 145.08 121.967 144.846 122.112 144.556C122.22 144.368 122.228 144.248 122.24 144.252Z" fill="#455A64"/>
<path d="M97.976 139.308C97.8763 139.198 97.7879 139.079 97.712 138.952C97.4949 138.583 97.3522 138.176 97.292 137.752C97.1909 137.063 97.3203 136.36 97.66 135.752C97.8889 135.351 98.1988 135.001 98.5699 134.726C98.9411 134.45 99.3654 134.255 99.816 134.152L99.768 134.232C99.4819 133.185 99.6034 132.069 100.108 131.108C100.379 130.57 100.763 130.097 101.232 129.72C101.751 129.362 102.303 129.054 102.88 128.8C103.171 128.657 103.44 128.474 103.68 128.256C103.908 128.031 104.083 127.758 104.192 127.456C104.428 126.84 104.464 126.124 104.768 125.456C105.094 124.771 105.616 124.199 106.269 123.814C106.922 123.428 107.675 123.246 108.432 123.292L108.332 123.404C108.169 122.654 108.18 121.876 108.365 121.131C108.55 120.386 108.904 119.693 109.399 119.106C109.894 118.52 110.518 118.055 111.221 117.747C111.924 117.439 112.689 117.297 113.456 117.332L113.36 117.444C113.202 116.617 113.285 115.763 113.598 114.982C113.911 114.201 114.441 113.526 115.126 113.037C115.811 112.548 116.622 112.266 117.462 112.224C118.303 112.182 119.138 112.382 119.868 112.8H119.768C120.348 112.16 121.059 111.653 121.852 111.312C122.554 110.992 123.295 110.763 124.056 110.632C125.284 110.405 126.542 110.398 127.772 110.612C128.564 110.739 129.33 110.993 130.04 111.364C130.225 111.461 130.403 111.572 130.572 111.696C130.692 111.776 130.748 111.82 130.748 111.82C130.748 111.82 130.5 111.66 130.016 111.42C129.304 111.069 128.541 110.831 127.756 110.716C126.536 110.516 125.29 110.535 124.076 110.772C123.328 110.907 122.601 111.136 121.912 111.456C121.149 111.794 120.467 112.292 119.912 112.916L119.868 112.968L119.812 112.932C119.143 112.566 118.39 112.382 117.628 112.398C116.866 112.413 116.121 112.628 115.468 113.02C114.758 113.477 114.198 114.132 113.857 114.904C113.515 115.676 113.408 116.531 113.548 117.364L113.568 117.48H113.448C112.71 117.448 111.975 117.586 111.299 117.882C110.623 118.179 110.023 118.627 109.547 119.191C109.071 119.755 108.73 120.421 108.552 121.138C108.373 121.854 108.361 122.602 108.516 123.324L108.544 123.448H108.42C107.701 123.402 106.984 123.573 106.363 123.939C105.742 124.305 105.245 124.848 104.936 125.5C104.644 126.124 104.604 126.836 104.36 127.5C104.242 127.828 104.051 128.125 103.8 128.368C103.555 128.596 103.279 128.789 102.98 128.94C102.41 129.189 101.865 129.492 101.352 129.844C100.896 130.203 100.523 130.658 100.26 131.176C99.7662 132.102 99.6405 133.181 99.908 134.196L99.928 134.26H99.86C99.4238 134.355 99.0122 134.541 98.6513 134.804C98.2905 135.067 97.9883 135.402 97.764 135.788C97.4224 136.374 97.2819 137.055 97.364 137.728C97.4203 138.15 97.556 138.557 97.764 138.928C97.884 139.2 98 139.304 97.976 139.308Z" fill="#455A64"/>
<path d="M157.788 136.652C157.743 136.575 157.714 136.49 157.704 136.402C157.694 136.314 157.702 136.225 157.728 136.14C157.788 135.933 157.901 135.745 158.056 135.596C158.272 135.4 158.525 135.249 158.8 135.152C159.136 135.04 159.454 134.879 159.744 134.676C160.061 134.402 160.281 134.033 160.372 133.624C160.482 133.152 160.5 132.663 160.424 132.184C160.364 131.668 160.244 131.128 160.204 130.544C160.104 129.364 160.52 128.124 160.728 126.8C160.842 126.116 160.821 125.416 160.664 124.74C160.586 124.387 160.434 124.055 160.216 123.767C159.999 123.478 159.722 123.24 159.404 123.068C158.74 122.724 157.948 122.668 157.16 122.484C156.753 122.404 156.362 122.257 156.004 122.048C155.642 121.816 155.346 121.495 155.144 121.116C154.782 120.347 154.502 119.543 154.308 118.716C154.195 118.307 154.02 117.919 153.788 117.564C153.554 117.206 153.206 116.937 152.8 116.8C152.225 116.691 151.64 116.655 151.056 116.692C150.754 116.688 150.454 116.635 150.168 116.536C149.881 116.428 149.628 116.244 149.436 116.004C149.107 115.527 148.847 115.006 148.664 114.456C148.468 113.948 148.166 113.487 147.78 113.104C147.414 112.739 146.976 112.452 146.494 112.263C146.013 112.074 145.497 111.986 144.98 112.004C144.006 112.05 143.084 112.461 142.4 113.156L142.32 113.236L142.268 113.14C141.857 112.399 141.293 111.755 140.614 111.249C139.935 110.744 139.155 110.389 138.328 110.208C137.636 110.063 136.923 110.054 136.228 110.18C135.636 110.279 135.067 110.483 134.548 110.784C133.82 111.211 133.229 111.839 132.848 112.592C132.745 112.788 132.655 112.991 132.58 113.2L132.52 113.36C132.52 113.396 132.496 113.412 132.492 113.412C132.491 113.393 132.491 113.375 132.492 113.356L132.54 113.192C132.605 112.977 132.688 112.769 132.788 112.568C133.159 111.793 133.748 111.144 134.484 110.7C135.01 110.387 135.589 110.173 136.192 110.068C136.901 109.93 137.631 109.93 138.34 110.068C139.192 110.25 139.996 110.613 140.696 111.132C141.396 111.651 141.977 112.314 142.4 113.076H142.268C142.981 112.352 143.941 111.924 144.956 111.876C145.501 111.853 146.044 111.944 146.552 112.141C147.06 112.339 147.522 112.639 147.908 113.024C148.313 113.423 148.629 113.903 148.836 114.432C149.013 114.964 149.263 115.469 149.58 115.932C149.764 116.141 149.993 116.305 150.25 116.412C150.508 116.519 150.786 116.565 151.064 116.548C151.664 116.509 152.266 116.55 152.856 116.668C153.294 116.809 153.674 117.09 153.936 117.468C154.176 117.838 154.36 118.243 154.48 118.668C154.666 119.484 154.934 120.278 155.28 121.04C155.468 121.393 155.744 121.691 156.08 121.908C156.421 122.1 156.791 122.235 157.176 122.308C157.944 122.484 158.752 122.544 159.46 122.912C159.81 123.089 160.111 123.35 160.336 123.672C160.552 123.983 160.71 124.332 160.8 124.7C160.961 125.396 160.981 126.116 160.86 126.82C160.64 128.168 160.224 129.388 160.312 130.536C160.352 131.108 160.464 131.648 160.52 132.168C160.593 132.661 160.57 133.164 160.452 133.648C160.352 134.079 160.115 134.465 159.776 134.748C159.477 134.953 159.149 135.113 158.804 135.224C158.535 135.306 158.286 135.442 158.072 135.624C157.919 135.763 157.805 135.94 157.74 136.136C157.7 136.309 157.717 136.49 157.788 136.652Z" fill="#455A64"/>
<path d="M169.2 126.1C169.2 126.1 169.172 126.064 169.128 125.988L168.928 125.652C168.756 125.344 168.504 124.904 168.188 124.348C167.872 123.792 167.492 123.072 166.988 122.304C166.449 121.41 165.669 120.686 164.736 120.216C164.212 119.98 163.616 119.84 163.008 119.624C162.695 119.516 162.396 119.368 162.12 119.184C161.828 118.99 161.589 118.726 161.424 118.416C161.08 117.792 161.024 117.056 160.732 116.416C160.596 116.09 160.366 115.812 160.072 115.616C159.75 115.427 159.398 115.292 159.032 115.216C158.645 115.137 158.266 115.023 157.9 114.876C157.514 114.705 157.192 114.417 156.98 114.052C156.552 113.324 156.484 112.452 156.272 111.652C156.184 111.25 156.013 110.87 155.772 110.536C155.516 110.215 155.144 110.006 154.736 109.956C153.904 109.848 153.04 110.196 152.116 110.12C151.653 110.071 151.217 109.88 150.868 109.572C150.54 109.27 150.249 108.93 150 108.56C149.763 108.206 149.508 107.864 149.236 107.536C148.976 107.218 148.641 106.97 148.26 106.816C147.492 106.528 146.66 106.776 145.904 107.008C145.157 107.31 144.353 107.447 143.548 107.408C142.795 107.271 142.073 107 141.416 106.608C140.811 106.249 140.172 105.951 139.508 105.72C138.282 105.407 136.992 105.46 135.796 105.872C134.806 106.198 133.903 106.745 133.156 107.472C132.6 108.032 132.133 108.674 131.772 109.376C131.55 109.823 131.366 110.287 131.22 110.764L131.104 111.136C131.092 111.18 131.076 111.223 131.056 111.264C131.059 111.219 131.068 111.174 131.084 111.132C131.108 111.036 131.14 110.912 131.184 110.752C131.314 110.268 131.488 109.796 131.704 109.344C132.057 108.626 132.522 107.969 133.08 107.396C133.832 106.645 134.746 106.076 135.752 105.732C136.974 105.301 138.296 105.24 139.552 105.556C140.228 105.788 140.879 106.087 141.496 106.448C142.136 106.822 142.838 107.079 143.568 107.208C144.346 107.251 145.125 107.122 145.848 106.832C146.239 106.699 146.64 106.598 147.048 106.532C147.479 106.451 147.924 106.49 148.334 106.645C148.745 106.799 149.105 107.063 149.376 107.408C149.654 107.74 149.913 108.087 150.152 108.448C150.389 108.807 150.667 109.137 150.98 109.432C151.298 109.715 151.697 109.892 152.12 109.936C152.98 110.012 153.84 109.66 154.748 109.772C155.204 109.829 155.619 110.063 155.904 110.424C156.164 110.782 156.345 111.191 156.436 111.624C156.652 112.424 156.72 113.284 157.12 113.96C157.314 114.291 157.606 114.554 157.956 114.712C158.313 114.857 158.683 114.969 159.06 115.048C159.442 115.12 159.81 115.255 160.148 115.448C160.471 115.665 160.723 115.972 160.872 116.332C161.164 117.024 161.224 117.752 161.548 118.332C161.884 118.888 162.419 119.296 163.044 119.472C163.636 119.688 164.244 119.832 164.776 120.08C165.726 120.566 166.518 121.313 167.06 122.232C167.568 123.012 167.928 123.728 168.26 124.3L168.972 125.62L169.152 125.968C169.172 126.01 169.188 126.055 169.2 126.1Z" fill="#455A64"/>
<path d="M162.08 120.056L162.192 120.028C162.308 120.016 162.424 120.033 162.532 120.076C162.728 120.181 162.894 120.332 163.016 120.517C163.138 120.703 163.213 120.915 163.232 121.136C163.257 121.452 163.236 121.77 163.168 122.08C163.088 122.438 163.06 122.806 163.084 123.172C163.159 123.584 163.34 123.97 163.608 124.292C163.88 124.652 164.212 125 164.496 125.428C164.657 125.65 164.766 125.906 164.812 126.177C164.859 126.447 164.842 126.725 164.764 126.988C164.604 127.532 164.252 128.008 164.104 128.56C163.979 129.144 164.084 129.755 164.396 130.264C164.684 130.82 165.072 131.348 165.356 131.964C165.508 132.276 165.6 132.614 165.628 132.96C165.651 133.318 165.597 133.677 165.468 134.012C165.172 134.663 164.819 135.287 164.412 135.876C163.993 136.464 163.808 137.187 163.896 137.904C164.028 138.616 164.484 139.248 164.804 139.952C164.978 140.307 165.086 140.69 165.12 141.084C165.139 141.477 165.066 141.868 164.908 142.228C164.583 142.894 164.18 143.52 163.708 144.092C163.263 144.633 162.936 145.261 162.748 145.936C162.624 146.613 162.454 147.282 162.24 147.936C162.114 148.255 161.917 148.541 161.664 148.772C161.41 148.983 161.122 149.148 160.812 149.26C160.526 149.369 160.245 149.493 159.972 149.632C159.718 149.78 159.487 149.963 159.284 150.176C158.916 150.604 158.605 151.079 158.36 151.588C158.108 152.072 157.876 152.548 157.604 152.98C157.127 153.774 156.406 154.391 155.548 154.74C154.907 155.004 154.216 155.122 153.524 155.084C153.088 155.062 152.659 154.97 152.252 154.812C152.114 154.754 151.981 154.687 151.852 154.612C152.383 154.85 152.955 154.985 153.536 155.012C154.222 155.042 154.906 154.916 155.536 154.644C156.372 154.298 157.074 153.69 157.536 152.912C157.796 152.488 158.024 152.016 158.272 151.524C158.521 151.001 158.837 150.513 159.212 150.072C159.425 149.847 159.669 149.653 159.936 149.496C160.213 149.345 160.499 149.211 160.792 149.096C161.083 148.987 161.353 148.83 161.592 148.632C161.824 148.416 162.005 148.151 162.12 147.856C162.325 147.211 162.49 146.554 162.612 145.888C162.804 145.189 163.141 144.537 163.6 143.976C164.068 143.416 164.471 142.804 164.8 142.152C164.945 141.818 165.012 141.456 164.996 141.092C164.961 140.722 164.859 140.362 164.696 140.028C164.384 139.344 163.92 138.704 163.776 137.932C163.706 137.551 163.729 137.158 163.844 136.788C163.96 136.434 164.118 136.095 164.316 135.78C164.716 135.199 165.065 134.585 165.36 133.944C165.481 133.633 165.534 133.301 165.516 132.968C165.487 132.643 165.4 132.326 165.26 132.032C164.988 131.436 164.604 130.908 164.312 130.34C163.984 129.792 163.877 129.14 164.012 128.516C164.18 127.924 164.536 127.456 164.688 126.94C164.762 126.697 164.778 126.44 164.736 126.189C164.693 125.939 164.594 125.701 164.444 125.496C164.18 125.096 163.848 124.728 163.576 124.36C163.294 124.015 163.11 123.601 163.044 123.16C163.023 122.784 163.055 122.407 163.14 122.04C163.213 121.74 163.241 121.432 163.224 121.124C163.208 120.912 163.141 120.707 163.029 120.527C162.917 120.346 162.763 120.196 162.58 120.088C162.421 120.024 162.246 120.013 162.08 120.056Z" fill="#455A64"/>
<path d="M98.1161 139.096C97.9511 139.112 97.785 139.112 97.6201 139.096C97.1402 139.037 96.6782 138.878 96.2641 138.628C95.592 138.233 95.0786 137.616 94.8121 136.884C94.6375 136.396 94.5731 135.875 94.6236 135.359C94.6741 134.843 94.8382 134.345 95.1041 133.9C95.4398 133.404 95.8259 132.944 96.2561 132.528C96.7228 132.091 97.084 131.553 97.3121 130.956C97.481 130.29 97.3939 129.585 97.0681 128.98C96.7801 128.328 96.3681 127.704 96.0841 126.98C95.7726 126.184 95.631 125.331 95.6683 124.477C95.7056 123.623 95.921 122.786 96.3006 122.02C96.6802 121.254 97.2157 120.576 97.8728 120.029C98.5298 119.482 99.2939 119.078 100.116 118.844L100.068 118.992C99.75 118.609 99.5303 118.155 99.4281 117.668C99.3321 117.175 99.3321 116.669 99.4281 116.176C99.5198 115.677 99.6971 115.198 99.9521 114.76C100.217 114.32 100.547 113.924 100.932 113.584C102.095 112.627 103.464 111.955 104.932 111.62C106.296 111.255 107.705 111.088 109.116 111.124L109.024 111.22C108.989 110.416 109.172 109.617 109.556 108.909C109.939 108.201 110.507 107.61 111.2 107.2C111.861 106.827 112.605 106.626 113.364 106.616C114.076 106.645 114.78 106.78 115.452 107.016C115.77 107.104 116.098 107.154 116.428 107.164C116.747 107.168 117.063 107.11 117.36 106.996C117.929 106.753 118.466 106.443 118.96 106.072C119.429 105.726 119.941 105.443 120.484 105.232C120.986 105.044 121.513 104.934 122.048 104.904C122.959 104.842 123.87 105.019 124.692 105.416C125.295 105.714 125.837 106.121 126.292 106.616C126.577 106.928 126.824 107.273 127.028 107.644C127.099 107.773 127.161 107.906 127.212 108.044C127.212 108.044 127.144 107.912 127 107.668C126.448 106.724 125.624 105.969 124.636 105.5C123.992 105.205 123.296 105.04 122.589 105.015C121.881 104.99 121.175 105.106 120.512 105.356C119.982 105.568 119.482 105.847 119.024 106.188C118.531 106.568 117.993 106.888 117.424 107.14C117.111 107.263 116.777 107.324 116.44 107.32C116.097 107.311 115.756 107.261 115.424 107.172C114.763 106.948 114.073 106.821 113.376 106.796C112.648 106.811 111.934 107.006 111.3 107.364C110.627 107.754 110.074 108.321 109.699 109.002C109.325 109.684 109.144 110.455 109.176 111.232V111.332H109.076C107.684 111.297 106.293 111.462 104.948 111.824C103.516 112.155 102.179 112.814 101.044 113.748C100.674 114.076 100.356 114.457 100.1 114.88C99.8591 115.288 99.6899 115.735 99.6001 116.2C99.508 116.668 99.508 117.149 99.6001 117.616C99.6965 118.073 99.9024 118.5 100.2 118.86L100.292 118.972L100.152 119.012C99.3543 119.24 98.6128 119.632 97.9749 120.163C97.337 120.693 96.8167 121.351 96.4471 122.094C96.0775 122.837 95.8668 123.649 95.8284 124.477C95.79 125.306 95.9248 126.134 96.2241 126.908C96.4961 127.612 96.9041 128.24 97.2001 128.908C97.5347 129.549 97.6202 130.292 97.4401 130.992C97.1998 131.602 96.8236 132.149 96.3401 132.592C95.9142 133.002 95.5309 133.453 95.1961 133.94C94.9359 134.369 94.7735 134.851 94.7203 135.35C94.667 135.849 94.7243 136.354 94.8881 136.828C95.1422 137.545 95.6351 138.152 96.2841 138.548C96.6893 138.798 97.141 138.964 97.6121 139.036C97.9481 139.092 98.1161 139.084 98.1161 139.096Z" fill="#263238"/>
<path d="M163.964 115.6C163.951 115.561 163.941 115.521 163.936 115.48C163.92 115.392 163.9 115.276 163.876 115.132C163.824 114.816 163.748 114.368 163.652 113.796C163.556 113.224 163.412 112.508 163.196 111.7C162.958 110.786 162.615 109.903 162.172 109.068C161.633 108.06 160.886 107.178 159.98 106.48C159.471 106.103 158.905 105.81 158.304 105.612C157.652 105.441 156.991 105.308 156.324 105.212C155.606 105.103 154.916 104.856 154.292 104.484C153.663 104.071 153.089 103.579 152.584 103.02C152.056 102.472 151.548 101.888 150.984 101.372C150.407 100.84 149.737 100.418 149.008 100.128C147.533 99.5978 145.964 99.3799 144.4 99.488C142.952 99.5501 141.51 99.7212 140.088 100C137.662 100.44 135.326 101.281 133.176 102.488C131.732 103.312 130.427 104.358 129.308 105.588C129.116 105.808 128.936 105.988 128.796 106.176C128.656 106.364 128.548 106.504 128.452 106.632C128.356 106.76 128.288 106.84 128.236 106.912C128.184 106.984 128.156 107.004 128.156 107.004C128.156 107.004 128.156 106.968 128.22 106.9L128.42 106.612L128.752 106.14C128.888 105.96 129.064 105.764 129.252 105.536C130.358 104.28 131.66 103.212 133.108 102.372C135.263 101.139 137.611 100.279 140.052 99.828C141.486 99.5447 142.94 99.3696 144.4 99.304C145.981 99.1901 147.568 99.4067 149.06 99.94C149.809 100.237 150.497 100.671 151.088 101.22C151.68 101.748 152.188 102.336 152.708 102.88C153.203 103.427 153.763 103.911 154.376 104.32C154.983 104.678 155.652 104.918 156.348 105.028C157.022 105.132 157.69 105.275 158.348 105.456C158.965 105.663 159.544 105.968 160.064 106.36C160.985 107.073 161.741 107.976 162.28 109.008C162.72 109.854 163.058 110.75 163.288 111.676C163.5 112.476 163.624 113.204 163.716 113.784C163.808 114.364 163.868 114.824 163.908 115.132C163.908 115.276 163.936 115.392 163.948 115.484C163.96 115.576 163.964 115.6 163.964 115.6Z" fill="#263238"/>
<path d="M166.148 191.224L165.348 171.044C165.348 171.044 163.852 166.856 163.348 166.856L147.652 161.496C147.652 161.496 142.288 167.404 135.96 166.74C129.632 166.076 124.492 160.9 124.492 160.9L107.02 165.072C105.756 165.328 103.444 166.128 101.236 169.28C98.7761 172.8 85.8081 191.12 85.8081 191.12" fill="#455A64"/>
<path d="M163.028 166.74C163.028 166.74 169.428 168.78 171.892 172.484C174.356 176.188 181.996 191.284 181.996 191.284H165.272L159.572 172.148L163.028 166.74Z" fill="#455A64"/>
<path d="M165.8 191.16C165.784 190.938 165.784 190.714 165.8 190.492C165.773 189.886 165.701 189.283 165.584 188.688C165.165 186.727 164.556 184.811 163.764 182.968C162.884 180.788 161.952 178.872 161.28 177.484C160.952 176.812 160.676 176.26 160.48 175.844L160.268 175.396C160.24 175.344 160.218 175.289 160.204 175.232C160.244 175.276 160.276 175.326 160.3 175.38L160.548 175.812C160.76 176.188 161.056 176.736 161.408 177.412C162.112 178.784 163.064 180.696 163.952 182.884C164.748 184.737 165.342 186.671 165.724 188.652C165.831 189.255 165.885 189.867 165.884 190.48C165.884 190.696 165.852 190.88 165.844 190.976C165.838 191.039 165.823 191.101 165.8 191.16Z" fill="#263238"/>
<path d="M85.4119 170.896C85.0519 170.608 86.6119 164.896 86.6119 164.896C86.6119 164.896 82.4719 158.496 82.3639 156.412C82.2559 154.328 83.9999 150.096 83.9999 150.096L95.8799 147.2C95.8799 147.2 99.6999 153.924 100.46 156.304C101.22 158.684 99.1519 166.756 99.1519 166.756L97.1519 170.896C97.1519 170.896 91.0719 175.448 85.4119 170.896Z" fill="#876760"/>
<path d="M82.3999 157.644C81.9338 156.835 81.5157 155.999 81.1479 155.14C80.3959 153.448 79.4719 151.788 81.1479 150.84C81.4129 150.676 81.7084 150.568 82.0164 150.522C82.3245 150.476 82.6387 150.493 82.9399 150.572C82.9399 150.572 82.6839 149.148 83.5799 148.612C83.843 148.456 84.1381 148.362 84.4429 148.336C84.7478 148.31 85.0545 148.354 85.3399 148.464C85.3399 148.464 85.0599 146.464 86.3479 145.604C86.8397 145.299 87.4033 145.13 87.9815 145.114C88.5598 145.098 89.132 145.235 89.6399 145.512C89.6399 145.512 88.6159 136.712 88.5279 136.244C88.2039 134.532 88.8719 133.02 90.6639 133.444C91.3199 133.6 91.6879 134.244 92.4559 137.124C93.2239 140.004 94.4559 144.884 94.4559 144.884C94.4559 144.884 96.5399 148.324 97.5279 150.192C98.5159 152.06 100.46 156.308 100.624 157.436C101.044 160.348 99.2479 164.2 99.2479 164.2L86.6159 164.896C86.6159 164.896 82.8719 158.48 82.3999 157.644Z" fill="#876760"/>
<path d="M83.1761 150.952C83.539 151.355 83.8668 151.789 84.1561 152.248L85.1521 153.688C85.3613 153.972 85.5434 154.274 85.6961 154.592C85.8722 154.945 85.9244 155.346 85.8441 155.732C85.8039 155.939 85.7082 156.131 85.5673 156.287C85.4263 156.443 85.2455 156.559 85.0441 156.62C84.6631 156.713 84.2613 156.667 83.9121 156.488C83.6147 156.352 83.3319 156.185 83.0681 155.992C82.8201 155.824 82.5921 155.664 82.3881 155.508C81.9881 155.204 81.6601 154.944 81.4441 154.76C81.3264 154.671 81.2214 154.566 81.1321 154.448C81.1601 154.42 81.6601 154.8 82.5001 155.368C82.9801 155.709 83.4856 156.012 84.0121 156.276C84.3071 156.422 84.6433 156.461 84.9641 156.388C85.1241 156.338 85.2678 156.246 85.3798 156.122C85.4917 155.997 85.5679 155.844 85.6001 155.68C85.6693 155.344 85.6228 154.994 85.4681 154.688C85.3242 154.382 85.1542 154.089 84.9601 153.812L84.0001 152.34C83.6894 151.9 83.4138 151.436 83.1761 150.952Z" fill="#664D49"/>
<path d="M93.536 152C93.468 152 93.4041 151.14 93.668 150.116C93.932 149.092 94.396 148.352 94.468 148.384C94.54 148.416 94.184 149.184 93.936 150.176C93.688 151.168 93.6 152 93.536 152Z" fill="#664D49"/>
<path d="M98.5401 154.568C97.3569 153.487 95.8928 152.762 94.3161 152.476C92.7329 152.187 91.1162 152.127 89.5161 152.3C88.2321 152.412 86.7641 152.728 86.1801 153.82C85.5961 154.912 86.3041 156.388 87.4441 157.02C88.5841 157.652 89.9921 157.692 91.3121 157.576C92.6321 157.46 93.9681 157.228 95.2801 157.424" fill="#876760"/>
<path d="M95.268 157.44C95.268 157.44 94.912 157.408 94.272 157.416C93.632 157.424 92.712 157.528 91.568 157.66C90.9388 157.733 90.305 157.759 89.672 157.736C88.9355 157.713 88.2115 157.54 87.544 157.228C86.8036 156.878 86.2294 156.252 85.944 155.484C85.7952 155.085 85.7633 154.652 85.852 154.236C85.9608 153.801 86.2045 153.412 86.548 153.124C87.2576 152.605 88.099 152.296 88.976 152.232C89.7728 152.141 90.574 152.095 91.376 152.092C92.7317 152.072 94.0819 152.268 95.376 152.672C96.2388 152.947 97.0499 153.363 97.776 153.904C97.9711 154.049 98.1556 154.208 98.328 154.38C98.3913 154.436 98.4478 154.499 98.496 154.568C98.496 154.588 98.232 154.34 97.716 153.984C96.9799 153.481 96.1703 153.095 95.316 152.84C94.0317 152.466 92.6973 152.291 91.36 152.324C90.5699 152.335 89.7809 152.385 88.996 152.476C88.1717 152.537 87.3808 152.826 86.712 153.312C86.4082 153.564 86.1924 153.905 86.096 154.288C86.0166 154.66 86.043 155.046 86.172 155.404C86.4308 156.109 86.9487 156.688 87.62 157.024C88.2556 157.326 88.9451 157.497 89.648 157.528C90.2696 157.559 90.8928 157.543 91.512 157.48C92.4159 157.371 93.3255 157.317 94.236 157.316C94.4849 157.324 94.7333 157.346 94.98 157.38C95.0784 157.386 95.1754 157.406 95.268 157.44Z" fill="#664D49"/>
<path d="M83.2681 151.088C84.5783 153.044 85.7879 155.065 86.8921 157.144C87.1649 157.771 87.6032 158.311 88.1601 158.708C88.6401 158.988 89.8281 158.48 90.3601 158.308L86.7121 150.424" fill="#876760"/>
<path d="M86.712 150.424C86.8366 150.61 86.945 150.807 87.036 151.012L87.836 152.664C88.512 154.068 89.436 156.032 90.472 158.264L90.528 158.388L90.392 158.432C89.9752 158.587 89.5506 158.721 89.12 158.832C88.9378 158.877 88.7515 158.904 88.564 158.912C88.463 158.915 88.3621 158.904 88.264 158.88C88.1644 158.856 88.0706 158.813 87.988 158.752C87.6976 158.553 87.4478 158.301 87.252 158.008C86.88 157.448 86.616 156.888 86.316 156.364C85.744 155.316 85.22 154.364 84.764 153.6C84.308 152.836 83.924 152.192 83.66 151.764C83.509 151.548 83.3753 151.321 83.26 151.084C83.4423 151.277 83.6057 151.488 83.748 151.712C84.04 152.112 84.448 152.74 84.948 153.512C85.448 154.284 85.968 155.216 86.548 156.256C86.852 156.772 87.128 157.344 87.488 157.856C87.6641 158.124 87.8911 158.355 88.156 158.536C88.2978 158.605 88.4523 158.644 88.6099 158.651C88.7674 158.658 88.9247 158.632 89.072 158.576C89.504 158.472 89.916 158.312 90.324 158.176L90.248 158.344C89.22 156.116 88.324 154.14 87.688 152.72L86.956 151.036C86.8544 150.841 86.7726 150.636 86.712 150.424Z" fill="#664D49"/>
<path d="M85.728 148.084L89.244 156.46C89.4625 157.07 89.7831 157.638 90.192 158.14C90.4072 158.395 90.6805 158.594 90.9889 158.722C91.2972 158.849 91.6316 158.901 91.964 158.872C92.88 158.744 93.48 157.82 93.524 156.94C93.568 156.06 93.204 155.22 92.868 154.4C91.8161 151.859 90.972 149.237 90.344 146.56" fill="#876760"/>
<path d="M90.3441 146.56C90.3835 146.642 90.4131 146.727 90.4321 146.816L90.6401 147.556C90.8241 148.2 91.0881 149.128 91.4601 150.264C91.8321 151.4 92.312 152.736 92.916 154.2C93.2875 154.956 93.536 155.766 93.6521 156.6C93.6894 157.059 93.5979 157.519 93.3881 157.928C93.1698 158.377 92.7918 158.728 92.3281 158.912C92.0876 158.996 91.8323 159.029 91.5784 159.01C91.3244 158.991 91.0772 158.919 90.8521 158.8C90.4316 158.585 90.0735 158.265 89.8121 157.872C89.3935 157.145 89.0376 156.383 88.7481 155.596L87.1481 151.7C86.7081 150.612 86.3481 149.72 86.0881 149.068L85.8121 148.344C85.7748 148.262 85.7479 148.176 85.7321 148.088C85.7845 148.162 85.8275 148.243 85.8601 148.328L86.1841 149.032L87.3201 151.636L88.9801 155.508C89.2688 156.279 89.622 157.024 90.0361 157.736C90.2707 158.093 90.5948 158.383 90.9761 158.576C91.168 158.678 91.3787 158.74 91.5953 158.758C91.812 158.776 92.03 158.749 92.2361 158.68C92.6377 158.516 92.965 158.21 93.1561 157.82C93.3461 157.45 93.4292 157.035 93.3961 156.62C93.2861 155.813 93.0485 155.028 92.6921 154.296C92.0961 152.824 91.6321 151.472 91.2841 150.324C90.9361 149.176 90.6961 148.24 90.5441 147.592C90.4721 147.264 90.4161 147.012 90.3841 146.84C90.3589 146.749 90.3455 146.655 90.3441 146.56Z" fill="#664D49"/>
<path d="M86 167.724C86 167.724 77.94 190.268 77.624 191.372H93.464L99.272 166.212L86 167.724Z" fill="#876760"/>
<path d="M93.856 164.22C93.5986 164.25 93.3378 164.217 93.096 164.124C92.5056 163.951 91.9597 163.652 91.496 163.248C91.0385 162.854 90.6762 162.362 90.436 161.808C90.3198 161.591 90.2632 161.346 90.272 161.1C90.348 161.072 90.628 162.172 91.672 163.064C92.716 163.956 93.88 164.144 93.856 164.22Z" fill="#664D49"/>
<path d="M111.824 181.2C111.876 181.228 110.728 183.48 109.26 186.228C107.792 188.976 106.568 191.184 106.516 191.156C106.464 191.128 107.612 188.88 109.08 186.128C110.548 183.376 111.772 181.2 111.824 181.2Z" fill="#263238"/>
<path d="M186.028 191.224C186.028 191.284 147.508 191.328 100.004 191.328C52.4999 191.328 13.9719 191.284 13.9719 191.224C13.9719 191.164 52.4839 191.12 100.004 191.12C147.524 191.12 186.028 191.168 186.028 191.224Z" fill="#263238"/>
<path d="M102.8 65.244C103.576 60.2886 103.007 55.2156 101.153 50.5554C99.2977 45.8951 96.2251 41.8186 92.2558 38.7521C88.2865 35.6856 83.5664 33.7416 78.5888 33.1233C73.6112 32.5051 68.5589 33.2352 63.9601 35.2375C59.3612 37.2398 55.3846 40.4407 52.446 44.5056C49.5074 48.5705 47.7147 53.3501 47.2552 58.3449C46.7957 63.3396 47.6864 68.3661 49.8341 72.8989C51.9817 77.4316 55.3076 81.3043 59.464 84.112C58.952 87.388 58.376 91.088 58.376 91.088L82.612 94.868C82.612 94.868 83.368 90.976 83.968 87.488C88.8465 85.8664 93.1845 82.933 96.5063 79.0094C99.8281 75.0857 102.006 70.3232 102.8 65.244Z" fill="#8F8F8F"/>
<path d="M78.9679 94.296C78.9679 94.296 78.9679 94.176 78.9679 93.948C78.9679 93.72 78.9919 93.368 79.0119 92.924C79.0519 92.024 79.1279 90.696 79.2479 88.988C79.4919 85.576 79.9239 80.636 80.8119 74.588C81.0279 73.0707 81.2772 71.488 81.5599 69.84C81.7039 69.0187 81.8519 68.18 82.0039 67.324C82.1152 66.4369 82.362 65.5721 82.7359 64.76C82.9499 64.3439 83.2598 63.9847 83.6399 63.712C83.8343 63.5665 84.0558 63.4614 84.2915 63.403C84.5271 63.3446 84.7721 63.3341 85.0119 63.372C85.2527 63.4306 85.4776 63.5417 85.6705 63.6973C85.8634 63.8529 86.0196 64.0491 86.1279 64.272C86.3591 64.7106 86.4617 65.2056 86.4239 65.7C86.3595 66.1961 86.1817 66.6706 85.9042 67.0868C85.6267 67.503 85.257 67.8497 84.8239 68.1C83.9518 68.641 82.9318 68.8942 81.9079 68.824C80.8609 68.7609 79.856 68.3893 79.0199 67.756C78.1821 67.0948 77.5506 66.208 77.1999 65.2C76.8244 64.1777 76.7036 63.0794 76.8479 62C76.9109 61.4437 77.0692 60.9025 77.3159 60.4C77.55 59.8628 77.9787 59.4341 78.5159 59.2C78.7963 59.101 79.0997 59.0871 79.3879 59.16C79.6699 59.2329 79.9314 59.3697 80.1519 59.56C80.5864 59.9503 80.8825 60.4711 80.9959 61.044C81.1076 61.6048 81.1359 62.1789 81.0799 62.748C81.0337 63.3169 80.9576 63.883 80.8519 64.444C80.6572 65.5842 80.2917 66.6886 79.7679 67.72C79.2451 68.7844 78.4345 69.681 77.4279 70.308C76.919 70.6172 76.3599 70.8352 75.7759 70.952C75.1907 71.0649 74.5874 71.043 74.0119 70.888C73.4436 70.7164 72.925 70.4104 72.4999 69.996C72.0865 69.584 71.7517 69.1001 71.5119 68.568C71.0615 67.5183 70.7846 66.4025 70.6919 65.264C70.6279 64.704 70.5919 64.148 70.5719 63.592C70.5353 63.0335 70.5447 62.4729 70.5999 61.916C70.6555 61.3468 70.8861 60.8088 71.2599 60.376C71.4537 60.1602 71.6965 59.9942 71.9679 59.892C72.2447 59.7857 72.5511 59.7857 72.8279 59.892C73.0961 60.0055 73.3245 60.1963 73.4839 60.44C73.6372 60.6722 73.7557 60.9255 73.8359 61.192C73.9918 61.7109 74.0699 62.2501 74.0679 62.792C74.1159 64.916 73.5999 67.068 72.3439 68.708C71.7213 69.5144 70.9036 70.149 69.9679 70.552C69.0548 70.9609 68.0311 71.0525 67.0599 70.812C66.1213 70.5436 65.3176 69.9326 64.8079 69.1C64.2901 68.3144 64.0378 67.3835 64.0879 66.444C64.1125 65.9863 64.2224 65.5373 64.4119 65.12C64.5947 64.6965 64.9164 64.348 65.3239 64.132C65.5365 64.0331 65.7761 64.009 66.0041 64.0634C66.2321 64.1179 66.435 64.2478 66.5799 64.432C66.837 64.7841 66.9958 65.1982 67.0399 65.632C67.109 66.4541 67.0768 67.2817 66.9439 68.096C66.8613 68.896 66.7799 69.6747 66.6999 70.432C66.0599 76.516 65.4479 81.432 64.9679 84.832C64.7279 86.528 64.5159 87.84 64.3679 88.728C64.2919 89.168 64.2319 89.504 64.1919 89.74C64.1519 89.976 64.1239 90.08 64.1239 90.08C64.1239 90.08 64.1239 89.964 64.1679 89.736C64.2119 89.508 64.2599 89.164 64.3279 88.724C64.4639 87.832 64.6599 86.52 64.8879 84.824C65.3479 81.432 65.9359 76.516 66.5599 70.424C66.6346 69.664 66.7133 68.8853 66.7959 68.088C66.9235 67.2865 66.9531 66.4726 66.8839 65.664C66.8455 65.2563 66.6976 64.8665 66.4559 64.536C66.3333 64.3785 66.1608 64.2674 65.9668 64.2209C65.7727 64.1744 65.5686 64.1952 65.3879 64.28C65.0175 64.4826 64.7259 64.8038 64.5599 65.192C64.3803 65.5891 64.2772 66.0166 64.2559 66.452C64.2104 67.355 64.4542 68.2491 64.9519 69.004C65.4366 69.8018 66.2056 70.3863 67.1039 70.64C68.0397 70.8693 69.0252 70.7792 69.9039 70.384C70.8115 69.9936 71.6035 69.3766 72.2039 68.592C73.4039 66.992 73.9319 64.888 73.8799 62.8C73.8837 62.2759 73.8096 61.7542 73.6599 61.252C73.6045 61.0028 73.4958 60.7686 73.3411 60.5656C73.1864 60.3625 72.9895 60.1955 72.7639 60.076C72.5257 59.9924 72.2672 59.9861 72.0252 60.0579C71.7832 60.1297 71.57 60.276 71.4159 60.476C71.0679 60.8792 70.8553 61.3815 70.8079 61.912C70.7504 62.4568 70.741 63.0056 70.7799 63.552C70.7799 64.104 70.8359 64.66 70.8959 65.212C70.9849 66.327 71.2551 67.42 71.6959 68.448C71.9214 68.9607 72.2417 69.4262 72.6399 69.82C73.0414 70.2109 73.5312 70.499 74.0679 70.66C74.6199 70.7934 75.1934 70.8128 75.7532 70.7172C76.313 70.6217 76.8474 70.413 77.3239 70.104C78.2975 69.4934 79.0815 68.6235 79.5879 67.592C80.1013 66.5844 80.4612 65.5059 80.6559 64.392C80.8399 63.284 81.0279 62.144 80.7999 61.072C80.6976 60.5412 80.4252 60.0582 80.0239 59.696C79.8374 59.5139 79.6046 59.3863 79.3508 59.3271C79.097 59.2679 78.8318 59.2792 78.5839 59.36C78.1013 59.5739 77.7161 59.9606 77.5039 60.444C77.2695 60.923 77.118 61.4383 77.0559 61.968C76.9144 63.0175 77.0311 64.0858 77.3959 65.08C77.7376 66.0578 78.3543 66.9161 79.1719 67.552C79.9815 68.168 80.9563 68.5287 81.9719 68.588C82.9541 68.6498 83.9316 68.4082 84.7719 67.896C85.1818 67.6578 85.5316 67.3288 85.7944 66.9342C86.0573 66.5396 86.2261 66.09 86.2879 65.62C86.3219 65.1607 86.2277 64.7009 86.0159 64.292C85.9172 64.0948 85.7772 63.9213 85.6053 63.7832C85.4334 63.6451 85.2337 63.5458 85.0199 63.492C84.8029 63.4581 84.5812 63.4682 84.3682 63.5218C84.1551 63.5754 83.9551 63.6714 83.7799 63.804C83.4194 64.0598 83.1258 64.3987 82.9239 64.792C82.5567 65.5875 82.3139 66.4347 82.2039 67.304C82.0479 68.16 81.8999 68.996 81.7519 69.82C81.4679 71.464 81.2159 73.048 80.9919 74.56C80.0879 80.608 79.6359 85.544 79.3639 88.96C79.2319 90.668 79.1479 91.992 79.0919 92.892C79.0639 93.34 79.0439 93.692 79.0279 93.916C79.0119 94.14 78.9679 94.296 78.9679 94.296Z" fill="white"/>
<path d="M61.324 113.224C61.9127 113.761 62.4231 114.377 62.84 115.056C62.9771 115.297 63.1671 115.503 63.3958 115.66C63.6245 115.817 63.8858 115.919 64.16 115.96L69.576 116.8C69.8749 116.847 70.1808 116.82 70.4668 116.721C70.7528 116.621 71.01 116.454 71.216 116.232C71.704 115.704 72.524 115.12 73.292 115.08L61.324 113.224Z" fill="#263238"/>
<path d="M57.804 97.24C57.804 97.348 57.728 106 57.708 109.308C57.6954 109.979 57.8501 110.642 58.1581 111.237C58.4661 111.833 58.9176 112.343 59.472 112.72C59.9201 113.018 60.4279 113.215 60.96 113.296L72.8 115.132C72.8 115.132 75.892 115.612 76.976 113.268C78.116 110.796 81.088 100.868 81.088 100.868L57.804 97.24Z" fill="#E0E0E0"/>
<path d="M56.773 108.452L56.7826 108.388C56.7943 108.311 56.8212 108.237 56.8616 108.17C56.9021 108.103 56.9553 108.044 57.0183 107.998C57.0814 107.952 57.1529 107.918 57.2289 107.899C57.3049 107.88 57.3838 107.877 57.4612 107.889L78.1014 111.017C78.2566 111.041 78.3961 111.125 78.4893 111.252C78.5824 111.378 78.6215 111.536 78.598 111.691L78.5884 111.755C78.5648 111.91 78.4806 112.05 78.3542 112.143C78.2278 112.236 78.0695 112.275 77.9143 112.251L57.2702 109.122C57.1928 109.11 57.1185 109.083 57.0515 109.043C56.9845 109.002 56.9261 108.949 56.8797 108.886C56.8332 108.823 56.7997 108.752 56.7809 108.676C56.7621 108.6 56.7585 108.521 56.7702 108.443L56.773 108.452Z" fill="#E0E0E0"/>
<path d="M77.908 112.252C78.0604 112.259 78.2108 112.215 78.336 112.128C78.4078 112.072 78.4659 112 78.5061 111.919C78.5463 111.837 78.5674 111.747 78.568 111.656C78.5778 111.536 78.5489 111.415 78.4856 111.312C78.4223 111.21 78.3279 111.13 78.216 111.084C77.096 110.896 75.416 110.684 73.388 110.372L57.44 107.972C57.3592 107.96 57.2767 107.969 57.1999 107.997C57.1232 108.025 57.0545 108.071 57 108.132C56.9466 108.193 56.9082 108.265 56.888 108.344C56.868 108.426 56.8613 108.511 56.868 108.596C56.8806 108.676 56.9123 108.751 56.9603 108.816C57.0084 108.881 57.0714 108.933 57.144 108.968C57.3192 109.019 57.4986 109.053 57.68 109.072L59.92 109.412L64.152 110.06L71.316 111.2L76.144 111.964L77.456 112.18L77.796 112.244L77.908 112.272H77.792L77.448 112.228L76.132 112.048L71.296 111.348L64.124 110.284L59.888 109.648L57.648 109.312L57.364 109.268C57.2582 109.258 57.1544 109.232 57.056 109.192C56.9513 109.143 56.8602 109.07 56.7905 108.978C56.7207 108.886 56.6746 108.778 56.656 108.664C56.6434 108.554 56.6516 108.443 56.68 108.336C56.7203 108.162 56.8259 108.011 56.9749 107.914C57.1239 107.816 57.3049 107.78 57.48 107.812L73.42 110.256C75.46 110.584 77.104 110.82 78.252 111.056C78.3808 111.106 78.4896 111.197 78.5619 111.315C78.6341 111.432 78.6658 111.571 78.652 111.708C78.6476 111.805 78.6212 111.901 78.5748 111.987C78.5284 112.073 78.4632 112.147 78.384 112.204C78.3137 112.248 78.2342 112.275 78.1516 112.284C78.0691 112.292 77.9857 112.281 77.908 112.252Z" fill="#263238"/>
<path d="M56.7458 105.723L56.7554 105.659C56.7789 105.504 56.8632 105.365 56.9896 105.271C57.116 105.178 57.2742 105.139 57.4295 105.163L78.9437 108.424C79.021 108.436 79.0954 108.463 79.1624 108.503C79.2294 108.544 79.2878 108.597 79.3342 108.66C79.3806 108.723 79.4141 108.794 79.4329 108.87C79.4517 108.946 79.4553 109.025 79.4436 109.103L79.434 109.166C79.4105 109.321 79.3262 109.461 79.1998 109.554C79.0734 109.647 78.9152 109.686 78.76 109.663L57.2458 106.401C57.0895 106.377 56.949 106.293 56.8552 106.165C56.7615 106.038 56.7221 105.879 56.7458 105.723Z" fill="#E0E0E0"/>
<path d="M78.76 109.656C78.9181 109.664 79.0739 109.616 79.2 109.52C79.2721 109.46 79.3294 109.383 79.3676 109.297C79.4057 109.212 79.4236 109.118 79.42 109.024C79.4243 108.9 79.3873 108.778 79.3149 108.678C79.2425 108.577 79.1388 108.503 79.02 108.468L74 107.736L57.432 105.256C57.3482 105.243 57.2625 105.252 57.1832 105.282C57.1039 105.312 57.0339 105.363 56.98 105.428C56.9264 105.492 56.8905 105.57 56.876 105.652C56.8563 105.739 56.8563 105.829 56.876 105.916C56.895 105.997 56.9343 106.073 56.9902 106.135C57.0462 106.197 57.117 106.244 57.196 106.272C57.356 106.312 57.596 106.336 57.768 106.368L60.096 106.72L64.496 107.392L71.94 108.544L76.952 109.344L78.316 109.568L78.668 109.632C78.7093 109.637 78.7497 109.648 78.788 109.664C78.7467 109.667 78.7053 109.667 78.664 109.664L78.308 109.624L76.94 109.436L71.916 108.704L64.44 107.6L60.04 106.936L57.716 106.588C57.512 106.552 57.336 106.54 57.108 106.484C56.9958 106.446 56.8953 106.379 56.8162 106.291C56.737 106.203 56.6819 106.096 56.656 105.98C56.6319 105.867 56.6319 105.749 56.656 105.636C56.6761 105.519 56.7272 105.41 56.804 105.32C56.8801 105.227 56.9792 105.155 57.0915 105.113C57.2038 105.07 57.3253 105.057 57.444 105.076L74 107.6C76.12 107.932 77.828 108.196 79.02 108.4C79.1561 108.439 79.2751 108.522 79.3579 108.637C79.4407 108.751 79.4823 108.891 79.476 109.032C79.4763 109.134 79.4535 109.234 79.4091 109.326C79.3647 109.417 79.3001 109.497 79.22 109.56C79.1558 109.61 79.0809 109.645 79.0012 109.662C78.9214 109.678 78.8389 109.676 78.76 109.656Z" fill="#263238"/>
<path d="M56.8809 103.018L56.8904 102.955C56.9141 102.798 56.9989 102.658 57.1262 102.564C57.2535 102.47 57.4128 102.431 57.569 102.455L79.6409 105.801C79.7961 105.824 79.9356 105.908 80.0288 106.035C80.1219 106.161 80.161 106.319 80.1374 106.475L80.1279 106.538C80.1043 106.693 80.0201 106.833 79.8937 106.926C79.7673 107.019 79.6091 107.058 79.4538 107.035L57.382 103.689C57.305 103.677 57.231 103.651 57.1642 103.612C57.0974 103.572 57.039 103.519 56.9925 103.457C56.946 103.395 56.9122 103.324 56.893 103.249C56.8738 103.173 56.8697 103.095 56.8809 103.018Z" fill="#E0E0E0"/>
<path d="M79.4519 107.032C79.6134 107.042 79.773 106.992 79.8999 106.892C79.9718 106.828 80.0283 106.749 80.065 106.66C80.1018 106.572 80.1178 106.476 80.1119 106.38C80.1105 106.251 80.0643 106.126 79.9811 106.027C79.898 105.927 79.7831 105.86 79.6559 105.836L74.5119 105.092L57.5519 102.548C57.4659 102.536 57.378 102.546 57.2973 102.578C57.2166 102.611 57.1457 102.664 57.0919 102.732C57.0374 102.8 57.0015 102.882 56.9879 102.968C56.9678 103.055 56.9678 103.145 56.9879 103.232C57.0105 103.315 57.0546 103.39 57.1157 103.451C57.1768 103.511 57.2528 103.554 57.3359 103.576C57.5159 103.612 57.7359 103.64 57.9319 103.672L60.3119 104.032L64.8159 104.72L72.4159 105.896L77.5479 106.696L78.9439 106.928L79.3039 106.992L79.4279 107.02H79.3039L78.9359 106.976L77.5359 106.784L72.3999 106.04L64.7999 104.904L60.2959 104.228L57.9159 103.872C57.7079 103.836 57.5159 103.816 57.2959 103.772C57.1795 103.741 57.0732 103.68 56.9876 103.595C56.902 103.51 56.8401 103.404 56.8079 103.288C56.7818 103.172 56.7818 103.052 56.8079 102.936C56.8272 102.816 56.8768 102.703 56.9519 102.608C57.0281 102.511 57.1285 102.436 57.243 102.39C57.3575 102.345 57.482 102.33 57.6039 102.348L74.5559 104.948L79.6919 105.748C79.8338 105.777 79.9612 105.854 80.0524 105.966C80.1437 106.079 80.193 106.219 80.1919 106.364C80.1959 106.468 80.1759 106.571 80.1336 106.666C80.0913 106.761 80.0278 106.845 79.9479 106.912C79.8817 106.972 79.8017 107.014 79.7151 107.035C79.6285 107.056 79.5381 107.055 79.4519 107.032Z" fill="#263238"/>
<path d="M56.8498 100.288L56.8594 100.224C56.883 100.069 56.9672 99.9296 57.0936 99.8365C57.22 99.7433 57.3782 99.7042 57.5335 99.7278L80.503 103.21C80.5799 103.221 80.6537 103.248 80.7203 103.288C80.7868 103.328 80.8448 103.381 80.8909 103.444C80.937 103.507 80.9704 103.578 80.989 103.653C81.0077 103.729 81.0113 103.807 80.9996 103.884L80.99 103.947C80.9663 104.103 80.8815 104.244 80.7543 104.338C80.627 104.431 80.4677 104.471 80.3114 104.447L57.3498 100.966C57.1945 100.943 57.055 100.858 56.9619 100.732C56.8687 100.606 56.8296 100.447 56.8532 100.292L56.8498 100.288Z" fill="#E0E0E0"/>
<path d="M80.312 104.436C80.4037 104.445 80.4961 104.433 80.5824 104.401C80.6687 104.368 80.7466 104.317 80.8102 104.25C80.8737 104.184 80.9213 104.104 80.9494 104.016C80.9774 103.928 80.9851 103.835 80.972 103.744C80.9607 103.61 80.9015 103.484 80.8053 103.39C80.7091 103.296 80.5823 103.24 80.448 103.232L75.112 102.456L57.512 99.82C57.4229 99.8063 57.3318 99.8173 57.2485 99.8519C57.1653 99.8864 57.0932 99.9432 57.04 100.016C56.9897 100.092 56.9568 100.179 56.9437 100.27C56.9305 100.36 56.9375 100.452 56.964 100.54C56.997 100.624 57.0513 100.697 57.1215 100.753C57.1916 100.809 57.2752 100.846 57.364 100.86L57.992 100.952L60.464 101.328L65.132 102.044L73.036 103.264L78.364 104.104L79.812 104.34L80.184 104.408L80.312 104.436C80.2696 104.443 80.2264 104.443 80.184 104.436L79.784 104.388L78.332 104.188L72.996 103.412L65.084 102.236L60.416 101.532L57.944 101.16L57.312 101.064C57.1884 101.045 57.072 100.994 56.9749 100.915C56.8778 100.836 56.8036 100.733 56.76 100.616C56.7177 100.498 56.7067 100.371 56.728 100.248C56.7431 100.124 56.7884 100.006 56.86 99.904C56.9363 99.8022 57.0386 99.7229 57.1561 99.6743C57.2737 99.6257 57.4021 99.6097 57.528 99.628L75.128 102.32L80.456 103.16C80.6057 103.174 80.7455 103.241 80.8503 103.349C80.9552 103.456 81.0182 103.598 81.028 103.748C81.0373 103.855 81.0216 103.963 80.982 104.063C80.9425 104.163 80.8801 104.252 80.8 104.324C80.6993 104.41 80.5721 104.458 80.44 104.46C80.3961 104.461 80.3525 104.453 80.312 104.436Z" fill="#263238"/>
<path d="M56.056 86.604C56.02 86.824 55.704 92.076 55.544 94.776C55.5147 95.2647 55.5967 95.7537 55.7838 96.2061C55.9708 96.6586 56.2581 97.0627 56.624 97.388L57.712 98.356L80.608 101.908L81.92 101.324C82.3716 101.121 82.771 100.818 83.0878 100.437C83.4045 100.057 83.6303 99.6089 83.748 99.128L85.672 91.2L56.056 86.604Z" fill="#8F8F8F"/>
<g opacity="0.3">
<path opacity="0.3" d="M58.0439 109.2C60.1719 110.044 62.3639 110.424 64.7839 110.8C66.7399 111.092 68.6479 111.444 70.7839 111.728C72.3439 111.94 73.7839 112.08 75.3439 112.256C76.1439 112.344 77.0239 112.276 77.2079 112.144L58.0439 109.2Z" fill="black"/>
</g>
<g opacity="0.3">
<path opacity="0.3" d="M57.64 106.4C59.94 107.268 62.304 107.68 64.916 108.072C67.024 108.392 69.084 108.764 71.376 109.076C73.056 109.304 74.612 109.476 76.296 109.656C77.144 109.756 78.104 109.7 78.296 109.568L57.64 106.4Z" fill="black"/>
</g>
<g opacity="0.3">
<path opacity="0.3" d="M58.052 103.744C60.352 104.612 62.716 105.024 65.328 105.416C67.436 105.736 69.492 106.108 71.788 106.42C73.468 106.648 75.024 106.82 76.704 107C77.556 107.1 78.512 107.044 78.704 106.912L58.052 103.744Z" fill="black"/>
</g>
<g opacity="0.3">
<path opacity="0.3" d="M58.46 101.1C60.76 101.968 63.124 102.38 65.736 102.772C67.844 103.092 69.904 103.464 72.196 103.776C73.88 104.004 75.432 104.176 77.116 104.356C77.964 104.456 78.924 104.4 79.116 104.268L58.46 101.1Z" fill="black"/>
</g>
<path d="M62.372 83.648C62.2656 83.6021 62.1627 83.5486 62.064 83.488C61.872 83.376 61.572 83.224 61.212 82.992C60.1791 82.3554 59.195 81.6427 58.268 80.86C56.8848 79.7046 55.6272 78.4068 54.516 76.988C51.7557 73.5098 49.9447 69.3752 49.26 64.988C48.9747 63.2071 48.8741 61.4015 48.96 59.6C49.0135 58.3911 49.1566 57.1878 49.388 56C49.46 55.6 49.552 55.256 49.604 55.036C49.6269 54.9237 49.6563 54.8129 49.692 54.704C49.6869 54.8189 49.6695 54.9328 49.64 55.044C49.608 55.268 49.528 55.592 49.464 56.016C49.2652 57.2068 49.1449 58.4094 49.104 59.616C48.9557 63.6088 49.7062 67.584 51.3 71.248C52.9159 74.9012 55.328 78.147 58.36 80.748C59.2754 81.5357 60.2415 82.2626 61.252 82.924C61.608 83.164 61.896 83.324 62.084 83.452C62.1856 83.5087 62.282 83.5742 62.372 83.648Z" fill="#263238"/>
<path d="M51.688 49.62C51.5977 50.0966 51.4415 50.5584 51.224 50.992C51.0678 51.4534 50.8484 51.8909 50.572 52.292C50.6616 51.8139 50.8178 51.3507 51.036 50.916C51.1956 50.4573 51.4148 50.0215 51.688 49.62Z" fill="#263238"/>
<path d="M98.724 71.2C98.7429 71.1024 98.7724 71.0072 98.812 70.916C98.884 70.712 98.984 70.448 99.104 70.116L99.324 69.54C99.396 69.328 99.456 69.092 99.532 68.84C99.676 68.336 99.876 67.772 100 67.124C100.068 66.8 100.144 66.464 100.224 66.112C100.304 65.76 100.336 65.388 100.4 65.004C100.536 64.24 100.58 63.404 100.652 62.544C100.849 58.754 100.245 54.965 98.88 51.424C98.54 50.624 98.244 49.848 97.872 49.164C97.696 48.82 97.544 48.476 97.364 48.168L96.836 47.276C96.516 46.696 96.152 46.224 95.86 45.788C95.708 45.572 95.576 45.388 95.44 45.188L95.04 44.708C94.82 44.432 94.64 44.208 94.512 44.04C94.4487 43.9644 94.3912 43.8842 94.34 43.8C94.4155 43.863 94.4839 43.9341 94.544 44.012L95.104 44.66C95.224 44.8 95.356 44.96 95.504 45.128C95.652 45.296 95.78 45.528 95.936 45.72C96.2957 46.1958 96.6308 46.6898 96.94 47.2C97.116 47.484 97.296 47.78 97.484 48.092C97.672 48.404 97.824 48.744 98.008 49.088C98.384 49.772 98.692 50.552 99.036 51.36C100.435 54.92 101.044 58.7415 100.82 62.56C100.771 63.3894 100.68 64.2157 100.548 65.036C100.48 65.436 100.44 65.796 100.36 66.152L100.12 67.164C99.9856 67.7458 99.8201 68.32 99.624 68.884C99.544 69.132 99.476 69.368 99.396 69.58L99.164 70.152C99.028 70.48 98.916 70.74 98.832 70.952C98.8003 71.0365 98.7642 71.1192 98.724 71.2Z" fill="#263238"/>
<g opacity="0.2">
<path opacity="0.2" d="M77.152 40.9C76.852 39.664 75.7 38.616 74.244 37.924C72.1522 36.9626 69.767 36.8592 67.6 37.636C61.2 39.844 57.24 43.096 54.124 49.472C53.068 51.628 52.124 55.324 52.904 57.72C53.0795 58.3235 53.3786 58.884 53.782 59.366C54.1855 59.848 54.6847 60.2409 55.248 60.52C58.228 61.912 61.18 59.264 62.6 56.52C63.92 53.96 64.72 50.96 66.968 49.152C68.82 47.668 71.3 47.292 73.468 46.328C75.636 45.364 77.708 43.2 77.152 40.9Z" fill="white"/>
</g>
<g opacity="0.2">
<path opacity="0.2" d="M88.4 41.548C87.656 39.62 85.2 38.488 83.6 38.932C82.9403 39.1334 82.3348 39.4817 81.829 39.9507C81.3233 40.4197 80.9304 40.9973 80.68 41.64C80.4024 42.4241 80.3653 43.2732 80.5734 44.0785C80.7815 44.8838 81.2253 45.6086 81.848 46.16C82.4921 46.6861 83.2857 46.9956 84.1159 47.0444C84.9462 47.0933 85.7706 46.879 86.472 46.432C87.864 45.5 89.004 43.096 88.4 41.548Z" fill="white"/>
</g>
<path opacity="0.3" d="M56.056 86.604C56.02 86.824 55.704 92.076 55.544 94.776C55.5147 95.2647 55.5967 95.7537 55.7838 96.2061C55.9708 96.6586 56.2581 97.0627 56.624 97.388L57.712 98.356L80.608 101.908L81.92 101.324C82.3716 101.121 82.771 100.818 83.0878 100.437C83.4045 100.057 83.6303 99.6089 83.748 99.128L85.672 91.2L56.056 86.604Z" fill="black"/>
<path d="M85.8479 91.224C85.8479 91.28 79.1919 90.296 71.0039 89.024C62.8159 87.752 56.1799 86.68 56.2039 86.624C56.2279 86.568 62.8599 87.552 71.0519 88.824C79.2439 90.096 85.8559 91.168 85.8479 91.224Z" fill="#263238"/>
<path d="M83.016 100.144C83.016 100.2 76.876 99.292 69.324 98.12C61.772 96.948 55.652 95.956 55.66 95.9C55.668 95.844 61.796 96.748 69.352 97.92C76.908 99.092 83.024 100.088 83.016 100.144Z" fill="#263238"/>
</svg>
