<?xml version="1.0" encoding="UTF-8"?><svg xmlns="http://www.w3.org/2000/svg" xmlns:xlink="http://www.w3.org/1999/xlink" width="375" zoomAndPan="magnify" viewBox="0 0 375 374.999991" height="374.999991" preserveAspectRatio="xMidYMid meet" version="1.0"><defs><clipPath id="clip-0"><path d="M 112.5 112.5 L 262.5 112.5 L 262.5 262.5 L 112.5 262.5 Z M 112.5 112.5 " clip-rule="nonzero"/></clipPath></defs><g clip-path="url(#clip-0)"><path fill="rgb(100%, 100%, 100%)" d="M 187.5 112.789062 C 146.078125 112.789062 112.5 146.367188 112.5 187.789062 C 112.5 225.390625 140.199219 256.4375 176.289062 261.859375 L 176.289062 207.664062 L 157.730469 207.664062 L 157.730469 187.949219 L 176.289062 187.949219 L 176.289062 174.832031 C 176.289062 153.109375 186.871094 143.578125 204.921875 143.578125 C 213.566406 143.578125 218.140625 144.21875 220.304688 144.511719 L 220.304688 161.722656 L 207.992188 161.722656 C 200.332031 161.722656 197.652344 168.988281 197.652344 177.179688 L 197.652344 187.957031 L 220.113281 187.957031 L 217.066406 207.667969 L 197.652344 207.667969 L 197.652344 262.027344 C 234.257812 257.054688 262.5 225.753906 262.5 187.789062 C 262.5 146.367188 228.921875 112.789062 187.5 112.789062 Z M 187.5 112.789062 " fill-opacity="1" fill-rule="nonzero"/></g></svg>