<svg width="175" height="186" viewBox="0 0 175 186" fill="none" xmlns="http://www.w3.org/2000/svg">
<path d="M80.6841 62.4318L49.2361 62.0118L39.7041 61.9318H36.4401H36.2081C36.2852 61.9412 36.3631 61.9412 36.4401 61.9318L37.1121 61.9518L39.7041 61.9958L49.2361 62.0798L80.6841 62.2198C92.9601 62.2638 104.076 62.3198 112.12 62.4118C116.144 62.4558 119.4 62.5038 121.652 62.5558C122.776 62.5838 123.652 62.6078 124.24 62.6318C124.543 62.6302 124.845 62.6543 125.144 62.7038C124.846 62.7542 124.543 62.773 124.24 62.7598C123.648 62.7598 122.772 62.7878 121.648 62.7918C119.396 62.7918 116.14 62.7918 112.116 62.7678C104.072 62.7438 92.9561 62.6038 80.6841 62.4318Z" fill="#EBEBEB"/>
<path d="M80.4283 65.2038L49.4283 59.8998L40.0243 58.3358L37.4683 57.9358L36.8003 57.8398L36.5723 57.8158C36.6456 57.8385 36.7204 57.8559 36.7963 57.8678L37.4563 57.9918L40.0123 58.4358L49.4123 60.0038L80.4603 65.0238C92.5763 66.9718 103.548 68.7558 111.484 70.0958C115.452 70.7638 118.66 71.3198 120.876 71.7198C121.98 71.9198 122.84 72.0838 123.42 72.1998C123.72 72.2448 124.016 72.3157 124.304 72.4118C124.001 72.4136 123.698 72.3855 123.4 72.3278C122.812 72.2518 121.948 72.1278 120.836 71.9558C118.612 71.6198 115.396 71.1078 111.424 70.4558C103.484 69.1478 92.5243 67.2838 80.4283 65.2038Z" fill="#EBEBEB"/>
<path d="M79.7402 67.8998L49.9642 57.7758L40.9242 54.7558L38.4602 53.9558L37.8202 53.7558C37.747 53.7306 37.6722 53.7105 37.5962 53.6958L37.8082 53.7838L38.4442 54.0078L40.8962 54.8518L49.9322 57.8798L79.8002 67.7318C91.4602 71.5678 102.016 75.0558 109.64 77.6278C113.452 78.9118 116.536 79.9678 118.66 80.7118C119.72 81.0838 120.544 81.3798 121.1 81.5878C121.388 81.6794 121.668 81.7958 121.936 81.9358C121.636 81.8892 121.342 81.8142 121.056 81.7118C120.488 81.5438 119.652 81.2838 118.58 80.9398C116.436 80.2598 113.344 79.2438 109.524 77.9758C101.888 75.4278 91.3602 71.8598 79.7402 67.8998Z" fill="#EBEBEB"/>
<path d="M78.6401 70.4518L50.8241 55.7718L42.3761 51.3718L40.0681 50.1718L39.4641 49.8718C39.3972 49.8347 39.3277 49.8026 39.2561 49.7758C39.3155 49.8248 39.3815 49.8652 39.4521 49.8958L40.0441 50.2198L42.3321 51.4198L50.7801 55.8198L78.7241 70.2478C89.6361 75.8678 99.5241 80.9758 106.636 84.7158C110.2 86.5838 113.076 88.1077 115.056 89.1797C116.048 89.7118 116.812 90.1358 117.328 90.4278C117.6 90.5604 117.858 90.7185 118.1 90.8997C117.812 90.8073 117.533 90.6867 117.268 90.5398C116.736 90.2838 115.952 89.8958 114.948 89.3878C112.948 88.3758 110.04 86.8877 106.468 85.0358C99.3281 81.3678 89.4921 76.1878 78.6401 70.4518Z" fill="#EBEBEB"/>
<path d="M77.1522 72.7998L51.9762 53.9518L44.3162 48.2797L42.2242 46.7518L41.6722 46.3518C41.6128 46.3038 41.5484 46.2622 41.4802 46.2278C41.5359 46.2805 41.5947 46.3299 41.6562 46.3758L42.1922 46.7758L44.2602 48.3357L51.9162 54.0118L77.2642 72.6278C87.1642 79.8878 96.1162 86.4758 102.568 91.2798C105.796 93.6798 108.4 95.6398 110.188 97.0078C111.084 97.6918 111.788 98.2278 112.236 98.6078C112.483 98.7825 112.713 98.9794 112.924 99.1958C112.654 99.0604 112.398 98.8983 112.16 98.7118C111.672 98.3758 110.96 97.8678 110.044 97.2118C108.22 95.8958 105.592 93.9758 102.352 91.5838C95.8802 86.8158 86.9722 80.1598 77.1522 72.7998Z" fill="#EBEBEB"/>
<path d="M75.3161 74.8838L53.3761 52.3518C50.5761 49.4878 48.2761 47.1518 46.6961 45.5518L44.8641 43.7318L44.4001 43.2518L44.2281 43.0958C44.2732 43.1591 44.324 43.218 44.3801 43.2718L44.8401 43.7598L46.6441 45.6238L53.3201 52.4238L75.4641 74.7558C84.1161 83.4638 91.9361 91.3638 97.5641 97.1158C100.364 99.9918 102.644 102.316 104.196 103.96C104.976 104.76 105.576 105.408 105.976 105.844C106.194 106.055 106.391 106.287 106.564 106.536C106.318 106.359 106.091 106.158 105.884 105.936C105.452 105.536 104.828 104.916 104.028 104.124C102.428 102.524 100.128 100.236 97.3041 97.3718C91.6362 91.6438 83.8721 83.6878 75.3161 74.8838Z" fill="#EBEBEB"/>
<path d="M73.2002 76.6598L55.0322 50.9918L49.4882 43.2398L47.9642 41.1398L47.5642 40.5998C47.5216 40.5368 47.4734 40.4779 47.4202 40.4238C47.4577 40.4901 47.4991 40.5542 47.5442 40.6158L47.9242 41.1718L49.4162 43.2918C50.7282 45.1318 52.6162 47.7798 54.9522 51.0478C59.6682 57.5798 66.1522 66.5958 73.3522 76.5518C80.5522 86.5078 87.0362 95.5238 91.7002 102.08C94.0322 105.36 95.9082 108.02 97.1922 109.872C97.8322 110.796 98.3242 111.516 98.6522 112.012C98.8333 112.255 98.9926 112.513 99.1282 112.784C98.9116 112.571 98.7173 112.336 98.5482 112.084C98.1882 111.616 97.6642 110.916 96.9962 110.008C95.6642 108.196 93.7522 105.56 91.3962 102.292C86.6922 95.7558 80.2642 86.6878 73.2002 76.6598Z" fill="#EBEBEB"/>
<path d="M70.8001 78.0837L56.8681 49.8877C55.0721 46.2877 53.6161 43.3837 52.6041 41.3637L51.4281 39.0517C51.2921 38.7957 51.1881 38.5997 51.1161 38.4557C51.0817 38.3867 51.0429 38.3199 51.0001 38.2557C51.0249 38.3288 51.0556 38.3997 51.0921 38.4677L51.3801 39.0797L52.5201 41.4037C53.5281 43.4277 54.9841 46.3357 56.7761 49.9317C60.4121 57.1317 65.4241 67.0397 70.9641 77.9997C76.5041 88.9597 81.5201 98.8757 85.1001 106.08C86.8921 109.68 88.3281 112.608 89.3041 114.632C89.7921 115.648 90.1681 116.436 90.4161 116.976C90.556 117.243 90.6711 117.523 90.7601 117.812C90.5802 117.57 90.4261 117.31 90.3001 117.036C90.0161 116.512 89.6081 115.74 89.1001 114.74C88.0641 112.74 86.5881 109.84 84.7801 106.244C81.1521 99.0517 76.2201 89.0917 70.8001 78.0837Z" fill="#EBEBEB"/>
<path d="M68.2122 79.1118L58.8882 49.0758L56.0202 39.9838C55.6762 38.9198 55.4082 38.0918 55.2202 37.5198C55.1282 37.2438 55.0562 37.0358 55.0042 36.8838C54.983 36.8099 54.9562 36.7377 54.9242 36.6678C54.9359 36.744 54.9546 36.819 54.9802 36.8918L55.1682 37.5358L55.9282 40.0158C56.6082 42.1678 57.5842 45.2718 58.7922 49.1038C61.2482 56.7758 64.6402 67.3598 68.3922 79.0558C72.1442 90.7518 75.5242 101.332 77.9282 109.012C79.1282 112.852 80.0882 115.964 80.7282 118.12C81.0482 119.196 81.2962 120.036 81.4522 120.608C81.5506 120.894 81.6216 121.188 81.6642 121.488C81.5241 121.218 81.4115 120.936 81.3282 120.644C81.1322 120.088 80.8522 119.26 80.4962 118.192C79.7882 116.056 78.7882 112.956 77.5722 109.12C75.1402 101.452 71.8402 90.8398 68.2122 79.1118Z" fill="#EBEBEB"/>
<path d="M65.5002 79.7318C63.7482 67.5758 62.1682 56.5758 61.0202 48.6038C60.4282 44.6278 59.9482 41.4038 59.6162 39.1758C59.4402 38.0718 59.3082 37.2118 59.2162 36.6158C59.1682 36.3318 59.1282 36.1118 59.1042 35.9518C59.093 35.8761 59.077 35.8013 59.0562 35.7278C59.053 35.8043 59.0598 35.8809 59.0762 35.9558L59.1602 36.6238C59.2442 37.2198 59.3642 38.0838 59.5202 39.1918C59.8522 41.4238 60.3202 44.6438 60.9162 48.6198C62.1402 56.5798 63.8202 67.5678 65.6802 79.7078C67.5402 91.8478 69.2242 102.828 70.3882 110.788C70.9722 114.788 71.4282 117.988 71.7282 120.224C71.8762 121.34 71.9882 122.224 72.0562 122.796C72.1049 123.095 72.1276 123.397 72.1242 123.7C72.0275 123.413 71.9617 123.117 71.9282 122.816C71.8202 122.232 71.6722 121.372 71.4922 120.26C71.1282 118.04 70.6282 114.82 70.0282 110.844C68.8282 102.872 67.2362 91.8718 65.5002 79.7318Z" fill="#EBEBEB"/>
<path d="M62.7241 79.8997C62.8801 67.6197 63.0201 56.5077 63.1241 48.4517C63.1561 44.4317 63.1801 41.1797 63.2001 38.9197V36.3317C63.2001 36.0397 63.2001 35.8157 63.2001 35.6557C63.2054 35.5798 63.2054 35.5036 63.2001 35.4277C63.1931 35.5036 63.1931 35.5799 63.2001 35.6557C63.2001 35.8157 63.2001 36.0557 63.2001 36.3277C63.2001 36.9317 63.1761 37.7997 63.1601 38.9197C63.1401 41.1797 63.1121 44.4317 63.0801 48.4517C63.0481 56.5077 63.0081 67.6197 62.9601 79.8997C62.9121 92.1797 62.8721 103.292 62.7881 111.34C62.7481 115.36 62.7001 118.616 62.6481 120.868C62.6241 121.992 62.5961 122.868 62.5721 123.46C62.579 123.761 62.5549 124.063 62.5001 124.36C62.4546 124.061 62.4358 123.758 62.4441 123.456C62.4441 122.864 62.4201 121.992 62.4121 120.864C62.4121 118.616 62.4121 115.36 62.4121 111.336C62.4241 103.288 62.5561 92.1717 62.7241 79.8997Z" fill="#EBEBEB"/>
<path d="M59.9522 79.6478C62.0162 67.5398 63.8842 56.5838 65.2362 48.6438L66.8002 39.2398C66.9762 38.1358 67.1122 37.2758 67.2002 36.6798C67.2442 36.3918 67.2762 36.1718 67.2962 36.0118C67.3096 35.9364 67.3177 35.8602 67.3202 35.7838C67.2989 35.8574 67.2816 35.9322 67.2682 36.0078C67.2402 36.1678 67.2002 36.4078 67.1482 36.6718C67.0442 37.2638 66.8962 38.1238 66.7042 39.2238C66.3322 41.4518 65.8002 44.6638 65.1402 48.6278L60.1402 79.6758C58.1962 91.7958 56.4202 102.768 55.0882 110.704C54.4202 114.672 53.8682 117.884 53.4682 120.096C53.2682 121.204 53.1082 122.064 52.9882 122.644C52.9459 122.943 52.8763 123.237 52.7802 123.524C52.7759 123.222 52.8041 122.92 52.8642 122.624C52.9402 122.036 53.0642 121.172 53.2322 120.06C53.5682 117.832 54.0802 114.616 54.7282 110.644C56.0242 102.704 57.8802 91.7318 59.9522 79.6478Z" fill="#EBEBEB"/>
<path d="M57.2561 78.9638C61.2001 67.3318 64.7721 56.8078 67.3601 49.1798L70.3761 40.1318C70.7201 39.0678 70.9921 38.2398 71.1761 37.6678C71.2641 37.3918 71.3281 37.1798 71.3761 37.0278C71.4013 36.9546 71.4213 36.8797 71.4361 36.8038C71.4039 36.8727 71.3759 36.9435 71.3521 37.0158C71.2961 37.1678 71.2201 37.3798 71.1241 37.6518C70.9281 38.2198 70.6481 39.0438 70.2841 40.1038C69.5681 42.2438 68.5361 45.3318 67.2601 49.1398C64.7441 56.7918 61.2601 67.3518 57.4321 79.0158C53.6041 90.6798 50.1241 101.236 47.5601 108.864C46.2761 112.676 45.2241 115.76 44.4801 117.884C44.1081 118.944 43.8121 119.768 43.6041 120.324C43.5191 120.614 43.4024 120.895 43.2561 121.16C43.3032 120.86 43.3782 120.565 43.4801 120.28C43.6521 119.712 43.9081 118.88 44.2521 117.808C44.9321 115.66 45.9441 112.564 47.2081 108.748C49.7441 101.112 53.3041 90.5838 57.2561 78.9638Z" fill="#EBEBEB"/>
<path d="M54.7042 77.8638C60.4282 66.9958 65.6082 57.1638 69.3642 50.0398L73.7642 41.5838L74.9642 39.2758C75.0922 39.0091 75.1922 38.8091 75.2642 38.6758C75.2998 38.6074 75.3305 38.5365 75.3562 38.4638C75.3108 38.5256 75.2706 38.5912 75.2362 38.6598C75.1602 38.7998 75.0522 38.9958 74.9162 39.2518L73.7162 41.5398C72.6722 43.5398 71.1642 46.4278 69.3162 49.9918L54.9162 77.9478C49.3162 88.8638 44.2002 98.7478 40.4642 105.868C38.6002 109.432 37.0762 112.308 36.0082 114.292C35.4722 115.28 35.0522 116.048 34.7602 116.564C34.6261 116.835 34.4667 117.094 34.2842 117.336C34.3795 117.048 34.5014 116.769 34.6482 116.504C34.9042 115.968 35.2882 115.184 35.7962 114.18C36.8082 112.18 38.2922 109.272 40.1442 105.7C43.8002 98.5558 48.9722 88.7158 54.7042 77.8638Z" fill="#EBEBEB"/>
<path d="M52.3562 76.3757L71.1842 51.1757L76.8562 43.5117L78.3802 41.4198L78.7802 40.8677C78.8264 40.807 78.8678 40.7428 78.9042 40.6758C78.8502 40.7303 78.8007 40.7891 78.7562 40.8518C78.6602 40.9798 78.5202 41.1557 78.3562 41.3837C77.9962 41.8677 77.4722 42.5837 76.8002 43.4557L71.1242 51.1158L52.5242 76.4757C45.2722 86.3797 38.6922 95.3357 33.8882 101.792C31.4882 105.02 29.5322 107.624 28.1682 109.416C27.4842 110.308 26.9482 111.016 26.5682 111.464C26.3934 111.71 26.1966 111.941 25.9802 112.152C26.1156 111.882 26.2777 111.626 26.4642 111.388C26.8002 110.9 27.3082 110.188 27.9642 109.272C29.2762 107.444 31.1962 104.816 33.5642 101.576C38.3522 95.1117 45.0002 86.2037 52.3562 76.3757Z" fill="#EBEBEB"/>
<path d="M50.2681 74.5318L72.8001 52.5878L79.6001 45.8998L81.4361 44.0678L81.9041 43.5878C81.9612 43.5352 82.0134 43.4777 82.0601 43.4158C81.9977 43.4604 81.9401 43.5113 81.8881 43.5678C81.7681 43.6758 81.6081 43.8318 81.3961 44.0318L79.5361 45.8318L72.7361 52.5158L50.4001 74.6758C41.6961 83.3278 33.8041 91.1558 28.0521 96.7838C25.1801 99.5838 22.8521 101.868 21.2161 103.424C20.4161 104.204 19.7681 104.804 19.3321 105.204C19.12 105.421 18.8884 105.617 18.6401 105.792C18.8174 105.546 19.0183 105.318 19.2401 105.112C19.6401 104.68 20.2601 104.056 21.0481 103.256C22.6481 101.656 24.9361 99.3558 27.8001 96.5278C33.5201 90.8718 41.4721 83.1038 50.2681 74.5318Z" fill="#EBEBEB"/>
<path d="M48.4881 72.4038L74.1481 54.2198L81.9001 48.6718L83.9921 47.1478L84.5361 46.7478C84.5991 46.7052 84.658 46.657 84.7121 46.6038C84.643 46.6387 84.5773 46.6802 84.5161 46.7278L83.9641 47.1278L81.8441 48.6198L74.0921 54.1318L48.5961 72.5318C38.6521 79.7318 29.6361 86.2318 23.0841 90.8998C19.8041 93.2318 17.1441 95.1118 15.2961 96.3958C14.3721 97.0358 13.6521 97.5278 13.1561 97.8558C12.9194 98.0444 12.6664 98.2117 12.4001 98.3558C12.6123 98.1398 12.8454 97.9455 13.0961 97.7758C13.5681 97.4158 14.2681 96.8918 15.1721 96.2238C16.9841 94.8878 19.6201 92.9758 22.8881 90.6238C29.4041 85.9318 38.4681 79.4958 48.4881 72.4038Z" fill="#EBEBEB"/>
<path d="M47.0681 70.0198L75.2561 56.0718L83.7762 51.7998L86.0842 50.6238L86.6802 50.3078C86.7508 50.2765 86.8179 50.2376 86.8801 50.1918C86.8071 50.2165 86.7362 50.2473 86.6682 50.2838L86.0602 50.5718L83.7322 51.7318L75.2001 55.9798L47.1402 70.1838C36.2042 75.7318 26.2801 80.7518 19.0761 84.3358C15.4761 86.1318 12.5561 87.5678 10.5281 88.5478C9.51614 89.0358 8.72414 89.4118 8.18414 89.6558C7.91775 89.7993 7.63769 89.9159 7.34814 90.0038C7.59952 89.8241 7.86739 89.6688 8.14814 89.5398C8.66814 89.2598 9.44014 88.8518 10.4401 88.3398C12.4401 87.3038 15.3401 85.8278 18.9361 84.0198C26.1041 80.3918 36.0601 75.4558 47.0681 70.0198Z" fill="#EBEBEB"/>
<path d="M46.0362 67.4357L76.0682 58.0997L85.1562 55.2237L87.6202 54.4237L88.2562 54.2078C88.3299 54.1844 88.4021 54.1563 88.4722 54.1237C88.396 54.1354 88.321 54.1542 88.2482 54.1797L87.6042 54.3677L85.1242 55.1318L76.0362 57.9997L46.0922 67.5997C34.4082 71.3598 23.8202 74.7518 16.1442 77.1598C12.3042 78.3598 9.19221 79.3238 7.03621 79.9598C5.96021 80.2838 5.12021 80.5278 4.54821 80.6877C4.2626 80.7864 3.96778 80.8561 3.66821 80.8958C3.93827 80.7583 4.2209 80.6471 4.51221 80.5638C5.06821 80.3638 5.89621 80.0838 6.96421 79.7278C9.10021 79.0198 12.2002 78.0158 16.0322 76.7958C23.7002 74.3838 34.3122 71.0717 46.0362 67.4357Z" fill="#EBEBEB"/>
<path d="M45.4242 64.7238L76.5523 60.2278L85.9762 58.8158L88.5363 58.4158L89.2003 58.3038C89.2772 58.2928 89.3534 58.2768 89.4283 58.2558C89.3504 58.2526 89.2724 58.2593 89.1963 58.2758L88.5283 58.3598L85.9643 58.7238L76.5362 60.1318L45.4522 64.9118C33.3202 66.7878 22.3322 68.4718 14.3722 69.6398C10.3722 70.2278 7.17224 70.6838 4.93623 70.9838C3.82023 71.1358 2.93623 71.2478 2.36423 71.3118C2.06698 71.3626 1.76578 71.3867 1.46423 71.3838C1.75117 71.2866 2.04743 71.2196 2.34823 71.1838C2.92823 71.0758 3.79223 70.9318 4.90023 70.7478C7.12423 70.3838 10.3402 69.8838 14.3202 69.2798C22.2762 68.0718 33.2762 66.4718 45.4242 64.7238Z" fill="#EBEBEB"/>
<path d="M45.2442 61.9518L76.6922 62.3318L86.2242 62.4038H88.8002H89.4722H89.7042C89.627 62.3969 89.5494 62.3969 89.4722 62.4038L88.8002 62.3838L86.2082 62.3478L76.6762 62.2718L45.2442 62.1318C32.9682 62.1038 21.8522 62.0598 13.8082 61.9798C9.78418 61.9398 6.52818 61.8958 4.27618 61.8478C3.15218 61.8198 2.27618 61.7958 1.68418 61.7718C1.3825 61.7787 1.08092 61.7546 0.78418 61.6998C1.08328 61.6545 1.38579 61.6358 1.68818 61.6438C2.28018 61.6438 3.15218 61.6158 4.28018 61.6118C6.52818 61.6118 9.78418 61.6118 13.8082 61.6118C21.8562 61.6678 32.9722 61.7918 45.2442 61.9518Z" fill="#EBEBEB"/>
<path d="M45.4962 59.1798L76.5042 64.4438L85.9082 65.9958L88.4682 66.3958L89.1322 66.4918C89.2088 66.5054 89.2864 66.5134 89.3642 66.5158C89.2905 66.4945 89.2157 66.4771 89.1402 66.4638L88.4762 66.3438L85.9242 65.8998L76.5202 64.3438L45.4682 59.3638C33.3442 57.4278 22.3722 55.6598 14.4362 54.3318C10.4642 53.6678 7.23618 53.1318 5.04018 52.7318C3.93218 52.5358 3.07618 52.3718 2.49218 52.2558C2.19325 52.2128 1.89874 52.1431 1.61218 52.0478C1.91548 52.0429 2.21845 52.0697 2.51618 52.1278C3.10418 52.2038 3.96818 52.3278 5.08018 52.4958C7.30418 52.8318 10.5242 53.3398 14.4922 53.9878C22.4362 55.2638 33.3962 57.1158 45.4962 59.1798Z" fill="#EBEBEB"/>
<path d="M46.1803 56.4838L75.9683 66.5678L85.0123 69.5758L87.4763 70.3758L88.1203 70.5798C88.1935 70.6039 88.2683 70.6226 88.3443 70.6358L88.1283 70.5518L87.4963 70.3238L85.0443 69.4878L76.0003 66.4678L46.1203 56.6598C34.4563 52.8438 23.8963 49.3678 16.2683 46.8038C12.4523 45.5238 9.37226 44.4758 7.24426 43.7318C6.18426 43.3598 5.36026 43.0678 4.80426 42.8598C4.51525 42.7704 4.23534 42.6539 3.96826 42.5118C4.26794 42.5588 4.56256 42.6338 4.84826 42.7358C5.41626 42.9038 6.24826 43.1638 7.32426 43.5038C9.46826 44.1838 12.5643 45.1918 16.3843 46.4558C24.0243 48.9838 34.5563 52.5318 46.1803 56.4838Z" fill="#EBEBEB"/>
<path d="M47.2761 53.9318L75.1121 68.5758L83.5681 72.9758L85.8761 74.1518L86.4801 74.4518C86.5464 74.4889 86.616 74.5197 86.6881 74.5438C86.6266 74.499 86.561 74.4601 86.4921 74.4278L85.9001 74.1038L83.6121 72.9038L75.1561 68.5037L47.1921 54.1038C36.2721 48.5038 26.3921 43.3998 19.2641 39.6718C15.6961 37.8078 12.8201 36.2838 10.8361 35.2158C9.84811 34.6838 9.08011 34.2638 8.56411 33.9718C8.29169 33.839 8.0331 33.6795 7.79211 33.4958C8.07936 33.5914 8.35775 33.7119 8.62412 33.8558C9.15612 34.1118 9.94011 34.4998 10.9481 35.0038C12.9481 36.0158 15.8561 37.4998 19.4281 39.3478C26.5761 43.0398 36.4001 48.2078 47.2761 53.9318Z" fill="#EBEBEB"/>
<path d="M48.7602 51.5797L73.9602 70.3797L81.6242 76.0437L83.7202 77.5677C83.9562 77.7357 84.1402 77.8637 84.2682 77.9677C84.3306 78.0135 84.3961 78.0549 84.4642 78.0917C84.4086 78.0388 84.3498 77.9894 84.2882 77.9437L83.7522 77.5437L81.6802 75.9877L74.0202 70.3197L48.6522 51.7317C38.7442 44.4837 29.7802 37.9077 23.3202 33.1077C20.0922 30.7077 17.4882 28.7557 15.6962 27.3917C14.8002 26.7117 14.0962 26.1917 13.6442 25.7917C13.3975 25.617 13.1672 25.4201 12.9562 25.2037C13.227 25.3379 13.4831 25.5002 13.7202 25.6877C14.2082 26.0237 14.9202 26.5277 15.8362 27.1837C17.6682 28.4957 20.2962 30.4157 23.5362 32.7837C30.0202 37.5877 38.9322 44.2317 48.7602 51.5797Z" fill="#EBEBEB"/>
<path d="M50.5962 49.4918L72.5642 71.9958L79.2562 78.7958L81.0882 80.6278L81.5682 81.0998C81.6213 81.155 81.6789 81.2059 81.7402 81.2518C81.6943 81.1904 81.6435 81.1329 81.5882 81.0798L81.1242 80.5918C80.7242 80.1598 80.1002 79.5318 79.3202 78.7318L72.6362 71.9318L50.4642 49.6238C41.8002 40.9318 33.9722 33.0318 28.3362 27.2878C25.5362 24.4158 23.2482 22.0878 21.6922 20.4558C20.9162 19.6558 20.3162 19.0078 19.9122 18.5718C19.6942 18.3608 19.4973 18.129 19.3242 17.8798C19.57 18.057 19.7978 18.258 20.0042 18.4798C20.4362 18.8798 21.0602 19.4958 21.8642 20.2878C23.4642 21.8878 25.7682 24.1718 28.5962 27.0318C34.2562 32.7518 42.0282 40.6998 50.5962 49.4918Z" fill="#EBEBEB"/>
<path d="M52.7281 47.7318L70.9321 73.3797L76.4841 81.1278L78.0081 83.2197L78.4081 83.7598C78.4504 83.8252 78.5001 83.8856 78.5561 83.9398C78.5193 83.8717 78.4779 83.8062 78.4321 83.7438L78.0321 83.1878L76.5401 81.0718L70.9921 73.3237L52.5601 47.8398C45.3601 37.8998 38.8481 28.8878 34.1601 22.3358C31.8601 19.0438 30.0001 16.3838 28.6961 14.5318C28.0521 13.6078 27.5601 12.8838 27.2321 12.3918C27.0509 12.149 26.8917 11.8906 26.7561 11.6198C26.9721 11.8319 27.1664 12.065 27.3361 12.3158C27.6961 12.7878 28.2201 13.4878 28.8921 14.3918C30.2281 16.2038 32.1401 18.8358 34.4921 22.1038C39.2001 28.6358 45.6321 37.6958 52.7281 47.7318Z" fill="#EBEBEB"/>
<path d="M55.1161 46.2877C60.5681 57.2917 65.5162 67.2477 69.0842 74.4677L73.3561 82.9837L74.5561 85.2917L74.8721 85.8877C74.9041 85.9573 74.9416 86.0242 74.9842 86.0877C74.963 86.014 74.9334 85.9428 74.8962 85.8757L74.6041 85.2677L73.4441 82.9317C72.4322 80.9117 70.9721 78.0037 69.1721 74.4077C65.5321 67.2077 60.5041 57.3117 54.9481 46.3597C49.3921 35.4077 44.3721 25.5117 40.8001 18.3077C39.0041 14.7077 37.5641 11.7877 36.5841 9.75974C36.0961 8.74774 35.7201 7.95974 35.4721 7.41974C35.3302 7.15258 35.2137 6.87269 35.1241 6.58374C35.3047 6.82605 35.4601 7.08605 35.5881 7.35974C35.8721 7.88374 36.2801 8.65574 36.7881 9.65174C37.8241 11.6517 39.3041 14.5517 41.1161 18.1437C44.7281 25.3317 49.6721 35.2877 55.1161 46.2877Z" fill="#EBEBEB"/>
<path d="M57.6962 45.2558C61.3522 56.9798 64.6562 67.5918 67.0562 75.2798C68.2562 79.1118 69.2522 82.2118 69.9362 84.3678C70.2842 85.4318 70.5522 86.2598 70.7362 86.8318L70.9523 87.4678C70.9735 87.5417 71.0002 87.6139 71.0322 87.6838C71.0231 87.607 71.0043 87.5318 70.9762 87.4598L70.7882 86.8158C70.6122 86.2398 70.3522 85.4078 70.0242 84.3358C69.3442 82.1838 68.3602 79.0838 67.1482 75.2518C64.6802 67.5838 61.2762 57.0038 57.5162 45.3118C53.7562 33.6198 50.3482 23.0478 47.9162 15.3678C46.7162 11.5318 45.7482 8.41975 45.1162 6.26375C44.7922 5.18775 44.5442 4.34775 44.3842 3.77975C44.286 3.49238 44.215 3.19641 44.1722 2.89575C44.3136 3.16451 44.4262 3.4474 44.5082 3.73975C44.7082 4.29575 44.9882 5.12375 45.3442 6.19175C46.0562 8.32775 47.0602 11.4278 48.2802 15.2598C50.7362 22.9318 54.0522 33.5358 57.6962 45.2558Z" fill="#EBEBEB"/>
<path d="M60.4002 44.6437C62.1642 56.7957 63.7602 67.7957 64.9202 75.7677C65.5162 79.7397 66.0002 82.9677 66.3322 85.1917C66.5082 86.2957 66.6442 87.1557 66.7322 87.7517C66.7842 88.0397 66.8202 88.2597 66.8482 88.4157C66.8562 88.4919 66.8723 88.567 66.8962 88.6397C66.894 88.5634 66.8873 88.4873 66.8762 88.4117C66.8562 88.2517 66.8242 88.0317 66.7882 87.7437C66.7042 87.1477 66.5802 86.2877 66.4242 85.1797C66.0922 82.9437 65.6242 79.7277 65.0162 75.7517C63.7842 67.7917 62.0882 56.8077 60.2162 44.6717C58.3442 32.5357 56.6442 21.5557 55.4682 13.5917C54.8802 9.61175 54.4202 6.39175 54.1202 4.15975C53.9682 3.04375 53.8562 2.15975 53.7882 1.58775C53.7343 1.28958 53.7115 0.986622 53.7202 0.683746C53.8113 0.97209 53.8769 1.2679 53.9162 1.56775C54.0242 2.15175 54.1722 3.01175 54.3562 4.12375C54.7202 6.34375 55.2242 9.55975 55.8282 13.5397C57.0482 21.4957 58.6522 32.4957 60.4002 44.6437Z" fill="#EBEBEB"/>
<path d="M63.2002 44.4598C63.0602 56.7398 62.9322 67.8558 62.8402 75.9078C62.8122 79.9278 62.7922 83.1798 62.7762 85.4398C62.7762 86.5598 62.7762 87.4398 62.7762 88.0318C62.7762 88.3198 62.7762 88.5438 62.7762 88.7038C62.7658 88.7807 62.7658 88.8588 62.7762 88.9358C62.7814 88.8585 62.7814 88.781 62.7762 88.7038C62.7762 88.5438 62.7762 88.3038 62.7962 88.0318C62.7962 87.4318 62.8162 86.5598 62.8322 85.4398C62.8322 83.1798 62.8722 79.9278 62.9002 75.9118C62.9202 67.8558 62.9482 56.7398 62.9802 44.4598C63.0122 32.1798 63.0402 21.0678 63.1122 13.0238C63.1482 8.99975 63.1922 5.74376 63.2402 3.49176C63.2642 2.36776 63.2882 1.49176 63.3122 0.903756C63.3054 0.600758 63.3295 0.297857 63.3842 -0.000244141C63.4295 0.298852 63.4482 0.601361 63.4402 0.903756C63.4402 1.49576 63.4682 2.36776 63.4762 3.49576C63.4762 5.74376 63.4762 9.00375 63.4762 13.0238C63.4522 21.0718 63.3322 32.1878 63.2002 44.4598Z" fill="#EBEBEB"/>
<path d="M65.9522 44.7118C63.9042 56.8198 62.0522 67.7798 60.7082 75.7198C60.0562 79.6878 59.5322 82.8958 59.1642 85.1278C58.9922 86.2318 58.8562 87.0918 58.7642 87.6878C58.7242 87.9718 58.6922 88.1958 58.6682 88.3518C58.6545 88.4284 58.6465 88.506 58.6442 88.5838C58.6679 88.5107 58.6853 88.4358 58.6962 88.3598C58.7242 88.1998 58.7642 87.9798 58.8202 87.6958C58.9202 87.1038 59.0682 86.2438 59.2602 85.1398C59.6242 82.9118 60.1562 79.7038 60.8082 75.7358C62.0802 67.7838 63.8322 56.8078 65.7682 44.6798C67.7042 32.5518 69.4602 21.5838 70.8002 13.6438C71.4642 9.67576 72.0002 6.46776 72.4002 4.25176C72.6002 3.14376 72.7602 2.28376 72.8762 1.70376C72.9164 1.40392 72.9874 1.10903 73.0882 0.823761C73.0873 1.12568 73.0592 1.42689 73.0042 1.72376C72.9282 2.31176 72.8042 3.17576 72.6402 4.29176C72.3042 6.51576 71.8002 9.73176 71.1522 13.7038C69.8522 21.6478 68.0002 32.6078 65.9522 44.7118Z" fill="#EBEBEB"/>
<path d="M68.6481 45.3918C64.7201 57.0278 61.1641 67.5557 58.5841 75.1878C57.3201 79.0038 56.2921 82.0878 55.5801 84.2318L54.7801 86.6998C54.6921 86.9758 54.6281 87.1878 54.5801 87.3438C54.5548 87.4155 54.5347 87.489 54.5201 87.5638C54.5549 87.4955 54.5843 87.4246 54.6081 87.3518C54.6601 87.1998 54.7361 86.9878 54.8321 86.7158C55.0241 86.1478 55.3081 85.3238 55.6681 84.2638C56.3841 82.1198 57.4121 79.0358 58.6801 75.2197C61.1881 67.5638 64.6481 57.0038 68.4681 45.3318C72.2881 33.6598 75.7481 23.1038 78.3041 15.4758C79.5841 11.6598 80.6321 8.57575 81.3721 6.45175C81.7441 5.38775 82.0361 4.56375 82.2442 4.00775C82.3292 3.71718 82.4459 3.43683 82.5921 3.17175C82.5456 3.47153 82.4706 3.7662 82.3681 4.05175C82.2001 4.61975 81.9401 5.45575 81.6041 6.52775C80.9241 8.67175 79.9162 11.7678 78.6521 15.5918C76.1361 23.2318 72.5881 33.7638 68.6481 45.3918Z" fill="#EBEBEB"/>
<path d="M71.2002 46.4878L56.5802 74.3318C54.7282 77.8958 53.2282 80.7838 52.1802 82.7918L51.0042 85.0998C50.8722 85.3598 50.7762 85.5598 50.7042 85.7038C50.667 85.77 50.6362 85.8397 50.6122 85.9118C50.657 85.8503 50.6958 85.7846 50.7282 85.7158L51.0522 85.1238L52.2522 82.8318C53.2922 80.8318 54.7962 77.9438 56.6522 74.3758L71.0242 46.4038C76.6242 35.4798 81.7122 25.6038 85.4242 18.4638C87.2882 14.8998 88.8082 12.0198 89.8762 10.0358C90.4082 9.04376 90.8282 8.27976 91.1162 7.75976C91.2503 7.48805 91.4096 7.22958 91.5922 6.98776C91.5006 7.27654 91.3799 7.55529 91.2322 7.81976C90.9762 8.35576 90.5922 9.13976 90.0842 10.1478C89.0762 12.1478 87.5962 15.0558 85.7482 18.6318C82.0802 25.7798 76.9202 35.6238 71.2002 46.4878Z" fill="#EBEBEB"/>
<path d="M73.5561 47.9717L54.7561 73.1717C52.3561 76.4077 50.4401 79.0237 49.0961 80.8437L47.5721 82.9398L47.1721 83.4877C47.1252 83.548 47.0837 83.6122 47.0481 83.6797C47.1022 83.6252 47.1517 83.5664 47.1961 83.5037L47.5961 82.9717C47.9601 82.4917 48.4801 81.7917 49.1521 80.8997L54.8161 73.2317L73.3841 47.8477C80.6441 37.9477 87.2001 28.9837 92.0001 22.5317C94.4001 19.2997 96.3521 16.6917 97.7121 14.9037C98.3961 14.0077 98.9121 13.3037 99.3121 12.8517C99.4824 12.5941 99.6766 12.353 99.8921 12.1317C99.7607 12.4154 99.5984 12.6837 99.4081 12.9317C99.0721 13.4197 98.5681 14.1317 97.9121 15.0477C96.6041 16.8757 94.6841 19.5117 92.3121 22.7517C87.5361 29.2197 80.9001 38.1317 73.5561 47.9717Z" fill="#EBEBEB"/>
<path d="M75.6441 49.8037L53.1561 71.8037L46.3561 78.4957L44.5241 80.3317L44.0521 80.8157C43.9965 80.8671 43.9456 80.9233 43.9001 80.9837C43.961 80.9387 44.0185 80.8892 44.0721 80.8357L44.5641 80.3717L46.4201 78.5637L53.2201 71.8757L75.5121 49.6877C84.2042 41.0197 92.0881 33.1837 97.8321 27.5477C100.7 24.7477 103.032 22.4557 104.66 20.8997C105.46 20.1197 106.108 19.5197 106.544 19.1197C106.754 18.9008 106.986 18.7038 107.236 18.5317C107.056 18.7754 106.856 19.003 106.636 19.2117C106.236 19.6397 105.62 20.2677 104.832 21.0677C103.252 22.6677 100.948 24.9757 98.0882 27.8037C92.3722 33.4517 84.4282 41.2277 75.6441 49.8037Z" fill="#EBEBEB"/>
<path d="M77.4242 51.9358L51.7882 70.1558L44.0482 75.7318L41.9522 77.2598L41.4122 77.6598C41.3493 77.7023 41.2904 77.7505 41.2362 77.8038C41.3033 77.7689 41.3675 77.7288 41.4282 77.6838L41.9842 77.2838L44.1002 75.7918L51.8482 70.2358L77.3162 51.7878C87.2522 44.5878 96.2602 38.0638 102.808 33.3878C106.084 31.0478 108.74 29.1678 110.588 27.8838C111.512 27.2398 112.232 26.7438 112.724 26.4158C112.966 26.2338 113.224 26.0757 113.496 25.9438C113.285 26.1629 113.052 26.36 112.8 26.5318C112.332 26.8958 111.632 27.4198 110.728 28.0878C108.916 29.4278 106.284 31.3438 103.02 33.6878C96.4922 38.3878 87.4362 44.8358 77.4242 51.9358Z" fill="#EBEBEB"/>
<path d="M78.8522 54.3238L50.6802 68.3238L42.1642 72.6038L39.8602 73.8038L39.2642 74.1198C39.1929 74.1498 39.1257 74.1887 39.0642 74.2358C39.137 74.2101 39.2078 74.1794 39.2762 74.1438L39.8842 73.8518L42.2082 72.7078L50.7282 68.4358L78.7682 54.1918C89.7082 48.6238 99.6242 43.5998 106.82 40.0038C110.42 38.2078 113.34 36.7638 115.368 35.7838C116.38 35.2918 117.168 34.9158 117.708 34.6718C117.975 34.5282 118.255 34.4117 118.544 34.3238C118.298 34.4998 118.037 34.6538 117.764 34.7838C117.244 35.0678 116.472 35.4798 115.476 35.9838C113.476 37.0198 110.576 38.4998 106.984 40.3158C99.8042 43.9238 89.8482 48.8718 78.8522 54.3238Z" fill="#EBEBEB"/>
<path d="M79.8841 56.9037L49.8641 66.2797L40.8001 69.1677L38.3361 69.9677L37.6961 70.1837C37.6231 70.2055 37.5522 70.2336 37.4841 70.2677C37.5586 70.2537 37.632 70.235 37.7041 70.2117L38.3521 70.0197L40.8281 69.2557L49.9121 66.3757L79.8441 56.7197C91.5241 52.9437 102.104 49.5397 109.78 47.1197C113.62 45.9197 116.728 44.9437 118.884 44.2957C119.96 43.9717 120.8 43.7237 121.372 43.5637C121.658 43.4654 121.953 43.3944 122.252 43.3517C121.982 43.4897 121.699 43.6022 121.408 43.6877C120.852 43.8877 120.024 44.1677 118.956 44.5237C116.82 45.2357 113.724 46.2437 109.892 47.4677C102.212 49.9277 91.6001 53.2517 79.8841 56.9037Z" fill="#EBEBEB"/>
<path d="M80.5001 59.6117L49.3801 64.1517L39.9561 65.5717L37.3961 65.9717L36.7322 66.0837C36.6552 66.0947 36.579 66.1107 36.5042 66.1317C36.5819 66.1323 36.6596 66.1256 36.7361 66.1117L37.4042 66.0237L39.9681 65.6597L49.3921 64.2437L80.4721 59.4197C92.6001 57.5277 103.584 55.8197 111.548 54.6557C115.524 54.0637 118.748 53.5997 120.98 53.2957C122.096 53.1477 122.96 53.0357 123.552 52.9677C123.849 52.9143 124.151 52.8902 124.452 52.8957C124.165 52.9929 123.869 53.0599 123.568 53.0957C122.988 53.2037 122.124 53.3517 121.016 53.5357C118.796 53.8997 115.576 54.4077 111.6 55.0157C103.644 56.2397 92.6482 57.8517 80.5001 59.6117Z" fill="#EBEBEB"/>
<path d="M29.7362 142.672C32.0362 141.472 34.7402 141.332 37.2882 141.752C38.6602 141.98 40.0882 142.388 41.0202 143.42C41.9522 144.452 42.1282 146.26 41.0602 147.144C40.4242 147.668 39.5322 147.748 38.7082 147.74C36.7082 147.716 34.4962 147.364 32.9002 148.564C31.9922 149.252 31.3842 150.392 30.2962 150.728C29.2082 151.064 28.0322 150.428 27.4682 149.468C26.9502 148.467 26.8356 147.306 27.1482 146.224C27.2765 145.472 27.5769 144.761 28.0258 144.144C28.4748 143.528 29.0602 143.024 29.7362 142.672Z" fill="#6DAFA7"/>
<path d="M24.4762 132.532C25.8802 134.532 28.6082 133.872 29.8762 132.648C31.1442 131.424 31.6762 129.648 32.1642 127.956C33.2762 124.088 34.3962 120.032 33.5722 116.096C33.3724 114.901 32.848 113.784 32.0562 112.868C31.6546 112.417 31.1418 112.08 30.569 111.89C29.9962 111.7 29.3835 111.663 28.7922 111.784C27.4162 112.148 26.5602 113.496 25.9442 114.78C24.1204 118.565 23.1638 122.71 23.1442 126.912C23.1442 128.868 23.3682 130.912 24.4722 132.532" fill="#6DAFA7"/>
<path d="M20.6162 135.388C22.1442 133.58 22.4322 130.94 21.7522 128.672C21.0722 126.404 19.5402 124.476 17.7762 122.9C15.6966 121.048 13.2753 119.62 10.6482 118.696C9.63353 118.285 8.54167 118.099 7.44819 118.152C6.90139 118.183 6.37063 118.348 5.90213 118.632C5.43364 118.916 5.04161 119.31 4.76019 119.78C4.01219 121.208 4.72819 122.944 5.50819 124.36C6.87846 126.854 8.44331 129.236 10.1882 131.484C11.5882 133.292 13.1962 135.084 15.3322 135.884C17.4682 136.684 19.6922 136.608 20.8242 135.124" fill="#6DAFA7"/>
<path d="M24.4002 162.772C24.4731 162.474 24.516 162.17 24.5282 161.864C24.5922 161.2 24.6722 160.364 24.7682 159.376C24.8916 158.15 25.0785 156.931 25.3282 155.724C25.6553 154.256 26.0994 152.817 26.6562 151.42C27.2021 150.023 27.9427 148.71 28.8562 147.52C29.6047 146.549 30.5616 145.759 31.6562 145.208C32.3928 144.843 33.1826 144.597 33.9962 144.48C34.3028 144.469 34.6073 144.425 34.9042 144.348C34.597 144.317 34.2875 144.317 33.9802 144.348C33.1353 144.411 32.3088 144.627 31.5402 144.984C30.3952 145.523 29.3903 146.32 28.6042 147.312C27.6541 148.519 26.8859 149.858 26.3242 151.288C25.7595 152.707 25.3192 154.172 25.0082 155.668C24.7732 156.889 24.6115 158.123 24.5242 159.364C24.4442 160.42 24.4162 161.276 24.4002 161.864C24.3668 162.165 24.3668 162.47 24.4002 162.772Z" fill="#E0E0E0"/>
<path d="M24.5522 160.86C24.5756 160.72 24.5836 160.578 24.5762 160.436C24.5762 160.12 24.5762 159.72 24.5762 159.236C24.5762 158.184 24.5762 156.664 24.6322 154.792C24.7242 151.04 25.0322 147 25.6682 141.308C26.2602 135.956 27.0522 129.708 27.8922 125.676C28.0722 124.752 28.2522 123.924 28.4202 123.2C28.5882 122.476 28.7202 121.844 28.8562 121.336C28.9922 120.828 29.0642 120.468 29.1402 120.16C29.1795 120.03 29.2037 119.895 29.2122 119.76C29.1465 119.886 29.0968 120.021 29.0642 120.16C28.9722 120.464 28.8562 120.848 28.7162 121.32C28.5762 121.792 28.4002 122.444 28.2162 123.168C28.0322 123.892 27.8162 124.72 27.6322 125.64C26.5932 130.425 25.8121 135.263 25.2922 140.132C24.6682 145.836 24.3842 151.032 24.3602 154.792C24.3362 156.672 24.3602 158.196 24.4242 159.248C24.4562 159.736 24.4802 160.136 24.5002 160.448C24.4988 160.587 24.5162 160.725 24.5522 160.86Z" fill="#E0E0E0"/>
<path d="M24.5762 150.84C24.6094 150.419 24.6094 149.996 24.5762 149.576C24.5282 148.776 24.4162 147.576 24.1762 146.156C23.8997 144.473 23.5285 142.808 23.0642 141.168C22.5211 139.149 21.823 137.175 20.9762 135.264C19.5314 131.741 17.4576 128.511 14.8562 125.732C14.4057 125.254 13.9247 124.807 13.4162 124.392C13.1922 124.204 13.0162 124.02 12.8002 123.872L12.2402 123.472C11.904 123.217 11.5483 122.99 11.1762 122.792C11.1162 122.876 12.6842 123.796 14.6642 125.904C17.182 128.708 19.2017 131.923 20.6362 135.408C21.4642 137.307 22.1644 139.259 22.7322 141.252C23.2802 143.088 23.6442 144.772 23.9322 146.192C24.2202 147.612 24.3322 148.776 24.4322 149.58C24.4482 150.003 24.4964 150.424 24.5762 150.84Z" fill="#E0E0E0"/>
<path d="M14.8922 168.512L15.8962 182.268H33.5642L34.5682 168.512H14.8922Z" fill="#93523E"/>
<path d="M36.6762 163.092H13.1882V168.512H36.6762V163.092Z" fill="#93523E"/>
<path d="M13.1882 181.74V183.244H14.2922H36.2882V181.74H13.1882Z" fill="#664D49"/>
<path d="M15.3722 185.888L14.2922 183.244H35.4482L34.1842 185.888H15.3722Z" fill="#93523E"/>
<path d="M34.2401 173.008C34.2187 173.054 34.1904 173.098 34.1561 173.136L33.8961 173.484L32.8641 174.8L32.8201 174.86L32.7761 174.8L30.2481 171.3H30.4001C29.6481 172.368 28.8001 173.552 27.9121 174.828L27.8321 174.936L27.7441 174.832L24.8001 171.332H24.9721L24.8081 171.536L22.1681 174.844L22.0801 174.956L22.0001 174.84L19.5081 171.316H19.6521L16.5841 174.808L16.5321 174.872L16.4881 174.8C16.0881 174.124 15.7641 173.58 15.5281 173.2L15.2841 172.772C15.2519 172.723 15.2264 172.671 15.2081 172.616C15.247 172.658 15.2818 172.703 15.3121 172.752L15.5841 173.152L16.5921 174.752H16.4961L19.5121 171.212L19.5881 171.124L19.6601 171.22L22.1721 174.728H22.0001L24.6321 171.412L24.7961 171.208L24.8801 171.104L24.9641 171.208L27.9081 174.728H27.7441L30.2601 171.224L30.3321 171.12L30.4041 171.224L32.8801 174.756H32.7881L33.8601 173.472L34.1481 173.14C34.2001 173.04 34.2361 173.004 34.2401 173.008Z" fill="#1C85E8"/>
<path d="M34.8002 168.424C34.8002 168.484 30.3722 168.532 24.9122 168.532C19.4522 168.532 15.0242 168.484 15.0242 168.424C15.0242 168.364 19.4522 168.312 24.9122 168.312C30.3722 168.312 34.8002 168.364 34.8002 168.424Z" fill="#263238"/>
<path d="M35.7082 183.392C35.7082 183.452 30.9082 183.5 24.9642 183.5C19.0202 183.5 14.2162 183.452 14.2162 183.392C14.2162 183.332 19.0162 183.28 24.9642 183.28C30.9122 183.28 35.7082 183.332 35.7082 183.392Z" fill="#263238"/>
<path d="M172.612 18.5558H129.612V80.8797H172.612V18.5558Z" fill="#E0E0E0"/>
<path d="M170.46 18.5558H127.46V80.8797H170.46V18.5558Z" fill="#F5F5F5"/>
<path d="M165.116 25.3077H132.8V74.1317H165.116V25.3077Z" fill="white"/>
<path d="M165.116 74.1317C165.116 74.1317 165.116 74.0477 165.116 73.8917C165.116 73.7357 165.116 73.4917 165.116 73.1997C165.116 72.5877 165.116 71.6877 165.116 70.5197C165.116 68.1797 165.116 64.7717 165.088 60.4637C165.088 51.8557 165.056 39.6637 165.036 25.3077L165.144 25.4117H132.832L132.948 25.2957C132.948 43.6957 132.948 60.6957 132.928 74.1197L132.832 74.0237L156.352 74.0757L162.852 74.0997H164.556H165.148H164.576H162.888L156.412 74.1237L132.832 74.1717H132.74V74.1317C132.74 60.7077 132.74 43.7317 132.716 25.3077V25.1877H132.836H165.148H165.256V25.2957C165.232 39.6957 165.216 51.8957 165.2 60.5237C165.2 64.8197 165.18 68.2197 165.172 70.5557C165.172 71.7117 165.172 72.6037 165.172 73.2117C165.172 73.5077 165.172 73.7357 165.172 73.8917C165.172 74.0477 165.116 74.1317 165.116 74.1317Z" fill="#E0E0E0"/>
<path d="M170.58 18.5558C170.358 18.9484 170.101 19.3205 169.812 19.6678C169.312 20.3358 168.612 21.2678 167.812 22.2278C167.012 23.1878 166.244 24.0798 165.684 24.6998C165.401 25.0505 165.085 25.3733 164.74 25.6638C164.983 25.2842 165.257 24.9256 165.56 24.5918L167.6 22.0798L169.672 19.5678C169.946 19.2053 170.249 18.8667 170.58 18.5558Z" fill="#E0E0E0"/>
<path d="M165.28 73.9718C166.887 76.5273 168.778 78.893 170.916 81.0238L165.28 73.9718Z" fill="white"/>
<path d="M170.916 81.0238C170.559 80.7585 170.23 80.4584 169.932 80.1278C169.184 79.3642 168.475 78.5632 167.808 77.7278C167.139 76.8932 166.514 76.024 165.936 75.1238C165.68 74.7613 165.46 74.374 165.28 73.9678C165.572 74.3029 165.839 74.6585 166.08 75.0318C166.556 75.6958 167.22 76.6078 168 77.5798C168.78 78.5518 169.516 79.4038 170.06 80.0118C170.371 80.3264 170.658 80.6648 170.916 81.0238Z" fill="#E0E0E0"/>
<path d="M127.452 80.8317L133.084 73.8838L127.452 80.8317Z" fill="white"/>
<path d="M133.084 73.8838C132.239 75.1136 131.33 76.2979 130.36 77.4318C129.452 78.6156 128.481 79.7506 127.452 80.8317C128.3 79.6042 129.209 78.4201 130.176 77.2838C131.086 76.101 132.057 74.9662 133.084 73.8838Z" fill="#E0E0E0"/>
<path d="M127.46 18.5558C128.428 19.5959 129.34 20.6868 130.192 21.8238C131.104 22.9144 131.956 24.0534 132.744 25.2358C131.769 24.1988 130.853 23.1077 130 21.9678C129.092 20.8776 128.244 19.7385 127.46 18.5558Z" fill="#E0E0E0"/>
<path d="M155.048 35.2198H144.228V65.9398H155.048V35.2198Z" fill="#E0E0E0"/>
<path d="M114.848 102.372C112.112 99.7319 105.84 100.568 104.468 102.512C103.318 102.056 102.035 102.061 100.889 102.528C99.7426 102.995 98.8208 103.886 98.316 105.016L91.712 106.932C90.584 107.256 89.408 107.612 88.58 108.44C87.752 109.268 87.436 110.736 88.22 111.608C85.9 112.376 85.204 115.952 87.068 117.532C86.8592 117.808 86.7091 118.124 86.6268 118.461C86.5446 118.797 86.5319 119.147 86.5896 119.489C86.6472 119.83 86.7741 120.156 86.9623 120.447C87.1504 120.738 87.396 120.987 87.684 121.18C85.9763 123.527 84.683 126.149 83.86 128.932C83.516 130.092 83.26 131.38 83.756 132.484C84.252 133.588 85.792 134.272 86.724 133.5C86.4272 133.987 86.2762 134.55 86.289 135.12C86.3018 135.691 86.4777 136.246 86.796 136.72C85.664 136.82 85.444 138.596 86.276 139.368C87.108 140.14 88.38 140.144 89.512 140.044C90.644 139.944 91.868 139.804 92.84 140.392C92.8395 140.53 92.8109 140.668 92.7559 140.795C92.7009 140.922 92.6206 141.037 92.52 141.132C90.676 142.844 90.304 145.608 91.896 147.532L92.296 148.028C93.016 148.916 94.696 149.664 95.744 150.124C98.392 151.292 99.904 150.924 102.792 151.164C102.132 153.064 107.048 156.844 112.104 152.476C122.904 154.632 130.624 155.212 141.612 154.52C143.18 154.42 145.052 154.084 145.656 152.632C146.948 152.888 148.28 152.208 149.16 151.224C150.04 150.24 150.548 148.996 151.044 147.772C152.373 147.291 153.521 146.411 154.329 145.251C155.137 144.091 155.566 142.709 155.556 141.296C156.428 140.511 157.127 139.553 157.609 138.484C158.091 137.415 158.345 136.257 158.356 135.084C160.94 134.104 162.172 130.584 160.756 128.208C159.973 125.003 158.666 121.95 156.888 119.172C158.66 118.664 159.176 116.196 158.328 114.56C157.48 112.924 155.772 111.952 154.156 111.064C155.52 111.336 156.58 109.568 156.156 108.236C155.732 106.904 154.468 106.052 153.232 105.436C151.413 104.5 149.487 103.788 147.496 103.316C146.696 100.992 143.496 98.4959 141.22 97.5959C132.02 93.9519 125.672 93.2959 114.82 102.396" fill="#263238"/>
<path d="M141.044 135.26C141.361 134.849 141.773 134.519 142.244 134.3H142.144C142.233 134.269 142.324 134.247 142.416 134.232C142.579 134.168 142.753 134.137 142.927 134.143C143.102 134.148 143.274 134.189 143.432 134.264C144.01 134.416 144.511 134.778 144.836 135.28C145.093 135.728 145.222 136.238 145.209 136.754C145.197 137.27 145.043 137.773 144.764 138.208C144.566 138.594 144.256 138.911 143.875 139.118C143.494 139.326 143.059 139.413 142.628 139.37C142.196 139.327 141.788 139.155 141.455 138.876C141.123 138.598 140.882 138.225 140.764 137.808C140.593 137.394 140.529 136.943 140.578 136.498C140.627 136.053 140.787 135.627 141.044 135.26Z" fill="#63737A"/>
<path d="M140.848 117.768C139.732 111.66 134.76 104.596 128.708 105.972L110.144 113.076C109.256 113.276 108.475 113.802 107.957 114.55C107.438 115.298 107.22 116.214 107.344 117.116L112.848 158.044C113.196 160.63 114.427 163.017 116.332 164.801C118.237 166.584 120.7 167.655 123.304 167.832C124.923 167.941 126.547 167.701 128.066 167.129C129.584 166.556 130.962 165.663 132.105 164.512C133.249 163.36 134.132 161.977 134.694 160.454C135.256 158.932 135.485 157.306 135.364 155.688C135.152 152.864 135 150.74 135 150.756C135 150.772 142.704 148.52 143.12 138.072C143.332 132.88 142.088 124.532 140.848 117.768Z" fill="#876760"/>
<path d="M137.78 126.404C137.824 126.746 137.732 127.092 137.524 127.368C137.316 127.644 137.009 127.827 136.668 127.88C136.502 127.913 136.332 127.913 136.166 127.88C136 127.846 135.843 127.779 135.704 127.684C135.564 127.589 135.445 127.466 135.354 127.324C135.263 127.182 135.201 127.022 135.172 126.856C135.128 126.514 135.22 126.169 135.426 125.893C135.633 125.617 135.94 125.433 136.28 125.38C136.446 125.346 136.617 125.346 136.783 125.38C136.949 125.414 137.106 125.48 137.246 125.576C137.386 125.671 137.505 125.793 137.597 125.936C137.688 126.078 137.751 126.237 137.78 126.404Z" fill="#263238"/>
<path d="M139.548 122.332C139.404 122.52 138.32 121.9 136.908 122.072C135.496 122.244 134.54 123.076 134.364 122.92C134.28 122.852 134.412 122.52 134.824 122.12C135.383 121.625 136.082 121.315 136.824 121.232C137.558 121.137 138.303 121.277 138.952 121.632C139.436 121.952 139.62 122.244 139.548 122.332Z" fill="#263238"/>
<path d="M125.036 127.676C125.08 128.018 124.988 128.364 124.78 128.64C124.572 128.916 124.265 129.099 123.924 129.152C123.758 129.185 123.588 129.185 123.422 129.152C123.256 129.118 123.099 129.051 122.96 128.956C122.82 128.861 122.701 128.738 122.61 128.596C122.519 128.454 122.457 128.294 122.428 128.128C122.384 127.786 122.475 127.441 122.682 127.165C122.889 126.889 123.195 126.705 123.536 126.652C123.702 126.618 123.873 126.618 124.039 126.652C124.205 126.686 124.362 126.752 124.502 126.848C124.642 126.943 124.761 127.065 124.853 127.208C124.944 127.35 125.007 127.509 125.036 127.676Z" fill="#263238"/>
<path d="M125.672 124.24C125.528 124.432 124.444 123.812 123.032 123.984C121.62 124.156 120.664 124.988 120.488 124.832C120.404 124.764 120.532 124.432 120.948 124.052C121.508 123.557 122.206 123.246 122.948 123.16C123.684 123.073 124.428 123.22 125.076 123.58C125.556 123.864 125.744 124.156 125.672 124.24Z" fill="#263238"/>
<path d="M132.048 134.132C132.048 134.052 132.896 133.796 134.3 133.444C134.656 133.364 134.988 133.252 135.02 132.996C135.006 132.62 134.878 132.257 134.652 131.956L133.256 129.332C131.312 125.588 129.856 122.496 130.004 122.42C130.152 122.344 131.86 125.312 133.808 129.052C134.276 129.976 134.728 130.856 135.156 131.7C135.437 132.108 135.563 132.603 135.512 133.096C135.475 133.229 135.408 133.353 135.315 133.456C135.223 133.559 135.108 133.64 134.98 133.692C134.788 133.771 134.586 133.825 134.38 133.852C132.952 134.096 132.064 134.208 132.048 134.132Z" fill="#263238"/>
<path d="M135.008 150.756C130.189 151.4 125.286 150.695 120.844 148.72C120.844 148.72 125.012 155.368 135.16 153.192L135.008 150.756Z" fill="#664D49"/>
<path d="M132.24 137.516C131.866 137.086 131.393 136.754 130.862 136.548C130.331 136.343 129.758 136.27 129.192 136.336C128.823 136.384 128.471 136.521 128.167 136.736C127.863 136.95 127.616 137.236 127.448 137.568C127.285 137.94 127.227 138.35 127.281 138.753C127.335 139.156 127.5 139.536 127.756 139.852C128.054 140.175 128.442 140.401 128.871 140.499C129.299 140.598 129.747 140.565 130.156 140.404C130.914 140.054 131.577 139.528 132.088 138.868C132.263 138.707 132.399 138.509 132.488 138.288C132.529 138.167 132.537 138.038 132.512 137.913C132.488 137.788 132.431 137.672 132.348 137.576" fill="#93523E"/>
<path d="M128 135.6C128.228 135.56 128.4 137.092 129.86 138.028C131.32 138.964 132.916 138.6 132.952 138.828C132.988 138.924 132.624 139.172 131.936 139.272C131.037 139.392 130.125 139.191 129.36 138.704C128.629 138.234 128.107 137.501 127.904 136.656C127.768 136.004 127.896 135.604 128 135.6Z" fill="#263238"/>
<path d="M125.6 118.344C125.504 118.744 124.072 118.744 122.436 119.144C120.8 119.544 119.508 120.152 119.236 119.836C119.116 119.68 119.308 119.292 119.804 118.856C120.473 118.314 121.256 117.931 122.094 117.736C122.933 117.541 123.805 117.54 124.644 117.732C125.304 117.888 125.644 118.152 125.6 118.344Z" fill="#263238"/>
<path d="M138.472 117.52C138.264 117.872 137.248 117.652 136.072 117.776C134.896 117.9 133.932 118.248 133.672 117.94C133.552 117.788 133.672 117.448 134.072 117.092C134.612 116.659 135.267 116.396 135.956 116.336C136.646 116.275 137.337 116.42 137.944 116.752C138.4 117.036 138.564 117.332 138.472 117.52Z" fill="#263238"/>
<path d="M145.832 122.372C145.672 120.744 144.954 119.222 143.8 118.064C143.148 117.464 142.348 117.028 141.76 116.364C140.488 114.928 140.5 112.804 139.872 110.992C139.455 109.825 138.766 108.773 137.861 107.925C136.957 107.078 135.864 106.457 134.672 106.116C132.672 105.572 130.508 105.824 128.628 104.996C127.236 104.384 126.128 103.224 124.704 102.696C121.928 101.664 118.916 103.272 116.492 104.968C116.136 107.02 117.536 108.668 118.892 110.252C119.575 111.041 120.422 111.673 121.373 112.104C122.323 112.534 123.356 112.754 124.4 112.748C126 112.724 127.864 112.224 129.08 113.288C130.296 114.352 130.052 116.568 131.128 117.876C132.672 119.752 135.792 118.768 137.972 119.836C139.656 120.66 140.476 122.54 141.412 124.164C142.348 125.788 143.88 127.44 145.74 127.216C145.956 125.61 145.987 123.985 145.832 122.372Z" fill="#263238"/>
<path d="M120.776 108.34C116.06 108.616 111.441 109.803 107.176 111.836C105.912 112.444 104.608 113.188 103.952 114.428C103.376 115.52 103.392 116.828 103.496 118.052C103.824 121.9 105.724 126.504 107.456 129.96L112.48 132.488C116.12 131.336 113.948 125.064 113.536 121.868C114.781 121.184 115.81 120.164 116.505 118.924C117.2 117.685 117.534 116.275 117.468 114.856C118.475 114.089 119.295 113.105 119.868 111.976C120.441 110.848 120.751 109.605 120.776 108.34Z" fill="#263238"/>
<path d="M112.312 131.108C112.004 128.916 109.264 128.684 107.456 129.96C106.46 130.66 105.768 131.96 106.076 134.28C106.876 140.496 112.96 138.392 112.948 138.212C112.94 138.104 112.672 133.676 112.312 131.108Z" fill="#876760"/>
<path d="M110.74 136.108C110.712 136.108 110.644 136.2 110.472 136.308C110.23 136.448 109.944 136.491 109.672 136.428C108.984 136.276 108.292 135.304 108.116 134.188C108.031 133.654 108.065 133.107 108.216 132.588C108.248 132.386 108.329 132.195 108.452 132.031C108.574 131.867 108.735 131.736 108.92 131.648C109.041 131.599 109.175 131.594 109.299 131.634C109.423 131.673 109.529 131.754 109.6 131.864C109.704 132.024 109.68 132.156 109.716 132.16C109.752 132.164 109.836 132.04 109.752 131.788C109.697 131.639 109.593 131.513 109.456 131.432C109.268 131.325 109.045 131.297 108.836 131.352C108.588 131.437 108.366 131.583 108.19 131.778C108.014 131.973 107.891 132.209 107.832 132.464C107.64 133.037 107.589 133.647 107.684 134.244C107.888 135.492 108.684 136.58 109.616 136.72C109.789 136.748 109.966 136.736 110.134 136.685C110.301 136.635 110.455 136.547 110.584 136.428C110.748 136.26 110.764 136.132 110.74 136.108Z" fill="#664D49"/>
<path d="M107.352 137.76C107.669 137.349 108.081 137.019 108.552 136.8H108.456C108.544 136.77 108.633 136.746 108.724 136.728C108.887 136.664 109.061 136.635 109.236 136.641C109.41 136.647 109.582 136.689 109.74 136.764C110.316 136.916 110.815 137.276 111.14 137.776C111.397 138.224 111.526 138.734 111.513 139.25C111.501 139.766 111.347 140.269 111.068 140.704C110.871 141.091 110.562 141.411 110.18 141.619C109.799 141.828 109.364 141.916 108.931 141.873C108.499 141.83 108.089 141.657 107.757 141.377C107.424 141.097 107.184 140.723 107.068 140.304C106.9 139.89 106.838 139.44 106.887 138.996C106.937 138.552 107.097 138.127 107.352 137.76Z" fill="#63737A"/>
<path d="M110.24 138.784C110.24 138.784 110.24 138.812 110.24 138.868C110.231 138.952 110.208 139.035 110.172 139.112C110.036 139.416 109.799 139.664 109.5 139.812C109.029 140.061 108.511 140.209 107.98 140.248C107.645 140.282 107.307 140.282 106.972 140.248C106.59 140.223 106.213 140.139 105.856 140L105.928 139.956C105.88 140.491 105.695 141.004 105.39 141.447C105.085 141.889 104.671 142.245 104.188 142.48C103.705 142.715 103.169 142.821 102.633 142.788C102.097 142.755 101.579 142.584 101.128 142.292L101.236 142.264C101.066 142.561 100.786 142.779 100.456 142.872C100.125 142.97 99.7717 142.97 99.4401 142.872C99.0944 142.771 98.791 142.561 98.5761 142.272C98.3612 141.976 98.2237 141.631 98.1761 141.268C98.095 140.517 98.2821 139.762 98.7041 139.136C99.1398 138.5 99.6531 137.921 100.232 137.412L100.252 137.556C99.981 137.411 99.7432 137.212 99.5537 136.97C99.3643 136.728 99.2275 136.45 99.1521 136.152C98.9847 135.542 99 134.897 99.1961 134.296C99.4132 133.693 99.7446 133.137 100.172 132.66C100.606 132.178 101.069 131.724 101.56 131.3V131.444C101.317 131.219 101.125 130.945 100.996 130.64C100.867 130.335 100.805 130.007 100.812 129.676C100.805 128.998 101.003 128.335 101.38 127.772C102.108 126.688 103.232 126.036 104.268 125.424L104.224 125.536C104.015 124.898 103.963 124.218 104.074 123.556C104.184 122.893 104.454 122.267 104.859 121.732C105.265 121.196 105.794 120.767 106.401 120.481C107.009 120.194 107.677 120.06 108.348 120.088L108.26 120.2C108.121 119.671 108.105 119.117 108.213 118.58C108.32 118.044 108.548 117.539 108.88 117.104C109.172 116.688 109.549 116.339 109.988 116.081C110.426 115.824 110.914 115.664 111.42 115.612L111.348 115.696C111.323 115.165 111.418 114.636 111.626 114.147C111.834 113.658 112.149 113.222 112.548 112.872C112.89 112.554 113.293 112.31 113.732 112.153C114.172 111.996 114.638 111.931 115.104 111.96L115.04 112.028C115.033 111.456 115.17 110.892 115.44 110.388C115.658 109.943 115.949 109.537 116.3 109.188C116.851 108.61 117.578 108.231 118.368 108.112L118.6 108.08H118.824C118.957 108.069 119.091 108.069 119.224 108.08C119.43 108.105 119.633 108.146 119.832 108.204L120.192 108.328C120.234 108.339 120.274 108.355 120.312 108.376L120.188 108.344L119.824 108.236C119.619 108.185 119.41 108.151 119.2 108.132C119.067 108.123 118.933 108.123 118.8 108.132H118.58L118.352 108.168C117.585 108.3 116.883 108.679 116.352 109.248C116.009 109.598 115.728 110.004 115.52 110.448C115.268 110.936 115.141 111.479 115.152 112.028V112.1H115.084C114.636 112.075 114.188 112.142 113.767 112.295C113.346 112.449 112.959 112.685 112.632 112.992C112.248 113.327 111.944 113.744 111.744 114.213C111.544 114.682 111.452 115.191 111.476 115.7V115.78H111.396C110.917 115.834 110.455 115.99 110.041 116.237C109.627 116.484 109.271 116.816 108.996 117.212C108.68 117.627 108.463 118.108 108.361 118.62C108.259 119.131 108.275 119.659 108.408 120.164L108.444 120.28H108.32C107.68 120.255 107.044 120.385 106.465 120.659C105.886 120.933 105.382 121.343 104.996 121.853C104.609 122.364 104.352 122.96 104.245 123.592C104.139 124.223 104.186 124.871 104.384 125.48L104.408 125.552L104.34 125.592C103.308 126.204 102.208 126.848 101.516 127.88C101.161 128.413 100.975 129.04 100.98 129.68C100.973 129.984 101.03 130.285 101.148 130.565C101.266 130.845 101.442 131.097 101.664 131.304L101.744 131.376L101.664 131.444C100.704 132.3 99.7401 133.196 99.3521 134.36C99.1659 134.924 99.1506 135.531 99.3081 136.104C99.3744 136.379 99.4981 136.636 99.6712 136.859C99.8442 137.083 100.063 137.267 100.312 137.4L100.424 137.46L100.332 137.544C99.7649 138.044 99.2599 138.611 98.8281 139.232C98.4301 139.819 98.2504 140.526 98.3201 141.232C98.3427 141.563 98.4627 141.879 98.6648 142.142C98.867 142.404 99.1423 142.601 99.4561 142.708C99.7449 142.816 100.062 142.824 100.355 142.73C100.649 142.636 100.903 142.447 101.076 142.192L101.116 142.12L101.18 142.164C101.651 142.466 102.195 142.632 102.755 142.644C103.314 142.656 103.865 142.513 104.348 142.232C104.748 141.986 105.086 141.652 105.337 141.256C105.588 140.859 105.745 140.41 105.796 139.944V139.872L105.86 139.9C106.206 140.039 106.572 140.124 106.944 140.152C107.274 140.182 107.606 140.182 107.936 140.152C108.458 140.124 108.969 139.987 109.436 139.752C109.729 139.612 109.967 139.378 110.112 139.088C110.22 138.9 110.228 138.78 110.24 138.784Z" fill="#455A64"/>
<path d="M85.976 133.84C85.8763 133.73 85.7879 133.611 85.712 133.484C85.4949 133.115 85.3522 132.708 85.292 132.284C85.1909 131.595 85.3203 130.892 85.66 130.284C85.8889 129.882 86.1988 129.533 86.5699 129.257C86.9411 128.982 87.3654 128.787 87.816 128.684L87.768 128.764C87.4819 127.717 87.6034 126.601 88.108 125.64C88.3795 125.102 88.7627 124.629 89.232 124.252C89.7512 123.894 90.303 123.586 90.88 123.332C91.171 123.189 91.4403 123.006 91.68 122.788C91.9083 122.563 92.0833 122.289 92.192 121.988C92.428 121.372 92.464 120.656 92.768 119.988C93.0935 119.303 93.6163 118.731 94.2691 118.346C94.922 117.96 95.6751 117.778 96.432 117.824L96.332 117.936C96.1688 117.186 96.1802 116.408 96.3652 115.663C96.5503 114.918 96.904 114.225 97.3991 113.638C97.8943 113.052 98.5176 112.586 99.221 112.279C99.9244 111.971 100.689 111.829 101.456 111.864L101.36 111.976C101.202 111.149 101.285 110.295 101.598 109.514C101.911 108.733 102.441 108.058 103.126 107.569C103.811 107.08 104.622 106.798 105.462 106.756C106.303 106.714 107.138 106.914 107.868 107.332H107.768C108.348 106.692 109.059 106.185 109.852 105.844C110.554 105.523 111.295 105.295 112.056 105.164C113.284 104.937 114.542 104.93 115.772 105.144C116.564 105.27 117.33 105.524 118.04 105.896C118.225 105.993 118.403 106.104 118.572 106.228C118.692 106.308 118.748 106.352 118.748 106.352C118.748 106.352 118.5 106.192 118.016 105.952C117.304 105.601 116.541 105.363 115.756 105.248C114.536 105.048 113.29 105.067 112.076 105.304C111.328 105.439 110.601 105.668 109.912 105.988C109.149 106.326 108.467 106.824 107.912 107.448L107.868 107.5L107.812 107.464C107.143 107.098 106.39 106.914 105.628 106.929C104.866 106.945 104.121 107.159 103.468 107.552C102.758 108.009 102.198 108.664 101.857 109.436C101.515 110.208 101.408 111.063 101.548 111.896L101.568 112.012H101.448C100.71 111.98 99.9751 112.118 99.2989 112.414C98.6227 112.711 98.0234 113.159 97.5472 113.723C97.0709 114.287 96.7304 114.953 96.5516 115.67C96.3728 116.386 96.3607 117.134 96.516 117.856L96.544 117.98H96.42C95.7006 117.934 94.9839 118.105 94.3627 118.471C93.7415 118.836 93.2445 119.38 92.936 120.032C92.644 120.656 92.604 121.368 92.36 122.032C92.2425 122.36 92.0508 122.657 91.8 122.9C91.5549 123.128 91.2789 123.321 90.98 123.472C90.4101 123.721 89.865 124.024 89.352 124.376C88.8956 124.735 88.523 125.19 88.26 125.708C87.7662 126.634 87.6405 127.713 87.908 128.728L87.928 128.792H87.86C87.4238 128.887 87.0122 129.072 86.6513 129.335C86.2905 129.599 85.9883 129.934 85.764 130.32C85.4224 130.906 85.2819 131.587 85.364 132.26C85.4203 132.682 85.556 133.089 85.764 133.46C85.884 133.732 86 133.836 85.976 133.84Z" fill="#455A64"/>
<path d="M145.788 131.184C145.743 131.107 145.714 131.022 145.704 130.934C145.694 130.846 145.702 130.757 145.728 130.672C145.788 130.465 145.901 130.277 146.056 130.128C146.272 129.932 146.525 129.781 146.8 129.684C147.136 129.572 147.454 129.411 147.744 129.208C148.061 128.934 148.281 128.565 148.372 128.156C148.482 127.684 148.5 127.195 148.424 126.716C148.364 126.2 148.244 125.66 148.204 125.076C148.104 123.896 148.52 122.656 148.728 121.332C148.842 120.648 148.821 119.948 148.664 119.272C148.586 118.919 148.434 118.587 148.216 118.299C147.999 118.01 147.722 117.772 147.404 117.6C146.74 117.256 145.948 117.2 145.16 117.016C144.753 116.936 144.362 116.789 144.004 116.58C143.642 116.348 143.346 116.027 143.144 115.648C142.782 114.879 142.502 114.075 142.308 113.248C142.195 112.839 142.02 112.451 141.788 112.096C141.554 111.738 141.206 111.469 140.8 111.332C140.225 111.223 139.64 111.187 139.056 111.224C138.754 111.219 138.454 111.167 138.168 111.068C137.881 110.959 137.628 110.776 137.436 110.536C137.107 110.059 136.847 109.538 136.664 108.988C136.468 108.48 136.166 108.019 135.78 107.636C135.414 107.27 134.976 106.984 134.494 106.795C134.013 106.606 133.497 106.518 132.98 106.536C132.006 106.582 131.084 106.993 130.4 107.688L130.32 107.768L130.268 107.672C129.857 106.931 129.293 106.287 128.614 105.781C127.935 105.276 127.155 104.921 126.328 104.74C125.636 104.595 124.923 104.586 124.228 104.712C123.636 104.811 123.067 105.015 122.548 105.316C121.82 105.743 121.229 106.371 120.848 107.124C120.745 107.32 120.655 107.523 120.58 107.732L120.52 107.892C120.52 107.928 120.496 107.944 120.492 107.944C120.491 107.925 120.491 107.907 120.492 107.888L120.54 107.724C120.605 107.509 120.688 107.3 120.788 107.1C121.159 106.325 121.748 105.676 122.484 105.232C123.01 104.919 123.589 104.705 124.192 104.6C124.901 104.462 125.631 104.462 126.34 104.6C127.192 104.782 127.996 105.145 128.696 105.664C129.396 106.183 129.977 106.846 130.4 107.608H130.268C130.981 106.884 131.941 106.456 132.956 106.408C133.501 106.385 134.044 106.476 134.552 106.673C135.06 106.871 135.522 107.171 135.908 107.556C136.313 107.955 136.629 108.434 136.836 108.964C137.013 109.496 137.263 110.001 137.58 110.464C137.764 110.673 137.993 110.837 138.25 110.944C138.508 111.051 138.786 111.097 139.064 111.08C139.664 111.041 140.266 111.081 140.856 111.2C141.294 111.341 141.674 111.622 141.936 112C142.176 112.37 142.36 112.775 142.48 113.2C142.666 114.016 142.934 114.81 143.28 115.572C143.468 115.925 143.744 116.223 144.08 116.44C144.421 116.631 144.791 116.766 145.176 116.84C145.944 117.016 146.752 117.076 147.46 117.444C147.81 117.621 148.111 117.882 148.336 118.204C148.552 118.515 148.71 118.864 148.8 119.232C148.961 119.928 148.981 120.648 148.86 121.352C148.64 122.7 148.224 123.92 148.312 125.068C148.352 125.64 148.464 126.18 148.52 126.7C148.593 127.193 148.57 127.696 148.452 128.18C148.352 128.61 148.115 128.997 147.776 129.28C147.477 129.485 147.149 129.645 146.804 129.756C146.535 129.838 146.286 129.974 146.072 130.156C145.919 130.295 145.805 130.471 145.74 130.668C145.7 130.841 145.717 131.022 145.788 131.184Z" fill="#455A64"/>
<path d="M157.2 120.632C157.2 120.632 157.172 120.596 157.128 120.52L156.928 120.184C156.756 119.876 156.504 119.436 156.188 118.88C155.872 118.324 155.492 117.604 154.988 116.836C154.449 115.941 153.669 115.218 152.736 114.748C152.212 114.512 151.616 114.372 151.008 114.156C150.695 114.048 150.396 113.9 150.12 113.716C149.828 113.522 149.589 113.258 149.424 112.948C149.08 112.324 149.024 111.588 148.732 110.948C148.596 110.622 148.366 110.343 148.072 110.148C147.75 109.959 147.398 109.823 147.032 109.748C146.645 109.669 146.266 109.555 145.9 109.408C145.514 109.237 145.192 108.949 144.98 108.584C144.552 107.856 144.484 106.984 144.272 106.184C144.184 105.782 144.013 105.402 143.772 105.068C143.516 104.747 143.144 104.538 142.736 104.488C141.904 104.38 141.04 104.728 140.116 104.652C139.653 104.603 139.217 104.412 138.868 104.104C138.54 103.802 138.249 103.462 138 103.092C137.763 102.738 137.508 102.396 137.236 102.068C136.976 101.75 136.641 101.502 136.26 101.348C135.492 101.06 134.66 101.308 133.904 101.54C133.157 101.842 132.353 101.978 131.548 101.94C130.795 101.803 130.073 101.532 129.416 101.14C128.811 100.78 128.172 100.483 127.508 100.252C126.282 99.9389 124.992 99.9918 123.796 100.404C122.806 100.73 121.903 101.277 121.156 102.004C120.6 102.564 120.133 103.206 119.772 103.908C119.55 104.355 119.366 104.819 119.22 105.296L119.104 105.668C119.092 105.712 119.076 105.755 119.056 105.796C119.059 105.751 119.068 105.706 119.084 105.664C119.108 105.568 119.14 105.444 119.184 105.284C119.314 104.8 119.488 104.328 119.704 103.876C120.057 103.158 120.522 102.501 121.08 101.928C121.832 101.177 122.746 100.608 123.752 100.264C124.974 99.8328 126.296 99.7716 127.552 100.088C128.228 100.32 128.879 100.619 129.496 100.98C130.136 101.354 130.838 101.611 131.568 101.74C132.346 101.783 133.125 101.654 133.848 101.364C134.239 101.231 134.64 101.13 135.048 101.064C135.479 100.983 135.924 101.022 136.334 101.177C136.745 101.331 137.105 101.595 137.376 101.94C137.654 102.272 137.913 102.619 138.152 102.98C138.389 103.339 138.667 103.669 138.98 103.964C139.298 104.247 139.697 104.423 140.12 104.468C140.98 104.544 141.84 104.192 142.748 104.304C143.204 104.361 143.619 104.595 143.904 104.956C144.164 105.314 144.345 105.723 144.436 106.156C144.652 106.956 144.72 107.816 145.12 108.492C145.314 108.823 145.606 109.086 145.956 109.244C146.313 109.389 146.683 109.501 147.06 109.58C147.442 109.652 147.81 109.787 148.148 109.98C148.471 110.196 148.723 110.504 148.872 110.864C149.164 111.556 149.224 112.284 149.548 112.864C149.884 113.42 150.419 113.828 151.044 114.004C151.636 114.22 152.244 114.364 152.776 114.612C153.726 115.098 154.518 115.845 155.06 116.764C155.568 117.544 155.928 118.26 156.26 118.832L156.972 120.152L157.152 120.5C157.172 120.542 157.188 120.586 157.2 120.632Z" fill="#455A64"/>
<path d="M150.08 114.588L150.192 114.56C150.308 114.548 150.424 114.565 150.532 114.608C150.728 114.713 150.894 114.864 151.016 115.049C151.138 115.234 151.213 115.447 151.232 115.668C151.257 115.984 151.236 116.302 151.168 116.612C151.088 116.97 151.06 117.338 151.084 117.704C151.159 118.116 151.34 118.502 151.608 118.824C151.88 119.184 152.212 119.532 152.496 119.96C152.657 120.182 152.766 120.438 152.812 120.709C152.859 120.979 152.842 121.257 152.764 121.52C152.604 122.064 152.252 122.54 152.104 123.092C151.979 123.676 152.084 124.286 152.396 124.796C152.684 125.352 153.072 125.88 153.356 126.496C153.508 126.808 153.6 127.146 153.628 127.492C153.651 127.85 153.597 128.209 153.468 128.544C153.172 129.195 152.819 129.819 152.412 130.408C151.993 130.996 151.808 131.719 151.896 132.436C152.028 133.148 152.484 133.78 152.804 134.484C152.978 134.838 153.086 135.222 153.12 135.616C153.139 136.009 153.066 136.4 152.908 136.76C152.583 137.426 152.18 138.052 151.708 138.624C151.263 139.165 150.936 139.793 150.748 140.468C150.624 141.145 150.454 141.813 150.24 142.468C150.114 142.787 149.917 143.073 149.664 143.304C149.41 143.515 149.122 143.68 148.812 143.792C148.526 143.901 148.245 144.025 147.972 144.164C147.718 144.312 147.487 144.495 147.284 144.708C146.916 145.136 146.605 145.611 146.36 146.12C146.108 146.604 145.876 147.08 145.604 147.512C145.127 148.306 144.406 148.923 143.548 149.272C142.907 149.536 142.216 149.654 141.524 149.616C141.088 149.594 140.659 149.502 140.252 149.344C140.114 149.286 139.981 149.219 139.852 149.144C140.383 149.382 140.955 149.517 141.536 149.544C142.222 149.573 142.906 149.448 143.536 149.176C144.372 148.83 145.074 148.222 145.536 147.444C145.796 147.02 146.024 146.548 146.272 146.056C146.521 145.533 146.837 145.045 147.212 144.604C147.425 144.379 147.669 144.185 147.936 144.028C148.213 143.877 148.499 143.743 148.792 143.628C149.083 143.519 149.353 143.362 149.592 143.164C149.824 142.948 150.005 142.683 150.12 142.388C150.325 141.743 150.49 141.086 150.612 140.42C150.804 139.721 151.141 139.069 151.6 138.508C152.068 137.948 152.471 137.336 152.8 136.684C152.945 136.35 153.012 135.988 152.996 135.624C152.961 135.254 152.859 134.894 152.696 134.56C152.384 133.876 151.92 133.236 151.776 132.464C151.706 132.083 151.729 131.69 151.844 131.32C151.96 130.966 152.118 130.627 152.316 130.312C152.716 129.731 153.065 129.117 153.36 128.476C153.481 128.165 153.534 127.833 153.516 127.5C153.487 127.175 153.4 126.858 153.26 126.564C152.988 125.968 152.604 125.44 152.312 124.872C151.984 124.324 151.877 123.672 152.012 123.048C152.18 122.456 152.536 121.988 152.688 121.472C152.762 121.229 152.778 120.972 152.736 120.721C152.693 120.471 152.594 120.233 152.444 120.028C152.18 119.628 151.848 119.26 151.576 118.892C151.294 118.547 151.11 118.132 151.044 117.692C151.023 117.316 151.055 116.939 151.14 116.572C151.213 116.272 151.241 115.964 151.224 115.656C151.208 115.444 151.141 115.239 151.029 115.059C150.917 114.878 150.763 114.728 150.58 114.62C150.421 114.556 150.246 114.545 150.08 114.588Z" fill="#455A64"/>
<path d="M86.1161 133.628C85.9511 133.644 85.785 133.644 85.6201 133.628C85.1402 133.569 84.6782 133.409 84.2641 133.16C83.592 132.765 83.0786 132.148 82.8121 131.416C82.6375 130.928 82.5731 130.407 82.6236 129.891C82.6741 129.375 82.8382 128.877 83.1041 128.432C83.4398 127.936 83.8259 127.476 84.2561 127.06C84.7228 126.623 85.084 126.085 85.3121 125.488C85.481 124.822 85.3939 124.117 85.0681 123.512C84.7801 122.86 84.3681 122.236 84.0841 121.512C83.7726 120.716 83.631 119.863 83.6683 119.009C83.7056 118.155 83.921 117.318 84.3006 116.552C84.6802 115.786 85.2157 115.108 85.8728 114.561C86.5298 114.014 87.2939 113.61 88.1161 113.376L88.0681 113.524C87.75 113.141 87.5303 112.687 87.4281 112.2C87.3321 111.707 87.3321 111.201 87.4281 110.708C87.5198 110.209 87.6971 109.73 87.9521 109.292C88.2168 108.852 88.5473 108.456 88.9321 108.116C90.0945 107.159 91.4641 106.487 92.9321 106.152C94.2958 105.787 95.7049 105.62 97.1161 105.656L97.0241 105.752C96.9886 104.948 97.1723 104.149 97.5556 103.441C97.9388 102.733 98.5072 102.142 99.2001 101.732C99.861 101.359 100.605 101.158 101.364 101.148C102.076 101.177 102.78 101.312 103.452 101.548C103.77 101.636 104.098 101.686 104.428 101.696C104.747 101.699 105.063 101.642 105.36 101.528C105.929 101.285 106.466 100.975 106.96 100.604C107.429 100.258 107.941 99.9752 108.484 99.7639C108.986 99.5763 109.513 99.4657 110.048 99.4359C110.959 99.3741 111.87 99.5505 112.692 99.9479C113.295 100.246 113.837 100.653 114.292 101.148C114.577 101.46 114.824 101.805 115.028 102.176C115.099 102.304 115.161 102.438 115.212 102.576C115.212 102.576 115.144 102.444 115 102.2C114.448 101.256 113.624 100.501 112.636 100.032C111.992 99.7364 111.296 99.5715 110.589 99.5468C109.881 99.5221 109.175 99.638 108.512 99.8879C107.982 100.1 107.482 100.379 107.024 100.72C106.531 101.1 105.993 101.419 105.424 101.672C105.111 101.795 104.777 101.856 104.44 101.852C104.097 101.843 103.756 101.793 103.424 101.704C102.763 101.48 102.073 101.353 101.376 101.328C100.648 101.342 99.9344 101.538 99.3001 101.896C98.6272 102.286 98.0737 102.852 97.6994 103.534C97.325 104.216 97.1441 104.987 97.1761 105.764V105.864H97.0761C95.6836 105.828 94.2932 105.994 92.9481 106.356C91.5155 106.687 90.1792 107.345 89.0441 108.28C88.6742 108.608 88.3559 108.989 88.1001 109.412C87.8591 109.82 87.6899 110.267 87.6001 110.732C87.508 111.199 87.508 111.68 87.6001 112.148C87.6965 112.605 87.9024 113.032 88.2001 113.392L88.2921 113.504L88.1521 113.544C87.3543 113.772 86.6128 114.164 85.9749 114.695C85.337 115.225 84.8167 115.883 84.4471 116.626C84.0775 117.369 83.8668 118.181 83.8284 119.009C83.79 119.838 83.9248 120.666 84.2241 121.44C84.4961 122.144 84.9041 122.772 85.2001 123.44C85.5347 124.081 85.6202 124.823 85.4401 125.524C85.1998 126.134 84.8236 126.681 84.3401 127.124C83.9142 127.533 83.5309 127.985 83.1961 128.472C82.9359 128.901 82.7735 129.382 82.7203 129.882C82.667 130.381 82.7243 130.885 82.8881 131.36C83.1422 132.076 83.6351 132.684 84.2841 133.08C84.6893 133.33 85.141 133.496 85.6121 133.568C85.9481 133.624 86.1161 133.616 86.1161 133.628Z" fill="#263238"/>
<path d="M151.964 110.132C151.951 110.093 151.941 110.053 151.936 110.012C151.92 109.924 151.9 109.808 151.876 109.664C151.824 109.348 151.748 108.9 151.652 108.328C151.556 107.756 151.412 107.04 151.196 106.232C150.958 105.318 150.615 104.434 150.172 103.6C149.633 102.592 148.886 101.709 147.98 101.012C147.471 100.635 146.905 100.342 146.304 100.144C145.652 99.9732 144.991 99.8397 144.324 99.7439C143.606 99.6347 142.916 99.3875 142.292 99.0159C141.663 98.6027 141.089 98.1107 140.584 97.5519C140.056 97.0039 139.548 96.4199 138.984 95.9039C138.407 95.3716 137.737 94.9499 137.008 94.6599C135.533 94.1297 133.964 93.9118 132.4 94.0199C130.952 94.0819 129.51 94.2531 128.088 94.5319C125.662 94.9722 123.326 95.813 121.176 97.0199C119.732 97.8437 118.427 98.8899 117.308 100.12C117.116 100.34 116.936 100.52 116.796 100.708C116.656 100.896 116.548 101.036 116.452 101.164C116.356 101.292 116.288 101.372 116.236 101.444C116.184 101.516 116.156 101.536 116.156 101.536C116.156 101.536 116.156 101.5 116.22 101.432L116.42 101.144L116.752 100.672C116.888 100.492 117.064 100.296 117.252 100.068C118.358 98.8121 119.66 97.7436 121.108 96.9039C123.263 95.671 125.611 94.811 128.052 94.3599C129.486 94.0766 130.94 93.9015 132.4 93.8359C133.981 93.722 135.568 93.9386 137.06 94.4719C137.809 94.7693 138.497 95.2034 139.088 95.7519C139.68 96.2799 140.188 96.8679 140.708 97.4119C141.203 97.9588 141.763 98.4425 142.376 98.8519C142.983 99.2099 143.652 99.4501 144.348 99.5599C145.022 99.6639 145.69 99.8068 146.348 99.9879C146.965 100.195 147.544 100.5 148.064 100.892C148.985 101.604 149.741 102.508 150.28 103.54C150.72 104.386 151.058 105.282 151.288 106.208C151.5 107.008 151.624 107.736 151.716 108.316C151.808 108.896 151.868 109.356 151.908 109.664C151.908 109.808 151.936 109.924 151.948 110.016C151.96 110.108 151.964 110.132 151.964 110.132Z" fill="#263238"/>
<path d="M154.148 185.756L153.348 165.576C153.348 165.576 151.852 161.388 151.348 161.388L135.652 156.028C135.652 156.028 130.288 161.936 123.96 161.272C117.632 160.608 112.492 155.432 112.492 155.432L95.0201 159.604C93.7561 159.86 91.4441 160.66 89.2361 163.812C86.7761 167.332 73.8081 185.652 73.8081 185.652" fill="white"/>
<path d="M151.028 161.272C151.028 161.272 157.428 163.312 159.892 167.016C162.356 170.72 169.996 185.816 169.996 185.816H153.272L147.572 166.68L151.028 161.272Z" fill="white"/>
<path d="M153.8 185.692C153.784 185.47 153.784 185.246 153.8 185.024C153.773 184.418 153.701 183.815 153.584 183.22C153.165 181.259 152.556 179.343 151.764 177.5C150.884 175.32 149.952 173.404 149.28 172.016C148.952 171.344 148.676 170.792 148.48 170.376L148.268 169.928C148.24 169.876 148.218 169.821 148.204 169.764C148.244 169.808 148.276 169.858 148.3 169.912L148.548 170.344C148.76 170.72 149.056 171.268 149.408 171.944C150.112 173.316 151.064 175.228 151.952 177.416C152.748 179.269 153.342 181.203 153.724 183.184C153.831 183.787 153.885 184.399 153.884 185.012C153.884 185.228 153.852 185.412 153.844 185.508C153.838 185.571 153.823 185.633 153.8 185.692Z" fill="#263238"/>
<path d="M73.4119 165.428C73.0519 165.14 74.6119 159.428 74.6119 159.428C74.6119 159.428 70.4719 153.028 70.3639 150.944C70.2559 148.86 71.9999 144.628 71.9999 144.628L83.8799 141.732C83.8799 141.732 87.6999 148.456 88.4599 150.836C89.2199 153.216 87.1519 161.288 87.1519 161.288L85.1519 165.428C85.1519 165.428 79.0719 169.98 73.4119 165.428Z" fill="#876760"/>
<path d="M70.3999 152.176C69.9338 151.367 69.5157 150.53 69.1479 149.672C68.3959 147.98 67.4719 146.32 69.1479 145.372C69.4129 145.208 69.7084 145.1 70.0164 145.054C70.3245 145.008 70.6387 145.025 70.9399 145.104C70.9399 145.104 70.6839 143.68 71.5799 143.144C71.843 142.988 72.1381 142.893 72.4429 142.868C72.7478 142.842 73.0545 142.886 73.3399 142.996C73.3399 142.996 73.0599 140.996 74.3479 140.136C74.8397 139.831 75.4033 139.662 75.9815 139.646C76.5598 139.63 77.132 139.767 77.6399 140.044C77.6399 140.044 76.6159 131.244 76.5279 130.776C76.2039 129.064 76.8719 127.552 78.6639 127.976C79.3199 128.132 79.6879 128.776 80.4559 131.656C81.2239 134.536 82.4559 139.416 82.4559 139.416C82.4559 139.416 84.5399 142.856 85.5279 144.724C86.5159 146.592 88.4599 150.84 88.6239 151.968C89.0439 154.88 87.2479 158.732 87.2479 158.732L74.6159 159.428C74.6159 159.428 70.8719 153.012 70.3999 152.176Z" fill="#876760"/>
<path d="M71.1761 145.484C71.539 145.887 71.8668 146.321 72.1561 146.78L73.1521 148.22C73.3613 148.504 73.5434 148.806 73.6961 149.124C73.8722 149.476 73.9244 149.878 73.8441 150.264C73.8039 150.471 73.7082 150.662 73.5673 150.819C73.4263 150.975 73.2455 151.09 73.0441 151.152C72.6631 151.245 72.2613 151.199 71.9121 151.02C71.6147 150.884 71.3319 150.717 71.0681 150.524C70.8201 150.356 70.5921 150.196 70.3881 150.04C69.9881 149.736 69.6601 149.476 69.4441 149.292C69.3264 149.203 69.2214 149.098 69.1321 148.98C69.1601 148.952 69.6601 149.332 70.5001 149.9C70.9801 150.241 71.4856 150.544 72.0121 150.808C72.3071 150.953 72.6433 150.993 72.9641 150.92C73.1241 150.87 73.2678 150.778 73.3798 150.654C73.4917 150.529 73.5679 150.376 73.6001 150.212C73.6693 149.876 73.6228 149.526 73.4681 149.22C73.3242 148.914 73.1542 148.621 72.9601 148.344L72.0001 146.872C71.6894 146.432 71.4138 145.968 71.1761 145.484Z" fill="#664D49"/>
<path d="M81.536 146.532C81.468 146.532 81.4041 145.672 81.668 144.648C81.932 143.624 82.396 142.884 82.468 142.916C82.54 142.948 82.184 143.716 81.936 144.708C81.688 145.7 81.6 146.532 81.536 146.532Z" fill="#664D49"/>
<path d="M86.5401 149.1C85.3569 148.019 83.8928 147.294 82.3161 147.008C80.7329 146.718 79.1162 146.659 77.5161 146.832C76.2321 146.944 74.7641 147.26 74.1801 148.352C73.5961 149.444 74.3041 150.92 75.4441 151.552C76.5841 152.184 77.9921 152.224 79.3121 152.108C80.6321 151.992 81.9681 151.76 83.2801 151.956" fill="#876760"/>
<path d="M83.268 151.972C83.268 151.972 82.912 151.94 82.272 151.948C81.632 151.956 80.712 152.06 79.568 152.192C78.9388 152.265 78.305 152.291 77.672 152.268C76.9355 152.245 76.2115 152.072 75.544 151.76C74.8036 151.41 74.2294 150.784 73.944 150.016C73.7952 149.617 73.7633 149.184 73.852 148.768C73.9608 148.333 74.2045 147.944 74.548 147.656C75.2576 147.137 76.099 146.827 76.976 146.764C77.7728 146.673 78.574 146.627 79.376 146.624C80.7317 146.604 82.0819 146.799 83.376 147.204C84.2388 147.479 85.0499 147.895 85.776 148.436C85.9711 148.581 86.1556 148.74 86.328 148.912C86.3913 148.968 86.4478 149.031 86.496 149.1C86.496 149.12 86.232 148.872 85.716 148.516C84.9799 148.013 84.1703 147.627 83.316 147.372C82.0317 146.997 80.6973 146.823 79.36 146.856C78.5699 146.867 77.7809 146.917 76.996 147.008C76.1717 147.069 75.3808 147.358 74.712 147.844C74.4082 148.095 74.1924 148.437 74.096 148.82C74.0166 149.192 74.043 149.578 74.172 149.936C74.4308 150.641 74.9487 151.22 75.62 151.556C76.2556 151.857 76.9451 152.029 77.648 152.06C78.2696 152.091 78.8928 152.075 79.512 152.012C80.4159 151.903 81.3255 151.849 82.236 151.848C82.4849 151.856 82.7333 151.878 82.98 151.912C83.0784 151.918 83.1754 151.938 83.268 151.972Z" fill="#664D49"/>
<path d="M71.2681 145.62C72.5783 147.576 73.7879 149.597 74.8921 151.676C75.1649 152.303 75.6032 152.843 76.1601 153.24C76.6401 153.52 77.8281 153.012 78.3601 152.84L74.7121 144.956" fill="#876760"/>
<path d="M74.712 144.956C74.8366 145.142 74.945 145.339 75.036 145.544L75.836 147.196C76.512 148.6 77.436 150.564 78.472 152.796L78.528 152.92L78.392 152.964C77.9752 153.119 77.5506 153.253 77.12 153.364C76.9378 153.409 76.7515 153.436 76.564 153.444C76.463 153.447 76.3621 153.436 76.264 153.412C76.1644 153.388 76.0706 153.345 75.988 153.284C75.6976 153.085 75.4478 152.832 75.252 152.54C74.88 151.98 74.616 151.42 74.316 150.896C73.744 149.848 73.22 148.896 72.764 148.132C72.308 147.368 71.924 146.724 71.66 146.296C71.509 146.08 71.3753 145.853 71.26 145.616C71.4423 145.809 71.6057 146.02 71.748 146.244C72.04 146.644 72.448 147.272 72.948 148.044C73.448 148.816 73.968 149.748 74.548 150.788C74.852 151.304 75.128 151.876 75.488 152.388C75.6641 152.656 75.8911 152.887 76.156 153.068C76.2978 153.137 76.4523 153.176 76.6099 153.183C76.7674 153.19 76.9247 153.164 77.072 153.108C77.504 153.004 77.916 152.844 78.324 152.708L78.248 152.876C77.22 150.648 76.324 148.672 75.688 147.252L74.956 145.568C74.8544 145.373 74.7726 145.168 74.712 144.956Z" fill="#664D49"/>
<path d="M73.728 142.616L77.244 150.992C77.4625 151.602 77.7831 152.17 78.192 152.672C78.4072 152.927 78.6805 153.126 78.9889 153.254C79.2972 153.381 79.6316 153.433 79.964 153.404C80.88 153.276 81.48 152.352 81.524 151.472C81.568 150.592 81.204 149.752 80.868 148.932C79.8161 146.391 78.972 143.769 78.344 141.092" fill="#876760"/>
<path d="M78.3441 141.092C78.3835 141.173 78.4131 141.259 78.4321 141.348L78.6401 142.088C78.8241 142.732 79.0881 143.66 79.4601 144.796C79.8321 145.932 80.312 147.268 80.916 148.732C81.2875 149.488 81.536 150.298 81.6521 151.132C81.6894 151.59 81.5979 152.05 81.3881 152.46C81.1698 152.909 80.7918 153.26 80.3281 153.444C80.0876 153.528 79.8323 153.561 79.5784 153.542C79.3244 153.522 79.0772 153.451 78.8521 153.332C78.4316 153.117 78.0735 152.797 77.8121 152.404C77.3935 151.677 77.0376 150.915 76.7481 150.128L75.1481 146.232C74.7081 145.144 74.3481 144.252 74.0881 143.6L73.8121 142.876C73.7748 142.794 73.7479 142.708 73.7321 142.62C73.7845 142.694 73.8275 142.775 73.8601 142.86L74.1841 143.564L75.3201 146.168L76.9801 150.04C77.2688 150.811 77.622 151.556 78.0361 152.268C78.2707 152.625 78.5948 152.915 78.9761 153.108C79.168 153.21 79.3787 153.272 79.5953 153.29C79.812 153.307 80.03 153.281 80.2361 153.212C80.6377 153.048 80.965 152.742 81.1561 152.352C81.3461 151.982 81.4292 151.566 81.3961 151.152C81.2861 150.345 81.0485 149.56 80.6921 148.828C80.0961 147.356 79.6321 146.004 79.2841 144.856C78.9361 143.708 78.6961 142.772 78.5441 142.124C78.4721 141.796 78.4161 141.544 78.3841 141.372C78.3589 141.281 78.3455 141.187 78.3441 141.092Z" fill="#664D49"/>
<path d="M74 162.256C74 162.256 65.94 184.8 65.624 185.904H81.464L87.272 160.744L74 162.256Z" fill="#876760"/>
<path d="M81.856 158.752C81.5986 158.782 81.3378 158.749 81.096 158.656C80.5056 158.483 79.9597 158.184 79.496 157.78C79.0385 157.386 78.6762 156.894 78.436 156.34C78.3198 156.122 78.2632 155.878 78.272 155.632C78.348 155.604 78.628 156.704 79.672 157.596C80.716 158.488 81.88 158.676 81.856 158.752Z" fill="#664D49"/>
<path d="M99.824 175.732C99.876 175.76 98.728 178.012 97.26 180.76C95.792 183.508 94.568 185.716 94.516 185.688C94.464 185.66 95.612 183.412 97.08 180.66C98.548 177.908 99.772 175.732 99.824 175.732Z" fill="#263238"/>
<path d="M174.028 185.756C174.028 185.816 135.508 185.86 88.0039 185.86C40.4999 185.86 1.97192 185.816 1.97192 185.756C1.97192 185.696 40.4839 185.652 88.0039 185.652C135.524 185.652 174.028 185.7 174.028 185.756Z" fill="#263238"/>
<path d="M90.8 59.7759C91.5764 54.8205 91.0075 49.7475 89.1526 45.0872C87.2977 40.427 84.2251 36.3505 80.2558 33.284C76.2865 30.2174 71.5664 28.2734 66.5888 27.6552C61.6112 27.0369 56.5589 27.7671 51.9601 29.7694C47.3612 31.7717 43.3846 34.9726 40.446 39.0374C37.5074 43.1023 35.7147 47.882 35.2552 52.8767C34.7957 57.8715 35.6864 62.8979 37.8341 67.4307C39.9817 71.9635 43.3076 75.8362 47.464 78.6439C46.952 81.9199 46.376 85.6199 46.376 85.6199L70.612 89.3999C70.612 89.3999 71.368 85.5079 71.968 82.0199C76.8465 80.3983 81.1845 77.4649 84.5063 73.5412C87.8281 69.6176 90.0056 64.8551 90.8 59.7759Z" fill="#FFE779"/>
<path d="M66.9679 88.8279C66.9679 88.8279 66.9679 88.7078 66.9679 88.4798C66.9679 88.2518 66.9919 87.8998 67.0119 87.4558C67.0519 86.5558 67.1279 85.2278 67.2479 83.5198C67.4919 80.1078 67.9239 75.1678 68.8119 69.1198C69.0279 67.6025 69.2772 66.0198 69.5599 64.3718C69.7039 63.5505 69.8519 62.7118 70.0039 61.8558C70.1152 60.9687 70.362 60.104 70.7359 59.2918C70.9499 58.8758 71.2598 58.5166 71.6399 58.2438C71.8343 58.0983 72.0558 57.9933 72.2915 57.9349C72.5271 57.8765 72.7721 57.8659 73.0119 57.9038C73.2527 57.9625 73.4776 58.0736 73.6705 58.2291C73.8634 58.3847 74.0196 58.581 74.1279 58.8038C74.3591 59.2425 74.4617 59.7375 74.4239 60.2318C74.3595 60.7279 74.1817 61.2025 73.9042 61.6187C73.6267 62.0349 73.257 62.3816 72.8239 62.6318C71.9518 63.1728 70.9318 63.4261 69.9079 63.3558C68.8609 63.2928 67.856 62.9212 67.0199 62.2878C66.1821 61.6267 65.5506 60.7399 65.1999 59.7318C64.8244 58.7096 64.7036 57.6113 64.8479 56.5318C64.9109 55.9756 65.0692 55.4344 65.3159 54.9318C65.55 54.3946 65.9787 53.9659 66.5159 53.7318C66.7963 53.6328 67.0997 53.6189 67.3879 53.6918C67.6699 53.7647 67.9314 53.9016 68.1519 54.0918C68.5864 54.4822 68.8825 55.0029 68.9959 55.5758C69.1076 56.1366 69.1359 56.7108 69.0799 57.2798C69.0337 57.8488 68.9576 58.4149 68.8519 58.9758C68.6572 60.1161 68.2917 61.2205 67.7679 62.2518C67.2451 63.3163 66.4345 64.2128 65.4279 64.8398C64.919 65.1491 64.3599 65.367 63.7759 65.4838C63.1907 65.5968 62.5874 65.5749 62.0119 65.4198C61.4436 65.2483 60.925 64.9423 60.4999 64.5278C60.0865 64.1159 59.7517 63.632 59.5119 63.0998C59.0615 62.0502 58.7846 60.9343 58.6919 59.7958C58.6279 59.2358 58.5919 58.6798 58.5719 58.1238C58.5353 57.5654 58.5447 57.0048 58.5999 56.4478C58.6555 55.8787 58.8861 55.3407 59.2599 54.9078C59.4537 54.6921 59.6965 54.5261 59.9679 54.4238C60.2447 54.3176 60.5511 54.3176 60.8279 54.4238C61.0961 54.5374 61.3245 54.7282 61.4839 54.9718C61.6372 55.2041 61.7557 55.4574 61.8359 55.7238C61.9918 56.2428 62.0699 56.782 62.0679 57.3238C62.1159 59.4478 61.5999 61.5998 60.3439 63.2398C59.7213 64.0463 58.9036 64.6809 57.9679 65.0838C57.0548 65.4928 56.0311 65.5843 55.0599 65.3438C54.1213 65.0755 53.3176 64.4645 52.8079 63.6318C52.2901 62.8463 52.0378 61.9154 52.0879 60.9758C52.1125 60.5182 52.2224 60.0692 52.4119 59.6518C52.5947 59.2284 52.9164 58.8799 53.3239 58.6638C53.5365 58.565 53.7761 58.5408 54.0041 58.5953C54.2321 58.6497 54.435 58.7796 54.5799 58.9638C54.837 59.3159 54.9958 59.7301 55.0399 60.1638C55.109 60.986 55.0768 61.8135 54.9439 62.6278C54.8613 63.4278 54.7799 64.2065 54.6999 64.9638C54.0599 71.0478 53.4479 75.9638 52.9679 79.3638C52.7279 81.0598 52.5159 82.3718 52.3679 83.2598C52.2919 83.6999 52.2319 84.0358 52.1919 84.2718C52.1519 84.5078 52.1239 84.6118 52.1239 84.6118C52.1239 84.6118 52.1239 84.4958 52.1679 84.2678C52.2119 84.0398 52.2599 83.6958 52.3279 83.2558C52.4639 82.3638 52.6599 81.0518 52.8879 79.3558C53.3479 75.9638 53.9359 71.0478 54.5599 64.9558C54.6346 64.1958 54.7133 63.4172 54.7959 62.6198C54.9235 61.8184 54.9531 61.0044 54.8839 60.1958C54.8455 59.7881 54.6976 59.3984 54.4559 59.0678C54.3333 58.9104 54.1608 58.7993 53.9668 58.7528C53.7727 58.7063 53.5686 58.7271 53.3879 58.8118C53.0175 59.0145 52.7259 59.3357 52.5599 59.7238C52.3803 60.121 52.2772 60.5485 52.2559 60.9838C52.2104 61.8869 52.4542 62.7809 52.9519 63.5358C53.4366 64.3336 54.2056 64.9182 55.1039 65.1718C56.0397 65.4011 57.0252 65.311 57.9039 64.9158C58.8115 64.5255 59.6035 63.9084 60.2039 63.1238C61.4039 61.5238 61.9319 59.4198 61.8799 57.3318C61.8837 56.8078 61.8096 56.2861 61.6599 55.7838C61.6045 55.5347 61.4958 55.3005 61.3411 55.0974C61.1864 54.8944 60.9895 54.7274 60.7639 54.6078C60.5257 54.5243 60.2672 54.5179 60.0252 54.5897C59.7832 54.6615 59.57 54.8079 59.4159 55.0078C59.0679 55.4111 58.8553 55.9133 58.8079 56.4438C58.7504 56.9886 58.741 57.5374 58.7799 58.0838C58.7799 58.6358 58.8359 59.1918 58.8959 59.7438C58.9849 60.8588 59.2551 61.9518 59.6959 62.9798C59.9214 63.4925 60.2417 63.958 60.6399 64.3518C61.0414 64.7427 61.5312 65.0309 62.0679 65.1918C62.6199 65.3252 63.1934 65.3447 63.7532 65.2491C64.313 65.1535 64.8474 64.9448 65.3239 64.6358C66.2975 64.0253 67.0815 63.1554 67.5879 62.1238C68.1013 61.1163 68.4612 60.0377 68.6559 58.9238C68.8399 57.8158 69.0279 56.6758 68.7999 55.6038C68.6976 55.0731 68.4252 54.59 68.0239 54.2278C67.8374 54.0458 67.6046 53.9182 67.3508 53.8589C67.097 53.7997 66.8318 53.8111 66.5839 53.8918C66.1013 54.1058 65.7161 54.4924 65.5039 54.9758C65.2695 55.4549 65.118 55.9702 65.0559 56.4998C64.9144 57.5494 65.0311 58.6176 65.3959 59.6118C65.7376 60.5896 66.3543 61.448 67.1719 62.0838C67.9815 62.6999 68.9563 63.0606 69.9719 63.1198C70.9541 63.1817 71.9316 62.9401 72.7719 62.4278C73.1818 62.1897 73.5316 61.8606 73.7944 61.466C74.0573 61.0715 74.2261 60.6219 74.2879 60.1518C74.3219 59.6925 74.2277 59.2328 74.0159 58.8238C73.9172 58.6267 73.7772 58.4531 73.6053 58.3151C73.4334 58.177 73.2337 58.0777 73.0199 58.0238C72.8029 57.9899 72.5812 58.0001 72.3682 58.0537C72.1551 58.1073 71.9551 58.2032 71.7799 58.3358C71.4194 58.5916 71.1258 58.9305 70.9239 59.3238C70.5567 60.1194 70.3139 60.9666 70.2039 61.8358C70.0479 62.6918 69.8999 63.5278 69.7519 64.3518C69.4679 65.9958 69.2159 67.5798 68.9919 69.0918C68.0879 75.1398 67.6359 80.0758 67.3639 83.4918C67.2319 85.1998 67.1479 86.5238 67.0919 87.4238C67.0639 87.8718 67.0439 88.2238 67.0279 88.4478C67.0119 88.6718 66.9679 88.8279 66.9679 88.8279Z" fill="black"/>
<path d="M49.324 107.756C49.9127 108.292 50.4231 108.909 50.84 109.588C50.9771 109.829 51.1671 110.035 51.3958 110.192C51.6245 110.349 51.8858 110.451 52.16 110.492L57.576 111.332C57.8749 111.379 58.1808 111.351 58.4668 111.252C58.7528 111.153 59.01 110.986 59.216 110.764C59.704 110.236 60.524 109.652 61.292 109.612L49.324 107.756Z" fill="#263238"/>
<path d="M45.804 91.7719C45.804 91.8799 45.728 100.532 45.708 103.84C45.6954 104.51 45.8501 105.173 46.1581 105.769C46.4661 106.365 46.9176 106.874 47.472 107.252C47.9201 107.55 48.4279 107.747 48.96 107.828L60.8 109.664C60.8 109.664 63.892 110.144 64.976 107.8C66.116 105.328 69.088 95.3999 69.088 95.3999L45.804 91.7719Z" fill="#E0E0E0"/>
<path d="M44.773 102.984L44.7826 102.92C44.7943 102.843 44.8212 102.769 44.8616 102.702C44.9021 102.635 44.9553 102.576 45.0183 102.53C45.0814 102.483 45.1529 102.45 45.2289 102.431C45.3049 102.412 45.3838 102.409 45.4612 102.42L66.1014 105.549C66.2566 105.573 66.3961 105.657 66.4893 105.783C66.5824 105.91 66.6215 106.068 66.598 106.223L66.5884 106.287C66.5648 106.442 66.4806 106.581 66.3542 106.675C66.2278 106.768 66.0695 106.807 65.9143 106.783L45.2702 103.654C45.1928 103.642 45.1185 103.615 45.0515 103.575C44.9845 103.534 44.9261 103.481 44.8797 103.418C44.8332 103.355 44.7997 103.283 44.7809 103.207C44.7621 103.131 44.7585 103.052 44.7702 102.975L44.773 102.984Z" fill="#E0E0E0"/>
<path d="M65.908 106.784C66.0604 106.791 66.2108 106.747 66.336 106.66C66.4078 106.604 66.4659 106.532 66.5061 106.45C66.5463 106.369 66.5674 106.279 66.568 106.188C66.5778 106.067 66.5489 105.947 66.4856 105.844C66.4223 105.741 66.3279 105.661 66.216 105.616C65.096 105.428 63.416 105.216 61.388 104.904L45.44 102.504C45.3592 102.492 45.2767 102.501 45.1999 102.529C45.1232 102.557 45.0545 102.603 45 102.664C44.9466 102.725 44.9082 102.797 44.888 102.876C44.868 102.958 44.8613 103.043 44.868 103.128C44.8806 103.207 44.9123 103.283 44.9603 103.348C45.0084 103.413 45.0714 103.465 45.144 103.5C45.3192 103.551 45.4986 103.585 45.68 103.604L47.92 103.944L52.152 104.592L59.316 105.732L64.144 106.496L65.456 106.712L65.796 106.776L65.908 106.804H65.792L65.448 106.76L64.132 106.58L59.296 105.88L52.124 104.816L47.888 104.18L45.648 103.844L45.364 103.8C45.2582 103.79 45.1544 103.764 45.056 103.724C44.9513 103.675 44.8602 103.602 44.7905 103.509C44.7207 103.417 44.6746 103.31 44.656 103.196C44.6434 103.086 44.6516 102.975 44.68 102.868C44.7203 102.694 44.8259 102.543 44.9749 102.445C45.1239 102.348 45.3049 102.311 45.48 102.344L61.42 104.788C63.46 105.116 65.104 105.352 66.252 105.588C66.3808 105.638 66.4896 105.729 66.5619 105.846C66.6341 105.964 66.6658 106.102 66.652 106.24C66.6476 106.337 66.6212 106.433 66.5748 106.519C66.5284 106.604 66.4632 106.679 66.384 106.736C66.3137 106.78 66.2342 106.807 66.1516 106.815C66.0691 106.824 65.9857 106.813 65.908 106.784Z" fill="#263238"/>
<path d="M44.7458 100.254L44.7554 100.191C44.7789 100.036 44.8632 99.8964 44.9896 99.8033C45.116 99.7102 45.2742 99.6711 45.4295 99.6946L66.9437 102.956C67.021 102.968 67.0954 102.995 67.1624 103.035C67.2294 103.075 67.2878 103.129 67.3342 103.192C67.3806 103.255 67.4141 103.326 67.4329 103.402C67.4517 103.478 67.4553 103.557 67.4436 103.635L67.434 103.698C67.4105 103.853 67.3262 103.993 67.1998 104.086C67.0734 104.179 66.9152 104.218 66.76 104.194L45.2458 100.933C45.0895 100.909 44.949 100.825 44.8552 100.697C44.7615 100.57 44.7221 100.411 44.7458 100.254Z" fill="#E0E0E0"/>
<path d="M66.76 104.188C66.9181 104.196 67.0739 104.148 67.2 104.052C67.2721 103.991 67.3294 103.915 67.3676 103.829C67.4057 103.743 67.4236 103.65 67.42 103.556C67.4243 103.432 67.3873 103.31 67.3149 103.21C67.2425 103.109 67.1388 103.035 67.02 103L62 102.268L45.432 99.7878C45.3482 99.7748 45.2625 99.7837 45.1832 99.8139C45.1039 99.8441 45.0339 99.8944 44.98 99.9598C44.9264 100.024 44.8905 100.101 44.876 100.184C44.8563 100.271 44.8563 100.361 44.876 100.448C44.895 100.529 44.9343 100.605 44.9902 100.667C45.0462 100.729 45.117 100.776 45.196 100.804C45.356 100.844 45.596 100.868 45.768 100.9L48.096 101.252L52.496 101.924L59.94 103.076L64.952 103.876L66.316 104.1L66.668 104.164C66.7093 104.169 66.7497 104.18 66.788 104.196C66.7467 104.199 66.7053 104.199 66.664 104.196L66.308 104.156L64.94 103.968L59.916 103.236L52.44 102.132L48.04 101.468L45.716 101.12C45.512 101.084 45.336 101.072 45.108 101.016C44.9958 100.978 44.8953 100.911 44.8162 100.823C44.737 100.735 44.6819 100.628 44.656 100.512C44.6319 100.398 44.6319 100.281 44.656 100.168C44.6761 100.051 44.7272 99.942 44.804 99.8518C44.8801 99.7588 44.9792 99.6873 45.0915 99.6445C45.2038 99.6017 45.3253 99.5891 45.444 99.6078L62 102.132C64.12 102.464 65.828 102.728 67.02 102.932C67.1561 102.97 67.2751 103.054 67.3579 103.169C67.4407 103.283 67.4823 103.423 67.476 103.564C67.4763 103.666 67.4535 103.766 67.4091 103.857C67.3647 103.949 67.3001 104.029 67.22 104.092C67.1558 104.142 67.0809 104.177 67.0012 104.193C66.9214 104.21 66.8389 104.208 66.76 104.188Z" fill="#263238"/>
<path d="M44.8809 97.5498L44.8904 97.4865C44.9141 97.3302 44.9989 97.1898 45.1262 97.096C45.2535 97.0022 45.4128 96.9629 45.569 96.9866L67.6409 100.333C67.7961 100.356 67.9356 100.44 68.0288 100.567C68.1219 100.693 68.161 100.851 68.1374 101.007L68.1279 101.07C68.1043 101.225 68.0201 101.365 67.8937 101.458C67.7673 101.551 67.6091 101.59 67.4538 101.566L45.382 98.2205C45.305 98.2093 45.231 98.1832 45.1642 98.1434C45.0974 98.1037 45.039 98.0512 44.9925 97.9889C44.946 97.9266 44.9122 97.8558 44.893 97.7805C44.8738 97.7051 44.8697 97.6267 44.8809 97.5498Z" fill="#E0E0E0"/>
<path d="M67.4519 101.564C67.6134 101.574 67.773 101.524 67.8999 101.424C67.9718 101.36 68.0283 101.281 68.065 101.192C68.1018 101.104 68.1178 101.008 68.1119 100.912C68.1105 100.782 68.0643 100.658 67.9811 100.558C67.898 100.459 67.7831 100.392 67.6559 100.368L62.5119 99.6239L45.5519 97.0799C45.4659 97.0675 45.378 97.078 45.2973 97.1103C45.2166 97.1426 45.1457 97.1956 45.0919 97.2639C45.0374 97.3322 45.0015 97.4135 44.9879 97.4999C44.9678 97.5867 44.9678 97.677 44.9879 97.7639C45.0105 97.8468 45.0546 97.9222 45.1157 97.9826C45.1768 98.043 45.2528 98.0862 45.3359 98.1079C45.5159 98.1439 45.7359 98.1719 45.9319 98.2039L48.3119 98.5639L52.8159 99.2519L60.4159 100.428L65.5479 101.228L66.9439 101.46L67.3039 101.524L67.4279 101.552H67.3039L66.9359 101.508L65.5359 101.316L60.3999 100.572L52.7999 99.4359L48.2959 98.7599L45.9159 98.4039C45.7079 98.3679 45.5159 98.3479 45.2959 98.3039C45.1795 98.2727 45.0732 98.2116 44.9876 98.1267C44.902 98.0418 44.8401 97.9361 44.8079 97.8199C44.7818 97.704 44.7818 97.5837 44.8079 97.4679C44.8272 97.348 44.8768 97.2351 44.9519 97.1399C45.0281 97.043 45.1285 96.9679 45.243 96.9222C45.3575 96.8766 45.482 96.862 45.6039 96.8799L62.5559 99.4799L67.6919 100.28C67.8338 100.309 67.9612 100.386 68.0524 100.498C68.1437 100.611 68.193 100.751 68.1919 100.896C68.1959 101 68.1759 101.103 68.1336 101.198C68.0913 101.293 68.0278 101.377 67.9479 101.444C67.8817 101.504 67.8017 101.546 67.7151 101.567C67.6285 101.588 67.5381 101.587 67.4519 101.564Z" fill="#263238"/>
<path d="M44.8498 94.8195L44.8594 94.7562C44.883 94.601 44.9672 94.4614 45.0936 94.3683C45.22 94.2752 45.3782 94.2361 45.5335 94.2596L68.503 97.7416C68.5799 97.7533 68.6537 97.78 68.7203 97.8202C68.7868 97.8603 68.8448 97.9132 68.8909 97.9758C68.937 98.0384 68.9704 98.1095 68.989 98.1849C69.0077 98.2604 69.0113 98.3388 68.9996 98.4157L68.99 98.479C68.9663 98.6353 68.8815 98.7757 68.7543 98.8695C68.627 98.9632 68.4677 99.0026 68.3114 98.9789L45.3498 95.4981C45.1945 95.4745 45.055 95.3903 44.9619 95.2639C44.8687 95.1375 44.8296 94.9793 44.8532 94.824L44.8498 94.8195Z" fill="#E0E0E0"/>
<path d="M68.312 98.9679C68.4037 98.9767 68.4961 98.9646 68.5824 98.9324C68.6687 98.9003 68.7466 98.8489 68.8102 98.7823C68.8737 98.7156 68.9213 98.6354 68.9494 98.5477C68.9774 98.46 68.9851 98.367 68.972 98.2758C68.9607 98.1418 68.9015 98.0163 68.8053 97.9223C68.7091 97.8283 68.5823 97.772 68.448 97.7638L63.112 96.9879L45.512 94.3518C45.4229 94.3381 45.3318 94.3492 45.2485 94.3837C45.1653 94.4183 45.0932 94.4751 45.04 94.5478C44.9897 94.6243 44.9568 94.7108 44.9437 94.8014C44.9305 94.8919 44.9375 94.9843 44.964 95.0718C44.997 95.1554 45.0513 95.2289 45.1215 95.285C45.1916 95.3411 45.2752 95.3779 45.364 95.3918L45.992 95.4838L48.464 95.8598L53.132 96.5758L61.036 97.7959L66.364 98.6359L67.812 98.8719L68.184 98.9399L68.312 98.9679C68.2696 98.9747 68.2264 98.9747 68.184 98.9679L67.784 98.9199L66.332 98.7199L60.996 97.9439L53.084 96.7678L48.416 96.0638L45.944 95.6918L45.312 95.5958C45.1884 95.5773 45.072 95.5259 44.9749 95.4471C44.8778 95.3684 44.8036 95.265 44.76 95.1478C44.7177 95.03 44.7067 94.9032 44.728 94.7798C44.7431 94.6561 44.7884 94.5379 44.86 94.4358C44.9363 94.3341 45.0386 94.2547 45.1561 94.2062C45.2737 94.1576 45.4021 94.1416 45.528 94.1598L63.128 96.8519L68.456 97.6918C68.6057 97.7058 68.7455 97.7727 68.8503 97.8804C68.9552 97.9882 69.0182 98.1298 69.028 98.2799C69.0373 98.387 69.0216 98.4948 68.982 98.5948C68.9425 98.6948 68.8801 98.7842 68.8 98.8559C68.6993 98.9414 68.5721 98.9895 68.44 98.9919C68.3961 98.9929 68.3525 98.9848 68.312 98.9679Z" fill="#263238"/>
<path d="M44.056 81.1358C44.02 81.3558 43.704 86.6078 43.544 89.3078C43.5147 89.7966 43.5967 90.2855 43.7838 90.738C43.9708 91.1904 44.2581 91.5945 44.624 91.9198L45.712 92.8878L68.608 96.4399L69.92 95.8558C70.3716 95.6529 70.771 95.3496 71.0878 94.9691C71.4045 94.5885 71.6303 94.1408 71.748 93.6598L73.672 85.7318L44.056 81.1358Z" fill="#8F8F8F"/>
<g opacity="0.3">
<path opacity="0.3" d="M46.0439 103.732C48.1719 104.576 50.3639 104.956 52.7839 105.332C54.7399 105.624 56.6479 105.976 58.7839 106.26C60.3439 106.472 61.7839 106.612 63.3439 106.788C64.1439 106.876 65.0239 106.808 65.2079 106.676L46.0439 103.732Z" fill="black"/>
</g>
<g opacity="0.3">
<path opacity="0.3" d="M45.64 100.932C47.94 101.8 50.304 102.212 52.916 102.604C55.024 102.924 57.084 103.296 59.376 103.608C61.056 103.836 62.612 104.008 64.296 104.188C65.144 104.288 66.104 104.232 66.296 104.1L45.64 100.932Z" fill="black"/>
</g>
<g opacity="0.3">
<path opacity="0.3" d="M46.052 98.2758C48.352 99.1438 50.716 99.5559 53.328 99.9479C55.436 100.268 57.492 100.64 59.788 100.952C61.468 101.18 63.024 101.352 64.704 101.532C65.556 101.632 66.512 101.576 66.704 101.444L46.052 98.2758Z" fill="black"/>
</g>
<g opacity="0.3">
<path opacity="0.3" d="M46.46 95.6318C48.76 96.4998 51.124 96.9118 53.736 97.3038C55.844 97.6238 57.904 97.9959 60.196 98.3079C61.88 98.5359 63.432 98.7079 65.116 98.8879C65.964 98.9879 66.924 98.9319 67.116 98.7999L46.46 95.6318Z" fill="black"/>
</g>
<path d="M50.372 78.1798C50.2656 78.1339 50.1627 78.0805 50.064 78.0198C49.872 77.9078 49.572 77.7558 49.212 77.5238C48.1791 76.8872 47.195 76.1746 46.268 75.3918C44.8848 74.2365 43.6272 72.9387 42.516 71.5198C39.7557 68.0417 37.9447 63.9071 37.26 59.5198C36.9747 57.739 36.8741 55.9334 36.96 54.1318C37.0135 52.9229 37.1566 51.7196 37.388 50.5318C37.46 50.1318 37.552 49.7878 37.604 49.5678C37.6269 49.4556 37.6563 49.3447 37.692 49.2358C37.6869 49.3507 37.6695 49.4647 37.64 49.5758C37.608 49.7998 37.528 50.1238 37.464 50.5478C37.2652 51.7386 37.1449 52.9412 37.104 54.1478C36.9557 58.1407 37.7062 62.1159 39.3 65.7798C40.9159 69.4331 43.328 72.6789 46.36 75.2798C47.2754 76.0675 48.2415 76.7944 49.252 77.4558C49.608 77.6958 49.896 77.8558 50.084 77.9838C50.1856 78.0405 50.282 78.1061 50.372 78.1798Z" fill="#263238"/>
<path d="M39.688 44.1519C39.5977 44.6285 39.4415 45.0902 39.224 45.5239C39.0678 45.9852 38.8484 46.4227 38.572 46.8238C38.6616 46.3457 38.8178 45.8826 39.036 45.4479C39.1956 44.9891 39.4148 44.5534 39.688 44.1519Z" fill="#263238"/>
<path d="M86.724 65.7319C86.7429 65.6343 86.7724 65.539 86.812 65.4478C86.884 65.2439 86.984 64.9799 87.104 64.6479L87.324 64.0719C87.396 63.8599 87.456 63.6239 87.532 63.3719C87.676 62.8679 87.876 62.3039 88 61.6559C88.068 61.3319 88.144 60.9959 88.224 60.6439C88.304 60.2919 88.336 59.9198 88.4 59.5358C88.536 58.7718 88.58 57.9359 88.652 57.0759C88.8489 53.2859 88.2451 49.4969 86.88 45.9558C86.54 45.1558 86.244 44.3799 85.872 43.6959C85.696 43.3519 85.544 43.0078 85.364 42.6998L84.836 41.8078C84.516 41.2278 84.152 40.7558 83.86 40.3198C83.708 40.1038 83.576 39.9198 83.44 39.7198L83.04 39.2398C82.82 38.9638 82.64 38.7398 82.512 38.5718C82.4487 38.4963 82.3912 38.416 82.34 38.3318C82.4155 38.3949 82.4839 38.466 82.544 38.5438L83.104 39.1918C83.224 39.3318 83.356 39.4918 83.504 39.6598C83.652 39.8278 83.78 40.0598 83.936 40.2518C84.2957 40.7277 84.6308 41.2217 84.94 41.7318C85.116 42.0158 85.296 42.3119 85.484 42.6239C85.672 42.9359 85.824 43.2758 86.008 43.6198C86.384 44.3038 86.692 45.0838 87.036 45.8918C88.435 49.4519 89.0437 53.2734 88.82 57.0918C88.7708 57.9212 88.68 58.7476 88.548 59.5679C88.48 59.9678 88.44 60.3279 88.36 60.6839L88.12 61.6959C87.9856 62.2777 87.8201 62.8518 87.624 63.4159C87.544 63.6639 87.476 63.8999 87.396 64.1119L87.164 64.6839C87.028 65.0119 86.916 65.2719 86.832 65.4839C86.8003 65.5683 86.7642 65.6511 86.724 65.7319Z" fill="#263238"/>
<g opacity="0.2">
<path opacity="0.2" d="M65.152 35.4318C64.852 34.1958 63.7 33.1478 62.244 32.4558C60.1522 31.4945 57.767 31.3911 55.6 32.1678C49.2 34.3758 45.24 37.6278 42.124 44.0038C41.068 46.1598 40.124 49.8558 40.904 52.2518C41.0795 52.8554 41.3786 53.4159 41.782 53.8979C42.1855 54.3799 42.6847 54.7728 43.248 55.0518C46.228 56.4438 49.18 53.7958 50.6 51.0518C51.92 48.4918 52.72 45.4918 54.968 43.6838C56.82 42.1998 59.3 41.8238 61.468 40.8598C63.636 39.8958 65.708 37.7318 65.152 35.4318Z" fill="white"/>
</g>
<g opacity="0.2">
<path opacity="0.2" d="M76.4 36.0799C75.656 34.1519 73.2 33.0199 71.6 33.4639C70.9403 33.6652 70.3348 34.0135 69.829 34.4826C69.3233 34.9516 68.9304 35.5292 68.68 36.1719C68.4024 36.9559 68.3653 37.805 68.5734 38.6103C68.7815 39.4156 69.2253 40.1404 69.848 40.6919C70.4921 41.218 71.2857 41.5275 72.1159 41.5763C72.9462 41.6251 73.7706 41.4108 74.472 40.9639C75.864 40.0319 77.004 37.6279 76.4 36.0799Z" fill="white"/>
</g>
<path opacity="0.3" d="M44.056 81.1358C44.02 81.3558 43.704 86.6078 43.544 89.3078C43.5147 89.7966 43.5967 90.2855 43.7838 90.738C43.9708 91.1904 44.2581 91.5945 44.624 91.9198L45.712 92.8878L68.608 96.4399L69.92 95.8558C70.3716 95.6529 70.771 95.3496 71.0878 94.9691C71.4045 94.5885 71.6303 94.1408 71.748 93.6598L73.672 85.7318L44.056 81.1358Z" fill="black"/>
<path d="M73.8479 85.7558C73.8479 85.8118 67.1919 84.8278 59.0039 83.5558C50.8159 82.2838 44.1799 81.2118 44.2039 81.1558C44.2279 81.0998 50.8599 82.0838 59.0519 83.3558C67.2439 84.6278 73.8559 85.6998 73.8479 85.7558Z" fill="#263238"/>
<path d="M71.016 94.6759C71.016 94.7319 64.876 93.8239 57.324 92.6519C49.772 91.4799 43.652 90.4878 43.66 90.4318C43.668 90.3758 49.796 91.2799 57.352 92.4519C64.908 93.6239 71.024 94.6199 71.016 94.6759Z" fill="#263238"/>
</svg>
