<?xml version="1.0" encoding="UTF-8"?><svg xmlns="http://www.w3.org/2000/svg" xmlns:xlink="http://www.w3.org/1999/xlink" contentScriptType="text/ecmascript" width="1230" zoomAndPan="magnify" contentStyleType="text/css" viewBox="0 0 1230 693.000001" height="693.000001" preserveAspectRatio="xMidYMid meet" version="1.0"><defs><clipPath id="clip-0"><path d="M 544 107.125 L 1030 107.125 L 1030 580.894531 L 544 580.894531 Z M 544 107.125 " clip-rule="nonzero"/></clipPath><clipPath id="clip-1"><path d="M 349.984375 107.125 L 836 107.125 L 836 580.894531 L 349.984375 580.894531 Z M 349.984375 107.125 " clip-rule="nonzero"/></clipPath></defs><g clip-path="url(#clip-0)"><path fill="rgb(2.349854%, 35.289001%, 59.999084%)" d="M 932.890625 580.554688 C 986.546875 580.554688 1030.058594 537.0625 1030.058594 483.398438 L 1030.058594 349.902344 C 1030.058594 215.976562 921.339844 107.195312 787.234375 107.195312 C 653.027344 107.195312 544.441406 215.976562 544.441406 349.902344 C 544.441406 449.523438 604.328125 535.035156 690.007812 572.472656 L 690.007812 458.289062 C 660.230469 431.574219 641.464844 393.050781 641.464844 349.890625 C 641.480469 269.59375 706.773438 204.269531 787.234375 204.269531 C 867.699219 204.269531 932.890625 269.59375 932.890625 349.902344 Z M 932.890625 580.554688 " fill-opacity="1" fill-rule="nonzero"/></g><g clip-path="url(#clip-1)"><path fill="rgb(37.249756%, 68.629456%, 92.549133%)" d="M 447.09375 580.554688 C 393.453125 580.554688 349.984375 537.078125 349.984375 483.457031 L 349.984375 349.902344 C 349.984375 215.976562 458.671875 107.195312 592.777344 107.195312 C 726.839844 107.195312 835.546875 215.976562 835.648438 349.902344 C 835.546875 449.523438 775.644531 535.035156 690.007812 572.472656 L 690.007812 458.246094 C 719.769531 431.574219 738.492188 393.050781 738.492188 349.890625 C 738.492188 269.59375 673.242188 204.269531 592.777344 204.269531 C 512.417969 204.269531 447.082031 269.59375 447.082031 349.902344 L 447.082031 580.554688 Z M 447.09375 580.554688 " fill-opacity="1" fill-rule="nonzero"/></g><path fill="rgb(37.249756%, 68.629456%, 92.549133%)" d="M 328.015625 539.8125 L 328.015625 253.066406 L 199.953125 253.066406 L 199.953125 254.242188 L 200.097656 539.738281 C 200.097656 562.464844 228.792969 580.851562 264.167969 580.851562 C 299.320312 580.925781 328.015625 562.539062 328.015625 539.8125 Z M 264.019531 295.355469 L 264.3125 295.355469 Z M 264.019531 295.355469 " fill-opacity="1" fill-rule="nonzero"/><path fill="rgb(2.349854%, 35.289001%, 59.999084%)" d="M 289.558594 291.972656 L 292.421875 291.089844 C 293.375 290.792969 294.257812 290.5 295.136719 290.132812 L 295.210938 290.132812 C 296.09375 289.839844 296.972656 289.472656 297.851562 289.101562 L 297.925781 289.101562 C 298.808594 288.734375 299.613281 288.367188 300.496094 288 L 300.570312 288 C 301.375 287.632812 302.257812 287.265625 303.0625 286.824219 L 303.136719 286.824219 C 303.945312 286.457031 304.753906 286.015625 305.484375 285.574219 L 305.558594 285.574219 C 306.367188 285.132812 307.101562 284.691406 307.835938 284.25 C 308.566406 283.808594 309.300781 283.367188 310.035156 282.851562 C 320.972656 275.570312 327.796875 265.714844 328.015625 254.757812 L 328.015625 254.242188 C 328.015625 231.519531 299.320312 213.132812 263.949219 213.132812 C 228.574219 213.132812 199.878906 231.519531 199.878906 254.242188 L 199.878906 254.757812 C 200.320312 277.261719 228.792969 295.355469 263.875 295.355469 C 273.046875 295.429688 281.707031 294.175781 289.558594 291.972656 Z M 289.558594 291.972656 " fill-opacity="1" fill-rule="nonzero"/><path fill="rgb(2.349854%, 35.289001%, 59.999084%)" d="M 263.703125 69.199219 C 228.339844 69.199219 199.671875 97.867188 199.671875 133.234375 C 199.671875 168.597656 228.339844 197.265625 263.703125 197.265625 C 299.070312 197.265625 327.738281 168.597656 327.738281 133.234375 C 327.738281 97.867188 299.070312 69.199219 263.703125 69.199219 Z M 263.703125 69.199219 " fill-opacity="1" fill-rule="nonzero"/></svg>