<svg width="550" height="400" viewBox="0 0 550 400" fill="none" xmlns="http://www.w3.org/2000/svg">
<path d="M138.413 284.792L417.71 277.031C423.99 276.862 429.991 274.479 434.588 270.327C439.186 266.176 442.065 260.541 442.686 254.479L456.167 125.313C456.526 121.855 456.14 118.363 455.035 115.058C453.929 111.752 452.128 108.705 449.744 106.11C447.361 103.515 444.448 101.428 441.19 99.9822C437.931 98.5359 434.399 97.7616 430.815 97.7084L119.936 93.5417C116.24 93.4933 112.575 94.213 109.189 95.6526C105.803 97.0923 102.774 99.2183 100.306 101.888C97.838 104.557 95.9882 107.708 94.8809 111.129C93.7737 114.55 93.4347 118.161 93.8867 121.719L111.987 262.812C112.794 269.003 115.946 274.681 120.83 278.743C125.714 282.805 131.981 284.961 138.413 284.792Z" fill="#EAF9F3"/>
<path d="M222.041 290.937L221.074 312.031C221.074 314.103 221.923 316.09 223.434 317.555C224.945 319.021 226.994 319.844 229.131 319.844H452.354C454.49 319.844 456.54 319.021 458.05 317.555C459.561 316.09 460.41 314.103 460.41 312.031V189.271C460.41 187.199 459.561 185.212 458.05 183.746C456.54 182.281 454.49 181.458 452.354 181.458H229.185C227.048 181.458 224.999 182.281 223.488 183.746C221.977 185.212 221.128 187.199 221.128 189.271V272.292" stroke="#C7C7C7" stroke-width="1.8" stroke-linecap="round" stroke-linejoin="round"/>
<path d="M172.036 272.812V151.927C172.036 149.855 171.187 147.868 169.676 146.403C168.165 144.938 166.116 144.115 163.979 144.115H97.3779C95.2412 144.115 93.192 144.938 91.681 146.403C90.1701 147.868 89.3213 149.855 89.3213 151.927V331.25C89.3213 333.322 90.1701 335.309 91.681 336.774C93.192 338.239 95.2412 339.062 97.3779 339.062H163.979C166.116 339.062 168.165 338.239 169.676 336.774C171.187 335.309 172.036 333.322 172.036 331.25V292.239" stroke="#C7C7C7" stroke-width="1.8" stroke-linecap="round" stroke-linejoin="round"/>
<path d="M410.405 144.844H458.691V140.208H410.405C410.278 140.208 410.152 140.231 410.034 140.278C409.917 140.325 409.81 140.394 409.72 140.481C409.63 140.568 409.559 140.672 409.511 140.786C409.462 140.9 409.438 141.022 409.438 141.146V143.854C409.428 143.982 409.445 144.111 409.489 144.232C409.533 144.354 409.603 144.464 409.695 144.558C409.786 144.651 409.896 144.725 410.019 144.774C410.141 144.823 410.273 144.847 410.405 144.844V144.844Z" stroke="#C7C7C7" stroke-width="1.8" stroke-linecap="round" stroke-linejoin="round"/>
<path d="M417.764 181.458H428.667C429.235 181.46 429.784 181.259 430.21 180.894C430.635 180.53 430.908 180.026 430.977 179.479L431.836 171.979C431.871 171.664 431.838 171.346 431.738 171.044C431.638 170.743 431.474 170.465 431.256 170.23C431.038 169.994 430.772 169.805 430.474 169.676C430.176 169.546 429.853 169.479 429.526 169.479H416.904C416.578 169.48 416.256 169.548 415.958 169.677C415.66 169.807 415.394 169.996 415.176 170.231C414.959 170.467 414.794 170.744 414.694 171.045C414.594 171.346 414.56 171.665 414.595 171.979L415.454 179.479C415.514 180.029 415.785 180.537 416.212 180.904C416.64 181.27 417.193 181.468 417.764 181.458V181.458Z" stroke="#C7C7C7" stroke-width="1.8" stroke-linecap="round" stroke-linejoin="round"/>
<path d="M424.478 169.531C424.478 169.531 428.774 169.115 429.634 163.49C429.634 163.49 425.767 164.583 424.531 167.24C424.531 167.24 423.994 161.302 421.094 160.729C421.094 160.729 419.805 165.156 421.846 167.344C421.846 167.344 420.288 164.844 416.314 164.896C416.689 165.993 417.336 166.984 418.197 167.783C419.058 168.582 420.108 169.164 421.255 169.479" fill="#C7C7C7"/>
<path d="M124.448 144.115H135.352C135.92 144.116 136.469 143.915 136.894 143.551C137.32 143.186 137.593 142.682 137.661 142.135L138.521 134.635C138.556 134.321 138.523 134.002 138.423 133.701C138.323 133.399 138.159 133.122 137.941 132.886C137.723 132.65 137.456 132.461 137.158 132.332C136.86 132.203 136.537 132.136 136.211 132.135H123.589C123.263 132.137 122.94 132.204 122.643 132.334C122.345 132.463 122.079 132.652 121.861 132.888C121.643 133.123 121.479 133.401 121.379 133.702C121.279 134.003 121.245 134.321 121.279 134.635L122.139 142.135C122.207 142.682 122.48 143.186 122.906 143.551C123.331 143.915 123.88 144.116 124.448 144.115V144.115Z" stroke="#C7C7C7" stroke-width="1.8" stroke-linecap="round" stroke-linejoin="round"/>
<path d="M131.216 132.188C131.216 132.188 135.513 131.771 136.372 126.146C136.372 126.146 132.505 127.24 131.27 129.896C131.27 129.896 130.732 123.958 127.832 123.385C127.832 123.385 126.543 127.812 128.584 130C128.584 130 127.026 127.5 123.052 127.552C123.427 128.649 124.074 129.64 124.935 130.439C125.797 131.238 126.846 131.82 127.993 132.135" fill="#C7C7C7"/>
<path d="M230.85 207.344H279.297C279.894 207.34 280.465 207.108 280.887 206.699C281.309 206.289 281.549 205.735 281.553 205.156V190.885C281.549 190.306 281.309 189.752 280.887 189.343C280.465 188.934 279.894 188.702 279.297 188.698H230.85C230.253 188.702 229.681 188.934 229.259 189.343C228.837 189.752 228.598 190.306 228.594 190.885V205.156C228.598 205.735 228.837 206.289 229.259 206.699C229.681 207.108 230.253 207.34 230.85 207.344V207.344Z" stroke="#C7C7C7" stroke-width="1.8" stroke-linecap="round" stroke-linejoin="round"/>
<path d="M249.541 193.75H260.713C260.925 193.745 261.127 193.661 261.277 193.515C261.426 193.37 261.513 193.174 261.519 192.969C261.513 192.763 261.426 192.568 261.277 192.422C261.127 192.277 260.925 192.193 260.713 192.188H249.541C249.329 192.193 249.127 192.277 248.977 192.422C248.827 192.568 248.741 192.763 248.735 192.969C248.733 193.072 248.752 193.174 248.792 193.27C248.832 193.366 248.891 193.453 248.966 193.526C249.042 193.599 249.131 193.656 249.23 193.695C249.329 193.733 249.435 193.752 249.541 193.75Z" fill="#C7C7C7"/>
<path d="M230.85 231.25H279.297C279.894 231.246 280.465 231.014 280.887 230.605C281.309 230.195 281.549 229.641 281.553 229.062V214.792C281.549 214.213 281.309 213.659 280.887 213.249C280.465 212.84 279.894 212.608 279.297 212.604H230.85C230.253 212.608 229.681 212.84 229.259 213.249C228.837 213.659 228.598 214.213 228.594 214.792V229.062C228.598 229.641 228.837 230.195 229.259 230.605C229.681 231.014 230.253 231.246 230.85 231.25V231.25Z" stroke="#C7C7C7" stroke-width="1.8" stroke-linecap="round" stroke-linejoin="round"/>
<path d="M249.541 217.604H260.713C260.925 217.599 261.127 217.515 261.277 217.369C261.426 217.224 261.513 217.028 261.519 216.823C261.513 216.617 261.426 216.422 261.277 216.276C261.127 216.131 260.925 216.047 260.713 216.042H249.541C249.329 216.047 249.127 216.131 248.977 216.276C248.827 216.422 248.741 216.617 248.735 216.823C248.733 216.926 248.752 217.029 248.792 217.124C248.832 217.22 248.891 217.307 248.966 217.38C249.042 217.453 249.131 217.511 249.23 217.549C249.329 217.588 249.435 217.606 249.541 217.604Z" fill="#C7C7C7"/>
<path d="M292.617 207.344H341.064C341.661 207.34 342.233 207.108 342.655 206.699C343.077 206.289 343.316 205.735 343.32 205.156V190.885C343.316 190.306 343.077 189.752 342.655 189.343C342.233 188.934 341.661 188.702 341.064 188.698H292.617C292.02 188.702 291.449 188.934 291.027 189.343C290.605 189.752 290.365 190.306 290.361 190.885V205.156C290.365 205.735 290.605 206.289 291.027 206.699C291.449 207.108 292.02 207.34 292.617 207.344V207.344Z" stroke="#C7C7C7" stroke-width="1.8" stroke-linecap="round" stroke-linejoin="round"/>
<path d="M311.255 193.75H322.427C322.639 193.745 322.841 193.661 322.99 193.515C323.14 193.37 323.227 193.174 323.232 192.969C323.227 192.763 323.14 192.568 322.99 192.422C322.841 192.277 322.639 192.193 322.427 192.188H311.255C311.043 192.193 310.841 192.277 310.691 192.422C310.541 192.568 310.455 192.763 310.449 192.969C310.455 193.174 310.541 193.37 310.691 193.515C310.841 193.661 311.043 193.745 311.255 193.75Z" fill="#C7C7C7"/>
<path d="M292.617 231.25H341.064C341.661 231.246 342.233 231.014 342.655 230.605C343.077 230.195 343.316 229.641 343.32 229.062V214.792C343.316 214.213 343.077 213.659 342.655 213.249C342.233 212.84 341.661 212.608 341.064 212.604H292.617C292.02 212.608 291.449 212.84 291.027 213.249C290.605 213.659 290.365 214.213 290.361 214.792V229.062C290.365 229.641 290.605 230.195 291.027 230.605C291.449 231.014 292.02 231.246 292.617 231.25V231.25Z" stroke="#C7C7C7" stroke-width="1.8" stroke-linecap="round" stroke-linejoin="round"/>
<path d="M311.255 217.604H322.427C322.639 217.599 322.841 217.515 322.99 217.369C323.14 217.224 323.227 217.028 323.232 216.823C323.227 216.617 323.14 216.422 322.99 216.276C322.841 216.131 322.639 216.047 322.427 216.042H311.255C311.043 216.047 310.841 216.131 310.691 216.276C310.541 216.422 310.455 216.617 310.449 216.823C310.455 217.028 310.541 217.224 310.691 217.369C310.841 217.515 311.043 217.599 311.255 217.604Z" fill="#C7C7C7"/>
<path d="M230.85 254.583H279.297C279.894 254.579 280.465 254.347 280.887 253.938C281.309 253.529 281.549 252.975 281.553 252.396V238.125C281.549 237.546 281.309 236.992 280.887 236.583C280.465 236.173 279.894 235.942 279.297 235.938H230.85C230.253 235.942 229.681 236.173 229.259 236.583C228.837 236.992 228.598 237.546 228.594 238.125V252.396C228.598 252.975 228.837 253.529 229.259 253.938C229.681 254.347 230.253 254.579 230.85 254.583V254.583Z" stroke="#C7C7C7" stroke-width="1.8" stroke-linecap="round" stroke-linejoin="round"/>
<path d="M249.541 240.99H260.713C260.925 240.984 261.127 240.9 261.277 240.755C261.426 240.609 261.513 240.414 261.519 240.208C261.513 240.003 261.426 239.807 261.277 239.662C261.127 239.516 260.925 239.432 260.713 239.427H249.541C249.329 239.432 249.127 239.516 248.977 239.662C248.827 239.807 248.741 240.003 248.735 240.208C248.733 240.311 248.752 240.414 248.792 240.51C248.832 240.605 248.891 240.692 248.966 240.765C249.042 240.838 249.131 240.896 249.23 240.934C249.329 240.973 249.435 240.992 249.541 240.99Z" fill="#C7C7C7"/>
<path d="M292.617 254.583H341.064C341.661 254.579 342.233 254.347 342.655 253.938C343.077 253.529 343.316 252.975 343.32 252.396V238.125C343.316 237.546 343.077 236.992 342.655 236.583C342.233 236.173 341.661 235.942 341.064 235.938H292.617C292.02 235.942 291.449 236.173 291.027 236.583C290.605 236.992 290.365 237.546 290.361 238.125V252.396C290.365 252.975 290.605 253.529 291.027 253.938C291.449 254.347 292.02 254.579 292.617 254.583V254.583Z" stroke="#C7C7C7" stroke-width="1.8" stroke-linecap="round" stroke-linejoin="round"/>
<path d="M311.255 240.99H322.427C322.639 240.984 322.841 240.9 322.99 240.755C323.14 240.609 323.227 240.414 323.232 240.208C323.227 240.003 323.14 239.807 322.99 239.662C322.841 239.516 322.639 239.432 322.427 239.427H311.255C311.043 239.432 310.841 239.516 310.691 239.662C310.541 239.807 310.455 240.003 310.449 240.208C310.455 240.414 310.541 240.609 310.691 240.755C310.841 240.9 311.043 240.984 311.255 240.99Z" fill="#C7C7C7"/>
<path d="M74.7119 198.698H160.596C161.249 198.691 161.873 198.436 162.335 197.989C162.797 197.541 163.059 196.935 163.066 196.302V154.792C163.059 154.158 162.797 153.553 162.335 153.105C161.873 152.657 161.249 152.403 160.596 152.396H74.7119C74.0588 152.403 73.4344 152.657 72.9726 153.105C72.5107 153.553 72.2482 154.158 72.2412 154.792V196.302C72.2361 196.618 72.2966 196.932 72.4189 197.225C72.5413 197.518 72.7231 197.784 72.9535 198.007C73.184 198.231 73.4584 198.407 73.7604 198.525C74.0625 198.644 74.386 198.703 74.7119 198.698V198.698Z" stroke="#C7C7C7" stroke-width="1.8" stroke-linecap="round" stroke-linejoin="round"/>
<path d="M74.712 250.26H160.596C161.249 250.254 161.873 249.999 162.335 249.551C162.797 249.103 163.059 248.498 163.066 247.865V206.354C163.059 205.721 162.797 205.115 162.335 204.667C161.873 204.22 161.249 203.965 160.596 203.958H74.712C74.0589 203.965 73.4345 204.22 72.9727 204.667C72.5108 205.115 72.2483 205.721 72.2413 206.354V247.865C72.2406 248.179 72.304 248.491 72.4279 248.782C72.5518 249.073 72.7338 249.338 72.9634 249.56C73.1929 249.783 73.4656 249.959 73.7656 250.079C74.0657 250.2 74.3873 250.261 74.712 250.26V250.26Z" stroke="#C7C7C7" stroke-width="1.8" stroke-linecap="round" stroke-linejoin="round"/>
<path d="M141.26 172.5H146.577V198.698H141.26V172.5Z" stroke="#C7C7C7" stroke-width="1.8" stroke-linecap="round" stroke-linejoin="round"/>
<path d="M135.781 179.688H141.313V198.75H135.781V179.688Z" stroke="#C7C7C7" stroke-width="1.8" stroke-linecap="round" stroke-linejoin="round"/>
<path d="M429.849 114.01H435.166V140.208H429.849V114.01Z" stroke="#C7C7C7" stroke-width="1.8" stroke-linecap="round" stroke-linejoin="round"/>
<path d="M424.37 121.146H429.902V140.208H424.37V121.146Z" stroke="#C7C7C7" stroke-width="1.8" stroke-linecap="round" stroke-linejoin="round"/>
<path d="M440.698 124.896H446.016V140.208H440.698V124.896Z" stroke="#C7C7C7" stroke-width="1.8" stroke-linecap="round" stroke-linejoin="round"/>
<path d="M435.166 109.531H440.698V140.156H435.166V109.531Z" stroke="#C7C7C7" stroke-width="1.8" stroke-linecap="round" stroke-linejoin="round"/>
<path d="M144.59 227.5L143.999 219.74C143.987 219.618 144.003 219.496 144.044 219.38C144.085 219.265 144.151 219.16 144.237 219.071C144.324 218.982 144.428 218.912 144.545 218.866C144.661 218.82 144.786 218.798 144.912 218.802H149.477C149.602 218.803 149.725 218.828 149.839 218.876C149.953 218.924 150.056 218.994 150.141 219.081C150.227 219.169 150.293 219.272 150.336 219.386C150.378 219.499 150.397 219.619 150.391 219.74L149.8 227.5C149.8 227.5 154.634 230.521 154.58 233.021C154.526 234.948 153.345 244.167 152.808 248.229C152.739 248.776 152.466 249.28 152.041 249.644C151.615 250.009 151.066 250.21 150.498 250.208H143.838C143.27 250.21 142.721 250.009 142.295 249.644C141.87 249.28 141.597 248.776 141.528 248.229C140.991 244.167 139.81 234.948 139.756 233.021C139.756 230.521 144.59 227.5 144.59 227.5Z" fill="#C7C7C7"/>
<path d="M118.701 175.99L118.11 168.229C118.099 168.108 118.114 167.985 118.155 167.87C118.196 167.755 118.262 167.649 118.348 167.56C118.435 167.472 118.54 167.402 118.656 167.356C118.772 167.309 118.898 167.287 119.023 167.292H123.642C123.767 167.292 123.89 167.317 124.004 167.365C124.118 167.413 124.221 167.483 124.306 167.571C124.391 167.658 124.458 167.762 124.501 167.875C124.543 167.988 124.562 168.109 124.556 168.229L123.965 175.99C123.965 175.99 128.799 179.01 128.745 181.51C128.691 183.437 127.51 192.656 126.973 196.719C126.904 197.266 126.631 197.769 126.206 198.134C125.78 198.499 125.231 198.699 124.663 198.698H118.003C117.435 198.699 116.886 198.499 116.46 198.134C116.034 197.769 115.762 197.266 115.693 196.719C115.156 192.656 113.974 183.437 113.921 181.51C113.867 179.01 118.701 175.99 118.701 175.99Z" fill="#C7C7C7"/>
<path d="M453.105 269.844L75.5175 273.854" stroke="#C7C7C7" stroke-width="1.8" stroke-linecap="round" stroke-linejoin="round"/>
<path d="M254.321 84.4791C256.416 88.802 261.25 91.6666 264.634 90.7812C267.588 90 268.125 86.6146 266.245 83.2291C264.419 80 260.767 77.3958 257.598 77.3437C254.106 77.2395 252.388 80.3645 254.321 84.4791Z" fill="#FFE779"/>
<path d="M255.342 83.5938C257.437 87.9167 262.271 90.7813 265.654 89.8959C268.608 89.1146 269.146 85.7292 267.266 82.3438C265.44 79.1146 261.787 76.5104 258.618 76.4583C255.127 76.3542 253.408 79.4792 255.342 83.5938Z" fill="#FFD600"/>
<path d="M257.06 83.3855C258.618 86.6146 262.27 88.8021 264.849 88.2292C267.158 87.7084 267.695 85.1042 266.245 82.448C264.849 79.8959 261.894 77.8646 259.477 77.8646C256.738 77.9167 255.557 80.3125 257.06 83.3855Z" fill="#FFE779"/>
<path d="M264.043 86.1459L263.828 85.7813C263.774 85.625 263.774 85.5209 263.882 85.4688C264.119 85.4246 264.331 85.2942 264.473 85.1042C264.526 85.0521 264.526 84.8959 264.419 84.7396L264.365 84.6875C264.258 84.5313 264.043 84.4792 263.989 84.5834C263.803 84.7751 263.558 84.903 263.291 84.948C263.016 84.9861 262.735 84.9354 262.492 84.8036C262.25 84.6718 262.059 84.4663 261.948 84.2188C261.887 84.1242 261.847 84.0184 261.83 83.908C261.813 83.7976 261.82 83.685 261.85 83.5774C261.881 83.4697 261.934 83.3693 262.006 83.2824C262.078 83.1956 262.168 83.1243 262.27 83.073C262.413 83.0061 262.539 82.9102 262.64 82.7918C262.74 82.6735 262.814 82.5354 262.854 82.3871C262.895 82.2389 262.903 82.0838 262.876 81.9325C262.849 81.7812 262.789 81.6373 262.7 81.5105C262.549 81.2008 262.324 80.9306 262.044 80.7222C261.764 80.5139 261.436 80.3734 261.089 80.3125C260.981 80.3125 260.874 80.2084 260.767 80.0521L260.552 79.6875C260.524 79.612 260.473 79.5465 260.406 79.4999C260.339 79.4533 260.258 79.4279 260.176 79.4271C260.068 79.4271 260.015 79.5313 260.068 79.6875L260.229 80C260.283 80.1563 260.283 80.2605 260.122 80.2605C259.945 80.287 259.778 80.3589 259.639 80.4688C259.531 80.5209 259.585 80.6771 259.692 80.8334L259.746 80.8855C259.853 81.0417 260.068 81.0938 260.122 80.9896C260.306 80.8508 260.534 80.7773 260.767 80.7813C261.011 80.7661 261.254 80.8225 261.465 80.9433C261.676 81.064 261.844 81.2435 261.948 81.4584C262.163 81.875 262.002 82.1355 261.519 82.5C261.37 82.5824 261.241 82.6942 261.14 82.8282C261.039 82.9623 260.969 83.1154 260.933 83.2777C260.898 83.44 260.898 83.6078 260.934 83.7699C260.97 83.9321 261.041 84.0851 261.143 84.2188C261.312 84.5654 261.568 84.8658 261.886 85.0931C262.205 85.3204 262.577 85.4673 262.969 85.5209C263.042 85.5308 263.111 85.5605 263.168 85.6065C263.225 85.6525 263.268 85.7131 263.291 85.7813L263.506 86.198C263.54 86.2692 263.592 86.3307 263.658 86.3764C263.724 86.422 263.801 86.4503 263.882 86.4584C264.097 86.4584 264.15 86.3021 264.043 86.1459Z" fill="#FFD600"/>
<path d="M156.406 177.552L177.246 176.302C177.589 176.28 177.924 176.193 178.232 176.044C178.539 175.896 178.814 175.69 179.039 175.438C179.263 175.186 179.434 174.893 179.542 174.577C179.649 174.26 179.69 173.926 179.663 173.594L176.494 132.135C176.434 131.442 176.119 130.792 175.606 130.305C175.094 129.817 174.418 129.524 173.701 129.479L152.378 128.229C152.008 128.211 151.639 128.268 151.295 128.399C150.95 128.529 150.638 128.729 150.379 128.985C150.12 129.241 149.92 129.547 149.792 129.884C149.665 130.221 149.612 130.58 149.639 130.938L153.184 174.896C153.266 175.655 153.647 176.354 154.247 176.849C154.847 177.343 155.62 177.595 156.406 177.552Z" fill="#22272E"/>
<path d="M157.856 177.552L178.696 176.302C179.039 176.28 179.374 176.193 179.682 176.044C179.99 175.896 180.264 175.69 180.489 175.438C180.714 175.186 180.885 174.893 180.992 174.577C181.099 174.26 181.14 173.926 181.113 173.594L177.944 132.135C177.884 131.442 177.569 130.792 177.056 130.305C176.544 129.817 175.868 129.524 175.151 129.479L153.828 128.229C153.459 128.211 153.089 128.268 152.745 128.399C152.4 128.529 152.088 128.729 151.829 128.985C151.57 129.241 151.37 129.547 151.242 129.884C151.115 130.221 151.062 130.58 151.089 130.938L154.634 174.896C154.717 175.655 155.097 176.354 155.697 176.849C156.297 177.343 157.07 177.595 157.856 177.552Z" fill="#22272E"/>
<path d="M164.248 133.073L168.223 133.281C168.294 133.286 168.366 133.276 168.434 133.251C168.501 133.226 168.562 133.188 168.613 133.139C168.664 133.09 168.703 133.03 168.729 132.965C168.754 132.9 168.765 132.83 168.76 132.76C168.758 132.609 168.696 132.464 168.585 132.357C168.475 132.25 168.325 132.189 168.169 132.187L164.194 131.979C164.122 131.974 164.051 131.985 163.983 132.009C163.916 132.034 163.855 132.072 163.804 132.121C163.753 132.171 163.714 132.23 163.688 132.295C163.663 132.361 163.652 132.43 163.657 132.5C163.659 132.651 163.721 132.796 163.832 132.904C163.942 133.011 164.092 133.072 164.248 133.073Z" fill="#63737A"/>
<path d="M161.938 132.969H162.046C162.118 132.973 162.19 132.963 162.257 132.939C162.324 132.914 162.385 132.876 162.436 132.826C162.487 132.777 162.526 132.718 162.552 132.653C162.577 132.587 162.588 132.518 162.583 132.448C162.563 132.289 162.488 132.141 162.372 132.028C162.255 131.915 162.102 131.843 161.938 131.823H161.831C161.759 131.818 161.687 131.829 161.62 131.853C161.553 131.878 161.491 131.916 161.441 131.965C161.39 132.015 161.35 132.074 161.325 132.139C161.3 132.204 161.289 132.274 161.294 132.344C161.314 132.503 161.389 132.651 161.505 132.764C161.622 132.877 161.775 132.949 161.938 132.969Z" fill="#63737A"/>
<path d="M168.169 140L173.486 140.156C173.616 140.158 173.745 140.133 173.864 140.082C173.982 140.032 174.089 139.957 174.175 139.863C174.262 139.769 174.327 139.659 174.365 139.538C174.404 139.418 174.416 139.292 174.399 139.167C174.371 138.9 174.249 138.65 174.053 138.461C173.858 138.271 173.601 138.152 173.325 138.125L168.008 137.917C167.878 137.915 167.75 137.94 167.631 137.991C167.512 138.041 167.406 138.116 167.319 138.21C167.233 138.304 167.168 138.414 167.129 138.535C167.09 138.655 167.079 138.781 167.095 138.906C167.102 139.185 167.216 139.452 167.415 139.654C167.613 139.856 167.882 139.979 168.169 140Z" fill="#63737A"/>
<path d="M169.565 157.917L174.829 157.865C174.956 157.858 175.081 157.827 175.195 157.774C175.31 157.72 175.413 157.645 175.497 157.554C175.582 157.462 175.648 157.354 175.69 157.238C175.732 157.121 175.749 156.998 175.742 156.875C175.712 156.614 175.588 156.371 175.391 156.19C175.195 156.009 174.939 155.901 174.668 155.885L169.404 155.937C169.276 155.94 169.149 155.968 169.032 156.02C168.916 156.072 168.811 156.146 168.725 156.239C168.64 156.332 168.575 156.441 168.534 156.559C168.494 156.678 168.479 156.803 168.491 156.927C168.511 157.192 168.632 157.44 168.831 157.623C169.03 157.806 169.292 157.911 169.565 157.917Z" fill="#63737A"/>
<path d="M170.693 172.396L175.957 172.135C176.088 172.127 176.216 172.093 176.334 172.036C176.451 171.978 176.555 171.899 176.641 171.802C176.726 171.705 176.79 171.592 176.829 171.47C176.869 171.349 176.883 171.221 176.87 171.094C176.859 170.84 176.746 170.6 176.556 170.425C176.365 170.25 176.112 170.153 175.85 170.156L170.586 170.365C170.453 170.369 170.323 170.4 170.203 170.455C170.083 170.511 169.977 170.591 169.891 170.689C169.805 170.787 169.741 170.902 169.704 171.025C169.666 171.149 169.656 171.279 169.673 171.406C169.673 171.669 169.78 171.92 169.972 172.106C170.163 172.292 170.423 172.396 170.693 172.396Z" fill="#63737A"/>
<path d="M158.447 151.51L174.131 151.563C174.288 151.563 174.444 151.532 174.589 151.471C174.733 151.409 174.863 151.319 174.969 151.206C175.075 151.093 175.156 150.96 175.206 150.815C175.256 150.67 175.274 150.517 175.259 150.365L174.775 143.75C174.755 143.485 174.634 143.237 174.436 143.054C174.237 142.871 173.975 142.766 173.701 142.76L157.964 142.344C157.806 142.343 157.65 142.374 157.506 142.436C157.361 142.497 157.232 142.587 157.126 142.7C157.019 142.813 156.939 142.946 156.889 143.091C156.839 143.236 156.821 143.39 156.836 143.542L157.373 150.469C157.373 150.745 157.486 151.01 157.688 151.205C157.889 151.401 158.162 151.51 158.447 151.51Z" fill="#8F8F8F"/>
<path d="M169.941 166.823L175.313 166.615C175.466 166.61 175.617 166.574 175.756 166.51C175.894 166.446 176.018 166.355 176.119 166.243C176.22 166.13 176.296 165.999 176.342 165.857C176.388 165.715 176.403 165.565 176.387 165.417L176.064 161.458C176.058 161.322 176.023 161.187 175.963 161.063C175.902 160.94 175.817 160.829 175.712 160.737C175.607 160.645 175.485 160.574 175.352 160.528C175.219 160.482 175.078 160.462 174.937 160.469L169.512 160.573C169.199 160.589 168.906 160.724 168.695 160.948C168.484 161.172 168.372 161.468 168.384 161.771L168.706 165.833C168.755 166.115 168.907 166.37 169.134 166.551C169.361 166.733 169.647 166.829 169.941 166.823Z" fill="#FFD600"/>
<path d="M159.736 167.135L165.483 166.927C165.637 166.922 165.788 166.887 165.927 166.823C166.065 166.759 166.189 166.668 166.29 166.555C166.391 166.443 166.466 166.311 166.513 166.169C166.559 166.027 166.574 165.877 166.558 165.729L166.235 161.615C166.228 161.478 166.194 161.344 166.133 161.22C166.073 161.096 165.988 160.985 165.883 160.893C165.778 160.801 165.656 160.73 165.523 160.684C165.39 160.638 165.249 160.618 165.107 160.625L159.307 160.729C158.994 160.745 158.701 160.88 158.49 161.104C158.279 161.328 158.167 161.624 158.179 161.927L158.501 166.146C158.548 166.428 158.699 166.684 158.926 166.866C159.154 167.049 159.442 167.144 159.736 167.135Z" fill="#F4C2C9"/>
<path d="M288.32 113.438L305.776 114.219C306.098 114.231 306.418 114.174 306.713 114.051C307.008 113.928 307.271 113.742 307.483 113.507C307.694 113.272 307.848 112.994 307.934 112.693C308.02 112.393 308.035 112.078 307.979 111.771L305.078 83.6458C305 82.9325 304.685 82.2629 304.182 81.7372C303.678 81.2114 303.013 80.8578 302.285 80.7292L284.507 78.4896C282.949 78.2813 281.875 79.375 282.036 80.8854L285.313 110.625C285.406 111.357 285.755 112.036 286.303 112.548C286.85 113.06 287.563 113.374 288.32 113.438Z" fill="#22272E"/>
<path d="M289.609 112.865L307.065 113.646C307.387 113.659 307.707 113.601 308.002 113.478C308.297 113.355 308.56 113.169 308.772 112.934C308.983 112.699 309.137 112.421 309.223 112.121C309.309 111.82 309.324 111.505 309.268 111.198L306.367 83.073C306.289 82.3596 305.974 81.69 305.471 81.1643C304.967 80.6385 304.302 80.2849 303.574 80.1563L285.796 77.9167C284.238 77.7084 283.164 78.8021 283.325 80.3125L286.602 110.052C286.685 110.788 287.031 111.472 287.581 111.986C288.13 112.5 288.848 112.811 289.609 112.865Z" fill="#22272E"/>
<path d="M288.804 87.3959L302.393 88.8021C302.494 88.8128 302.597 88.8013 302.693 88.7685C302.789 88.7356 302.877 88.6822 302.949 88.6123C303.021 88.5423 303.076 88.4575 303.11 88.3642C303.144 88.2708 303.156 88.1713 303.145 88.0729L302.822 84.8438C302.812 84.695 302.747 84.5549 302.638 84.4495C302.529 84.3441 302.385 84.2806 302.231 84.2709L288.589 82.7084C288.487 82.6976 288.385 82.7091 288.289 82.742C288.192 82.7749 288.105 82.8282 288.033 82.8982C287.961 82.9682 287.906 83.053 287.872 83.1463C287.838 83.2396 287.826 83.3391 287.837 83.4375L288.213 86.8229C288.214 86.9745 288.277 87.1194 288.388 87.2265C288.498 87.3337 288.647 87.3945 288.804 87.3959Z" fill="#F4C2C9"/>
<path d="M301.426 96.3542L303.198 96.5104C303.3 96.5212 303.402 96.5097 303.499 96.4768C303.595 96.4439 303.682 96.3906 303.754 96.3206C303.827 96.2506 303.882 96.1658 303.916 96.0725C303.949 95.9792 303.961 95.8796 303.95 95.7813L303.735 93.9063C303.725 93.7575 303.66 93.6174 303.551 93.512C303.442 93.4066 303.298 93.3431 303.145 93.3334L301.372 93.1771C301.271 93.1664 301.168 93.1779 301.072 93.2108C300.975 93.2436 300.888 93.297 300.816 93.367C300.744 93.4369 300.689 93.5217 300.655 93.615C300.621 93.7084 300.609 93.8079 300.62 93.9063L300.835 95.7813C300.845 95.93 300.911 96.0701 301.019 96.1755C301.128 96.2809 301.272 96.3444 301.426 96.3542Z" fill="#8F8F8F"/>
<path d="M289.663 95.3646L291.597 95.5208C291.698 95.5315 291.801 95.52 291.897 95.4872C291.993 95.4543 292.081 95.4009 292.153 95.331C292.225 95.261 292.28 95.1762 292.314 95.0829C292.348 94.9895 292.36 94.89 292.349 94.7917L292.134 92.8125C292.124 92.6637 292.058 92.5236 291.95 92.4182C291.841 92.3129 291.696 92.2494 291.543 92.2396L289.609 92.0312C289.508 92.0205 289.405 92.032 289.309 92.0649C289.213 92.0977 289.125 92.1511 289.053 92.2211C288.981 92.2911 288.926 92.3758 288.892 92.4692C288.858 92.5625 288.846 92.662 288.857 92.7604L289.072 94.7396C289.081 94.894 289.144 95.0409 289.252 95.1549C289.36 95.2689 289.505 95.343 289.663 95.3646Z" fill="#8F8F8F"/>
<path d="M295.625 95.8333L297.451 95.9896C297.553 96.0003 297.655 95.9888 297.752 95.9559C297.848 95.9231 297.935 95.8697 298.007 95.7997C298.08 95.7298 298.135 95.645 298.168 95.5517C298.202 95.4583 298.214 95.3588 298.203 95.2604L297.988 93.3333C297.978 93.1846 297.913 93.0445 297.804 92.9391C297.695 92.8337 297.551 92.7702 297.397 92.7604L295.571 92.6042C295.47 92.5935 295.367 92.605 295.271 92.6378C295.175 92.6707 295.087 92.7241 295.015 92.794C294.943 92.864 294.888 92.9488 294.854 93.0421C294.82 93.1354 294.808 93.235 294.819 93.3333L295.034 95.2604C295.036 95.4119 295.098 95.5569 295.209 95.664C295.319 95.7712 295.469 95.832 295.625 95.8333Z" fill="#8F8F8F"/>
<path d="M302.124 102.76L303.896 102.865C303.997 102.872 304.098 102.857 304.192 102.823C304.287 102.789 304.373 102.736 304.444 102.666C304.515 102.597 304.571 102.514 304.606 102.422C304.641 102.331 304.656 102.233 304.648 102.135L304.434 100.26C304.411 100.107 304.335 99.9663 304.217 99.8618C304.1 99.7573 303.948 99.6956 303.789 99.6875L302.017 99.5312C301.915 99.5205 301.812 99.532 301.716 99.5649C301.62 99.5977 301.533 99.6511 301.46 99.7211C301.388 99.791 301.333 99.8758 301.299 99.9692C301.265 100.063 301.254 100.162 301.265 100.26L301.479 102.135C301.491 102.298 301.562 102.45 301.681 102.565C301.799 102.68 301.957 102.749 302.124 102.76Z" fill="#8F8F8F"/>
<path d="M290.361 101.979L292.295 102.135C292.395 102.142 292.496 102.128 292.591 102.094C292.685 102.06 292.771 102.006 292.842 101.937C292.914 101.868 292.969 101.785 293.004 101.693C293.039 101.602 293.054 101.504 293.047 101.406L292.832 99.4791C292.81 99.326 292.733 99.1851 292.616 99.0805C292.498 98.976 292.347 98.9144 292.187 98.9062L290.254 98.75C290.152 98.7393 290.05 98.7508 289.953 98.7836C289.857 98.8165 289.77 98.8699 289.698 98.9398C289.625 99.0098 289.57 99.0946 289.537 99.1879C289.503 99.2813 289.491 99.3808 289.502 99.4791L289.717 101.458C289.768 101.592 289.854 101.711 289.967 101.802C290.08 101.893 290.216 101.954 290.361 101.979Z" fill="#8F8F8F"/>
<path d="M296.323 102.396L298.149 102.5C298.25 102.507 298.351 102.493 298.445 102.459C298.54 102.425 298.626 102.371 298.697 102.302C298.768 102.233 298.823 102.15 298.859 102.058C298.894 101.966 298.908 101.868 298.901 101.771L298.686 99.8438C298.664 99.6906 298.588 99.5497 298.47 99.4452C298.353 99.3406 298.201 99.279 298.042 99.2709L296.216 99.1146C296.114 99.1039 296.012 99.1154 295.915 99.1482C295.819 99.1811 295.732 99.2345 295.66 99.3045C295.587 99.3744 295.532 99.4592 295.499 99.5525C295.465 99.6459 295.453 99.7454 295.464 99.8438L295.679 101.771C295.708 101.926 295.785 102.069 295.9 102.181C296.015 102.293 296.163 102.368 296.323 102.396Z" fill="#8F8F8F"/>
<path d="M302.822 109.167L304.541 109.271C304.639 109.276 304.737 109.261 304.828 109.225C304.919 109.19 305 109.135 305.067 109.065C305.134 108.996 305.184 108.913 305.214 108.822C305.243 108.732 305.252 108.636 305.239 108.542L305.024 106.667C305.002 106.514 304.926 106.373 304.808 106.268C304.691 106.164 304.539 106.102 304.38 106.094L302.661 105.99C302.562 105.979 302.462 105.991 302.368 106.025C302.275 106.059 302.191 106.113 302.123 106.184C302.055 106.255 302.005 106.34 301.977 106.433C301.95 106.526 301.945 106.624 301.963 106.719L302.178 108.594C302.191 108.75 302.265 108.896 302.385 109.002C302.504 109.109 302.66 109.167 302.822 109.167Z" fill="#8F8F8F"/>
<path d="M291.113 108.542L293.047 108.646C293.145 108.651 293.243 108.636 293.334 108.6C293.424 108.565 293.506 108.51 293.573 108.441C293.64 108.371 293.69 108.288 293.719 108.197C293.749 108.107 293.758 108.011 293.745 107.917L293.53 105.99C293.508 105.836 293.432 105.696 293.314 105.591C293.196 105.486 293.045 105.425 292.886 105.417L290.952 105.313C290.853 105.302 290.753 105.314 290.659 105.348C290.566 105.382 290.482 105.436 290.414 105.507C290.346 105.578 290.296 105.663 290.269 105.756C290.241 105.849 290.236 105.947 290.254 106.042L290.469 108.021C290.503 108.164 290.584 108.293 290.701 108.387C290.817 108.481 290.962 108.535 291.113 108.542Z" fill="#FFD600"/>
<path d="M297.021 108.854L298.848 108.958C298.946 108.964 299.043 108.948 299.134 108.913C299.225 108.877 299.307 108.823 299.374 108.753C299.44 108.683 299.49 108.6 299.52 108.51C299.55 108.419 299.559 108.323 299.546 108.229L299.331 106.354C299.309 106.201 299.232 106.06 299.115 105.956C298.997 105.851 298.846 105.789 298.687 105.781L296.86 105.677C296.761 105.666 296.661 105.679 296.567 105.712C296.474 105.746 296.39 105.801 296.322 105.871C296.254 105.942 296.204 106.028 296.177 106.12C296.149 106.213 296.144 106.311 296.162 106.406L296.377 108.333C296.411 108.477 296.492 108.605 296.609 108.699C296.725 108.793 296.87 108.848 297.021 108.854Z" fill="#FFD600"/>
<path d="M271.401 113.125L187.29 104.687C186.926 104.652 186.558 104.694 186.213 104.812C185.868 104.93 185.553 105.119 185.292 105.368C185.031 105.616 184.829 105.917 184.701 106.25C184.573 106.582 184.521 106.938 184.551 107.292L191.748 186.667C191.83 187.606 192.285 188.478 193.016 189.099C193.747 189.721 194.698 190.044 195.669 190L277.363 185.729C278.025 185.691 278.644 185.402 279.086 184.924C279.529 184.446 279.759 183.819 279.727 183.177L274.785 116.562C274.722 115.697 274.35 114.88 273.732 114.252C273.114 113.625 272.29 113.226 271.401 113.125Z" fill="#FFE779"/>
<path d="M274.463 112.24L189.385 103.698C189.015 103.659 188.642 103.701 188.291 103.821C187.941 103.941 187.622 104.135 187.36 104.39C187.097 104.645 186.896 104.954 186.773 105.294C186.649 105.633 186.606 105.996 186.646 106.354L193.897 186.615C193.969 187.567 194.429 188.453 195.174 189.078C195.919 189.702 196.889 190.015 197.871 189.948L280.532 185.625C280.865 185.609 281.192 185.529 281.493 185.388C281.793 185.248 282.062 185.051 282.282 184.808C282.502 184.565 282.67 184.282 282.776 183.975C282.881 183.668 282.922 183.343 282.895 183.021L277.9 115.625C277.806 114.767 277.415 113.965 276.791 113.351C276.167 112.736 275.346 112.344 274.463 112.24Z" fill="#FFD600"/>
<path d="M265.654 129.531L269.521 129.74L270.005 136.719L266.191 136.615L265.654 129.531Z" fill="#414141"/>
<path d="M270.005 136.719L270.273 140.156L266.46 140.052L266.191 136.615L270.005 136.719Z" fill="#8F8F8F"/>
<path d="M257.329 120.052L261.196 120.313L261.841 129.323L258.027 129.167L257.329 120.052Z" fill="#414141"/>
<path d="M261.841 129.323L262.646 139.948L258.833 139.844L258.027 129.167L261.841 129.323Z" fill="#8F8F8F"/>
<path d="M253.784 123.333L254.214 128.958L250.4 128.75L249.971 123.073L253.784 123.333Z" fill="#414141"/>
<path d="M254.214 128.958L255.02 139.792L251.206 139.688L250.4 128.75L254.214 128.958Z" fill="#8F8F8F"/>
<path d="M242.773 128.333L246.587 128.542L246.855 132.5L243.042 132.292L242.773 128.333Z" fill="#414141"/>
<path d="M246.855 132.5L247.393 139.583L243.579 139.479L243.042 132.292L246.855 132.5Z" fill="#8F8F8F"/>
<path d="M234.663 122.031L235.146 127.969L235.415 131.875L239.229 132.083L238.96 128.125L238.477 122.292L234.663 122.031Z" fill="#414141"/>
<path d="M239.229 132.083L239.819 139.375L236.006 139.323L235.415 131.875L239.229 132.083Z" fill="#8F8F8F"/>
<path d="M203.994 117.76L210.815 128.229L216.777 120.365C214.468 118.484 211.617 117.339 208.613 117.083C207.041 116.973 205.463 117.205 203.994 117.76Z" fill="#22272E"/>
<path d="M198.677 127.396L210.815 128.229L203.994 117.76C200.234 119.219 198.032 122.865 198.677 127.396Z" fill="#F4C2C9"/>
<path d="M198.677 127.396C198.677 127.552 198.73 127.708 198.73 127.865C199.858 134.063 205.82 139.219 212.104 139.688L210.815 128.229L198.677 127.396Z" fill="#8F8F8F"/>
<path d="M210.815 128.229L212.105 139.687C212.443 139.731 212.784 139.748 213.125 139.74C219.517 139.74 223.438 134.687 222.095 128.594C221.319 125.367 219.446 122.487 216.777 120.417L210.815 128.229Z" fill="white"/>
<path d="M200.396 148.594L203.188 175L273.389 173.75L273.281 171.719L258.081 161.563C257.742 161.329 257.333 161.208 256.917 161.217C256.501 161.227 256.099 161.366 255.771 161.615L250.078 165.677C249.867 165.829 249.627 165.939 249.372 166C249.117 166.061 248.852 166.073 248.592 166.034C248.332 165.995 248.083 165.907 247.859 165.774C247.634 165.641 247.439 165.467 247.285 165.26L241.646 157.969C241.457 157.724 241.212 157.527 240.929 157.392C240.647 157.258 240.335 157.19 240.02 157.195C239.706 157.201 239.397 157.278 239.119 157.422C238.841 157.565 238.603 157.77 238.423 158.021L233.428 164.74C233.272 164.952 233.074 165.132 232.845 165.269C232.617 165.406 232.362 165.496 232.096 165.535C231.83 165.574 231.559 165.56 231.299 165.495C231.038 165.43 230.794 165.315 230.581 165.156C230.243 164.908 229.832 164.769 229.408 164.76C228.984 164.751 228.567 164.871 228.218 165.104L224.673 167.552C224.452 167.703 224.202 167.809 223.938 167.865C223.674 167.92 223.401 167.924 223.136 167.875C222.871 167.826 222.618 167.727 222.393 167.582C222.168 167.437 221.975 167.25 221.826 167.031L213.877 155.156C213.728 154.938 213.535 154.751 213.31 154.606C213.085 154.461 212.833 154.361 212.567 154.312C212.302 154.264 212.029 154.267 211.765 154.323C211.501 154.378 211.251 154.485 211.03 154.635L208.721 156.25C208.51 156.403 208.27 156.513 208.015 156.574C207.759 156.636 207.494 156.648 207.234 156.609C206.974 156.57 206.725 156.482 206.501 156.349C206.276 156.215 206.082 156.04 205.928 155.833L200.396 148.594Z" fill="#414141"/>
<path d="M251.475 156.979H254.536C254.607 156.977 254.677 156.99 254.742 157.017C254.807 157.044 254.865 157.085 254.912 157.135L255.61 157.813C255.711 157.908 255.846 157.961 255.986 157.961C256.127 157.961 256.262 157.908 256.362 157.813L256.899 157.135C256.947 157.085 257.005 157.044 257.07 157.017C257.135 156.99 257.205 156.977 257.275 156.979H260.23C260.292 156.982 260.354 156.972 260.411 156.949C260.468 156.926 260.52 156.89 260.561 156.845C260.602 156.8 260.632 156.747 260.649 156.689C260.666 156.631 260.67 156.57 260.659 156.51L260.23 150.885C260.22 150.751 260.16 150.624 260.061 150.528C259.963 150.432 259.832 150.374 259.692 150.365L250.937 150.052C250.809 150.052 250.686 150.102 250.596 150.189C250.505 150.277 250.454 150.397 250.454 150.521L250.937 156.406C250.93 156.479 250.938 156.552 250.962 156.622C250.985 156.691 251.024 156.755 251.074 156.809C251.125 156.863 251.187 156.906 251.256 156.935C251.325 156.965 251.399 156.98 251.475 156.979Z" fill="white"/>
<path d="M222.793 159.792L225.854 159.74C225.925 159.738 225.995 159.751 226.06 159.778C226.125 159.805 226.183 159.845 226.23 159.896L226.929 160.573C226.978 160.624 227.038 160.664 227.106 160.69C227.173 160.716 227.245 160.727 227.318 160.722C227.39 160.717 227.46 160.696 227.523 160.661C227.585 160.627 227.639 160.579 227.681 160.521L228.218 159.844C228.265 159.793 228.323 159.753 228.388 159.726C228.453 159.699 228.523 159.686 228.594 159.688L231.494 159.635C231.763 159.635 231.924 159.427 231.924 159.115L231.494 153.438C231.487 153.31 231.435 153.189 231.347 153.094C231.259 152.999 231.141 152.937 231.011 152.917L222.256 152.708C222.188 152.71 222.121 152.724 222.06 152.752C221.998 152.779 221.943 152.818 221.897 152.867C221.852 152.916 221.818 152.973 221.796 153.035C221.775 153.098 221.767 153.164 221.772 153.229L222.256 159.271C222.251 159.34 222.262 159.41 222.287 159.475C222.312 159.541 222.352 159.6 222.403 159.649C222.453 159.699 222.515 159.737 222.582 159.761C222.649 159.786 222.721 159.796 222.793 159.792Z" fill="#F4C2C9"/>
<path d="M369.907 310.052C370.122 310.729 370.606 313.437 370.981 315.937C374.997 316.52 379.099 316.034 382.852 314.531C382.583 311.927 382.314 309.219 382.314 309.219C382.314 307.76 369.478 308.802 369.907 310.052Z" fill="#22272E"/>
<path d="M370.981 315.885C371.304 318.073 371.626 320 371.626 320C371.626 320 373.076 323.281 376.729 323.281C380.381 323.281 383.335 320.312 383.281 319.062C383.228 318.49 383.066 316.51 382.852 314.479C379.101 315.988 374.996 316.474 370.981 315.885Z" fill="#F4C2C9"/>
<path d="M383.228 318.073C382.702 318.639 382.146 319.178 381.562 319.687C380.972 320.208 379.145 318.594 376.567 318.906C373.989 319.219 373.184 320.208 373.184 320.208C372.588 320.092 372.022 319.862 371.519 319.531C371.469 320.833 371.197 322.118 370.713 323.333C369.907 325.365 365.825 331.302 365.825 332.448C365.825 333.594 366.094 334.479 366.953 334.844C367.812 335.208 373.506 335.26 378.286 335.365C383.066 335.469 386.772 335.729 387.31 333.906C387.847 332.083 385.645 326.406 384.731 322.917C383.818 319.427 383.979 318.125 383.228 318.073Z" fill="#22272E"/>
<path d="M382.422 327.708C382.422 327.708 376.675 324.74 371.196 327.708" stroke="white" stroke-width="1.8" stroke-linecap="round" stroke-linejoin="round"/>
<path d="M381.348 324.792C378.363 323.969 375.201 323.969 372.217 324.792" stroke="white" stroke-width="1.8" stroke-linecap="round" stroke-linejoin="round"/>
<path d="M314.155 313.646C320.278 315.677 326.616 314.427 326.563 314.479C326.777 311.562 327.046 308.49 327.046 308.49C326.24 306.667 314.692 305.833 314.585 306.615C314.585 307.031 314.37 310.469 314.155 313.646Z" fill="#22272E"/>
<path d="M313.833 319.167C313.833 319.167 314.639 321.615 318.13 322.865C321.621 324.115 326.079 320.729 326.133 319.74C326.187 319.323 326.348 316.927 326.562 314.479C326.562 314.427 320.278 315.677 314.155 313.646C313.994 316.51 313.833 319.167 313.833 319.167Z" fill="#F4C2C9"/>
<path d="M326.24 319.01C326.616 319.01 326.885 319.531 327.1 322.812C327.315 326.094 328.389 333.333 327.1 334.427C325.811 335.521 300.083 335.208 297.129 335C294.175 334.792 292.563 332.917 293.477 331.667C294.39 330.417 300.728 328.125 306.313 324.479C311.899 320.833 313.242 320.052 313.887 319.167C313.887 319.167 313.564 316.198 315.23 316.667C316.895 317.135 318.023 320.99 320.171 321.51C322.319 322.031 322.588 318.802 326.24 319.01Z" fill="#22272E"/>
<path d="M305.078 324.583C305.078 324.583 306.528 324.167 309.805 327.552" stroke="white" stroke-width="1.8" stroke-linecap="round" stroke-linejoin="round"/>
<path d="M308.623 322.344C308.623 322.344 311.201 322.24 314.155 325.937" stroke="white" stroke-width="1.8" stroke-linecap="round" stroke-linejoin="round"/>
<path d="M380.811 315.208L380.488 313.125" stroke="#63737A" stroke-width="1.8" stroke-linecap="round" stroke-linejoin="round"/>
<path d="M377.104 315.99L376.782 313.906" stroke="#63737A" stroke-width="1.8" stroke-linecap="round" stroke-linejoin="round"/>
<path d="M373.022 316.146L372.646 314.271" stroke="#63737A" stroke-width="1.8" stroke-linecap="round" stroke-linejoin="round"/>
<path d="M324.144 314.74L324.307 312.552" stroke="#63737A" stroke-width="1.8" stroke-linecap="round" stroke-linejoin="round"/>
<path d="M319.686 314.687L319.849 312.292" stroke="#63737A" stroke-width="1.8" stroke-linecap="round" stroke-linejoin="round"/>
<path d="M315.658 314.063L315.82 311.823" stroke="#63737A" stroke-width="1.8" stroke-linecap="round" stroke-linejoin="round"/>
<path d="M384.409 193.437C385.328 197.547 385.832 201.733 385.913 205.937C386.074 213.073 380.327 235.417 378.232 242.969C376.138 250.521 376.567 251.719 376.89 253.177C377.212 254.635 380.435 266.198 381.509 278.177C382.583 290.156 386.45 299.792 386.021 303.49C385.43 308.49 383.228 309.948 382.314 310.521C381.401 311.094 373.882 313.437 368.779 312.292C368.779 312.292 363.355 308.958 362.334 304.271C361.314 299.583 361.904 293.906 358.413 278.594C354.922 263.281 353.311 256.979 352.827 250.885C352.559 247.24 352.505 236.823 352.451 228.854C352.398 223.437 352.398 219.115 352.344 218.698C352.183 217.656 349.551 218.854 348.154 215.521C347.564 214.01 347.241 211.146 347.188 208.073C347.08 204.167 347.349 199.896 347.886 197.552C348.745 193.229 383.55 188.854 384.409 193.437Z" fill="#22272E"/>
<path d="M310.718 304.427C311.631 306.615 313.296 309.115 314.8 309.687C316.304 310.26 323.071 311.146 326.509 310.833C326.509 310.833 332.256 309.219 332.847 305C333.438 300.781 332.417 296.094 334.351 286.615C336.284 277.135 337.949 260.365 338.433 255.417C338.916 250.469 349.443 235.729 354.385 226.823C359.326 217.917 364.644 201.615 360.239 197.813C355.835 194.01 340.098 192.292 335.425 195.365C335.425 195.365 330 208.177 324.575 223.49C319.58 237.552 318.56 242.292 317.861 246.354C317.816 246.723 317.744 247.089 317.647 247.448C317.432 248.698 317.163 251.927 316.787 256.094C315.928 266.667 314.907 283.073 314.478 286.823C313.887 292.031 309.805 302.24 310.718 304.427Z" fill="#22272E"/>
<path d="M355.352 219.479C351.856 218.258 348.264 217.317 344.609 216.667" stroke="#63737A" stroke-width="1.8" stroke-linecap="round" stroke-linejoin="round"/>
<path d="M355.64 257.131C354.845 253.353 357.311 249.675 361.148 248.916C364.986 248.157 368.741 250.603 369.536 254.381C370.331 258.158 367.865 261.836 364.027 262.595C360.19 263.354 356.435 260.908 355.64 257.131Z" stroke="#63737A" stroke-width="1.80036" stroke-linecap="round" stroke-linejoin="round"/>
<path d="M316.787 256.042C317.443 256.84 318.276 257.484 319.225 257.926C320.174 258.368 321.213 258.596 322.266 258.594C324.16 258.601 325.98 257.878 327.325 256.583C328.669 255.289 329.429 253.53 329.436 251.693C329.443 249.856 328.697 248.091 327.363 246.787C326.028 245.483 324.214 244.747 322.319 244.74C320.691 244.74 319.114 245.293 317.861 246.302" stroke="#63737A" stroke-width="1.8" stroke-linecap="round" stroke-linejoin="round"/>
<path d="M383.174 218.073C381.273 216.376 379.757 214.314 378.722 212.019C377.686 209.724 377.154 207.245 377.158 204.74C379.178 204.629 381.188 204.386 383.174 204.01" stroke="#63737A" stroke-width="1.8" stroke-linecap="round" stroke-linejoin="round"/>
<path d="M352.451 228.854C352.397 223.438 352.397 219.115 352.344 218.698C352.183 217.656 349.551 218.854 348.154 215.521C347.563 214.01 347.241 211.146 347.187 208.073" stroke="#63737A" stroke-width="1.8" stroke-linecap="round" stroke-linejoin="round"/>
<path d="M336.606 133.802C336.606 133.802 332.202 134.01 325.112 147.76C318.022 161.51 315.498 166.458 315.498 166.458C315.498 166.458 310.825 165.365 303.198 164.167C295.571 162.969 284.829 161.458 284.829 161.458C284.829 161.458 281.929 161.51 280.693 165.521C280.379 166.536 280.332 167.612 280.557 168.649C280.782 169.686 281.272 170.652 281.982 171.458C282.25 171.785 282.602 172.037 283.003 172.188C286.279 173.542 305.4 181.354 311.899 182.708C319.043 184.167 322.534 183.958 328.872 175.521C335.21 167.083 340.205 160.521 342.515 157.135C344.824 153.594 346.489 134.323 336.606 133.802Z" fill="#414141"/>
<path d="M324.521 180.313C324.521 180.313 324.897 177.552 319.365 177.552C313.833 177.552 310.986 181.563 312.329 182.708" stroke="#22272E" stroke-width="1.8" stroke-linecap="round" stroke-linejoin="round"/>
<path d="M315.498 166.406C315.498 166.406 317.808 167.448 318.291 169.01" stroke="#22272E" stroke-width="1.8" stroke-linecap="round" stroke-linejoin="round"/>
<path d="M284.561 161.875C284.561 161.875 282.197 161.042 281.606 160.729C281.016 160.417 279.727 158.229 278.652 156.875C277.578 155.521 274.517 154.74 273.657 154.896C273.424 154.926 273.199 155.002 272.996 155.118C272.793 155.234 272.616 155.389 272.476 155.573C272.476 155.573 269.79 154.635 267.964 153.906C266.138 153.177 262.754 151.562 262.271 152.865C262.002 153.646 264.097 154.792 265.547 155.573C267.319 156.563 268.501 157.292 268.501 157.292C268.22 157.453 267.978 157.671 267.792 157.932C267.607 158.193 267.482 158.49 267.427 158.802C267.212 159.896 266.621 161.094 267.695 162.76C268.018 163.229 266.782 164.531 267.749 165.729C269.414 167.656 273.442 168.646 275.591 169.271C277.739 169.896 282.788 170.208 282.788 170.208C282.788 170.208 284.399 169.844 285.098 166.458C285.796 163.073 284.561 161.875 284.561 161.875Z" fill="#F4C2C9"/>
<path d="M272.476 155.573C272.476 155.573 272.1 156.51 271.67 157.917C271.24 159.323 270.918 160.417 272.046 160.469C273.174 160.521 274.194 158.854 274.624 158.021" stroke="#E26E85" stroke-width="1.8" stroke-linecap="round" stroke-linejoin="round"/>
<path d="M273.872 159.219C273.872 159.219 272.637 161.615 275.483 163.698" stroke="#E26E85" stroke-width="1.8" stroke-linecap="round" stroke-linejoin="round"/>
<path d="M268.447 157.292L271.455 158.646" stroke="#E26E85" stroke-width="1.8" stroke-linecap="round" stroke-linejoin="round"/>
<path d="M272.959 160.156C272.959 160.156 273.496 160.99 272.959 161.458C272.422 161.927 269.468 160.885 267.319 159.688" stroke="#E26E85" stroke-width="1.8" stroke-linecap="round" stroke-linejoin="round"/>
<path d="M272.476 161.562C272.727 161.692 272.918 161.91 273.008 162.172C273.098 162.434 273.08 162.719 272.959 162.969C272.529 163.906 270.22 163.542 267.695 162.76" stroke="#E26E85" stroke-width="1.8" stroke-linecap="round" stroke-linejoin="round"/>
<path d="M271.992 163.542C271.992 163.542 273.335 163.698 272.637 165C272.207 165.781 269.629 165.521 269.092 165.729" stroke="#E26E85" stroke-width="1.8" stroke-linecap="round" stroke-linejoin="round"/>
<path d="M287.676 162.344C288.105 163.073 288.642 164.479 288.267 166.979C288.161 168.058 287.807 169.1 287.231 170.029C286.655 170.957 285.87 171.749 284.936 172.344" stroke="#22272E" stroke-width="1.8" stroke-linecap="round" stroke-linejoin="round"/>
<path d="M354.009 114.74C354.009 114.74 355.727 123.125 356.694 125.417C357.661 127.708 352.397 131.302 347.134 131.51C341.87 131.719 342.407 128.75 342.407 128.75L340.849 120.417C340.849 120.469 352.129 112.813 354.009 114.74Z" fill="#F4C2C9"/>
<path d="M351.646 117.24C352.398 123.594 347.671 126.667 342.407 129.063V128.75L341.548 124.323C345.469 123.073 348.906 120.365 351.646 117.24Z" fill="#E26E85"/>
<path d="M376.567 131.562C375.386 128.177 370.874 126.146 367.222 126.458C363.462 126.771 356.265 126.875 349.336 128.958C337.519 132.5 334.673 134.583 333.975 135.208C330.054 138.854 330.43 144.271 332.685 159.219C334.136 169.062 335.371 171.562 335.049 176.406C334.726 181.25 333.813 189.844 333.223 191.615C332.632 193.385 334.136 196.458 335.425 197.552C336.714 198.646 347.134 200.937 356.802 200.729C366.47 200.521 381.67 197.969 384.087 196.406C386.504 194.844 388.223 192.135 387.685 189.792C387.018 186.209 386.157 182.662 385.107 179.167C383.603 174.219 383.496 167.76 381.133 157.396C379.307 149.74 379.038 138.646 376.567 131.562Z" fill="#FFD600"/>
<path d="M333.068 120.39C331.768 119.76 330.973 118.748 331.291 118.131C331.61 117.513 332.922 117.524 334.222 118.155C335.522 118.785 336.317 119.797 335.999 120.414C335.68 121.032 334.368 121.021 333.068 120.39Z" fill="#FFE779"/>
<path d="M324.208 126.235C322.908 125.604 322.113 124.592 322.431 123.975C322.75 123.358 324.062 123.368 325.362 123.999C326.662 124.63 327.457 125.641 327.139 126.259C326.82 126.876 325.508 126.866 324.208 126.235Z" fill="#FFE779"/>
<path d="M343.917 125.663C342.617 125.033 341.821 124.021 342.14 123.404C342.459 122.786 343.771 122.797 345.071 123.428C346.37 124.058 347.166 125.07 346.847 125.687C346.529 126.305 345.217 126.294 343.917 125.663Z" fill="#FFE779"/>
<path d="M335.007 131.484C333.707 130.853 332.911 129.842 333.23 129.224C333.548 128.607 334.86 128.618 336.16 129.248C337.46 129.879 338.256 130.891 337.937 131.508C337.619 132.125 336.307 132.115 335.007 131.484Z" fill="#FFE779"/>
<path d="M324.907 136.227C323.607 135.596 322.811 134.584 323.13 133.967C323.448 133.35 324.76 133.36 326.06 133.991C327.36 134.622 328.156 135.633 327.837 136.251C327.518 136.868 326.206 136.857 324.907 136.227Z" fill="#FFE779"/>
<path d="M316.046 142.071C314.746 141.441 313.951 140.429 314.269 139.811C314.588 139.194 315.9 139.205 317.2 139.835C318.5 140.466 319.295 141.478 318.977 142.095C318.658 142.713 317.346 142.702 316.046 142.071Z" fill="#FFE779"/>
<path d="M335.75 141.498C334.45 140.867 333.655 139.855 333.973 139.238C334.292 138.62 335.604 138.631 336.904 139.262C338.204 139.892 338.999 140.904 338.681 141.522C338.362 142.139 337.05 142.128 335.75 141.498Z" fill="#FFE779"/>
<path d="M326.835 147.318C325.535 146.687 324.739 145.676 325.058 145.058C325.376 144.441 326.688 144.452 327.988 145.082C329.288 145.713 330.084 146.725 329.765 147.342C329.447 147.959 328.135 147.949 326.835 147.318Z" fill="#FFE779"/>
<path d="M354.705 130.91C353.406 130.28 352.61 129.268 352.929 128.65C353.247 128.033 354.559 128.044 355.859 128.674C357.159 129.305 357.954 130.317 357.636 130.934C357.317 131.552 356.005 131.541 354.705 130.91Z" fill="#FFE779"/>
<path d="M345.845 136.755C344.545 136.124 343.75 135.112 344.068 134.495C344.387 133.878 345.699 133.888 346.999 134.519C348.299 135.15 349.094 136.161 348.776 136.779C348.457 137.396 347.145 137.385 345.845 136.755Z" fill="#FFE779"/>
<path d="M365.573 136.135C364.273 135.505 363.478 134.493 363.796 133.875C364.115 133.258 365.427 133.269 366.727 133.899C368.027 134.53 368.822 135.542 368.504 136.159C368.185 136.777 366.873 136.766 365.573 136.135Z" fill="#FFE779"/>
<path d="M356.663 141.956C355.363 141.325 354.568 140.313 354.886 139.696C355.205 139.078 356.517 139.089 357.817 139.72C359.117 140.351 359.912 141.362 359.594 141.98C359.275 142.597 357.963 142.586 356.663 141.956Z" fill="#FFE779"/>
<path d="M346.568 146.698C345.268 146.068 344.473 145.056 344.791 144.439C345.11 143.821 346.422 143.832 347.722 144.463C349.022 145.093 349.817 146.105 349.499 146.722C349.18 147.34 347.868 147.329 346.568 146.698Z" fill="#FFE779"/>
<path d="M337.681 152.596C336.381 151.965 335.585 150.953 335.904 150.336C336.222 149.719 337.534 149.729 338.834 150.36C340.134 150.991 340.93 152.002 340.611 152.62C340.293 153.237 338.981 153.226 337.681 152.596Z" fill="#FFE779"/>
<path d="M357.409 151.976C356.109 151.346 355.314 150.334 355.632 149.716C355.951 149.099 357.263 149.11 358.563 149.74C359.863 150.371 360.658 151.383 360.34 152C360.021 152.618 358.709 152.607 357.409 151.976Z" fill="#FFE779"/>
<path d="M348.499 157.797C347.199 157.166 346.404 156.154 346.722 155.537C347.041 154.919 348.353 154.93 349.653 155.561C350.953 156.192 351.748 157.203 351.43 157.821C351.111 158.438 349.799 158.427 348.499 157.797Z" fill="#FFE779"/>
<path d="M316.522 152.476C315.222 151.845 314.426 150.833 314.745 150.216C315.064 149.598 316.376 149.609 317.676 150.24C318.975 150.871 319.771 151.882 319.452 152.5C319.134 153.117 317.822 153.106 316.522 152.476Z" fill="#FFE779"/>
<path d="M307.657 158.318C306.357 157.687 305.561 156.675 305.88 156.058C306.198 155.441 307.51 155.451 308.81 156.082C310.11 156.713 310.906 157.724 310.587 158.342C310.269 158.959 308.957 158.948 307.657 158.318Z" fill="#FFE779"/>
<path d="M327.39 157.701C326.09 157.07 325.294 156.058 325.613 155.441C325.931 154.823 327.243 154.834 328.543 155.465C329.843 156.095 330.639 157.107 330.32 157.725C330.002 158.342 328.69 158.331 327.39 157.701Z" fill="#FFE779"/>
<path d="M318.475 163.524C317.175 162.893 316.38 161.881 316.698 161.264C317.017 160.647 318.329 160.657 319.629 161.288C320.929 161.919 321.724 162.93 321.406 163.548C321.087 164.165 319.775 164.154 318.475 163.524Z" fill="#FFE779"/>
<path d="M308.355 168.31C307.055 167.679 306.26 166.667 306.578 166.05C306.897 165.432 308.209 165.443 309.509 166.074C310.809 166.705 311.604 167.716 311.286 168.334C310.967 168.951 309.655 168.94 308.355 168.31Z" fill="#FFE779"/>
<path d="M299.495 174.154C298.195 173.524 297.4 172.512 297.718 171.894C298.037 171.277 299.349 171.288 300.649 171.918C301.948 172.549 302.744 173.561 302.425 174.178C302.107 174.796 300.795 174.785 299.495 174.154Z" fill="#FFE779"/>
<path d="M319.223 173.535C317.923 172.904 317.128 171.892 317.446 171.275C317.765 170.657 319.077 170.668 320.377 171.299C321.677 171.929 322.472 172.941 322.154 173.559C321.835 174.176 320.523 174.165 319.223 173.535Z" fill="#FFE779"/>
<path d="M310.313 179.355C309.013 178.724 308.218 177.713 308.536 177.095C308.855 176.478 310.167 176.489 311.467 177.119C312.766 177.75 313.562 178.762 313.243 179.379C312.925 179.997 311.613 179.986 310.313 179.355Z" fill="#FFE779"/>
<path d="M338.184 162.947C336.884 162.317 336.088 161.305 336.407 160.688C336.726 160.07 338.038 160.081 339.337 160.712C340.637 161.342 341.433 162.354 341.114 162.971C340.796 163.589 339.484 163.578 338.184 162.947Z" fill="#FFE779"/>
<path d="M329.318 168.792C328.018 168.161 327.222 167.149 327.541 166.532C327.86 165.915 329.172 165.925 330.472 166.556C331.771 167.187 332.567 168.198 332.248 168.816C331.93 169.433 330.618 169.422 329.318 168.792Z" fill="#FFE779"/>
<path d="M349.027 168.22C347.727 167.59 346.931 166.578 347.25 165.961C347.569 165.343 348.881 165.354 350.181 165.985C351.48 166.615 352.276 167.627 351.957 168.244C351.639 168.862 350.327 168.851 349.027 168.22Z" fill="#FFE779"/>
<path d="M340.112 174.044C338.812 173.413 338.017 172.401 338.335 171.784C338.654 171.167 339.966 171.177 341.266 171.808C342.566 172.439 343.361 173.45 343.043 174.068C342.724 174.685 341.412 174.674 340.112 174.044Z" fill="#FFE779"/>
<path d="M330.017 178.784C328.717 178.153 327.921 177.141 328.24 176.524C328.558 175.906 329.87 175.917 331.17 176.548C332.47 177.179 333.266 178.19 332.947 178.808C332.628 179.425 331.316 179.414 330.017 178.784Z" fill="#FFE779"/>
<path d="M321.149 184.63C319.849 184 319.053 182.988 319.372 182.371C319.69 181.753 321.002 181.764 322.302 182.395C323.602 183.025 324.398 184.037 324.079 184.655C323.761 185.272 322.449 185.261 321.149 184.63Z" fill="#FFE779"/>
<path d="M331.95 189.875C330.65 189.244 329.855 188.233 330.173 187.615C330.492 186.998 331.804 187.008 333.104 187.639C334.404 188.27 335.199 189.282 334.881 189.899C334.562 190.516 333.25 190.506 331.95 189.875Z" fill="#FFE779"/>
<path d="M376.477 141.436C375.177 140.805 374.381 139.793 374.7 139.176C375.018 138.559 376.33 138.569 377.63 139.2C378.93 139.831 379.726 140.843 379.407 141.46C379.088 142.077 377.776 142.067 376.477 141.436Z" fill="#FFE779"/>
<path d="M367.609 147.283C366.309 146.652 365.513 145.64 365.832 145.023C366.15 144.405 367.462 144.416 368.762 145.047C370.062 145.677 370.858 146.689 370.539 147.307C370.221 147.924 368.909 147.913 367.609 147.283Z" fill="#FFE779"/>
<path d="M387.27 146.688C385.97 146.057 385.175 145.045 385.493 144.428C385.812 143.811 387.124 143.821 388.424 144.452C389.724 145.083 390.519 146.094 390.201 146.712C389.882 147.329 388.57 147.319 387.27 146.688Z" fill="#FFE779"/>
<path d="M378.402 152.537C377.102 151.906 376.307 150.895 376.625 150.277C376.944 149.66 378.256 149.671 379.556 150.301C380.856 150.932 381.651 151.944 381.333 152.561C381.014 153.178 379.702 153.168 378.402 152.537Z" fill="#FFE779"/>
<path d="M368.307 157.275C367.007 156.644 366.212 155.632 366.53 155.015C366.849 154.397 368.161 154.408 369.461 155.039C370.761 155.669 371.556 156.681 371.238 157.299C370.919 157.916 369.607 157.905 368.307 157.275Z" fill="#FFE779"/>
<path d="M359.397 163.1C358.097 162.47 357.302 161.458 357.62 160.84C357.939 160.223 359.251 160.234 360.551 160.864C361.851 161.495 362.646 162.507 362.328 163.124C362.009 163.742 360.697 163.731 359.397 163.1Z" fill="#FFE779"/>
<path d="M379.101 162.524C377.801 161.893 377.005 160.881 377.324 160.264C377.642 159.646 378.955 159.657 380.254 160.288C381.554 160.919 382.35 161.93 382.031 162.548C381.713 163.165 380.401 163.154 379.101 162.524Z" fill="#FFE779"/>
<path d="M370.24 168.368C368.94 167.737 368.145 166.726 368.463 166.108C368.782 165.491 370.094 165.502 371.394 166.132C372.694 166.763 373.489 167.775 373.171 168.392C372.852 169.01 371.54 168.999 370.24 168.368Z" fill="#FFE779"/>
<path d="M398.111 151.96C396.811 151.33 396.016 150.318 396.334 149.701C396.653 149.083 397.965 149.094 399.265 149.725C400.565 150.355 401.36 151.367 401.042 151.984C400.723 152.602 399.411 152.591 398.111 151.96Z" fill="#FFE779"/>
<path d="M389.199 157.779C387.899 157.148 387.103 156.137 387.422 155.519C387.74 154.902 389.052 154.913 390.352 155.543C391.652 156.174 392.448 157.186 392.129 157.803C391.81 158.42 390.498 158.41 389.199 157.779Z" fill="#FFE779"/>
<path d="M408.929 157.167C407.629 156.536 406.834 155.524 407.152 154.907C407.471 154.289 408.783 154.3 410.083 154.931C411.383 155.561 412.178 156.573 411.86 157.191C411.541 157.808 410.229 157.797 408.929 157.167Z" fill="#FFE779"/>
<path d="M400.039 163.057C398.739 162.426 397.944 161.414 398.262 160.797C398.581 160.18 399.893 160.19 401.193 160.821C402.493 161.452 403.288 162.464 402.97 163.081C402.651 163.698 401.339 163.688 400.039 163.057Z" fill="#FFE779"/>
<path d="M389.944 167.795C388.645 167.164 387.849 166.152 388.168 165.535C388.486 164.917 389.798 164.928 391.098 165.559C392.398 166.189 393.193 167.201 392.875 167.819C392.556 168.436 391.244 168.425 389.944 167.795Z" fill="#FFE779"/>
<path d="M381.034 173.62C379.734 172.989 378.939 171.978 379.257 171.36C379.576 170.743 380.888 170.754 382.188 171.384C383.488 172.015 384.283 173.027 383.965 173.644C383.646 174.262 382.334 174.251 381.034 173.62Z" fill="#FFE779"/>
<path d="M400.763 172.995C399.463 172.365 398.667 171.353 398.986 170.736C399.304 170.118 400.616 170.129 401.916 170.76C403.216 171.39 404.012 172.402 403.693 173.019C403.374 173.637 402.062 173.626 400.763 172.995Z" fill="#FFE779"/>
<path d="M391.902 178.845C390.602 178.214 389.807 177.203 390.125 176.585C390.444 175.968 391.756 175.979 393.056 176.609C394.356 177.24 395.151 178.252 394.833 178.869C394.514 179.486 393.202 179.476 391.902 178.845Z" fill="#FFE779"/>
<path d="M370.714 178.771C369.414 178.14 368.618 177.128 368.937 176.511C369.256 175.894 370.568 175.904 371.867 176.535C373.167 177.166 373.963 178.177 373.644 178.795C373.326 179.412 372.014 179.401 370.714 178.771Z" fill="#FFE779"/>
<path d="M342.846 195.183C341.546 194.552 340.751 193.541 341.069 192.923C341.388 192.306 342.7 192.317 344 192.947C345.299 193.578 346.095 194.59 345.776 195.207C345.458 195.825 344.146 195.814 342.846 195.183Z" fill="#FFE779"/>
<path d="M362.579 194.566C361.279 193.935 360.484 192.923 360.802 192.306C361.121 191.689 362.433 191.699 363.733 192.33C365.033 192.961 365.828 193.973 365.51 194.59C365.191 195.207 363.879 195.197 362.579 194.566Z" fill="#FFE779"/>
<path d="M353.689 200.456C352.389 199.826 351.594 198.814 351.912 198.196C352.231 197.579 353.543 197.59 354.843 198.22C356.143 198.851 356.938 199.863 356.62 200.48C356.301 201.098 354.989 201.087 353.689 200.456Z" fill="#FFE779"/>
<path d="M381.579 184C380.279 183.37 379.484 182.358 379.802 181.741C380.121 181.123 381.433 181.134 382.733 181.765C384.033 182.395 384.828 183.407 384.51 184.024C384.191 184.642 382.879 184.631 381.579 184Z" fill="#FFE779"/>
<path d="M372.671 189.816C371.372 189.185 370.576 188.174 370.895 187.556C371.213 186.939 372.525 186.95 373.825 187.58C375.125 188.211 375.92 189.223 375.602 189.84C375.283 190.458 373.971 190.447 372.671 189.816Z" fill="#FFE779"/>
<path d="M392.378 189.25C391.078 188.619 390.283 187.607 390.601 186.99C390.92 186.372 392.232 186.383 393.532 187.014C394.831 187.644 395.627 188.656 395.308 189.274C394.99 189.891 393.678 189.88 392.378 189.25Z" fill="#FFE779"/>
<path d="M383.518 195.094C382.218 194.463 381.422 193.451 381.741 192.834C382.059 192.217 383.371 192.227 384.671 192.858C385.971 193.489 386.767 194.5 386.448 195.118C386.13 195.735 384.818 195.725 383.518 195.094Z" fill="#FFE779"/>
<path d="M373.417 199.832C372.117 199.201 371.322 198.189 371.64 197.572C371.959 196.954 373.271 196.965 374.571 197.596C375.871 198.226 376.666 199.238 376.348 199.856C376.029 200.473 374.717 200.462 373.417 199.832Z" fill="#FFE779"/>
<path d="M364.507 205.657C363.207 205.026 362.412 204.015 362.73 203.397C363.049 202.78 364.361 202.791 365.661 203.421C366.961 204.052 367.756 205.064 367.438 205.681C367.119 206.299 365.807 206.288 364.507 205.657Z" fill="#FFE779"/>
<path d="M384.216 205.086C382.916 204.455 382.121 203.443 382.439 202.826C382.758 202.209 384.07 202.219 385.37 202.85C386.67 203.481 387.465 204.492 387.147 205.11C386.828 205.727 385.516 205.716 384.216 205.086Z" fill="#FFE779"/>
<path d="M375.346 210.928C374.046 210.297 373.25 209.286 373.569 208.668C373.887 208.051 375.199 208.062 376.499 208.692C377.799 209.323 378.595 210.335 378.276 210.952C377.958 211.569 376.646 211.559 375.346 210.928Z" fill="#FFE779"/>
<path d="M361.797 169.74C355.824 170.962 349.746 171.642 343.643 171.771C343.245 171.781 342.865 171.928 342.57 172.186C342.274 172.444 342.083 172.795 342.031 173.177C341.736 175.28 340.779 177.244 339.292 178.802C339.153 178.939 339.043 179.102 338.969 179.281C338.896 179.46 338.859 179.651 338.862 179.844C338.809 182.031 338.701 189.427 340.205 190.573C341.924 191.823 360.186 192.969 371.519 189.896C371.879 189.807 372.2 189.606 372.433 189.324C372.665 189.042 372.797 188.694 372.808 188.333C372.754 186.198 372.646 181.719 372.271 178.906C372.218 178.627 372.098 178.363 371.921 178.137C371.744 177.911 371.514 177.728 371.25 177.604C369.478 176.823 365.396 174.74 363.945 170.833C363.772 170.439 363.464 170.114 363.072 169.915C362.681 169.716 362.23 169.654 361.797 169.74V169.74Z" stroke="#FFE779" stroke-width="1.8" stroke-linecap="round" stroke-linejoin="round"/>
<path d="M357.393 124.167C357.337 124.048 357.254 123.945 357.149 123.864C357.044 123.783 356.921 123.728 356.79 123.703C356.659 123.677 356.523 123.682 356.395 123.718C356.266 123.753 356.148 123.818 356.05 123.906C355.029 124.948 352.827 126.51 348.852 127.24C342.783 128.333 342.192 127.448 342.192 127.448C342.192 127.448 341.226 127.76 341.118 128.542C341.086 129.805 341.231 131.066 341.548 132.292C341.87 133.281 346.382 133.385 349.98 132.656C353.16 132.091 356.095 130.623 358.413 128.437C358.596 128.266 358.72 128.044 358.768 127.802C358.816 127.559 358.786 127.308 358.682 127.083C358.359 126.302 357.822 125.156 357.393 124.167Z" fill="#414141"/>
<path d="M330.913 104.844C330.861 107.076 331.225 109.299 331.987 111.406C333.062 114.115 334.834 121.667 338.325 124.115C341.816 126.563 349.443 126.094 352.774 119.792C356.104 113.49 355.029 106.875 353.311 101.563C351.592 96.25 344.502 94.323 338.325 96.5105C332.149 98.698 330.913 102.5 330.913 104.844Z" fill="#F4C2C9"/>
<path d="M353.472 108.49C353.105 108.955 352.799 109.463 352.559 110C352.075 111.094 351.055 110.469 350.679 108.49C350.303 106.51 349.443 105.104 348.799 105.208C347.971 105.4 347.101 105.314 346.33 104.964C345.559 104.614 344.934 104.021 344.556 103.281C343.213 100.885 342.622 101.25 342.622 101.25C342.622 101.25 341.548 98.75 338.755 102.344C335.962 105.938 334.189 108.75 330.859 108.177C327.529 107.604 324.575 102.344 327.1 97.2917C329.624 92.2396 337.573 91.0417 343.481 92.5521C349.39 94.0625 352.451 92.8125 355.996 95.7292C359.541 98.6459 358.682 101.719 358.896 105.156C359.111 108.594 360.938 110.417 358.521 113.49C356.104 116.563 356.748 119.427 355.405 121.146C355.405 121.146 353.955 116.615 354.116 113.333C354.277 110.052 353.472 108.49 353.472 108.49Z" fill="#22272E"/>
<path d="M337.519 111.354C337.558 112.664 338.115 113.908 339.075 114.83C340.036 115.751 341.325 116.279 342.676 116.302C343.348 116.297 344.013 116.161 344.631 115.903C345.249 115.644 345.807 115.269 346.272 114.798C346.738 114.327 347.102 113.77 347.342 113.161C347.582 112.552 347.694 111.902 347.671 111.25C347.675 110.576 347.542 109.908 347.28 109.284C347.018 108.66 346.631 108.092 346.142 107.613C345.653 107.134 345.071 106.754 344.431 106.493C343.79 106.232 343.102 106.096 342.407 106.094C341.727 106.12 341.06 106.278 340.444 106.558C339.828 106.839 339.276 107.236 338.821 107.726C338.365 108.216 338.016 108.789 337.792 109.412C337.569 110.036 337.476 110.696 337.519 111.354V111.354Z" stroke="#22272E" stroke-width="1.8" stroke-linecap="round" stroke-linejoin="round"/>
<path d="M329.235 114.439C328.489 111.953 329.338 109.528 331.132 109.021C332.926 108.514 334.986 110.118 335.733 112.604C336.479 115.089 335.63 117.515 333.836 118.022C332.042 118.528 329.982 116.924 329.235 114.439Z" stroke="#22272E" stroke-width="1.8" stroke-linecap="round" stroke-linejoin="round"/>
<path d="M335.64 112.448C335.64 112.448 335.693 111.406 337.573 111.979" stroke="#22272E" stroke-width="1.8" stroke-linecap="round" stroke-linejoin="round"/>
<path d="M347.241 109.115L353.472 108.021" stroke="#22272E" stroke-width="1.8" stroke-linecap="round" stroke-linejoin="round"/>
<path d="M352.935 109.427C352.935 109.427 353.418 106.667 355.728 106.615C358.037 106.562 359.434 113.437 353.687 114.375" fill="#F4C2C9"/>
<path d="M356.104 108.75C355.836 108.684 355.554 108.698 355.295 108.791C355.035 108.884 354.812 109.051 354.653 109.271C354.501 109.542 354.427 109.848 354.438 110.156C354.438 110.313 354.492 110.417 354.492 110.573C354.492 110.729 354.546 110.781 354.546 110.885C354.588 111.056 354.606 111.231 354.6 111.406C354.611 111.471 354.607 111.537 354.589 111.6C354.57 111.664 354.537 111.722 354.492 111.771C354.203 112.075 353.857 112.322 353.472 112.5C353.727 112.589 353.999 112.621 354.269 112.594C354.539 112.567 354.798 112.482 355.029 112.344C355.287 112.153 355.46 111.873 355.513 111.563C355.55 111.284 355.532 111.001 355.459 110.729C355.405 110.625 355.405 110.469 355.352 110.365C355.298 110.26 355.298 110.208 355.298 110.104C355.244 109.97 355.244 109.822 355.298 109.688C355.356 109.485 355.458 109.296 355.597 109.135C355.736 108.973 355.908 108.842 356.104 108.75Z" fill="#22272E"/>
<path d="M336.392 111.615C336.355 112.202 336.228 112.782 336.016 113.333C335.923 113.575 335.796 113.803 335.64 114.01C335.414 114.268 335.249 114.57 335.156 114.896C335.07 115.244 335.064 115.607 335.138 115.958C335.213 116.309 335.365 116.64 335.586 116.927C335.782 117.204 336.039 117.435 336.338 117.604C336.622 117.792 336.962 117.884 337.305 117.865C336.829 117.526 336.473 117.053 336.284 116.51C336.075 116.071 336.019 115.578 336.123 115.104C336.218 114.864 336.344 114.636 336.499 114.427C336.663 114.117 336.772 113.783 336.821 113.438C336.845 112.804 336.697 112.175 336.392 111.615Z" fill="#22272E"/>
<path d="M341.763 119.896C342.514 119.869 343.244 119.641 343.869 119.236C344.495 118.832 344.993 118.267 345.308 117.604" stroke="#22272E" stroke-width="1.8" stroke-linecap="round" stroke-linejoin="round"/>
<path d="M343.965 112.344C344.067 112.32 344.164 112.277 344.249 112.217C344.334 112.157 344.406 112.081 344.461 111.994C344.516 111.907 344.552 111.81 344.569 111.709C344.585 111.608 344.581 111.505 344.556 111.406L344.341 110.625C344.316 110.526 344.272 110.432 344.21 110.35C344.148 110.267 344.07 110.197 343.98 110.144C343.89 110.091 343.79 110.055 343.686 110.04C343.582 110.024 343.476 110.028 343.374 110.052C343.272 110.076 343.175 110.119 343.09 110.179C343.005 110.239 342.933 110.315 342.878 110.402C342.823 110.489 342.787 110.586 342.77 110.687C342.754 110.788 342.758 110.89 342.783 110.99L342.998 111.771C343.023 111.87 343.067 111.964 343.129 112.046C343.191 112.129 343.269 112.199 343.359 112.252C343.449 112.305 343.548 112.341 343.652 112.356C343.756 112.372 343.863 112.368 343.965 112.344Z" fill="#22272E"/>
<path d="M335.425 114.479C335.527 114.455 335.624 114.412 335.709 114.352C335.794 114.292 335.866 114.216 335.921 114.129C335.976 114.042 336.012 113.945 336.028 113.845C336.045 113.744 336.04 113.641 336.016 113.542L335.801 112.76C335.776 112.661 335.732 112.568 335.67 112.485C335.608 112.403 335.53 112.333 335.44 112.28C335.35 112.226 335.25 112.191 335.146 112.175C335.042 112.159 334.936 112.163 334.834 112.188C334.732 112.211 334.635 112.255 334.55 112.315C334.465 112.375 334.393 112.45 334.338 112.537C334.283 112.625 334.246 112.721 334.23 112.822C334.214 112.923 334.218 113.026 334.243 113.125L334.458 113.906C334.482 114.006 334.527 114.099 334.589 114.182C334.651 114.264 334.729 114.334 334.819 114.387C334.909 114.44 335.008 114.476 335.112 114.492C335.216 114.507 335.322 114.503 335.425 114.479Z" fill="#22272E"/>
<path d="M341.816 108.75C342.407 108.854 342.676 108.073 343.535 108.125C344.878 108.177 345.63 108.438 345.737 107.865C345.791 107.448 344.77 106.667 343.481 106.615C341.601 106.615 340.742 108.594 341.816 108.75Z" fill="#22272E"/>
<path d="M335.425 110.313C335.049 110.625 334.512 110.052 333.974 110.417C333.169 110.885 332.9 111.302 332.632 110.938C332.363 110.573 332.632 109.688 333.384 109.219C334.619 108.385 336.23 109.74 335.425 110.313Z" fill="#22272E"/>
<path d="M403.1 197.396C403.462 198.135 403.698 198.927 403.799 199.74C403.799 200.625 403.047 208.802 403.262 210.417C403.476 212.031 404.013 215.208 404.336 215.677C404.658 216.146 406.592 214.688 406.645 209.792C406.699 204.896 408.418 198.177 406.968 197.396C405.517 196.615 403.53 196.771 403.1 197.396Z" fill="#F4C2C9"/>
<path d="M438.281 221.562L425.391 201.875C425.248 201.657 425.062 201.47 424.843 201.323C424.625 201.176 424.378 201.073 424.118 201.019C423.858 200.966 423.59 200.964 423.329 201.012C423.067 201.061 422.819 201.159 422.598 201.302L392.251 220C392.027 220.138 391.833 220.319 391.682 220.531C391.53 220.742 391.424 220.981 391.369 221.234C391.314 221.486 391.311 221.746 391.361 222C391.411 222.253 391.513 222.494 391.66 222.708L404.551 242.396C404.693 242.613 404.879 242.801 405.098 242.948C405.316 243.095 405.563 243.198 405.823 243.251C406.083 243.305 406.352 243.307 406.613 243.259C406.874 243.21 407.122 243.112 407.344 242.969L437.69 224.271C438.133 223.983 438.443 223.539 438.553 223.033C438.664 222.527 438.566 222 438.281 221.562Z" fill="#22272E"/>
<path d="M402.671 236.615L396.226 226.823C396.159 226.718 396.066 226.63 395.956 226.568C395.847 226.506 395.723 226.47 395.595 226.465C395.468 226.46 395.342 226.485 395.227 226.538C395.112 226.592 395.012 226.672 394.937 226.771L393.916 228.073C393.816 228.198 393.757 228.349 393.747 228.508C393.737 228.666 393.778 228.823 393.862 228.958L399.663 237.813C399.741 237.946 399.863 238.049 400.009 238.106C400.156 238.163 400.318 238.17 400.469 238.125L402.134 237.813C402.259 237.78 402.375 237.721 402.473 237.639C402.572 237.557 402.649 237.455 402.701 237.339C402.753 237.224 402.777 237.099 402.772 236.974C402.766 236.848 402.732 236.725 402.671 236.615Z" fill="#414141"/>
<path d="M404.551 196.875C404.551 196.875 404.873 205.937 404.927 207.865C404.98 209.792 404.873 213.594 405.356 215.417C405.84 217.24 406.645 221.823 408.096 222.135C409.546 222.448 407.988 216.51 407.988 215.365C408.106 214.049 408.321 212.744 408.633 211.458C408.633 211.458 409.17 214.323 409.546 215.573C409.922 216.823 412.392 220.729 413.359 220.573C414.326 220.417 413.144 217.5 412.392 215.729C411.694 214.115 411.426 210.729 411.426 210.729C411.844 211.764 412.329 212.773 412.876 213.75C413.52 214.792 415.722 218.021 416.636 217.865C417.549 217.708 416.045 214.427 415.132 212.917C414.615 212.129 414.284 211.239 414.165 210.312C414.165 210.312 415.615 211.719 416.528 212.396C417.441 213.073 420.664 214.583 420.932 213.802C421.201 213.021 419.751 212.187 418.408 210.99C417.065 209.792 415.615 207.396 415.293 206.979C414.971 206.562 415.884 202.917 414.433 200.469C412.983 198.021 412.124 197.031 411.748 195.365C411.372 193.698 404.712 195.677 404.551 196.875Z" fill="#F4C2C9"/>
<path d="M370.981 126.458C370.981 126.458 377.104 125.885 384.463 134.844C391.821 143.802 399.072 151.302 401.113 154.844C403.154 158.385 407.666 171.667 409.922 182.135C412.178 192.604 412.392 194.479 412.339 195.625C412.285 196.667 406.86 198.125 403.315 198.073C403.004 198.079 402.698 197.992 402.439 197.825C402.179 197.657 401.979 197.417 401.865 197.135C400.469 193.958 395.581 183.125 393.647 179.167C391.391 174.531 388.76 167.656 388.437 167.187C388.115 166.719 373.452 152.24 370.713 148.437C367.974 144.635 365.342 138.49 365.932 133.073C366.577 127.187 369.692 126.406 370.981 126.458Z" fill="#414141"/>
<path d="M400.361 153.646C400.361 153.646 398.696 151.406 396.601 153.437C394.399 155.573 395.366 160.208 398.428 163.125C400.952 165.521 404.551 164.531 404.228 162.292" stroke="#22272E" stroke-width="1.8" stroke-linecap="round" stroke-linejoin="round"/>
<path d="M411.587 193.125C410.137 193.802 405.786 195.677 401.543 195.156" stroke="#22272E" stroke-width="1.8" stroke-linecap="round" stroke-linejoin="round"/>
<path d="M270.972 207.917L261.948 179.271C261.817 178.889 261.564 178.558 261.226 178.324C260.889 178.09 260.483 177.966 260.068 177.969L206.68 179.427C206.472 179.429 206.268 179.478 206.082 179.569C205.897 179.66 205.736 179.791 205.611 179.952C205.486 180.113 205.402 180.3 205.364 180.498C205.325 180.696 205.335 180.9 205.391 181.094L215.864 216.042C215.991 216.468 216.273 216.836 216.659 217.075C217.044 217.315 217.506 217.41 217.959 217.344L269.79 209.583C269.991 209.573 270.187 209.518 270.363 209.422C270.539 209.327 270.69 209.193 270.804 209.032C270.918 208.871 270.993 208.687 271.022 208.493C271.051 208.3 271.034 208.103 270.972 207.917Z" fill="#22272E"/>
<path d="M271.455 209.375L302.5 212.187L249.272 224.896C247.985 225.209 246.639 225.209 245.352 224.896L216.455 217.656L271.455 209.375Z" fill="#63737A"/>
<path d="M249.219 224.896L302.446 212.188C302.443 212.664 302.278 213.126 301.977 213.502C301.676 213.879 301.256 214.149 300.781 214.271L250.615 227.188C248.498 227.726 246.268 227.69 244.17 227.083L217.852 219.583C217.411 219.461 217.024 219.2 216.752 218.842C216.48 218.484 216.338 218.049 216.348 217.604L245.244 224.844C246.541 225.199 247.912 225.217 249.219 224.896Z" fill="#22272E"/>
<path d="M235.899 184.323L239.658 196.719C239.713 196.87 239.815 197.001 239.95 197.094C240.084 197.187 240.245 197.238 240.41 197.24L261.519 195.469C261.625 195.461 261.728 195.43 261.821 195.379C261.914 195.328 261.994 195.258 262.056 195.173C262.117 195.089 262.159 194.992 262.177 194.89C262.196 194.788 262.191 194.683 262.163 194.583L258.618 183.229C258.575 183.081 258.483 182.951 258.358 182.857C258.232 182.764 258.079 182.711 257.92 182.708L236.597 183.438C236.487 183.441 236.379 183.468 236.281 183.517C236.183 183.565 236.098 183.635 236.031 183.719C235.964 183.804 235.917 183.902 235.894 184.007C235.872 184.111 235.873 184.219 235.899 184.323Z" fill="white"/>
<path d="M239.927 186.562L242.29 194.01L258.726 192.865L258.135 191.198L252.065 188.594L248.628 191.198L239.927 186.562Z" fill="#F4C2C9"/>
<path d="M252.227 201.771L253.784 206.458C253.839 206.616 253.951 206.75 254.098 206.836C254.246 206.922 254.42 206.954 254.59 206.927L264.741 205.625C264.845 205.615 264.946 205.583 265.035 205.53C265.125 205.478 265.201 205.406 265.258 205.321C265.315 205.236 265.351 205.139 265.364 205.039C265.377 204.938 265.366 204.836 265.332 204.74L263.989 200.365C263.934 200.213 263.832 200.082 263.698 199.989C263.563 199.896 263.403 199.845 263.237 199.844L252.871 200.885C252.76 200.881 252.65 200.904 252.55 200.952C252.451 200.999 252.365 201.07 252.301 201.158C252.237 201.246 252.196 201.348 252.183 201.455C252.17 201.562 252.185 201.671 252.227 201.771Z" fill="#FFD600"/>
<path d="M236.328 203.333L238.047 208.489C238.102 208.648 238.213 208.782 238.361 208.868C238.509 208.953 238.683 208.986 238.853 208.958L248.521 207.708C248.629 207.695 248.732 207.658 248.823 207.601C248.915 207.544 248.992 207.467 249.049 207.377C249.105 207.287 249.14 207.186 249.151 207.081C249.162 206.976 249.149 206.87 249.111 206.771L247.5 201.927C247.451 201.776 247.349 201.646 247.212 201.561C247.074 201.475 246.91 201.439 246.748 201.458L236.973 202.396C236.86 202.402 236.75 202.433 236.652 202.487C236.554 202.541 236.471 202.617 236.408 202.708C236.346 202.799 236.306 202.903 236.292 203.011C236.278 203.12 236.29 203.23 236.328 203.333Z" fill="#414141"/>
<path d="M218.067 205.104L219.893 210.833C219.948 210.991 220.059 211.125 220.207 211.211C220.354 211.297 220.529 211.329 220.698 211.302L232.354 209.792C232.462 209.778 232.565 209.742 232.656 209.684C232.748 209.627 232.825 209.551 232.882 209.461C232.938 209.371 232.973 209.269 232.984 209.164C232.995 209.059 232.982 208.953 232.944 208.854L231.172 203.49C231.123 203.338 231.021 203.209 230.883 203.123C230.746 203.038 230.582 203.001 230.42 203.021L218.765 204.167C218.649 204.169 218.536 204.197 218.433 204.249C218.331 204.301 218.242 204.376 218.175 204.467C218.107 204.557 218.062 204.662 218.043 204.773C218.024 204.884 218.032 204.997 218.067 205.104Z" fill="#F4C2C9"/>
<path d="M224.351 186.823C224.562 187.6 225.038 188.285 225.701 188.767C226.363 189.249 227.175 189.5 228.003 189.479C229.561 189.375 230.366 188.073 229.936 186.615C229.699 185.919 229.247 185.312 228.642 184.874C228.037 184.436 227.307 184.189 226.553 184.167C226.211 184.153 225.871 184.218 225.56 184.355C225.249 184.492 224.975 184.698 224.761 184.957C224.547 185.215 224.398 185.518 224.327 185.842C224.256 186.166 224.264 186.502 224.351 186.823Z" fill="#FFD600"/>
<path d="M220.537 185.104L212.695 185.365" stroke="#63737A" stroke-width="1.8" stroke-linecap="round" stroke-linejoin="round"/>
<path d="M232.783 195L215.972 196.146" stroke="#63737A" stroke-width="1.8" stroke-linecap="round" stroke-linejoin="round"/>
<path d="M221.45 188.177L213.608 188.49" stroke="#63737A" stroke-width="1.8" stroke-linecap="round" stroke-linejoin="round"/>
<path d="M178.428 110.365L219.248 113.437C219.492 113.453 219.737 113.417 219.965 113.334C220.194 113.25 220.402 113.12 220.574 112.953C220.747 112.785 220.881 112.584 220.967 112.362C221.054 112.14 221.09 111.903 221.074 111.667L219.356 88.802C219.307 88.1391 219.024 87.5127 218.554 87.0288C218.085 86.5448 217.457 86.2329 216.777 86.1458L175.313 80.677C175.06 80.6465 174.804 80.6705 174.563 80.7472C174.321 80.8239 174.1 80.9514 173.915 81.1206C173.731 81.2898 173.587 81.4965 173.494 81.726C173.401 81.9555 173.362 82.202 173.379 82.4479L175.688 107.76C175.766 108.434 176.081 109.061 176.58 109.535C177.079 110.01 177.732 110.303 178.428 110.365Z" fill="#414141"/>
<path d="M179.771 109.531L220.591 112.604C220.835 112.62 221.079 112.584 221.308 112.501C221.537 112.417 221.744 112.287 221.917 112.12C222.09 111.952 222.224 111.751 222.31 111.529C222.396 111.307 222.433 111.07 222.417 110.833L220.698 87.9688C220.65 87.3058 220.367 86.6795 219.897 86.1955C219.427 85.7115 218.8 85.3996 218.12 85.3125L176.655 79.8438C176.403 79.8133 176.147 79.8372 175.906 79.9139C175.664 79.9906 175.443 80.1181 175.258 80.2873C175.073 80.4566 174.929 80.6633 174.837 80.8928C174.744 81.1222 174.705 81.3687 174.722 81.6146L177.031 106.927C177.09 107.607 177.399 108.245 177.902 108.723C178.405 109.201 179.068 109.488 179.771 109.531Z" fill="#8F8F8F"/>
<path d="M206.948 94.2187C207.024 94.9968 207.367 95.7277 207.922 96.2943C208.477 96.861 209.212 97.2305 210.01 97.3437C210.359 97.3881 210.714 97.354 211.048 97.2441C211.382 97.1342 211.685 96.9513 211.934 96.7097C212.183 96.4681 212.372 96.1741 212.485 95.8506C212.599 95.527 212.634 95.1825 212.588 94.8437C212.524 94.07 212.192 93.3401 211.646 92.7727C211.1 92.2053 210.372 91.8338 209.58 91.7187C207.969 91.5104 206.841 92.6562 206.948 94.2187Z" fill="#22272E"/>
<path d="M207.754 104.167L213.34 104.687C213.62 104.717 213.903 104.684 214.168 104.591C214.433 104.499 214.673 104.349 214.87 104.153C215.066 103.958 215.215 103.721 215.303 103.462C215.392 103.202 215.418 102.927 215.381 102.656C215.243 101.275 214.635 99.9779 213.652 98.9689C212.67 97.9599 211.37 97.2965 209.956 97.0833C207.163 96.7708 205.014 98.8541 205.283 101.719C205.351 102.337 205.632 102.914 206.08 103.358C206.529 103.802 207.118 104.087 207.754 104.167Z" fill="#22272E"/>
<path d="M200.342 91.4063L182.939 89.4271" stroke="#63737A" stroke-width="1.8" stroke-linecap="round" stroke-linejoin="round"/>
<path d="M200.771 96.0417L183.369 94.2188" stroke="#63737A" stroke-width="1.8" stroke-linecap="round" stroke-linejoin="round"/>
<path d="M201.147 100.677L190.674 99.6875" stroke="#63737A" stroke-width="1.8" stroke-linecap="round" stroke-linejoin="round"/>
<path d="M224.727 69.7396C226.821 67.7083 229.775 66.5104 233.428 66.0938C235.852 65.7469 238.329 66.0719 240.571 67.0312C243.149 68.125 245.083 70.0521 246.533 72.8646L248.95 73.8542L247.554 75.2604L241.27 76.3542C240.837 75.0357 240.081 73.8384 239.067 72.8646C237.993 71.8229 236.543 71.4063 234.717 71.6667C232.891 71.9271 231.655 72.6042 231.172 73.6979C230.689 74.8048 230.631 76.0432 231.011 77.1875C231.337 78.2572 231.97 79.2147 232.837 79.9479C233.381 80.4183 233.997 80.8048 234.663 81.0937L236.812 82.1354C238.906 83.125 240.303 84.0625 241.001 85C241.694 86.0414 242.253 87.1608 242.666 88.3333L244.814 89.0104L243.418 90.4167L236.973 92.1354C236.724 91.13 236.326 90.165 235.791 89.2708C235.145 88.2949 234.208 87.5321 233.105 87.0833L230.903 86.0938C229.18 85.3926 227.556 84.4826 226.069 83.3854C224.418 82.023 223.268 80.1767 222.793 78.125C221.88 74.6875 222.524 71.875 224.727 69.7396Z" fill="#FFE779"/>
<path d="M241.162 94.1667L241.377 94.1146C241.843 93.9985 242.328 93.9741 242.803 94.0429C243.279 94.1117 243.736 94.2722 244.146 94.515C244.557 94.7577 244.913 95.0778 245.194 95.4563C245.475 95.8348 245.674 96.2641 245.781 96.7187C246.084 97.6384 246.014 98.6353 245.585 99.5063C245.155 100.377 244.4 101.057 243.472 101.406L243.257 101.51C241.323 102.135 239.282 100.99 238.692 98.9063C238.101 96.8229 239.229 94.6875 241.162 94.1667Z" fill="#FFE779"/>
<path d="M241.914 65.625C239.657 64.7159 237.195 64.3928 234.77 64.6875C231.118 65.1042 228.218 66.3021 226.069 68.3334C223.921 70.3646 223.223 73.2813 224.189 76.823C224.678 78.8692 225.826 80.7115 227.466 82.0834C228.379 82.8646 229.99 83.7501 232.3 84.7917L234.502 85.7813C235.605 86.2301 236.541 86.9929 237.187 87.9688C237.69 88.8782 238.086 89.839 238.369 90.8334L244.814 89.1146C243.901 86.4063 243.149 84.6355 242.397 83.698C241.646 82.7605 240.303 81.823 238.208 80.8334L236.06 79.7917C235.398 79.4961 234.783 79.1102 234.233 78.6459C233.338 77.9367 232.699 76.9701 232.407 75.8855C232.081 74.7348 232.137 73.5136 232.568 72.3959C232.998 71.3021 234.233 70.6251 236.113 70.3646C237.993 70.1042 239.39 70.5209 240.464 71.5625C241.499 72.5195 242.259 73.7225 242.666 75.0521L248.95 73.9584C247.446 69.7396 245.19 67.0313 241.914 65.625ZM242.612 93.3334L242.397 93.3855C241.438 93.7024 240.644 94.3689 240.183 95.2438C239.722 96.1188 239.63 97.1335 239.927 98.073C240.518 100.156 242.612 101.302 244.492 100.677L244.707 100.573C245.635 100.224 246.391 99.5441 246.82 98.673C247.249 97.802 247.319 96.8051 247.017 95.8855C246.781 94.9811 246.185 94.2044 245.359 93.7259C244.533 93.2474 243.545 93.1062 242.612 93.3334Z" fill="#FFD600"/>
<path d="M388.062 97.7604H367.437L365.342 99.0624C365.189 99.1584 365.011 99.2124 364.829 99.2185C364.647 99.2247 364.466 99.1828 364.306 99.0973C364.146 99.0118 364.013 98.8859 363.922 98.7331C363.83 98.5802 363.782 98.406 363.784 98.2291V84.1145C363.784 83.4239 364.067 82.7615 364.571 82.2731C365.074 81.7847 365.757 81.5104 366.47 81.5104H388.062C388.774 81.5104 389.457 81.7847 389.96 82.2731C390.464 82.7615 390.747 83.4239 390.747 84.1145V95.1562C390.747 95.8469 390.464 96.5092 389.96 96.9976C389.457 97.486 388.774 97.7604 388.062 97.7604Z" fill="#F4C2C9"/>
<path d="M370.444 86.1459H384.194" stroke="#22272E" stroke-width="1.8" stroke-linecap="round" stroke-linejoin="round"/>
<path d="M370.444 89.7916H384.194" stroke="#22272E" stroke-width="1.8" stroke-linecap="round" stroke-linejoin="round"/>
<path d="M370.444 93.4375H378.34" stroke="#22272E" stroke-width="1.8" stroke-linecap="round" stroke-linejoin="round"/>
</svg>
