<?xml version="1.0" encoding="UTF-8"?><svg xmlns="http://www.w3.org/2000/svg" xmlns:xlink="http://www.w3.org/1999/xlink" width="375" zoomAndPan="magnify" viewBox="0 0 375 374.999991" height="374.999991" preserveAspectRatio="xMidYMid meet" version="1.0"><defs><clipPath id="clip-0"><path d="M 112.5 112.5 L 262.5 112.5 L 262.5 262.5 L 112.5 262.5 Z M 112.5 112.5 " clip-rule="nonzero"/></clipPath></defs><g clip-path="url(#clip-0)"><path fill="rgb(100%, 100%, 100%)" d="M 187.5 126.015625 C 207.527344 126.015625 209.898438 126.089844 217.804688 126.449219 C 225.117188 126.785156 229.089844 128.007812 231.734375 129.03125 C 235.234375 130.394531 237.730469 132.019531 240.355469 134.644531 C 242.980469 137.269531 244.605469 139.765625 245.964844 143.265625 C 246.992188 145.910156 248.214844 149.882812 248.550781 157.195312 C 248.910156 165.101562 248.984375 167.472656 248.984375 187.5 C 248.984375 207.527344 248.910156 209.898438 248.550781 217.804688 C 248.214844 225.117188 246.992188 229.089844 245.964844 231.734375 C 244.605469 235.234375 242.980469 237.730469 240.355469 240.355469 C 237.730469 242.980469 235.234375 244.605469 231.734375 245.96875 C 229.089844 246.992188 225.117188 248.214844 217.804688 248.550781 C 209.898438 248.910156 207.527344 248.988281 187.5 248.988281 C 167.472656 248.988281 165.101562 248.910156 157.195312 248.550781 C 149.882812 248.214844 145.910156 246.992188 143.265625 245.96875 C 139.765625 244.605469 137.269531 242.980469 134.644531 240.355469 C 132.019531 237.730469 130.394531 235.234375 129.03125 231.734375 C 128.007812 229.089844 126.785156 225.117188 126.449219 217.808594 C 126.089844 209.898438 126.011719 207.527344 126.011719 187.5 C 126.011719 167.472656 126.089844 165.101562 126.449219 157.195312 C 126.785156 149.882812 128.007812 145.910156 129.03125 143.265625 C 130.394531 139.765625 132.019531 137.269531 134.644531 134.644531 C 137.269531 132.019531 139.765625 130.394531 143.265625 129.03125 C 145.910156 128.007812 149.882812 126.785156 157.191406 126.449219 C 165.101562 126.089844 167.472656 126.015625 187.5 126.015625 M 187.5 112.5 C 167.132812 112.5 164.578125 112.585938 156.578125 112.953125 C 148.59375 113.316406 143.144531 114.582031 138.371094 116.4375 C 133.441406 118.355469 129.257812 120.917969 125.089844 125.089844 C 120.917969 129.257812 118.355469 133.441406 116.4375 138.371094 C 114.582031 143.144531 113.316406 148.59375 112.949219 156.578125 C 112.585938 164.578125 112.5 167.132812 112.5 187.5 C 112.5 207.867188 112.585938 210.421875 112.949219 218.421875 C 113.316406 226.40625 114.582031 231.855469 116.4375 236.628906 C 118.355469 241.558594 120.917969 245.742188 125.089844 249.910156 C 129.257812 254.082031 133.441406 256.644531 138.371094 258.5625 C 143.144531 260.417969 148.59375 261.683594 156.578125 262.050781 C 164.578125 262.414062 167.132812 262.5 187.5 262.5 C 207.867188 262.5 210.421875 262.414062 218.421875 262.050781 C 226.40625 261.683594 231.855469 260.417969 236.628906 258.5625 C 241.558594 256.644531 245.742188 254.082031 249.910156 249.910156 C 254.082031 245.742188 256.644531 241.558594 258.5625 236.628906 C 260.417969 231.855469 261.683594 226.40625 262.046875 218.421875 C 262.414062 210.421875 262.5 207.867188 262.5 187.5 C 262.5 167.132812 262.414062 164.578125 262.046875 156.578125 C 261.683594 148.59375 260.417969 143.144531 258.5625 138.371094 C 256.644531 133.441406 254.082031 129.257812 249.910156 125.089844 C 245.742188 120.917969 241.558594 118.355469 236.628906 116.4375 C 231.855469 114.582031 226.40625 113.316406 218.421875 112.953125 C 210.421875 112.585938 207.867188 112.5 187.5 112.5 Z M 187.5 148.988281 C 166.230469 148.988281 148.984375 166.230469 148.984375 187.5 C 148.984375 208.769531 166.230469 226.015625 187.5 226.015625 C 208.769531 226.015625 226.011719 208.769531 226.011719 187.5 C 226.011719 166.230469 208.769531 148.988281 187.5 148.988281 Z M 187.5 212.5 C 173.691406 212.5 162.5 201.308594 162.5 187.5 C 162.5 173.691406 173.691406 162.5 187.5 162.5 C 201.308594 162.5 212.5 173.691406 212.5 187.5 C 212.5 201.308594 201.308594 212.5 187.5 212.5 Z M 236.535156 147.464844 C 236.535156 152.433594 232.503906 156.464844 227.535156 156.464844 C 222.566406 156.464844 218.535156 152.433594 218.535156 147.464844 C 218.535156 142.496094 222.566406 138.464844 227.535156 138.464844 C 232.503906 138.464844 236.535156 142.496094 236.535156 147.464844 Z M 236.535156 147.464844 " fill-opacity="1" fill-rule="nonzero"/></g></svg>