<svg width="663" height="705" viewBox="0 0 663 705" fill="none" xmlns="http://www.w3.org/2000/svg">
<path d="M411.268 569.42C427.52 550.694 439.455 528.642 446.341 504.616C453.228 480.589 454.921 455.095 451.317 429.696C443.748 377.335 456.495 325.47 487.007 284.474L506.049 258.811C510.994 251.963 512.867 243.302 511.268 234.68C509.668 226.057 504.723 218.157 497.49 212.667L417.075 152.998C409.724 147.671 400.732 145.231 392.019 146.201C383.305 147.171 375.562 151.474 370.443 158.19L351.4 183.853C320.921 224.929 274.983 252.237 223.253 259.356C176.355 266.183 135.131 290.501 107.997 327.348C45.9717 410.938 72.3894 535.157 167.456 596.593C247.154 648.906 352.424 637.197 411.268 569.42Z" fill="#FFD600"/>
<path d="M512.122 155.566C508.79 160.061 504.302 163.543 499.228 165.572C494.153 167.602 488.719 168.087 483.613 166.967C478.507 165.846 473.959 163.171 470.542 159.279C467.126 155.387 464.996 150.452 464.421 145.1C463.847 139.748 464.853 134.219 467.314 129.211C469.775 124.204 473.579 119.943 478.245 116.968C482.912 113.994 488.231 112.438 493.53 112.499C498.829 112.559 503.869 114.233 508.015 117.309C510.796 119.326 513.112 121.924 514.828 124.949C516.543 127.975 517.624 131.369 518.007 134.931C518.389 138.493 518.066 142.153 517.055 145.696C516.045 149.239 514.368 152.595 512.122 155.566Z" fill="#263238"/>
<path d="M404 146.786L509.96 225.409" stroke="#22272E" stroke-width="11.76" stroke-linecap="round" stroke-linejoin="round"/>
<path d="M420.849 124.079L526.809 202.703" stroke="#22272E" stroke-width="11.76" stroke-linecap="round" stroke-linejoin="round"/>
</svg>
