<svg width="365" height="568" viewBox="0 0 365 568" fill="none" xmlns="http://www.w3.org/2000/svg">
<path d="M0.464833 403.832C-1.31439 379.625 2.02793 355.321 10.2868 332.41C18.5457 309.499 31.5471 288.465 48.4939 270.596C83.5354 233.839 102.964 185.619 102.894 135.58V104.29C102.997 96.0199 106.434 88.1168 112.471 82.2699C118.508 76.4229 126.666 73.0959 135.201 73H229.324C237.856 73.0994 246.01 76.428 252.044 82.2746C258.078 88.1212 261.513 96.0223 261.616 104.29V135.58C261.616 185.663 280.997 233.94 316.058 269.72C347.636 302.451 365.133 345.626 364.977 390.431C364.977 492.35 275.46 574.613 169.287 567.454C79.8259 562.089 6.92051 491.46 0.464833 403.832Z" fill="#FFD600"/>
<path d="M248.269 73.4954L121 73.4954" stroke="#22272E" stroke-width="11.76" stroke-linecap="round" stroke-linejoin="round"/>
<path d="M159.47 24.2628C159.467 29.0639 160.942 33.7578 163.706 37.7508C166.471 41.7438 170.401 44.8565 175 46.6953C179.599 48.5341 184.66 49.0163 189.544 48.081C194.427 47.1457 198.913 44.8349 202.434 41.4407C205.956 38.0466 208.354 33.7217 209.326 29.0131C210.298 24.3044 209.8 19.4235 207.896 14.9876C205.991 10.5518 202.765 6.76033 198.625 4.09277C194.486 1.4252 189.619 0.00136346 184.64 0.00136297C181.326 -0.0307407 178.039 0.574778 174.971 1.78252C171.903 2.99027 169.116 4.77597 166.772 7.03513C164.428 9.29429 162.575 11.9816 161.321 14.9396C160.067 17.8977 159.438 21.0673 159.47 24.2628Z" fill="#263238"/>
<path d="M248.269 49.2341H121" stroke="#22272E" stroke-width="11.76" stroke-linecap="round" stroke-linejoin="round"/>
</svg>
