<?xml version="1.0" encoding="UTF-8"?><svg xmlns="http://www.w3.org/2000/svg" xmlns:xlink="http://www.w3.org/1999/xlink" width="375" zoomAndPan="magnify" viewBox="0 0 375 374.999991" height="374.999991" preserveAspectRatio="xMidYMid meet" version="1.0"><defs><clipPath id="clip-0"><path d="M 112.5 112.5 L 262.5 112.5 L 262.5 262.5 L 112.5 262.5 Z M 112.5 112.5 " clip-rule="nonzero"/></clipPath></defs><g clip-path="url(#clip-0)"><path fill="rgb(100%, 100%, 100%)" d="M 132.78125 112.5 C 121.648438 112.5 112.5 121.648438 112.5 132.78125 L 112.5 242.261719 C 112.5 253.351562 121.648438 262.5 132.78125 262.5 L 242.261719 262.5 C 253.351562 262.5 262.5 253.351562 262.5 242.261719 L 262.5 132.78125 C 262.5 121.648438 253.351562 112.5 242.261719 112.5 Z M 132.78125 124.039062 L 242.261719 124.039062 C 247.128906 124.039062 250.960938 127.871094 250.960938 132.78125 L 250.960938 242.261719 C 250.960938 247.128906 247.128906 250.960938 242.261719 250.960938 L 132.78125 250.960938 C 127.871094 250.960938 124.039062 247.128906 124.039062 242.261719 L 124.039062 132.78125 C 124.039062 127.871094 127.871094 124.039062 132.78125 124.039062 Z M 147.117188 135.578125 C 140.761719 135.578125 135.578125 140.761719 135.578125 147.117188 C 135.578125 153.46875 140.761719 158.652344 147.117188 158.652344 C 153.46875 158.652344 158.652344 153.46875 158.652344 147.117188 C 158.652344 140.761719 153.46875 135.578125 147.117188 135.578125 Z M 135.578125 170.191406 L 135.578125 239.421875 L 158.652344 239.421875 L 158.652344 170.191406 Z M 170.191406 170.191406 L 170.191406 239.421875 L 193.269531 239.421875 L 193.269531 208.503906 C 193.269531 198.902344 194.171875 190.292969 205.710938 190.292969 C 217.066406 190.292969 216.347656 200.617188 216.347656 209.132812 L 216.347656 239.421875 L 239.421875 239.421875 L 239.421875 205.257812 C 239.421875 185.425781 235.277344 170.191406 212.785156 170.191406 C 201.96875 170.191406 196.515625 174.519531 193.539062 180.289062 L 193.269531 180.289062 L 193.269531 170.191406 Z M 170.191406 170.191406 " fill-opacity="1" fill-rule="nonzero"/></g></svg>