<?xml version="1.0" encoding="UTF-8"?><svg xmlns="http://www.w3.org/2000/svg" xmlns:xlink="http://www.w3.org/1999/xlink" width="375" zoomAndPan="magnify" viewBox="0 0 375 374.999991" height="374.999991" preserveAspectRatio="xMidYMid meet" version="1.0"><defs><clipPath id="clip-0"><path d="M 112.5 112.5 L 262.5 112.5 L 262.5 262.5 L 112.5 262.5 Z M 112.5 112.5 " clip-rule="nonzero"/></clipPath></defs><g clip-path="url(#clip-0)"><path fill="rgb(100%, 100%, 100%)" d="M 262.5 187.5 C 262.5 228.9375 228.9375 262.5 187.5 262.5 C 146.0625 262.5 112.5 228.9375 112.5 187.5 C 112.5 146.0625 146.0625 112.5 187.5 112.5 C 228.9375 112.5 262.5 146.0625 262.5 187.5 Z M 173.773438 227.0625 C 207.039062 227.0625 225.226562 199.5 225.226562 175.613281 C 225.226562 174.824219 225.226562 174.039062 225.1875 173.289062 C 228.710938 170.738281 231.789062 167.550781 234.226562 163.914062 C 231 165.335938 227.511719 166.3125 223.835938 166.761719 C 227.585938 164.511719 230.4375 160.988281 231.789062 156.75 C 228.300781 158.8125 224.4375 160.3125 220.3125 161.136719 C 217.011719 157.613281 212.324219 155.4375 207.113281 155.4375 C 197.136719 155.4375 189.039062 163.539062 189.039062 173.511719 C 189.039062 174.9375 189.1875 176.324219 189.523438 177.636719 C 174.488281 176.886719 161.175781 169.6875 152.25 158.738281 C 150.710938 161.398438 149.8125 164.511719 149.8125 167.8125 C 149.8125 174.074219 153 179.625 157.875 182.851562 C 154.914062 182.773438 152.136719 181.949219 149.699219 180.601562 C 149.699219 180.675781 149.699219 180.75 149.699219 180.824219 C 149.699219 189.601562 155.925781 196.875 164.210938 198.5625 C 162.710938 198.976562 161.101562 199.199219 159.449219 199.199219 C 158.289062 199.199219 157.164062 199.085938 156.039062 198.863281 C 158.324219 206.0625 165 211.273438 172.914062 211.425781 C 166.726562 216.261719 158.925781 219.148438 150.449219 219.148438 C 148.988281 219.148438 147.5625 219.074219 146.136719 218.886719 C 154.050781 224.0625 163.574219 227.0625 173.773438 227.0625 " fill-opacity="1" fill-rule="nonzero"/></g></svg>